/* XPM */
static char *ac9b49756a6f450f900b91deb2d9dadbnlFXcYdKdCu1YSPH_0[] = {
/* columns rows colors chars-per-pixel */
"64 64 256 2 ",
"   c None",
".  c #36653F",
"X  c #24733D",
"o  c #297E3B",
"O  c #277A3B",
"+  c #38773B",
"@  c #226F3E",
"#  c #000C5D",
"$  c #11075C",
"%  c #03115C",
"&  c #051D5B",
"*  c #0A175C",
"=  c #16175E",
"-  c #2A015C",
";  c #2B0B5C",
":  c #340A5E",
">  c #350B5E",
",  c #2B135D",
"<  c #2C1D5D",
"1  c #291559",
"2  c #3B125F",
"3  c #0F394F",
"4  c #103C4E",
"5  c #092656",
"6  c #0A2C53",
"7  c #08245C",
"8  c #0C2B5D",
"9  c #072256",
"0  c #132D58",
"q  c #0F325E",
"w  c #0D3551",
"e  c #133B5E",
"r  c #133857",
"t  c #30364D",
"y  c #2C245D",
"u  c #2D2A5B",
"i  c #2D355D",
"p  c #2D3C5E",
"a  c #271A60",
"s  c #331E60",
"d  c #3C1660",
"f  c #123861",
"g  c #382560",
"h  c #2D3D60",
"j  c #303160",
"k  c #441B60",
"l  c #432361",
"z  c #4C2562",
"x  c #4C2A62",
"c  c #493462",
"v  c #463C62",
"b  c #483862",
"n  c #154B4A",
"m  c #15474C",
"M  c #1A5647",
"N  c #185248",
"B  c #1E5D47",
"V  c #164452",
"C  c #1A4B56",
"Z  c #16445D",
"A  c #18465E",
"S  c #194A5F",
"D  c #184854",
"F  c #1C535E",
"G  c #1B5354",
"H  c #335649",
"J  c #2E475F",
"K  c #2F4B5C",
"L  c #304153",
"P  c #295A59",
"I  c #305457",
"U  c #2F4A4C",
"Y  c #1F6443",
"T  c #226847",
"R  c #356844",
"E  c #25685A",
"W  c #3D645D",
"Q  c #30685F",
"!  c #326A58",
"~  c #2E7A5A",
"^  c #297554",
"/  c #377655",
"(  c #30774B",
")  c #174360",
"_  c #1A4660",
"`  c #194960",
"'  c #1D5261",
"]  c #2E4D60",
"[  c #2E4560",
"{  c #354661",
"}  c #225C61",
"|  c #2F5861",
" . c #3D5662",
".. c #365A62",
"X. c #246161",
"o. c #2C6C62",
"O. c #256961",
"+. c #3A6462",
"@. c #306B61",
"#. c #396962",
"$. c #2B7361",
"%. c #2F7B62",
"&. c #347362",
"*. c #317E62",
"=. c #4A5350",
"-. c #465051",
";. c #467A58",
":. c #434562",
">. c #414B62",
",. c #405362",
"<. c #2E8D36",
"1. c #2A8339",
"2. c #2C8838",
"3. c #35863B",
"4. c #2F9034",
"5. c #309433",
"6. c #3B9332",
"7. c #339B32",
"8. c #36993C",
"9. c #3C9C2F",
"0. c #36A42E",
"q. c #3EA52D",
"w. c #39AC2D",
"e. c #3FBC27",
"r. c #3DB52C",
"t. c #3FBA2C",
"y. c #3CAC35",
"u. c #3BA53C",
"i. c #3BAB3B",
"p. c #3BA234",
"a. c #3DB333",
"s. c #44893E",
"d. c #40BE26",
"f. c #40BD2A",
"g. c #46A838",
"h. c #42BA33",
"j. c #48B53A",
"k. c #58B239",
"l. c #42C325",
"z. c #46C926",
"x. c #49CD26",
"c. c #43C228",
"v. c #49C72D",
"b. c #4BCC29",
"n. c #4DD226",
"m. c #4ED328",
"M. c #50D627",
"N. c #53D927",
"B. c #51D629",
"V. c #55DB29",
"C. c #59DE2B",
"Z. c #4CC636",
"A. c #53CC3C",
"S. c #52C038",
"D. c #56D336",
"F. c #5BD53E",
"G. c #5FDC3B",
"H. c #5EDB32",
"J. c #51CF2D",
"K. c #60DE3A",
"L. c #5BE329",
"P. c #5FE82A",
"I. c #5BE627",
"U. c #62ED2B",
"Y. c #66F22B",
"T. c #69F52C",
"R. c #6EFC2D",
"E. c #70FF2D",
"W. c #63E532",
"Q. c #66EB33",
"!. c #68EE33",
"~. c #62E239",
"^. c #6AF331",
"/. c #2E854B",
"(. c #35854C",
"). c #358C4D",
"_. c #378946",
"`. c #339445",
"'. c #3E9244",
"]. c #389D45",
"[. c #37994B",
"{. c #389C4A",
"}. c #36964C",
"|. c #2E8150",
" X c #348D55",
".X c #32835D",
"XX c #348A5A",
"oX c #388E5C",
"OX c #378457",
"+X c #359253",
"@X c #3A9554",
"#X c #3A935A",
"$X c #3D9C55",
"%X c #3AA343",
"&X c #318162",
"*X c #459842",
"=X c #409E55",
"-X c #5F9D46",
";X c #46AD4E",
":X c #48AF4E",
">X c #42A744",
",X c #4AB34D",
"<X c #4EBB49",
"1X c #49B747",
"2X c #50BE47",
"3X c #43A353",
"4X c #46AA50",
"5X c #4EC240",
"6X c #52C346",
"7X c #56CB42",
"8X c #58CE41",
"9X c #5AD240",
"0X c black",
"qX c black",
"wX c black",
"eX c black",
"rX c black",
"tX c black",
"yX c black",
"uX c black",
"iX c black",
"pX c black",
"aX c black",
"sX c black",
"dX c black",
"fX c black",
"gX c black",
"hX c black",
"jX c black",
"kX c black",
"lX c black",
"zX c black",
"xX c black",
"cX c black",
"vX c black",
"bX c black",
"nX c black",
"mX c black",
"MX c black",
"NX c black",
"BX c black",
"VX c black",
"CX c black",
"ZX c black",
"AX c black",
"SX c black",
"DX c black",
"FX c black",
"GX c black",
"HX c black",
"JX c black",
"KX c black",
"LX c black",
"PX c black",
"IX c black",
"UX c black",
/* pixels */
"                                                                                                                                ",
"                                                                                                                                ",
"                                                                                                                                ",
"                                                                            &XoX#X#X#X&X                                        ",
"                                                                        &X&XG.^.!.!.^.7X&X&X                                    ",
"                                                                      :XK.9X^.E.E.R.E.^.G.9X4X                                  ",
"                                                                    3X8XR.U.U.U.U.U.P.P.Y.R.7X$X                                ",
"                                                                  #XG.R.U.c.z.z.z.z.x.z.z.T.R.9X#X                              ",
"                                                                =XQ.R.L.l.l.P.T.T.T.R.L.l.z.P.R.G.#X                            ",
"                                                            *.:X~.R.L.z.z.P.R.E.E.E.E.T.I.l.x.Z.,XF.4X                          ",
"                                                            *.<XR.U.z.z.L.R.Y.U.P.U.U.Y.T.z.l.8.^ H.;X%.                        ",
"                                                            oX6XU.l.c.L.R.T.b.e.t.t.c.m.Y.z.z.2.6 7.{.&X                        ",
"                                                          &X~.C.l.l.P.R.Y.z.l.i.XXXXa.l.z.l.I.g.% 9 o i.&X                      ",
"                                                          XXQ.L.l.l.U.E.U.l.i.! j h OXy.l.I.F.%XY & V T &X                      ",
"                                                          :X!.I.l.m.Y.T.L.d./ u - : { (.c.k./ ( 8.9 # 8 +.                      ",
"                                                      *.=XT.R.V.n.R.R.C.l.f.t - ; z z =.q.1 $ e $.7 % = z                       ",
"                                                      *.=X^.M.z.n.R.N.z.r.+Xu > z z = U q.; $ f .X5.m = z                       ",
"                                                      ,XA.C.z.d.z.N.z.l.p.p ; 2 z z = n e.+ 0 D 7XL.j.*X-XOX                    ",
"                                                    &X8XY.l.l.l.l.l.l.l.6.- - 2 z < 4 X l.n.3.'.E.U.U.U.Q.,X$X                  ",
"                                                    &XA.U.z.l.d.l.l.l.l.6.; - 2 l * <.z.x.T.R.R.Y.z.c.f.c.Y.,X%.                ",
"                                                  XX9XD.z.l.l.l.x.U.x.l.6.- - 2 l * j.Y.T.R.L.x.x.c.%X+X@XQ.,X&X                ",
"                                                #X7XR.V.l.d.d.n.U.R.n.l.p.K ; g =.[.W.Y.V.V.x.t.`.T C ' &X;X;.>.                ",
"                                              #X:XT.H.z.l.l.z.I.R.U.x.l.h. XL I $XU.Y.L.e.a.w.3.P * 7 ) &X&.:.z                 ",
"                                            &X7XE.Q.V 2.l.z.Y.R.Y.z.l.l.c.f.f.f.d.z.c.f.r.XXA & * l  .*.&.v                     ",
"                                            &X8XE.Q.w '.Y.T.R.R.U.z.l.l.z.U.Y.V.l.l.%X/ :.< 2 g g +.*.#.v                       ",
"                                            ,X~.Q.*XT S.E.R.R.T.N.l.l.b.L.E.Y.Z.].+ I h 2 2 z x ,.*.#.>.z                       ",
"                                          &XQ.E.S.5 0.I.T.T.T.N.d.r.a.B.E.Y.v.).| ; - - : z k J &X&.:.z                         ",
"                                          XXQ.E.S.5 0.l.l.l.l.l.a.XX.X2XY.l.}.K - - - - - z 1 e &.c                             ",
"                                        3XF.^.P.p.& |.{.(.M w.l.a.&X&X>Xn.l.H a - - - : k z { o.&.x                             ",
"                                      %.:XE.R.N.0.B F ` ` Z y.t.{.&X*.].t.u.u - - - > k z s | &.,.c                             ",
"                                      #X2XE.R.C.x.r.4 7 e .Xy.].&X&XXXi.y.Q < - - - k z g % S W x                               ",
"                                    &X7XR.R.E.R.U.d.XX%.%.&X&X&X&X&Xy.l.6.; - - - - k z z % } +.z                               ",
"                                    *.A.E.E.E.E.P.c.a.i.%X&X&X*.#X8Xc.z.6.; - - - - k z l % ' +.z                               ",
"                                  oX,XD.U.E.U.Y.T.V.N.z.y.&X*.$X7XR.n.9.H - - - - > z z z % ' +.z                               ",
"                              XXXX=X!.M.B.T.f.L.R.R.R.L.a.#X&X7XR.^.b.R - - - - - z z z l % P +.c                               ",
"                            *.7X!.~.x.c.V.Q.C g.R.R.R.R.^.Q.Q.^.~.#Xt.R - - - - : z z z l % ` *.&.&X&X&X                        ",
"                          #X8X!.E.Y.l.N.Y.Q.0 2.P.R.R.E.R.E.E.E.Q.y.e.. - - - - : z z l = % 7 E y.i.y.%X&X                      ",
"                        #X:X^.T.U.U.c.U.R.C.B X y.P.R.R.E.E.R.!.D.l.l.R - - - - - l z < # # # 4 5.l.l.u.#.                      ",
"                      *.:XR.T.N.z.z.l.U.P.l.e.N 4 c.Y.^.^.^.^.<X+Xt.l.. - - - - : z z < % % & 9 4 y.e.s.x                       ",
"                      *.,XT.x.P.T.T.Y.E.P.l.l.N 3 d.x.%XoX#X#XoX&XXXr.. - - - > z z = % % % Y w.p. XXXW x                       ",
"                    &X6XD.m.l.I.E.E.E.E.P.d.l.n 3 c.l.[.&X&X&X' A %.a.. - - - 2 z z R 2.2.2.`.%X).e q A ..c                     ",
"                    3XQ.U.l.e.P.E.E.E.E.L.l.l.T V <.<.^ } } X.` Z %.a.3.t t t L =.=.g.z.l.a.|.' } q 8 S &X>.c                   ",
"              oXoX$X^.R.C.r.e.I.T.T.R.R.L.l.l.].E 7 9 & 7 7 & ` *.*.i.d.d.e.e.e.d.r.d.d.a..X) & 8 ~ .X.XXX*.>.z                 ",
"          *.&X9XQ.^.R.N.2.m r.z.z.x.z.z.l.l.d.f.u.$.o.$.O.$.O.%.&X*.XXu.l.l.l.l.f. XXXOXXX&X%.o.~ a.h.r.h.XX:.z                 ",
"        4X6X6XQ.R.R.L.z.O 9 `.%X/.X e.l.l.l.V.x.t.%X%XXX&X&X&X&X*.&X*. Xi.c.i.{.[..X*.*.&X&X&X&XXXt.n.N.d.i.;. .x z             ",
"      3X9XE.E.E.R.R.n.l.5.V } E G N r.l.l.l.Y.P.m.l.l.u. X&X&X&X*.&X&X&XXXy.[.+X+X+X+XXX*.&X&X&XXXt.V.I.b.7.`./ :.v b           ",
"    &XK.R.R.R.E.R.R.R.b.d.0.9 % M d.l.l.d.f.Y.E.U.l.l.c.a.&X&X&X&X&X&X.X&X&Xy.c.d.d.l.i.&X*.&X&XXXf.l.M.U.V O y..X*.>.x x       ",
"  +Xa.v.P.E.E.R.R.R.R.Y.L.e.7.5.0.l.l.c.4.m f.U.R.Y.U.m.e.a.a.a.a.a.a.a.u.&X X+X}.d.l.y.&X&X%.+Xa.l.l.M.^.OXD M u.XX&.#.+.c     ",
"&X+Xd.l.m.L.R.E.R.R.L.V.m.z.L.L.L.N.l.z.o & 0.n.I.I.R.U.L.L.I.Z.].%X%X].{.&X*.*.&X{.%X@X&X&X%.}.l.l.n.U.T.=Xf 6 f.j.6X<X%XW :.  ",
"| / y.a.t.c.U.T.E.Y.l.n.m.N.R.R.E.T.l.l.o & `.a.a.l.L.U.U.U.U.j.XX&X*.*.%.X.%.&X&X%.&X%.&X&XXXu.e.a.A.K.F.~ C B B.R.E.Y.c. X .z ",
"- y %.&X%Xc.c.U.R.T.z.U.R.R.R.R.E.Y.z.l.1.& E %. Xd.l.d.c.c.c.d.y.%.%.*.X.& X.*.&X&X&X&X&X&X%Xd.r..X~ &X~ 8 O n.T.E.E.U.l.XX .z ",
"    y o. X+X+X$Xj.b.l.z.n.N.R.R.U.x.l.l.w.4.4 8 Z  X+X+X+X+X+X+X^ q 8 8 f } %.&X&X&X&X&X&X%.XX^ w 8 8 8 q >XC.T.E.E.L.z.c. X{ : ",
"      j h h h o. X%X].%X%X%X<XD.n.l.l.M.L.V.1.G _ ) Z Z ) ) Z Z ) S ( _.].6X6X3X&X&X%.XX%X%X Xo._ ` A G '.^.Y.V.V.L.x.e.].K u   ",
"      - - - ; ] @.o.@.@.o.@.o.`.t.r.l.V.T.Y.N.%X~ 6 6 6 6 6 6 6 G #X~.E.R.R.^.,X&XXXXX%Xz.x.%XXX XXX X;XT.!.Z.r.t.a.t.u.o.,     ",
"              ; ; ; ; ; ; ; ; I .XXXt.l.l.x.Y.^.W.e.r.r.r.r.r.B.!.^.R.E.R.R.;X&XXXr.t.m.T.R.B.f.e.t.t.c.c.+X.X.X.X~ .XQ ,       ",
"                              < < i XXa.l.l.n.P.R.Y.U.n.e.l.I.T.E.E.V.x.b.x.t.a.a.c.L.T.E.E.R.V.l.l.%X@XXXi < < < < < <         ",
"                                - , [ (.a.l.l.P.E.E.E.P.B.V.T.R.E.R.n.d.z.M.N.N.V.N.T.R.R.P.P.V.l.l.{.&.[ a - - - - -           ",
"                                    - [ ).t.a.L.T.T.Y.T.T.E.E.R.E.R.N.x.M.R.E.E.R.R.R.R.U.z.t.t.a.q.(.[ -                       ",
"                                      ; i .X.Xi.l.c.c.l.m.R.R.R.R.R.T.T.T.R.R.R.R.R.R.U.l.c.]..X! < ; ;                         ",
"                                        , y &.XX+X+X+Xa.l.n.n.n.x.n.n.n.n.n.n.x.n.m.n.h.+X+XK < y                               ",
"                                          ; J ] ] ] ] ).i.i.i.i.i.u.i.i.i.i.i.i.8.+ + R ] ] y - -                               ",
"                                            - - - - - J @.@.o.@.@.@.o.@.Q @.@.o.@.; - - - -                                     ",
"                                                      ; ; ; ; ; ; ; ; ; ; ; ; ; ;                                               ",
"                                                                                                                                "
};
