/* XPM */
static char *ac9b49756a6f450f900b91deb2d9dadbnlFXcYdKdCu1YSPH_1[] = {
/* columns rows colors chars-per-pixel */
"64 64 256 2 ",
"   c None",
".  c #20693F",
"X  c #36653F",
"o  c #27793C",
"O  c #37773A",
"+  c #000D5C",
"@  c #0F035D",
"#  c #03115C",
"$  c #051D5B",
"%  c #0A145C",
"&  c #1A1B5E",
"*  c #17165D",
"=  c #2A015C",
"-  c #2B0B5C",
";  c #32085D",
":  c #32075D",
">  c #2B145D",
",  c #2C1D5D",
"<  c #28185B",
"1  c #3B125F",
"2  c #391A5F",
"3  c #0E384F",
"4  c #113D4E",
"5  c #092755",
"6  c #0A2C54",
"7  c #07215B",
"8  c #09245C",
"9  c #0B2A5E",
"0  c #062157",
"q  c #17295B",
"w  c #0D3453",
"e  c #0F335F",
"r  c #11365E",
"t  c #133D5D",
"y  c #113C56",
"u  c #30354D",
"i  c #2C255D",
"p  c #2D2A5C",
"a  c #2D345D",
"s  c #293D5E",
"d  c #303250",
"f  c #2E1B60",
"g  c #351F60",
"h  c #3B1060",
"j  c #3C2161",
"k  c #2D3E60",
"l  c #2B3360",
"z  c #252B60",
"x  c #431B60",
"c  c #422361",
"v  c #4C2562",
"b  c #4C2B62",
"n  c #473363",
"m  c #483562",
"M  c #453961",
"N  c #13434D",
"B  c #164D4A",
"V  c #195546",
"C  c #1A5648",
"Z  c #16425D",
"A  c #1A4B5E",
"S  c #1A4459",
"D  c #1C535F",
"F  c #1E5A57",
"G  c #37474C",
"H  c #2E465F",
"J  c #2F4E59",
"K  c #2F575E",
"L  c #30505B",
"P  c #345D50",
"I  c #2D544A",
"U  c #226A43",
"Y  c #27654A",
"T  c #356743",
"R  c #2A7947",
"E  c #226453",
"W  c #35675A",
"Q  c #2E7C5A",
"!  c #2A7655",
"~  c #327559",
"^  c #337D49",
"/  c #174460",
"(  c #1A4660",
")  c #1A4B61",
"_  c #1D5460",
"`  c #2E4C61",
"'  c #2E4560",
"]  c #384A61",
"[  c #2F5B61",
"{  c #2A5661",
"}  c #3D5A62",
"|  c #385862",
" . c #256561",
".. c #2A6D62",
"X. c #3A6562",
"o. c #306B61",
"O. c #386962",
"+. c #2C7562",
"@. c #2F7C63",
"#. c #347562",
"$. c #317E63",
"%. c #387062",
"&. c #495350",
"*. c #46425F",
"=. c #476C49",
"-. c #4D724A",
";. c #444462",
":. c #414B62",
">. c #425161",
",. c #349F2F",
"<. c #2B8637",
"1. c #2C8539",
"2. c #2E8C36",
"3. c #368739",
"4. c #309532",
"5. c #3B9233",
"6. c #349D32",
"7. c #3C9C32",
"8. c #39993B",
"9. c #37A82D",
"0. c #3AAD2D",
"q. c #39A32E",
"w. c #3FBC26",
"e. c #3DB62D",
"r. c #3FBA2C",
"t. c #3CAD35",
"y. c #3BA53B",
"u. c #3BAB3B",
"i. c #38A431",
"p. c #3DB333",
"a. c #3FB831",
"s. c #44883E",
"d. c #40AE2C",
"f. c #41BE27",
"g. c #40BD2A",
"h. c #42B62E",
"j. c #44A738",
"k. c #41BA33",
"l. c #4BBB38",
"z. c #46B538",
"x. c #42C325",
"c. c #46C925",
"v. c #49CD26",
"b. c #43C328",
"n. c #4BCB2B",
"m. c #4DD226",
"M. c #4FD229",
"N. c #50D627",
"B. c #53DA27",
"V. c #51D529",
"C. c #55DC29",
"Z. c #58DE2B",
"A. c #55C739",
"S. c #55D335",
"D. c #5AD235",
"F. c #5CDC34",
"G. c #5BD43E",
"H. c #5EDB3C",
"J. c #57D23A",
"K. c #4BC538",
"L. c #60DD37",
"P. c #5BE429",
"I. c #5EE82A",
"U. c #62EC2B",
"Y. c #66F22B",
"T. c #69F62C",
"R. c #6EFB2D",
"E. c #70FF2D",
"W. c #62E534",
"Q. c #66EB34",
"!. c #68EE33",
"~. c #62E239",
"^. c #6AF431",
"/. c #2F8A42",
"(. c #36854B",
"). c #368B4A",
"_. c #389D46",
"`. c #36964D",
"'. c #37994B",
"]. c #389D49",
"[. c #389544",
"{. c #348D55",
"}. c #33845D",
"|. c #348B5A",
" X c #398F5A",
".X c #308454",
"XX c #359252",
"oX c #3A9354",
"OX c #3E9B56",
"+X c #3A935A",
"@X c #39A243",
"#X c #3DAA42",
"$X c #318162",
"%X c #429D40",
"&X c #409F55",
"*X c #418A42",
"=X c #46AA4C",
"-X c #49B24C",
";X c #4EBA49",
":X c #48B645",
">X c #50BE48",
",X c #43A453",
"<X c #46AA50",
"1X c #49A050",
"2X c #52C346",
"3X c #56CB42",
"4X c #58CE41",
"5X c #5AD240",
"6X c black",
"7X c black",
"8X c black",
"9X c black",
"0X c black",
"qX c black",
"wX c black",
"eX c black",
"rX c black",
"tX c black",
"yX c black",
"uX c black",
"iX c black",
"pX c black",
"aX c black",
"sX c black",
"dX c black",
"fX c black",
"gX c black",
"hX c black",
"jX c black",
"kX c black",
"lX c black",
"zX c black",
"xX c black",
"cX c black",
"vX c black",
"bX c black",
"nX c black",
"mX c black",
"MX c black",
"NX c black",
"BX c black",
"VX c black",
"CX c black",
"ZX c black",
"AX c black",
"SX c black",
"DX c black",
"FX c black",
"GX c black",
"HX c black",
"JX c black",
"KX c black",
"LX c black",
"PX c black",
"IX c black",
"UX c black",
/* pixels */
"                                                                                                                                ",
"                                                                                                                                ",
"                                                                                                                                ",
"                                                                                                                                ",
"                                                                            $X$X$X$X$X$X                                        ",
"                                                                        @.$X2X5XH.5XH.>X$.$.                                    ",
"                                                                      &X,X<XQ.E.E.E.E.~.,X,XOX                                  ",
"                                                                     X2XR.T.T.T.T.T.T.R.R.R.>X X                                ",
"                                                                  $X5XR.Y.v.c.c.v.n.c.B.R.R.T.3X$X                              ",
"                                                                OX5X^.U.v.x.C.U.U.P.c.c.m.N.U.^.5X$X                            ",
"                                                              OX;XR.^.V.c.M.Y.E.E.R.P.M.m.x.B.W.5X-XOX                          ",
"                                                            $.;XR.T.v.c.N.R.T.T.T.T.T.T.U.c.x.y.}.Q.-X$.                        ",
"                                                            $X2XY.v.x.B.T.R.B.c.c.c.c.c.c.c.x.<.w g.].$.                        ",
"                                                          $X2XJ.V.x.B.Y.T.P.c.p.@X@Xe.x.x.w.N.7.$ V /.@X$X                      ",
"                                                          $XQ.P.f.x.U.R.U.x.p.(.{ [ [.p.c.M.S.=XN # V /.$.                      ",
"                                                           XQ.P.f.c.Y.R.U.x.XXs = : [ `.c.U.<X`.i.0 + r $.                      ",
"                                                        OX~.R.C.v.U.R.I.v.x.G - - h b =.d.G q A Q $ # & m                       ",
"                                                      @.OXR.P.P.U.R.I.v.e._.p : x v < I d.- @ e Q U w * v                       ",
"                                                      ,X;XI.b.C.R.I.v.x.t.K < 1 v v * B d.G 5 S =XV.2.P -.                      ",
"                                                    $.3XU.b.c.C.U.x.x.x.5.- = 1 b v * V x.x.C Y R.R.^.R.^.OX                    ",
"                                                    $X5XU.c.I.P.v.x.f.x.5.= = 1 c & o 9.c.I.F.F.T.V.v.m.m.F.-X@.                ",
"                                                  }.2XS.N.c.B.n.x.x.x.x.5.= = 1 c % j.P.I.R.U.P.B.c.u._.@X!.-X$X                ",
"                                                  OXW.m.f.c.c.c.x.x.x.x.7., = 2 M S A.R.T.Y.m.w.p.i.! +.$XG.1XO.                ",
"                                              $X,XU.m.f.w.c.Y.P.x.x.x.x.h.~ p s {.W.R.I.x.x.w.u.! 7 $ t $X}.>.b                 ",
"                                            $X2XQ.R.n.f.x.c.Y.T.P.x.x.x.w.p.7.q.h.v.m.v.g.`.F 6 9 j ' +.$.;.n                   ",
"                                            $X5XQ.j.r.x.c.C.T.E.U.x.x.x.c.B.B.m.x.x.t.8.-.` p < f ;.O.$.>.n                     ",
"                                            &X5XA.5 0.v.B.R.R.T.P.x.x.c.B.R.T.V.p.7.Q ] j ; x b ;.@.$.>.b                       ",
"                                          $X~.R.l.6 D.R.R.E.R.P.x.x.x.B.R.R.B.@X~ < - = ; c v ;.$.$.:.b                         ",
"                                          }.Q.%XY 3.U.R.E.R.C.v.a.'.XXK.T.N.#XW i = = = : c f k #.:.M                           ",
"                                        &X;X!.Y w c.P.P.P.P.c.x.p.$X$.:XC.x.W i = = = = h v l _ #.b                             ",
"                                      +X>XR.T.Y w t.e.9.9.x.x.w.y.$X@.@Xf.t.u = = = : h v j | $.O.b                             ",
"                                    $X3XR.R.v.C 9 }.}.Z N w.x.@X$X$X$X@Xp..Xi = = = x v c % _ X.b                               ",
"                                    $.G.E.R.c.,.U r r ) ! w.@X|.$X$X_.e.7.a - = = = x v v % _ X.v                               ",
"                                   X=XL.E.R.Z.v.i.Z t ..|.@X}.$X|.-Xb.x.5.= = = = = x v c # _ %.;.                              ",
"                                  &XT.E.R.R.T.B.k. X|.$X}.$X$X$X<X^.V.e.3.= = = = = x b c # _ $X#.m                             ",
"                              $.<X!.E.C.C.T.m.W.^.Q.Q.n.u.$X$X-X^.R.V.O > = = = : x v v c % _ $X$.#.$.$X                        ",
"                        @.@.@.;XQ.T.V.P.T.^.Y l.R.E.R.T.W.G.5XQ.T.N.c.X = = = = = v v j * # 8 E u.u.u._.}.                      ",
"                      &X,X,X,XJ.U.U.c.P.~.z.C z.E.R.R.R.E.E.R.T.P.x.x.X = = = = = v v j # # + 3 4.x.x.j.O.                      ",
"                    +XL.R.R.^.B.c.c.c.U.j.w 4.Z.R.R.E.R.R.R.^.Z.x.w.x.X = = = = - v v f + # $ 0 4 e.x.s.b                       ",
"                  OX~.^.E.T.v.P.T.T.Y.R.Z.i.4 2.B.R.E.R.R.^.OX#Xp.{.p.X = = = ; v v & # # # . 9.0.f.@XW v                       ",
"                $.+X^.E.U.M.x.P.E.E.E.E.I.e.6 o v.m.-X#X<X,X$X|.XX$Xp.X = = = h v v T 1.<.<.0.a.).C y ( } m                     ",
"                OX-X^.E.P.x.b.I.E.E.E.E.I.e.6 o x.w.|.@.$X$X ...$X$Xt.3.u u u G &.&.j.c.x.a.i.R { e 9 ) $.:.m                   ",
"              $X2XE.R.R.P.x.c.I.T.T.T.T.P.e.3 o e.9.}.+.+...9 ) $X$Xu.f.w.f.f.f.f.e.r.w.a.}.( $ 9 Q }.}.}.$X:.v                 ",
"          $X$X5X^.E.R.B.c.v.U.B.v.c.v.v.x.w.Q Z 5 5 $ 7 $ 9  .+.$X$X}.y.x.x.x.x.e.XX.X|.}.$X+...Q p.g.e.p.{.;.v                 ",
"        <X2X2X^.E.T.Z.1.<.c.P.v.p.y.w.x.x.w.u.E ( ( ) ) / _ +.$X$X$.$X{.#Xf.y.@X].$X$X$X$.$X$X$X}.'.p.v.B.t.*X=.b v             ",
"      ,X5XE.E.E.E.Y.f.w N t.t.6./.'.w.x.x.x.m.:XOXXX}.$X$X$X$X$X$X$X$X@.{.u.|.@.$X$X$X$X$X$X$X$X$X$Xu.m.U.N.e.3.&.;.m           ",
"    }.H.R.R.R.E.R.T.x.N Z @.$Xt V x.f.x.c.c.Y.R.I.b.|.$X$X$X$X$X$X$X$X$X$X$X$X$X$X$X}.$X$X$X$X$X$X$Xu.x.c.Y.R 3 t.{.:.b b       ",
"  XXu.n.U.E.E.R.E.R.U.S.).9 9 . 9.x.x.x.m.Y.T.P.v.f.p.XX@.$X@.$X@.$X$X$.$X$X$X'.p.p.p.p.y.}.$X$X}.u.r.x.x.Y.,XK N 8.(.O.X.m     ",
"$XXXx.x.m.P.R.R.R.R.P.P.p.. . q.v.B.c.<.4.P.R.U.P.P.c.t.@X@X@X@X`.$X$X$X$X}.`.p.x.c.u.@X].}.$X$X|.w.x.v.P.R.;X .$ ,.K.>X@XW ;.  ",
"[ ~ t.t.e.c.U.R.R.T.c.v.m.m.m.m.P.T.c.B B x.P.U.Y.T.N.m.m.v.a.p.@X$X$X$X$X$X@Xp.p.t.|.@.@.$X$X}.'.w.e.K.H.H.oXF B h.U.T.x.{.>.v ",
"= i $.$.@Xx.b.U.R.Y.b.I.R.R.R.R.R.T.x.B B b.w.b.V.T.T.R.R.^.oX$X}.$X$X$X@.$X$X$X$X$X$X$X$X$X$XXXw.w.`.@.@.$.Z 4 g.U.E.U.b.{.} v ",
"    i o.}.XXXX&Xl.m.c.v.m.B.R.R.I.m.x.V y XXXXt.c.m.m.m.m.m.a.].$X$X$X_ Z @.@.$X@.$X@.$X$X$X$X}..XN 6 9 9 9 (.D.U.R.P.n.g.{.] ; ",
"      a k k ' ..XX@X@X@X@X@X;XS.N.x.c.2.C / Z ! @X@X@X@X@X@X@X! / / / / _ $X$X$X$X$X$X@.$X$XXX`.@.) ) ) ) R D.R.P.P.m.e.].L p   ",
"      = = = = ` o.o...o...o.o.[.e.e.f.x.2.6 9 _ .. . ..... ...( 7 6 6 F {.|.}.$X$X|.|.|.|.|.t.p.|.|.{.{.+XH.Q.F.e.a.e.y...>     ",
"              - - - - - - - - L .X|.r.f.w.e..XZ 7 7 $ 7 7 7 $ ) {.r.e.w.w.r.XX$X|.a.w.w.w.r.b.x.w.w.r.r.a.XX}.}.$X.X}.W >       ",
"                              , , a |.t.c.w.p.6.4.4.4.4.4.6.l.J.W.U.Y.U.P.x.a.t.e.x.x.f.c.U.U.P.x.x.@XXX{.a i , , f , ,         ",
"                                = > ` (.p.c.x.m.B.B.B.v.x.c.P.U.I.P.I.I.B.x.f.x.c.V.N.B.B.I.I.B.x.c.].o.` > = = = = =           ",
"                                    = ' (.e.h.Z.T.Y.T.M.c.c.v.v.v.v.v.v.v.v.v.v.m.R.R.R.I.c.r.e.p.q.(.` =                       ",
"                                      = s }.}.u.c.b.x.x.v.Y.T.T.T.T.T.T.T.T.T.T.T.R.T.I.b.x.].$X~ < - -                         ",
"                                        > i +.|.XXXXXXp.c.m.m.M.m.m.m.m.m.m.m.m.m.m.N.K.XXXXL , ,                               ",
"                                          - ' ` ` ` ` ).u.u.u.u.y.y.u.u.u.u.u.y.8.O O T ` ` i = =                               ",
"                                            = = = = = ' o.o...o.o.o.o.o.....o...o.- = = = =                                     ",
"                                                      - - - - - - - - - - - - - -                                               ",
"                                                                                                                                "
};
