/* XPM */
static char *result[] = {
/* columns rows colors chars-per-pixel */
"64 59 91 1 ",
"  c #33653E",
". c #227B39",
"X c #3B793C",
"o c #01095C",
"O c #0F0F5D",
"+ c #01155B",
"@ c #011E58",
"# c #25015C",
"$ c #2F015D",
"% c #380B5F",
"& c #28145D",
"* c #093C4D",
"= c #042C52",
"- c #04255D",
"; c #09335E",
": c #28215D",
"> c #29345A",
", c #3D1D61",
"< c #411460",
"1 c #4B2062",
"2 c #4B2762",
"3 c #463262",
"4 c #135149",
"5 c #10425E",
"6 c #12495F",
"7 c #2E4456",
"8 c #2B4E5F",
"9 c #1E6943",
"0 c #247943",
"q c #22605D",
"w c #34675F",
"e c #2A7756",
"r c #297B58",
"t c #175360",
"y c #276D62",
"u c #2C6B61",
"i c #2B7462",
"p c #2C7E63",
"a c #404F5E",
"s c #446B49",
"d c #414262",
"f c #2B8835",
"g c #309530",
"h c #369C32",
"j c #39AD2E",
"k c #3DBE21",
"l c #3AB729",
"z c #3DBA29",
"x c #3BA530",
"c c #37A63A",
"v c #38AB38",
"b c #3AB331",
"n c #48B937",
"m c #40C420",
"M c #44CA21",
"N c #47CE21",
"B c #4ACD27",
"V c #4CD321",
"C c #4FD722",
"Z c #50D625",
"A c #52DC22",
"S c #4FC43E",
"D c #55D431",
"F c #5FDF35",
"G c #59D13E",
"H c #5AD53C",
"J c #57E025",
"K c #5BE424",
"L c #5FE925",
"P c #62ED27",
"I c #68F32A",
"U c #69F628",
"Y c #6DFB29",
"T c #71FF29",
"R c #62E631",
"E c #66ED30",
"W c #338847",
"Q c #359B48",
"! c #2E8553",
"~ c #338F57",
"^ c #30855D",
"/ c #318B5B",
"( c #329451",
") c #3A9C54",
"_ c #36A341",
"` c #3CAA41",
"' c #2D8262",
"] c #4CBD46",
"[ c #46B04D",
"{ c #40A352",
"} c None",
/* pixels */
"}}}}}}}}}}}}}}}}}}}}''''''}}}}}}}}}}}}}}}}}}}}}}}}}}}}}}}}}}}}}}",
"}}}}}}}}}}}}}}}}}}pp]FGFGS'p}}}}}}}}}}}}}}}}}}}}}}}}}}}}}}}}}}}}",
"}}}}}}}}}}}}}}}}}){{FTTTTE[{{}}}}}}}}}}}}}}}}}}}}}}}}}}}}}}}}}}}",
"}}}}}}}}}}}}}}}}~]YYYUUUUUUYS~}}}}}}}}}}}}}}}}}}}}}}}}}}}}}}}}}}",
"}}}}}}}}}}}}}}}'GUYYAMBNMMNIYG'}}}}}}}}}}}}}}}}}}}}}}}}}}}}}}}}}",
"}}}}}}}}}}}}}}'GIPCVMMKPPAmNPIG)}}}}}}}}}}}}}}}}}}}}}}}}}}}}}}}}",
"}}}}}}}}}}}}})[GRAmVVKYTTIVMZIY])}}}}}}}}}}}}}}}}}}}}}}}}}}}}}}}",
"}}}}}}}}}}}}p[E^cmMPUUUUUUYCMNUY]p}}}}}}}}}}}}}}}}}}}}}}}}}}}}}}",
"}}}}}}}}}}}}pQk=fmMMMMMMMAYUAmNIS'}}}}}}}}}}}}}}}}}}}}}}}}}}}}}}",
"}}}}}}}}}}}'_W4+hCkmml__bMKUIAmZHS'}}}}}}}}}}}}}}}}}}}}}}}}}}}}}",
"}}}}}}}}}}}pW4o*[DVMbQq8WbmPYPmkKE'}}}}}}}}}}}}}}}}}}}}}}}}}}}}}",
"}}}}}}}}}}}p;o@x([PM(q$#>(mPYIMkKE~}}}}}}}}}}}}}}}}}}}}}}}}}}}}}",
"}}}}}}}}}}}3Oo+r6-7js2%##7mNLYPNAYF)}}}}}}}}}}}}}}}}}}}}}}}}}}}}",
"}}}}}}}}}}}1O=9r;o#j4&1<$:_lNLYPKKY)p}}}}}}}}}}}}}}}}}}}}}}}}}}}",
"}}}}}}}}}}}XqfZ[5@7j4O11%&8jmNLYAmL]{}}}}}}}}}}}}}}}}}}}}}}}}}}}",
"}}}}}}}}}})IYIYY94mm4O12%##gmmmPAMmPGp}}}}}}}}}}}}}}}}}}}}}}}}}}",
"}}}}}}}}p[FVVNZUFFLMj.O,%##gmkmNKLMPG'}}}}}}}}}}}}}}}}}}}}}}}}}}",
"}}}}}}}}'[E__vMAKPYLKxo,%##gmmmmBAMCDS^}}}}}}}}}}}}}}}}}}}}}}}}}",
"}}}}}}}}w{H'iexbkVIUYS53%#&hmmmmMMMkVR)}}}}}}}}}}}}}}}}}}}}}}}}}",
"}}}}}}}}2a^';+@evkmmLYR~>:ezmmmmKIMkkVP{'}}}}}}}}}}}}}}}}}}}}}}}",
"}}}}}}}}}3dpi7,-=4(kNVNzxhbkmmmKUIMmkBYES'}}}}}}}}}}}}}}}}}}}}}}",
"}}}}}}}}}}3apwd&&:8XhjmmVAAMmmmPTUAMmzxEG'}}}}}}}}}}}}}}}}}}}}}}",
"}}}}}}}}}}}2appd2<$,8rhbZUYAMmmKUYYANj@SG{}}}}}}}}}}}}}}}}}}}}}}",
"}}}}}}}}}}}}2appd1,$##&e_AYYAmmmKYTYYD=nYF'}}}}}}}}}}}}}}}}}}}}}",
"}}}}}}}}}}}}}3ai>&,$###:w`CUS(QzNAYTYPf9hE^}}}}}}}}}}}}}}}}}}}}}",
"}}}}}}}}}}}}}}2it>1%####:wmA]p'bmMKKKKM=9E]{}}}}}}}}}}}}}}}}}}}}",
"}}}}}}}}}}}}}}2wpa,1%$###>jk_p'ckmmjjlj=9UY]~}}}}}}}}}}}}}}}}}}}",
"}}}}}}}}}}}}}}}2wto,1<###:!b_'''_mk*5^^-4NYYG'}}}}}}}}}}}}}}}}}}",
"}}}}}}}}}}}}}}}1wto11<####>hl_''/_ke6;;9hMYTHp}}}}}}}}}}}}}}}}}}",
"}}}}}}}}}}}}}}}dito,1<#####gmm[/'^_/y;5xNJYTF[~}}}}}}}}}}}}}}}}}",
"}}}}}}}}}}}}}}3i'to,2<#####flZI['''^'/~zAUYYTU{}}}}}}}}}}}}}}}}}",
"}}}}}}}}}}}}'pip'to,11<$###&XZYI[''vBEEIRVUAATE[p}}}}}}}}}}}}}}}",
"}}}}}}}}}}}^_vvvq@oO,11##### MCUEGHRUYTYn9IUKZUE]ppp}}}}}}}}}}}}",
"}}}}}}}}}}}wxmmg*ooo,11##### mmKUYTTYYYTn4nFKMPPH{{{{}}}}}}}}}}}",
"}}}}}}}}}}}2Wml*@+oo&11##### mkmJIYYYTYYJg=xPMMMAIYYF~}}}}}}}}}}",
"}}}}}}}}}}}1w_kjj9oooO11$### b~b`)IYYTYAf*xJYIUUKNUTIF)}}}}}}}}}",
"}}}}}}}}}}3a5*4Wzjfff 11%### b'(/'{[`[VN.=lLTTTTKmVPTI~p}}}}}}}}",
"}}}}}}}}}3ap6-;80xzmMxaa7>>>fj''yq''p/km.=lLTTTTLmmKTI[)}}}}}}}}",
"}}}}}}}}1a'^^^r-+5^zkzzkkkkkkv''6-yii^jl.*lKUUUULMmKYYTS'}}}}}}}",
"}}}}}}}}1d~blkbryi'^/!(lmmmmc^''iq-+@+@@5rkmNNMNAPNMAYTIG''}}}}}",
"}}}}}}12sWjANbQ^'''p'''Q_ck`~'p''it56655qvkmmkcbNKMffJUTISS[}}}}",
"}}}}}3daflCPVv''''''''''p/v~p''''''''^()]VmmmkQWhjj*=kITTTTG{}}}",
"}}}22a~j*0IMmv'''''''^'''''''''''''''/mLYIMMmkm4;'p5*mUYTYYYF^}}",
"}}3wwWh*8{Immzv^''^cbbbbQ'''p''p'p'p(bkNKUIVmmmj9--WDPYTYTTPBv(}",
"}dw_]Sh+q]YKNmk/''^Q_vMmb(^''''(____jMKKPYKgfMANx99bKKYYYYKVmm('",
"1a~mUPz44(FFSlkQ^''pp/jbb_'''''_bzNVVCUIPKm44MUKVVVVNMUYYPMljjeq",
"1a~mPTPk*5ppp(kk(''''''''''p'''^'(IYYUUZmkm44mUYYYYYLmIYPmm_pp:#",
"$8~kBKYPDW---=*!^''''p'p'pp5t'''QzVVVVVMj((*4mVLYYAVNMVn{((^u:}}",
"}:8QlVKKYD06666p((''p''''''t5555e_______e554fMmCD]_____(y7>>>}}}",
"}}&yclzlFEF~~~//bj/////''^/~4==@5yqyyqqyt-=fmkllQuuyuyuu8####}}}",
"}}}&w^!'^^(zzzkkmmzkkkz/'(zkklz~6+@@@+@@5!lkkz/!8########}}}}}}}",
"}}}}&&&&&:>~(_mmKPPMkmmljzmKPIPRHnhggggghbkMj/>&&}}}}}}}}}}}}}}}",
"}}}}}#####&8uQMmALLAACZMmkmALLKLPKMmNAAAVmMbW8&#}}}}}}}}}}}}}}}}",
"}}}}}}}}}}}#8WxblzMLYYYVNNNNNNNNNNMMVUIUJzlW7#}}}}}}}}}}}}}}}}}}",
"}}}}}}}}}}}}##&e'QmmLUYUUUUUUUUUUUINmmmMv^^>#}}}}}}}}}}}}}}}}}}}",
"}}}}}}}}}}}}}}}&&8((SCVVVVVVVVVVVVVMb(((/i:&}}}}}}}}}}}}}}}}}}}}",
"}}}}}}}}}}}}}}}##:88 XXhcvvvvvccvvvvW88887#}}}}}}}}}}}}}}}}}}}}}",
"}}}}}}}}}}}}}}}}}}#####uyuyyuuuuuyuu7#####}}}}}}}}}}}}}}}}}}}}}}",
"}}}}}}}}}}}}}}}}}}}}}}}##############}}}}}}}}}}}}}}}}}}}}}}}}}}}"
};
