/* XPM */
static char *result[] = {
/* columns rows colors chars-per-pixel */
"64 64 173 2 ",
"   c #1C0F1C",
".  c #250D1D",
"X  c #300B1E",
"o  c #2F0D2D",
"O  c #330D2E",
"+  c #3B0E2F",
"@  c #3E0D30",
"#  c #3B1434",
"$  c #381C39",
"%  c #33232F",
"&  c #2F2638",
"*  c #39213C",
"=  c #440E25",
"-  c #490C2B",
";  c #540E2A",
":  c #40102F",
">  c #430E31",
",  c #4B0E33",
"<  c #540E34",
"1  c #5B0D35",
"2  c #56123B",
"3  c #431A39",
"4  c #630E35",
"5  c #6B0D36",
"6  c #6B0F39",
"7  c #670F38",
"8  c #730C36",
"9  c #7A0C37",
"0  c #750F3A",
"q  c #7D0E3A",
"w  c #6C123C",
"e  c #62163B",
"r  c #75103B",
"t  c #7A103B",
"y  c #5A213F",
"u  c #794539",
"i  c #3F3349",
"p  c #631D41",
"a  c #6D1843",
"s  c #7A1941",
"d  c #771443",
"f  c #482743",
"g  c #5D2943",
"h  c #41344B",
"j  c #5A3B54",
"k  c #632243",
"l  c #6E2E4D",
"z  c #7A2A49",
"x  c #7B3D45",
"c  c #603955",
"v  c #7E3456",
"b  c #4F4050",
"n  c #5B445C",
"m  c #56445B",
"M  c #4C444A",
"N  c #60424F",
"B  c #634D64",
"V  c #6C4D63",
"C  c #6B546A",
"Z  c #6E5569",
"A  c #78566A",
"S  c #755B72",
"D  c #7A5D74",
"F  c #7A4C64",
"G  c #7C6375",
"H  c #830E3B",
"J  c #8D0D3C",
"K  c #890B37",
"L  c #930D3C",
"P  c #9B0C3D",
"I  c #A40C3D",
"U  c #AC0B3E",
"Y  c #B40B3F",
"T  c #BA0A3F",
"R  c #90563B",
"E  c #A45F3F",
"W  c #AC6D3B",
"Q  c #AF723B",
"!  c #B37535",
"~  c #BA793B",
"^  c #B67839",
"/  c #970D43",
"(  c #8E1845",
")  c #9A1145",
"_  c #941847",
"`  c #AC0D43",
"'  c #A00C43",
"]  c #B50B40",
"[  c #BD0A40",
"{  c #A71145",
"}  c #822349",
"|  c #9C2246",
" . c #942E46",
".. c #922344",
"X. c #873744",
"o. c #953447",
"O. c #843355",
"+. c #913754",
"@. c #A12645",
"#. c #A03045",
"$. c #C00A40",
"%. c #8F4840",
"&. c #9D4345",
"*. c #9B4C44",
"=. c #9E5A41",
"-. c #AA5142",
";. c #BE7B41",
":. c #B27D53",
">. c #804866",
",. c #85667D",
"<. c #85687A",
"1. c #C7872D",
"2. c #C8872F",
"3. c #D08D2C",
"4. c #D6922D",
"5. c #CF8C36",
"6. c #CC8439",
"7. c #CD8D39",
"8. c #D49134",
"9. c #DD9932",
"0. c #D49338",
"q. c #DA9630",
"w. c #E19E35",
"e. c #ECA32C",
"r. c #F1A82E",
"t. c #FFB52F",
"y. c #BF8B62",
"u. c #D39947",
"i. c #C18B53",
"p. c #D7A158",
"a. c #E5AE5B",
"s. c #7D5D80",
"d. c #8E6B83",
"f. c #977385",
"g. c #977A89",
"h. c #9A7A8C",
"j. c #9F7B91",
"k. c #AB798C",
"l. c #99858F",
"z. c #9C8991",
"x. c #B99287",
"c. c #A98296",
"v. c #AB8C9B",
"b. c #B0899E",
"n. c #AE939C",
"m. c #A79799",
"M. c #B3969B",
"N. c #A680A9",
"B. c #B49BA4",
"V. c #BA99A7",
"C. c #BCACAA",
"Z. c #B7A3A9",
"A. c #D7AF85",
"S. c #E8BD82",
"D. c #C2A3AF",
"F. c #C6ADAB",
"G. c #DBBDA6",
"H. c #C5ABB1",
"J. c #C8B5B4",
"K. c #D2B1BB",
"L. c #D1BDBC",
"P. c #EDCEB1",
"I. c #D1A9C4",
"U. c #DBC3C3",
"Y. c #DECCC7",
"T. c #E2C6C9",
"R. c #E3CBCB",
"E. c #E5D2CD",
"W. c #EDD7D3",
"Q. c #F9E7DE",
"!. c #FFEEE3",
"~. c #FFF0E5",
"^. c None",
/* pixels */
"^.^.^.^.^.^.^.^.^.^.^.^.^.^.^.^.^.^.^.^.^.^.^.^.^.^.^.^.^.^.^.^.^.^.^.^.^.^.^.^.^.^.^.^.^.^.^.^.^.^.^.^.^.^.^.^.^.^.^.^.^.^.^.^.",
"^.^.^.^.^.^.^.^.^.^.^.^.^.^.^.^.^.^.^.^.^.^.^.^.^.^.^.^.^.^.^.^.^.^.^.^.^.^.^.^.^.^.^.^.^.^.^.^.^.^.^.^.^.^.^.^.^.^.^.^.^.^.^.^.",
"^.^.^.^.^.^.^.^.^.^.^.^.^.^.^.^.^.^.^.^.^.^.^.^.^.^.^.^.^.^.^.^.^.^.^.^.^.^.^.^.^.^.^.^.^.^.^.^.^.^.^.^.^.^.^.^.^.^.^.^.^.^.^.^.",
"^.^.^.^.^.^.^.^.^.^.^.^.^.^.^.^.^.^.^.^.^.^.^.^.^.^.^.^.^.^.^.^.^.^.^.^.^.^.^.^.^.^.^.^.^.^.^.^.^.^.^.^.^.^.^.^.^.^.^.^.^.^.^.^.",
"^.^.^.^.^.^.^.^.^.^.^.^.^.^.^.^.^.^.^.^.^.^.^.^.^.^.^.^.^.^.^.^.^.^.^.^.^.^.^.^.^.^.^.^.^.^.^.^.^.^.^.^.^.^.^.^.^.^.^.^.^.^.^.^.",
"^.^.^.^.^.^.^.^.^.^.^.^.^.^.^.^.^.^.^.^.^.^.^.^.^.^.^.^.^.^.^.^.^.^.^.^.^.^.^.^.^.^.^.^.^.^.^.^.^.^.^.^.^.^.^.^.^.^.^.^.^.^.^.^.",
"^.^.^.^.^.^.^.^.^.^.^.^.^.^.^.^.^.^.^.^.^.^.^.^.^.^.^.^.^.^.^.^.^.^.^.^.^.^.^.^.^.^.^.^.^.^.^.^.^.^.^.^.^.^.^.^.^.^.^.^.^.^.^.^.",
"^.^.^.^.^.^.^.^.^.^.^.^.^.^.^.^.^.^.^.^.^.^.^.^.^.^.^.^.^.^.^.^.^.^.^.^.^.^.^.^.^.^.^.^.^.^.^.^.^.^.^.^.^.^.^.^.^.^.^.^.^.^.^.^.",
"^.^.^.^.^.^.^.^.^.^.^.^.^.^.^.^.^.^.^.^.^.^.^.^.^.^.^.^.^.^.^.^.^.^.^.^.^.^.^.^.^.^.^.^.^.^.^.^.^.^.^.^.^.^.^.^.^.^.^.^.^.^.^.^.",
"^.^.^.^.^.^.^.^.^.^.^.^.^.^.^.^.^.^.^.^.^.^.^.^.^.M.L.H.g.^.^.^.^.^.^.^.^.^.^.^.^.^.^.^.^.^.^.^.^.^.^.^.^.^.^.^.^.^.^.^.^.^.^.^.",
"^.^.^.^.^.^.^.^.^.^.^.^.^.^.^.^.^.^.^.^.^.^.^.^.U.Q.~.!.W.g.^.^.^.^.^.^.^.^.^.^.^.^.^.^.^.^.^.^.^.^.^.^.^.^.^.^.^.^.^.^.^.^.^.^.",
"^.^.^.^.^.^.^.^.^.^.^.^.^.^.^.^.^.^.^.^.^.^.^.J.!.!.!.!.T.b.n ^.^.^.^.^.^.^.^.^.^.^.^.^.^.^.^.^.^.^.^.^.^.^.^.^.^.^.^.^.^.^.^.^.",
"^.^.^.^.^.^.^.^.^.^.^.^.^.^.^.^.^.^.^.^.^.^.^.Y.~.!.!.~.E.V.c < > ^.^.^.^.^.^.^.^.^.^.^.^.^.^.^.^.^.^.^.^.^.^.^.^.^.^.^.^.^.^.^.",
"^.^.^.^.^.^.^.^.^.^.^.^.^.^.^.^.^.^.^.^.^.^.H.Y.T.T.W.Y.E.c.e 1 ^.^.^.^.^.^.^.^.^.^.^.^.^.^.^.^.^.^.^.^.^.^.^.^.^.^.^.^.^.^.^.^.",
"^.^.^.^.^.^.^.^.^.^.^.^.^.^.^.^.^.^.^.^.> } A j H.I.h.& G <.; 8 1 O ^.^.^.^.^.^.^.^.^.^.^.^.^.^.^.^.^.^.^.^.^.^.^.^.^.^.^.^.^.^.",
"^.^.^.^.^.^.^.^.^.^.^.^.^.^.^.^.^.^.^.^.^.L g j.m.C.I.G G >.P I 4 ^.^.^.^.^.^.^.^.^.^.^.^.^.^.^.^.^.^.^.^.^.^.^.^.^.^.^.^.^.^.^.",
"^.^.^.^.^.^.^.^.^.^.^.^.^.^.^.^.^.^.^.^.^.1 g J.m.C.Y.F w K Y t @ ^.^.^.^.^.^.^.^.^.^.^.^.^.^.^.^.^.^.^.^.^.^.^.^.^.^.^.^.^.^.^.",
"^.^.^.^.^.^.^.^.^.^.^.^.^.^.^.^.^.^.^.^.^.^.: N % M A 8 P T Y P < 2 R ^.^.^.^.^.^.^.^.^.^.^.^.^.^.^.^.^.^.^.^.^.^.^.^.^.^.^.^.^.",
"^.^.^.^.^.^.^.^.^.^.^.^.^.^.^.^.^.^.^.^.^.^., 5 8 . X 8 H H H L 0 a ~ ;.^.^.^.^.^.^.^.^.^.^.^.^.^.^.^.^.^.^.^.^.^.^.^.^.^.^.^.^.",
"^.^.^.^.^.^.^.^.^.^.^.^.^.^.^.^.^.^.^.^.^.^.^.9 5   ; K I I t t P X.0.o.L ^.^.^.^.^.^.^.^.^.^.^.^.^.^.^.^.^.^.^.^.^.^.^.^.^.^.^.",
"^.^.^.^.^.^.^.^.^.^.^.^.^.^.^.^.^.^.^.^.^.^.u ) K 4 = = K [ J 0 d R =.{ T U H ^.^.^.^.^.^.^.^.^.^.^.^.^.^.^.^.^.^.^.^.^.^.^.^.^.",
"^.^.^.^.^.^.^.^.^.^.^.^.^.^.^.^.^.^.^.^.^.1.^ ) U 9 .   8 [ / 0 X.9.*.] T Y 5 ^.^.^.^.^.^.^.^.^.^.^.^.^.^.^.^.^.^.^.^.^.^.^.^.^.",
"^.^.^.^.^.^.^.^.^.^.^.^.^.^.^.^.^.^.^.^.^.! Q ) T U ; = I T U d ;.0.| [ $.L , ^.^.^.^.^.^.^.^.^.^.^.^.^.^.^.^.^.^.^.^.^.^.^.^.^.",
"^.^.^.^.^.^.^.^.^.^.^.^.^.^.^.^.^.^.^.L / =.Q ) U Y K I $.$.' R q.-.` $.T I 9 ^.^.^.^.^.^.^.^.^.^.^.^.^.^.^.^.^.^.^.^.^.^.^.^.^.",
"^.^.^.^.^.^.^.^.^.^.^.^.^.^.^.^.^.^.^.I [ &.7.o.] L H L Y ] #.8.W ( [ [ [ Y 9 < ^.^.^.^.^.^.^.^.^.^.^.^.^.^.^.^.^.^.^.^.^.^.^.^.",
"^.^.^.^.^.^.^.^.^.^.^.^.^.^.^.^.^.^.^.P $.( ^ =.{ I 5 L U ..~ 6.@.] $.[ ] 0 7 H P ^.^.^.^.^.^.^.^.^.^.^.^.^.^.^.^.^.^.^.^.^.^.^.",
"^.^.^.^.^.^.^.^.^.^.^.^.^.^.^.^.^.^.^.P Y ` -.w. .) w _ &.6.~ @.] [ [ $.L 4 5 Y H ^.^.^.^.^.^.^.^.^.^.^.^.^.^.^.^.^.^.^.^.^.^.^.",
"^.^.^.^.^.^.^.^.^.^.^.^.^.^.^.^.^.^.L J { [ | ;.x.D.y.x.i.6.@.[ $.$.[ $.J < J Y t w ^.^.^.^.^.^.^.^.^.^.^.^.^.^.^.^.^.^.^.^.^.^.",
"^.^.^.^.^.^.^.^.^.^.^.^.^.^.^.^.^.r ] Y I [ { k.G.A.p.P.F.O.T $.T $.[ [ J 1 T T L H P P ^.^.^.^.^.^.^.^.^.^.^.^.^.^.^.^.^.^.^.^.",
"^.^.^.^.^.^.^.^.^.^.^.^.^.^.^.^.^.8 I $.Y I _ M.u.e.e.u.S.+.T T $.T { I T I T Y L I [ ] J ^.^.^.^.^.^.^.^.^.^.^.^.^.^.^.^.^.^.^.",
"^.^.^.^.^.^.^.^.^.^.^.^.^.^.^.5 L I T Y L H ( :.9.t.t.5.a.+.T $.$.T L L ` P U L J [ [ [ L ^.^.^.^.^.^.^.^.^.^.^.^.^.^.^.^.^.^.^.",
"^.^.^.^.^.^.^.^.^.^.^.^.^.^.+ J T I I U H t ( Q 4.r.r.3.9. .T $.$.$.L q q 9 L I P ` [ [ L ^.^.^.^.^.^.^.^.^.^.^.^.^.^.^.^.^.^.^.",
"^.^.^.^.^.^.^.^.^.^.^.^.^.B B f s Y L t t q L X.! 3.2.8.-.` $.[ [ [ [ L r r 9 H U I Y T L ^.^.^.^.^.^.^.^.^.^.^.^.^.^.^.^.^.^.^.",
"^.^.^.^.^.^.^.^.^.^.A G d.Z.v.C D ( I t t 0 0 r z X.N o.` $.[ [ $.] L t l V $ f O.I I U H ^.^.^.^.^.^.^.^.^.^.^.^.^.^.^.^.^.^.^.",
"^.^.^.^.^.^.^.^.^.A c.U.U.E.M.g.B t I t t t t r 0 1 w J I $.[ [ $.U H k C.L.v.v.<.v ] P < ^.^.^.^.^.^.^.^.^.^.^.^.^.^.^.^.^.^.^.",
"^.^.^.^.^.^.^.^.^.V f.K.v.H.n h.l.e ' H r r r t H 5 4 t J [ $.[ T $.Y k Z.n.W.B.l.S H I , ^.^.^.^.^.^.^.^.^.^.^.^.^.^.^.^.^.^.^.",
"^.^.^.^.^.^.^.^.^.n j D B S h J.Z.3 I H r t t L Y I r P J J [ [ [ [ I p D Z v.Z Y.z.O.H ^.^.^.^.^.^.^.^.^.^.^.^.^.^.^.^.^.^.^.^.",
"^.^.^.^.^.^.^.^.^.h i ^.^.^.^.V f O q I t 0 L J J I J q L I ] [ [ [ L p V m j.G v.B.f.6 ^.^.^.^.^.^.^.^.^.^.^.^.^.^.^.^.^.^.^.^.",
"^.^.^.^.^.^.^.^.^.^.^.^.^.^.^.1 1 o 4 U 0 < I I 1 L U I [ [ [ Y ] [ I p d.n n C G S j 5 , ^.^.^.^.^.^.^.^.^.^.^.^.^.^.^.^.^.^.^.",
"^.^.^.^.^.^.^.^.^.^.^.^.^.^.^.^.8 = 1 U 8 ^.L J ^.5 L I $.$.U 5 9 [ [ d f # o # * $ # w , ^.^.^.^.^.^.^.^.^.^.^.^.^.^.^.^.^.^.^.",
"^.^.^.^.^.^.^.^.^.^.^.^.^.^.^.^.4 P P L 5 ^.H ^., 4 9 ] ] P 8 ^.< I $.q , > O O O + < 1 ^.^.^.^.^.^.^.^.^.^.^.^.^.^.^.^.^.^.^.^.",
"^.^.^.^.^.^.^.^.^.^.^.^.^.^.^.^.> 5 4 ^.^.^.^.> e 4 I [ L ^.^.^.^.I T q > , > @ > < , ^.^.^.^.^.^.^.^.^.^.^.^.^.^.^.^.^.^.^.^.^.",
"^.^.^.^.^.^.^.^.^.^.^.^.^.^.^.^.^.^.^.^.^.^.^., < w J [ L ^.^.^.^.L P ^.^.^.< < < ^.^.^.^.^.^.^.^.^.^.^.^.^.^.^.^.^.^.^.^.^.^.^.",
"^.^.^.^.^.^.^.^.^.^.^.^.^.^.^.^.^.^.^.^.^.^.^.> < 7 t P Y P ^.^.^.^.^.^.^.^.^.^.^.^.^.^.^.^.^.^.^.^.^.^.^.^.^.^.^.^.^.^.^.^.^.^.",
"^.^.^.^.^.^.^.^.^.^.^.^.^.^.^.^.^.^.^.^.^.^.^.^.> @ 1 H ` $.I ^.^.^.^.^.^.^.^.^.^.^.^.^.^.^.^.^.^.^.^.^.^.^.^.^.^.^.^.^.^.^.^.^.",
"^.^.^.^.^.^.^.^.^.^.^.^.^.^.^.^.^.^.^.^.^.^.^.^.^.^.> L T $.U ^.^.^.^.^.^.^.^.^.^.^.^.^.^.^.^.^.^.^.^.^.^.^.^.^.^.^.^.^.^.^.^.^.",
"^.^.^.^.^.^.^.^.^.^.^.^.^.^.^.^.^.^.^.^.^.^.^.^.^.^.I T $.T K ^.^.^.^.^.^.^.^.^.^.^.^.^.^.^.^.^.^.^.^.^.^.^.^.^.^.^.^.^.^.^.^.^.",
"^.^.^.^.^.^.^.^.^.^.^.^.^.^.^.^.^.^.^.^.^.^.^.^.^.^.U [ $.$.q 4 < , ^.^.^.^.^.^.^.^.^.^.^.^.^.^.^.^.^.^.^.^.^.^.^.^.^.^.^.^.^.^.",
"^.^.^.^.^.^.^.^.^.^.^.^.^.^.^.^.^.^.^.^.^.^.^.^.^.^.P $.[ I P H 9 w , ^.^.^.^.^.^.^.^.^.^.^.^.^.^.^.^.^.^.^.^.^.^.^.^.^.^.^.^.^.",
"^.^.^.^.^.^.^.^.^.^.^.^.^.^.^.^.^.^.^.^.^.^.^.^.^.^.^.9 9 < + > r 6 , ^.^.^.^.^.^.^.^.^.^.^.^.^.^.^.^.^.^.^.^.^.^.^.^.^.^.^.^.^.",
"^.^.^.^.^.^.^.^.^.^.^.^.^.^.^.^.^.^.^.^.^.^.^.^.^.^.^.^.^.> 1 w 1 , ^.^.^.^.^.^.^.^.^.^.^.^.^.^.^.^.^.^.^.^.^.^.^.^.^.^.^.^.^.^.",
"^.^.^.^.^.^.^.^.^.^.^.^.^.^.^.^.^.^.^.^.^.^.^.^.^.^.^.^.^.7 7 , ^.^.^.^.^.^.^.^.^.^.^.^.^.^.^.^.^.^.^.^.^.^.^.^.^.^.^.^.^.^.^.^.",
"^.^.^.^.^.^.^.^.^.^.^.^.^.^.^.^.^.^.^.^.^.^.^.^.^.^.^.^.@ w , ^.^.^.^.^.^.^.^.^.^.^.^.^.^.^.^.^.^.^.^.^.^.^.^.^.^.^.^.^.^.^.^.^.",
"^.^.^.^.^.^.^.^.^.^.^.^.^.^.^.^.^.^.^.^.^.^.^.^.^.^.^.^.^.1 1 ^.^.^.^.^.^.^.^.^.^.^.^.^.^.^.^.^.^.^.^.^.^.^.^.^.^.^.^.^.^.^.^.^.",
"^.^.^.^.^.^.^.^.^.^.^.^.^.^.^.^.^.^.^.^.^.^.^.^.^.^.^.^.^.^.1 > O ^.^.^.^.^.^.^.^.^.^.^.^.^.^.^.^.^.^.^.^.^.^.^.^.^.^.^.^.^.^.^.",
"^.^.^.^.^.^.^.^.^.^.^.^.^.^.^.^.^.^.^.^.^.^.^.^.^.^.^.^.^.^.^.^.O O ^.^.^.^.^.^.^.^.^.^.^.^.^.^.^.^.^.^.^.^.^.^.^.^.^.^.^.^.^.^.",
"^.^.^.^.^.^.^.^.^.^.^.^.^.^.^.^.^.^.^.^.^.^.^.^.^.^.^.^.^.^.^.^.^.^.^.^.^.^.^.^.^.^.^.^.^.^.^.^.^.^.^.^.^.^.^.^.^.^.^.^.^.^.^.^.",
"^.^.^.^.^.^.^.^.^.^.^.^.^.^.^.^.^.^.^.^.^.^.^.^.^.^.^.^.^.^.^.^.^.^.^.^.^.^.^.^.^.^.^.^.^.^.^.^.^.^.^.^.^.^.^.^.^.^.^.^.^.^.^.^.",
"^.^.^.^.^.^.^.^.^.^.^.^.^.^.^.^.^.^.^.^.^.^.^.^.^.^.^.^.^.^.^.^.^.^.^.^.^.^.^.^.^.^.^.^.^.^.^.^.^.^.^.^.^.^.^.^.^.^.^.^.^.^.^.^.",
"^.^.^.^.^.^.^.^.^.^.^.^.^.^.^.^.^.^.^.^.^.^.^.^.^.^.^.^.^.^.^.^.^.^.^.^.^.^.^.^.^.^.^.^.^.^.^.^.^.^.^.^.^.^.^.^.^.^.^.^.^.^.^.^.",
"^.^.^.^.^.^.^.^.^.^.^.^.^.^.^.^.^.^.^.^.^.^.^.^.^.^.^.^.^.^.^.^.^.^.^.^.^.^.^.^.^.^.^.^.^.^.^.^.^.^.^.^.^.^.^.^.^.^.^.^.^.^.^.^.",
"^.^.^.^.^.^.^.^.^.^.^.^.^.^.^.^.^.^.^.^.^.^.^.^.^.^.^.^.^.^.^.^.^.^.^.^.^.^.^.^.^.^.^.^.^.^.^.^.^.^.^.^.^.^.^.^.^.^.^.^.^.^.^.^.",
"^.^.^.^.^.^.^.^.^.^.^.^.^.^.^.^.^.^.^.^.^.^.^.^.^.^.^.^.^.^.^.^.^.^.^.^.^.^.^.^.^.^.^.^.^.^.^.^.^.^.^.^.^.^.^.^.^.^.^.^.^.^.^.^.",
"^.^.^.^.^.^.^.^.^.^.^.^.^.^.^.^.^.^.^.^.^.^.^.^.^.^.^.^.^.^.^.^.^.^.^.^.^.^.^.^.^.^.^.^.^.^.^.^.^.^.^.^.^.^.^.^.^.^.^.^.^.^.^.^."
};
