/* XPM */
static char *result[] = {
/* columns rows colors chars-per-pixel */
"64 64 178 2 ",
"   c #150F19",
".  c #1E0F1C",
"X  c #100C16",
"o  c #240E1D",
"O  c #1C1822",
"+  c #2E0F2E",
"@  c #350D2E",
"#  c #390D2F",
"$  c #3C0E23",
"%  c #2A1E28",
"&  c #3B0E30",
"*  c #2B1D37",
"=  c #321534",
"-  c #392138",
";  c #4A0E28",
":  c #540D29",
">  c #5A0F2D",
",  c #440D31",
"<  c #4C0D32",
"1  c #540E33",
"2  c #5B0E35",
"3  c #5D0D38",
"4  c #471937",
"5  c #541135",
"6  c #5C1535",
"7  c #650D2F",
"8  c #640D36",
"9  c #6B0D35",
"0  c #6C0F39",
"q  c #670F38",
"w  c #720C34",
"e  c #740F3A",
"r  c #7D0E3A",
"t  c #7A0C37",
"y  c #67193A",
"u  c #76103B",
"i  c #79103B",
"p  c #3D2B44",
"a  c #3E3445",
"s  c #651E42",
"d  c #741B42",
"f  c #7A1D41",
"g  c #442743",
"h  c #592848",
"j  c #4B344C",
"k  c #47354D",
"l  c #4A3951",
"z  c #553D55",
"x  c #6C2345",
"c  c #652D4C",
"v  c #702948",
"b  c #633351",
"n  c #623C51",
"m  c #7D3C5C",
"M  c #5B445B",
"N  c #564159",
"B  c #67435D",
"V  c #5E5362",
"C  c #624C63",
"Z  c #694A6F",
"A  c #7B4463",
"S  c #625466",
"D  c #72566D",
"F  c #7A5F75",
"G  c #735D70",
"H  c #6D6567",
"J  c #796875",
"K  c #820E3B",
"L  c #8B0D3B",
"P  c #850936",
"I  c #950D3D",
"U  c #9C0C3D",
"Y  c #A30C3E",
"T  c #AC0B3E",
"R  c #B30B3F",
"E  c #BB093F",
"W  c #83463D",
"Q  c #A65F3E",
"!  c #A5633E",
"~  c #BA7D37",
"^  c #B7763A",
"/  c #B6792D",
"(  c #C17C3B",
")  c #9D0E42",
"_  c #8D1443",
"`  c #9C1646",
"'  c #961A46",
"]  c #98174B",
"[  c #A50B42",
"{  c #AE0B42",
"}  c #B60B41",
"|  c #BD0A40",
" . c #A31645",
".. c #8F2246",
"X. c #992346",
"o. c #9A2C46",
"O. c #853F43",
"+. c #8C324F",
"@. c #953A48",
"#. c #832D57",
"$. c #952E56",
"%. c #893E5C",
"&. c #903958",
"*. c #A23744",
"=. c #C00A40",
"-. c #9A4745",
";. c #884345",
":. c #A25243",
">. c #A95E42",
",. c #A0634D",
"<. c #B37841",
"1. c #8C5369",
"2. c #82647B",
"3. c #8A6C7D",
"4. c #82647A",
"5. c #BF8338",
"6. c #CE8C2F",
"7. c #C7882E",
"8. c #DA952D",
"9. c #CC8B33",
"0. c #C9863A",
"q. c #D18D38",
"w. c #CE913D",
"e. c #DC9937",
"r. c #E09A2D",
"t. c #FAAE2D",
"y. c #FEB32E",
"u. c #EFA731",
"i. c #B58773",
"p. c #CD9243",
"a. c #CD9854",
"s. c #E6A641",
"d. c #E1AE6B",
"f. c #E6BA7F",
"g. c #8C6D82",
"h. c #876B81",
"j. c #926A81",
"k. c #877682",
"l. c #95758C",
"z. c #947C8A",
"x. c #977988",
"c. c #9D7A90",
"v. c #988B8B",
"b. c #9B908E",
"n. c #9C8792",
"m. c #9C9095",
"M. c #B38E86",
"N. c #A18791",
"B. c #A28994",
"V. c #A28F98",
"C. c #B58E9E",
"Z. c #A89598",
"A. c #B2989F",
"S. c #B996A5",
"D. c #BAABAB",
"F. c #B8A1A7",
"G. c #BFB1AC",
"H. c #D8AF83",
"J. c #E1BB91",
"K. c #C5ACAD",
"L. c #DCBBA3",
"P. c #CCACB6",
"I. c #C8A1B1",
"U. c #C7B4B4",
"Y. c #D3BBBC",
"T. c #D3B6BC",
"R. c #D3ABC8",
"E. c #DAC8C4",
"W. c #DDC0D0",
"Q. c #E2CBC9",
"!. c #E1CBC4",
"~. c #E6D2CD",
"^. c #EED6D3",
"/. c #EEDDD5",
"(. c #F2DDD7",
"). c #F7E2DB",
"_. c #FFF0E5",
"`. c None",
/* pixels */
"`.`.`.`.`.`.`.`.`.`.`.`.`.`.`.`.`.`.`.`.`.`.`.`.`.`.`.`.`.`.`.`.`.`.`.`.`.`.`.`.`.`.`.`.`.`.`.`.`.`.`.`.`.`.`.`.`.`.`.`.`.`.`.`.",
"`.`.`.`.`.`.`.`.`.`.`.`.`.`.`.`.`.`.`.`.`.`.`.`.`.`.`.`.`.`.`.`.`.`.`.`.`.`.`.`.`.`.`.`.`.`.`.`.`.`.`.`.`.`.`.`.`.`.`.`.`.`.`.`.",
"`.`.`.`.`.`.`.`.`.`.`.`.`.`.`.`.`.`.`.`.`.`.`.`.`.`.`.`.`.`.`.`.`.`.`.`.`.`.`.`.`.`.`.`.`.`.`.`.`.`.`.`.`.`.`.`.`.`.`.`.`.`.`.`.",
"`.`.`.`.`.`.`.`.`.`.`.`.`.`.`.`.`.`.`.`.`.`.`.`.`.`.`.`.`.`.`.`.`.`.`.`.`.`.`.`.`.`.`.`.`.`.`.`.`.`.`.`.`.`.`.`.`.`.`.`.`.`.`.`.",
"`.`.`.`.`.`.`.`.`.`.`.`.`.`.`.`.`.`.`.`.`.`.`.`.`.`.`.`.`.`.`.`.`.`.`.`.`.`.`.`.`.`.`.`.`.`.`.`.`.`.`.`.`.`.`.`.`.`.`.`.`.`.`.`.",
"`.`.`.`.`.`.`.`.`.`.`.`.`.`.`.`.`.`.`.`.`.`.`.`.`.`.`.`.`.`.`.`.`.`.`.`.`.`.`.`.`.`.`.`.`.`.`.`.`.`.`.`.`.`.`.`.`.`.`.`.`.`.`.`.",
"`.`.`.`.`.`.`.`.`.`.`.`.`.`.`.`.`.`.`.`.`.`.`.`.`.`.`.`.`.3.`.`.`.`.`.`.`.`.`.`.`.`.`.`.`.`.`.`.`.`.`.`.`.`.`.`.`.`.`.`.`.`.`.`.",
"`.`.`.`.`.`.`.`.`.`.`.`.`.`.`.`.`.`.`.`.`.`.`.`.`.`.`.B.Y./.Q.A.`.`.`.`.`.`.`.`.`.`.`.`.`.`.`.`.`.`.`.`.`.`.`.`.`.`.`.`.`.`.`.`.",
"`.`.`.`.`.`.`.`.`.`.`.`.`.`.`.`.`.`.`.`.`.`.`.`.`.`.x.(._._._.^.l.`.`.`.`.`.`.`.`.`.`.`.`.`.`.`.`.`.`.`.`.`.`.`.`.`.`.`.`.`.`.`.",
"`.`.`.`.`.`.`.`.`.`.`.`.`.`.`.`.`.`.`.`.`.`.`.`.`.A.E.).(.~.E./.S.N # `.`.`.`.`.`.`.`.`.`.`.`.`.`.`.`.`.`.`.`.`.`.`.`.`.`.`.`.`.",
"`.`.`.`.`.`.`.`.`.`.`.`.`.`.`.`.`.`.`.`.`.`.`.`.`.Z.b.P.K.g.- Y.T.h 2 `.`.`.`.`.`.`.`.`.`.`.`.`.`.`.`.`.`.`.`.`.`.`.`.`.`.`.`.`.",
"`.`.`.`.`.`.`.`.`.`.`.`.`.`.`.`.`.`.`.`.`.`.`.`.4 - Z F.~.R.l.A.j.6 1 # `.`.`.`.`.`.`.`.`.`.`.`.`.`.`.`.`.`.`.`.`.`.`.`.`.`.`.`.",
"`.`.`.`.`.`.`.`.`.`.`.`.`.`.`.`.`.`.`.`.`.`.`.1 L n W.v.G./.D.z.A e I 2 `.`.`.`.`.`.`.`.`.`.`.`.`.`.`.`.`.`.`.`.`.`.`.`.`.`.`.`.",
"`.`.`.`.`.`.`.`.`.`.`.`.`.`.`.`.`.`.`.`.`.`.`.`.L y v.H Z.b.O ; i T L `.`.`.`.`.`.`.`.`.`.`.`.`.`.`.`.`.`.`.`.`.`.`.`.`.`.`.`.`.",
"`.`.`.`.`.`.`.`.`.`.`.`.`.`.`.`.`.`.`.`.`.`.`.`.w L 6 X O % : I Y U 2 `.`.`.`.`.`.`.`.`.`.`.`.`.`.`.`.`.`.`.`.`.`.`.`.`.`.`.`.`.",
"`.`.`.`.`.`.`.`.`.`.`.`.`.`.`.`.`.`.`.`.`.`.`.`.K I 7 X . w I E } Y 9 `.`.`.`.`.`.`.`.`.`.`.`.`.`.`.`.`.`.`.`.`.`.`.`.`.`.`.`.`.",
"`.`.`.`.`.`.`.`.`.`.`.`.`.`.`.`.`.`.`.`.`.`.`.`.2 e 7     > i L Y q `.`.`.`.`.`.`.`.`.`.`.`.`.`.`.`.`.`.`.`.`.`.`.`.`.`.`.`.`.`.",
"`.`.`.`.`.`.`.`.`.`.`.`.`.`.`.`.`.`.`.`.`.`.`.`.`.8 : o > i I i r r 8 `.`.`.`.`.`.`.`.`.`.`.`.`.`.`.`.`.`.`.`.`.`.`.`.`.`.`.`.`.",
"`.`.`.`.`.`.`.`.`.`.`.`.`.`.`.`.`.`.`.`.`.`.`.`.U I ; o 7 Y R r K U y / `.`.`.`.`.`.`.`.`.`.`.`.`.`.`.`.`.`.`.`.`.`.`.`.`.`.`.`.",
"`.`.`.`.`.`.`.`.`.`.`.`.`.`.`.`.`.`.`.`.`.`.9.;.Y I 7 X ; I E U 0 2 W u.^ `.`.`.`.`.`.`.`.`.`.`.`.`.`.`.`.`.`.`.`.`.`.`.`.`.`.`.",
"`.`.`.`.`.`.`.`.`.`.`.`.`.`.`.`.`.`.`.`.`.`.9.;.{ T w o : T } I L O.9.^ ' L `.`.`.`.`.`.`.`.`.`.`.`.`.`.`.`.`.`.`.`.`.`.`.`.`.`.",
"`.`.`.`.`.`.`.`.`.`.`.`.`.`.`.`.`.`.`.`.`.x 5.-.{ } T w R =.| ` -.e.^ f I E Y L `.`.`.`.`.`.`.`.`.`.`.`.`.`.`.`.`.`.`.`.`.`.`.`.",
"`.`.`.`.`.`.`.`.`.`.`.`.`.`.`.`.`.`.`.`.e ) >.0.' Y I I R { X.( 7.,. .R R =.U 8 `.`.`.`.`.`.`.`.`.`.`.`.`.`.`.`.`.`.`.`.`.`.`.`.",
"`.`.`.`.`.`.`.`.`.`.`.`.`.`.`.`.`.`.`.`.1 Y -.~ ..Y 8 L ..:.^ 0.*.[ | | =.Y r K `.`.`.`.`.`.`.`.`.`.`.`.`.`.`.`.`.`.`.`.`.`.`.`.",
"`.`.`.`.`.`.`.`.`.`.`.`.`.`.`.`.`.`.`.`.e R ` ^ ,.#.v +.0.q.:.' } | =.| | L I R 2 `.`.`.`.`.`.`.`.`.`.`.`.`.`.`.`.`.`.`.`.`.`.`.",
"`.`.`.`.`.`.`.`.`.`.`.`.`.`.`.`.`.`.`.U Y T } %.K.!.d.L.i.o.{ =.| | | | } Y } I 8 < `.`.`.`.`.`.`.`.`.`.`.`.`.`.`.`.`.`.`.`.`.`.",
"`.`.`.`.`.`.`.`.`.`.`.`.`.`.`.`.`.`.L } E T  .C.H.a.p.J.L.$.E | | | | | } T i 0 8 0 Y L `.`.`.`.`.`.`.`.`.`.`.`.`.`.`.`.`.`.`.`.",
"`.`.`.`.`.`.`.`.`.`.`.`.`.`.`.`.`.`.0 T { [ ] M.e.y.y.p.f.&.| | | =.| =.| t 2 t R | } L 1 `.`.`.`.`.`.`.`.`.`.`.`.`.`.`.`.`.`.`.",
"`.`.`.`.`.`.`.`.`.`.`.`.`.`.`.`.w 8 P Y i K _ <.8.y.y.9.s.+.| | | | | | | L U R | | R K K U `.`.`.`.`.`.`.`.`.`.`.`.`.`.`.`.`.`.",
"`.`.`.`.`.`.`.`.`.`.`.`.`.`.9 [ R U T Y i i _ ! 9.r.8.8.q.X.| =.=.=.} U R =.R I Y E U i Y | U `.`.`.`.`.`.`.`.`.`.`.`.`.`.`.`.`.",
"`.`.`.`.`.`.`.`.`.`.`.x.`.V 4 y R I K i i i i f ! ~ ~ ~ *.E =.| | =.} i L L K r I U I I [ Y T L `.`.`.`.`.`.`.`.`.`.`.`.`.`.`.`.",
"`.`.`.`.`.`.`.`.`.`.N.Q.Y.E.V C #.R K u i i i i d s s ' E =.E =.| | } Y L u u u y c 1 < U T T U `.`.`.`.`.`.`.`.`.`.`.`.`.`.`.`.",
"`.`.`.`.`.`.`.`.`.N.x.Z.P.k.4.2.c T K u i u u i i w 8 E | | | | | | | { K i u b n.D.p g m  .T I `.`.`.`.`.`.`.`.`.`.`.`.`.`.`.`.",
"`.`.`.`.`.`.`.`.l g.M j F N g.z.4 T K u i i i i K L 0 K L R =.| =.T L i u i y 4.z.k.D.G h.b Y Y `.`.`.`.`.`.`.`.`.`.`.`.`.`.`.`.",
"`.`.`.`.`.`.`.`.`.D l k k k U.J < R L u u u u u U =.I t L I | | =.} L u d r h 3.l l.B.M m.S w U `.`.`.`.`.`.`.`.`.`.`.`.`.`.`.`.",
"`.`.`.`.`.`.`.`.`.`.`.`.`.`.k.p < T K 1 5 u K i U =.I i [ L R | | | { I ) u n F C c.M M P.m.1.r `.`.`.`.`.`.`.`.`.`.`.`.`.`.`.`.",
"`.`.`.`.`.`.`.`.`.`.`.`.`., , + 9 Y w , `.< L i K { R L U K L | | Y U Y Y 1 C 2.j z z 2.2.V.n.5 `.`.`.`.`.`.`.`.`.`.`.`.`.`.`.`.",
"`.`.`.`.`.`.`.`.`.`.`.`.`.1 w 1 U U 2 `.`.`.U I i K I T I T } } | [ U w , `.* * p z j 2.S c.h < `.`.`.`.`.`.`.`.`.`.`.`.`.`.`.`.",
"`.`.`.`.`.`.`.`.`.`.`.`.`.`.8 U T r `.`.`.`.R E i 2 L } Y =.E =.| | | I `.`.`.`.5 = = = p B y , `.`.`.`.`.`.`.`.`.`.`.`.`.`.`.`.",
"`.`.`.`.`.`.`.`.`.`.`.`.`.`.`.`.< `.`.`.`.`.T I `.`.0 I U =.=.Y R | =.U `.`.`.`.< < & @ & 3 2 `.`.`.`.`.`.`.`.`.`.`.`.`.`.`.`.`.",
"`.`.`.`.`.`.`.`.`.`.`.`.`.`.`.`.`.`.`.`.`.`.r `.`.`.5 0 Y =.=.L U E E U `.`.`.`.`.< 5 1 1 < `.`.`.`.`.`.`.`.`.`.`.`.`.`.`.`.`.`.",
"`.`.`.`.`.`.`.`.`.`.`.`.`.`.`.`.`.`.`.`.`.`.`.`.`.< 8 r } | | L 9 T T `.`.`.`.`.`.`.`.`.`.`.`.`.`.`.`.`.`.`.`.`.`.`.`.`.`.`.`.`.",
"`.`.`.`.`.`.`.`.`.`.`.`.`.`.`.`.`.`.`.`.`.`.`.`.`.1 5 r T =.R `.`.I I `.`.`.`.`.`.`.`.`.`.`.`.`.`.`.`.`.`.`.`.`.`.`.`.`.`.`.`.`.",
"`.`.`.`.`.`.`.`.`.`.`.`.`.`.`.`.`.`.`.`.`.`.`.`.`.< < u i T } Y `.`.`.`.`.`.`.`.`.`.`.`.`.`.`.`.`.`.`.`.`.`.`.`.`.`.`.`.`.`.`.`.",
"`.`.`.`.`.`.`.`.`.`.`.`.`.`.`.`.`.`.`.`.`.`.`.`.`.`.`.< 2 r R E U `.`.`.`.`.`.`.`.`.`.`.`.`.`.`.`.`.`.`.`.`.`.`.`.`.`.`.`.`.`.`.",
"`.`.`.`.`.`.`.`.`.`.`.`.`.`.`.`.`.`.`.`.`.`.`.`.`.`.`.`.`.w =.E L `.`.`.`.`.`.`.`.`.`.`.`.`.`.`.`.`.`.`.`.`.`.`.`.`.`.`.`.`.`.`.",
"`.`.`.`.`.`.`.`.`.`.`.`.`.`.`.`.`.`.`.`.`.`.`.`.`.`.`.`.U R T r `.`.`.`.`.`.`.`.`.`.`.`.`.`.`.`.`.`.`.`.`.`.`.`.`.`.`.`.`.`.`.`.",
"`.`.`.`.`.`.`.`.`.`.`.`.`.`.`.`.`.`.`.`.`.`.`.`.`.`.`.U =.| L < `.`.`.`.`.`.`.`.`.`.`.`.`.`.`.`.`.`.`.`.`.`.`.`.`.`.`.`.`.`.`.`.",
"`.`.`.`.`.`.`.`.`.`.`.`.`.`.`.`.`.`.`.`.`.`.`.`.`.`.`.K Y { T U 9 `.`.`.`.`.`.`.`.`.`.`.`.`.`.`.`.`.`.`.`.`.`.`.`.`.`.`.`.`.`.`.",
"`.`.`.`.`.`.`.`.`.`.`.`.`.`.`.`.`.`.`.`.`.`.`.`.`.`.`.`.`.2 u i 8 `.`.`.`.`.`.`.`.`.`.`.`.`.`.`.`.`.`.`.`.`.`.`.`.`.`.`.`.`.`.`.",
"`.`.`.`.`.`.`.`.`.`.`.`.`.`.`.`.`.`.`.`.`.`.`.`.`.`.`.`.`.`.< u 2 `.`.`.`.`.`.`.`.`.`.`.`.`.`.`.`.`.`.`.`.`.`.`.`.`.`.`.`.`.`.`.",
"`.`.`.`.`.`.`.`.`.`.`.`.`.`.`.`.`.`.`.`.`.`.`.`.`.`.`.`.`.`.q 0 < `.`.`.`.`.`.`.`.`.`.`.`.`.`.`.`.`.`.`.`.`.`.`.`.`.`.`.`.`.`.`.",
"`.`.`.`.`.`.`.`.`.`.`.`.`.`.`.`.`.`.`.`.`.`.`.`.`.`.`.`.`.8 0 < `.`.`.`.`.`.`.`.`.`.`.`.`.`.`.`.`.`.`.`.`.`.`.`.`.`.`.`.`.`.`.`.",
"`.`.`.`.`.`.`.`.`.`.`.`.`.`.`.`.`.`.`.`.`.`.`.`.`.`.`.`.`.2 < `.`.`.`.`.`.`.`.`.`.`.`.`.`.`.`.`.`.`.`.`.`.`.`.`.`.`.`.`.`.`.`.`.",
"`.`.`.`.`.`.`.`.`.`.`.`.`.`.`.`.`.`.`.`.`.`.`.`.`.`.`.`.`.& @ @ `.`.`.`.`.`.`.`.`.`.`.`.`.`.`.`.`.`.`.`.`.`.`.`.`.`.`.`.`.`.`.`.",
"`.`.`.`.`.`.`.`.`.`.`.`.`.`.`.`.`.`.`.`.`.`.`.`.`.`.`.`.`.`.`.@ `.`.`.`.`.`.`.`.`.`.`.`.`.`.`.`.`.`.`.`.`.`.`.`.`.`.`.`.`.`.`.`.",
"`.`.`.`.`.`.`.`.`.`.`.`.`.`.`.`.`.`.`.`.`.`.`.`.`.`.`.`.`.`.`.@ `.`.`.`.`.`.`.`.`.`.`.`.`.`.`.`.`.`.`.`.`.`.`.`.`.`.`.`.`.`.`.`.",
"`.`.`.`.`.`.`.`.`.`.`.`.`.`.`.`.`.`.`.`.`.`.`.`.`.`.`.`.`.`.`.`.`.`.`.`.`.`.`.`.`.`.`.`.`.`.`.`.`.`.`.`.`.`.`.`.`.`.`.`.`.`.`.`.",
"`.`.`.`.`.`.`.`.`.`.`.`.`.`.`.`.`.`.`.`.`.`.`.`.`.`.`.`.`.`.`.`.`.`.`.`.`.`.`.`.`.`.`.`.`.`.`.`.`.`.`.`.`.`.`.`.`.`.`.`.`.`.`.`.",
"`.`.`.`.`.`.`.`.`.`.`.`.`.`.`.`.`.`.`.`.`.`.`.`.`.`.`.`.`.`.`.`.`.`.`.`.`.`.`.`.`.`.`.`.`.`.`.`.`.`.`.`.`.`.`.`.`.`.`.`.`.`.`.`.",
"`.`.`.`.`.`.`.`.`.`.`.`.`.`.`.`.`.`.`.`.`.`.`.`.`.`.`.`.`.`.`.`.`.`.`.`.`.`.`.`.`.`.`.`.`.`.`.`.`.`.`.`.`.`.`.`.`.`.`.`.`.`.`.`.",
"`.`.`.`.`.`.`.`.`.`.`.`.`.`.`.`.`.`.`.`.`.`.`.`.`.`.`.`.`.`.`.`.`.`.`.`.`.`.`.`.`.`.`.`.`.`.`.`.`.`.`.`.`.`.`.`.`.`.`.`.`.`.`.`.",
"`.`.`.`.`.`.`.`.`.`.`.`.`.`.`.`.`.`.`.`.`.`.`.`.`.`.`.`.`.`.`.`.`.`.`.`.`.`.`.`.`.`.`.`.`.`.`.`.`.`.`.`.`.`.`.`.`.`.`.`.`.`.`.`.",
"`.`.`.`.`.`.`.`.`.`.`.`.`.`.`.`.`.`.`.`.`.`.`.`.`.`.`.`.`.`.`.`.`.`.`.`.`.`.`.`.`.`.`.`.`.`.`.`.`.`.`.`.`.`.`.`.`.`.`.`.`.`.`.`."
};
