/* XPM */
static char *result[] = {
/* columns rows colors chars-per-pixel */
"64 64 177 2 ",
"   c #0F0F18",
".  c #120F19",
"X  c #1C0E1B",
"o  c #16131C",
"O  c #260F1E",
"+  c #2F0E2E",
"@  c #330D2E",
"#  c #3D0D2E",
"$  c #310E20",
"%  c #30102F",
"&  c #3D0D30",
"*  c #341332",
"=  c #2F2534",
"-  c #4A0F29",
";  c #440D25",
":  c #540E29",
">  c #590D2A",
",  c #440D31",
"<  c #4B0D32",
"1  c #530E34",
"2  c #5C0F35",
"3  c #5A0E38",
"4  c #451F3D",
"5  c #4B1A3A",
"6  c #5D193C",
"7  c #5D153A",
"8  c #630E2F",
"9  c #6C0D2F",
"0  c #640E36",
"q  c #6C0D35",
"w  c #650F38",
"e  c #690F38",
"r  c #750C37",
"t  c #7B0B37",
"y  c #750E3A",
"u  c #7C0D39",
"i  c #6D123A",
"p  c #681839",
"a  c #75103A",
"s  c #79103B",
"d  c #46213F",
"f  c #4B2A3B",
"g  c #7F403F",
"h  c #3B2C44",
"j  c #671C41",
"k  c #751944",
"l  c #442C44",
"z  c #492844",
"x  c #443149",
"c  c #443746",
"v  c #4E3A51",
"b  c #533C53",
"n  c #5B3A54",
"m  c #772745",
"M  c #763C41",
"N  c #683856",
"B  c #494147",
"V  c #56425A",
"C  c #5A4259",
"Z  c #5C485F",
"A  c #63435B",
"S  c #634C63",
"D  c #6D4560",
"F  c #7E4665",
"G  c #685669",
"H  c #75576E",
"J  c #7A586B",
"K  c #765A71",
"L  c #7A5E75",
"P  c #7B6476",
"I  c #830E3B",
"U  c #8C0D3B",
"Y  c #890C35",
"T  c #940D3D",
"R  c #9C0C3D",
"E  c #81153E",
"W  c #A40C3E",
"Q  c #AC0B3E",
"!  c #B30B3F",
"~  c #BA093F",
"^  c #A05D3F",
"/  c #B5782E",
"(  c #A6653E",
")  c #A7693C",
"_  c #AF6A3B",
"`  c #B36B3D",
"'  c #B7653D",
"]  c #B57539",
"[  c #950F41",
"{  c #8A1144",
"}  c #851D43",
"|  c #981945",
" . c #A40D43",
".. c #AD0B43",
"X. c #B50A41",
"o. c #BD0A40",
"O. c #A41345",
"+. c #A61944",
"@. c #8C2949",
"#. c #962746",
"$. c #853743",
"%. c #9C3844",
"&. c #983259",
"*. c #C00A40",
"=. c #864744",
"-. c #974246",
";. c #9A4245",
":. c #9C5842",
">. c #984E58",
",. c #A94D41",
"<. c #A6705C",
"1. c #8B596D",
"2. c #975061",
"3. c #9B5277",
"4. c #89637B",
"5. c #85697C",
"6. c #BE8038",
"7. c #CB8A2D",
"8. c #C3832B",
"9. c #D28F2D",
"0. c #C08134",
"q. c #CD8E39",
"w. c #C58535",
"e. c #D49232",
"r. c #DB9937",
"t. c #E69F2D",
"y. c #E09C35",
"u. c #F6AC2F",
"i. c #FFB52F",
"p. c #ECA533",
"a. c #BD8858",
"s. c #B28067",
"d. c #AC8374",
"f. c #B18173",
"g. c #D49F5A",
"h. c #D19646",
"j. c #E6B05E",
"k. c #DBA761",
"l. c #8B7584",
"z. c #917285",
"x. c #9A7C8B",
"c. c #967689",
"v. c #A17E99",
"b. c #8F848B",
"n. c #9B908E",
"m. c #9E8C94",
"M. c #AD899B",
"N. c #A78895",
"B. c #AC9C9C",
"V. c #A89599",
"C. c #B0909D",
"Z. c #B595A4",
"A. c #BC9DA9",
"S. c #B79BA5",
"D. c #BC99B8",
"F. c #BAA2A7",
"G. c #B8AAAB",
"H. c #DCBA99",
"J. c #C0A6AB",
"K. c #C2B4AE",
"L. c #C5ABB1",
"P. c #CBB3B5",
"I. c #C7B8B5",
"U. c #D4B9B2",
"Y. c #D7B7BF",
"T. c #ECC082",
"R. c #EBCAA5",
"E. c #D9BCC2",
"W. c #D7C4C2",
"Q. c #DDC6C6",
"!. c #E2C1D0",
"~. c #F1DDD7",
"^. c #F3DBD8",
"/. c #F7E4DC",
"(. c #FFEEE4",
"). c #FFF2E7",
"_. c None",
/* pixels */
"_._._._._._._._._._._._._._._._._._._._._._._._._._._._._._._._._._._._._._._._._._._._._._._._._._._._._._._._._._._._._._._._.",
"_._._._._._._._._._._._._._._._._._._._._._._._._._._._._._._._._._._._._._._._._._._._._._._._._._._._._._._._._._._._._._._._.",
"_._._._._._._._._._._._._._._._._._._._._._._._._._._._._._._._._._._._._._._._._._._._._._._._._._._._._._._._._._._._._._._._.",
"_._._._._._._._._._._._._._._._._._._._._._._._._._._._._._._._._._._._._._._._._._._._._._._._._._._._._._._._._._._._._._._._.",
"_._._._._._._._._._._._._._._._._._._._._._._._._._._._._._._._._._._._._._._._._._._._._._._._._._._._._._._._._._._._._._._._.",
"_._._._._._._._._._._._._._._._._._._._._._._._._._._._._._.x.c._._._._._._._._._._._._._._._._._._._._._._._._._._._._._._._._.",
"_._._._._._._._._._._._._._._._._._._._._._._._._._._._.C.W./.~.P.z._._._._._._._._._._._._._._._._._._._._._._._._._._._._._._.",
"_._._._._._._._._._._._._._._._._._._._._._._._._._._.J.~.(.(.).^.N.V _._._._._._._._._._._._._._._._._._._._._._._._._._._._._.",
"_._._._._._._._._._._._._._._._._._._._._._._._._._.G.K.Y.Y.!.K.Q.A.S , # _._._._._._._._._._._._._._._._._._._._._._._._._._._.",
"_._._._._._._._._._._._._._._._._._._._._._._._._._.V h A.Y.v.= B.E.N 2 , _._._._._._._._._._._._._._._._._._._._._._._._._._._.",
"_._._._._._._._._._._._._._._._._._._._._._._._._., f D.V.B.Q.m.A.C.7 1 , _._._._._._._._._._._._._._._._._._._._._._._._._._._.",
"_._._._._._._._._._._._._._._._._._._._._._._._.- T p B.n.B.W.B J F t R q _._._._._._._._._._._._._._._._._._._._._._._._._._._.",
"_._._._._._._._._._._._._._._._._._._._._._._._._.I I f o = = o , r Q U _._._._._._._._._._._._._._._._._._._._._._._._._._._._.",
"_._._._._._._._._._._._._._._._._._._._._._._._._.0 I ;   . O > W W W q _._._._._._._._._._._._._._._._._._._._._._._._._._._._.",
"_._._._._._._._._._._._._._._._._._._._._._._._._.q T -   o 9 U Q o.W q _._._._._._._._._._._._._._._._._._._._._._._._._._._._.",
"_._._._._._._._._._._._._._._._._._._._._._._._._._.t Y X o - s s R 0 _._._._._._._._._._._._._._._._._._._._._._._._._._._._._.",
"_._._._._._._._._._._._._._._._._._._._._._._._._._.q > X 8 s W s u U r _._._._._._._._._._._._._._._._._._._._._._._._._._._._.",
"_._._._._._._._._._._._._._._._._._._._._._._._.M [ W 0 X : R o.U s T w / 8._._._._._._._._._._._._._._._._._._._._._._._._._._.",
"_._._._._._._._._._._._._._._._._._._._._._._.7.:. .W 9 X O Y o.Q a 2 g p.] _._._._._._._._._._._._._._._._._._._._._._._._._._.",
"_._._._._._._._._._._._._._._._._._._._._._._.7.:...~ U $ : Q ~ W T $.0.] @.E T _._._._._._._._._._._._._._._._._._._._._._._._.",
"_._._._._._._._._._._._._._._._._._._._._._.k ) :.O.Q ! I ! *.o. .%.y._ k T ~ ~ R _._._._._._._._._._._._._._._._._._._._._._._.",
"_._._._._._._._._._._._._._._._._._._._._.U ..-.r.#.T T Y ..o.+.;.0.` +.X.o.~ W r _._._._._._._._._._._._._._._._._._._._._._._.",
"_._._._._._._._._._._._._._._._._._._._._.I o.#.6.$. .q U [ | ` q.` | ~ o.*.Q I U _._._._._._._._._._._._._._._._._._._._._._._.",
"_._._._._._._._._._._._._._._._._._._._._.I *.O.( ) { y [ ,.q.w.%. .~ *.*.~ T T ! q _._._._._._._._._._._._._._._._._._._._._._.",
"_._._._._._._._._._._._._._._._._._._._.s R ~ X.-.d.Z.s.<.a.<.+.o.*.o.o.o.X.W ! T a , r _._._._._._._._._._._._._._._._._._._._.",
"_._._._._._._._._._._._._._._._._._._.R ! W o.X.3.U.H.k.R.U.&.*.o.o.*.o.*.o.! u e 0 r  .R 1 _._._._._._._._._._._._._._._._._._.",
"_._._._._._._._._._._._._._._._._._., R o. .o. .N.g.t.t.h.T.2.X.o.o.o.o.~ *.u 2 r W o.o.U r U _._._._._._._._._._._._._._._._._.",
"_._._._._._._._._._._._._._._.1 I t U R T s R  .<.e.i.i.e.j.>.X.o.*.*.o.~ ~ R W o.Q ! Q E U X. .T _._._._._._._._._._._._._._._.",
"_._._._._._._._._._._._._._.4 Y ~ Q [ ..U a T O.:.e.u.u.9.t.;.X.o.o.o.o.R Q ~ Q T T Q [ W ! W X.X._._._._._._._._._._._._._._._.",
"_._._._._._._._._._.5.S.P.P.m.z E Q U s s s s T @./ 7.7.y.,.+.o.o.o.o.o.I E I u y m 1.p < u ! W ! T _._._._._._._._._._._._._._.",
"_._._._._._._._._.F.B.L.L.W.z.G J | W a s s a s s m =.=.:.+.~ o.o.o.*.~ ! T s s j V.W.G v 4.@.X.W u _._._._._._._._._._._._._._.",
"_._._._._._._._.A Z.l.n S c.C c.S s W u a s s s s a 2 I X.X.*.*.o.*.*.~ Q E a a D N.m.W.P L C u ! 2 _._._._._._._._._._._._._._.",
"_._._._._._._._.b 5.C x n v b x.l.E W s u s s s s s e 0 I T o.o.o.o.o.R E a s 6 K Z 5.c.v B.b.6  .2 _._._._._._._._._._._._._._.",
"_._._._._._._._.h x _.x b x l K.G.} W s a a s a T ! Q r T E Q o.o.*.o.R u a u p n S z.H v M.S.N.s _._._._._._._._._._._._._._._.",
"_._._._._._._._._._._._._._.2 J x u W e w s s a W *.! I W R T o.o.o.o.W T  .u n c.K b v l.L l.v.i _._._._._._._._._._._._._._._.",
"_._._._._._._._._._._._._._.r 1 @ I T , , 0 U u T ! W U u T s W *.*.! T R R 2 5 4 z l h Z z S P * _._._._._._._._._._._._._._._.",
"_._._._._._._._._._._._._._.r T r W 0 _._._.T E s U ..Q T ! ! o.*.~ ! ..U , _., & 1 * @ % % d z * _._._._._._._._._._._._._._._.",
"_._._._._._._._._._._._._._.< t R T _._._._.Q ! I a U ~ W ! ~ o.*.*.*.*.W _._._._.1 , @ # < 0 2 _._._._._._._._._._._._._._._._.",
"_._._._._._._._._._._._._._._._._._._._._._.! Q 0 2 s ! W ! *.Q t Q o.o.W _._._._._.1 1 2 1 < _._._._._._._._._._._._._._._._._.",
"_._._._._._._._._._._._._._._._._._._._._._.R I _._.3 R W ! ~ u _.U o.o.U _._._._._._., _._._._._._._._._._._._._._._._._._._._.",
"_._._._._._._._._._._._._._._._._._._._._._._._._._._.T U W *.I _.U ! W _._._._._._._._._._._._._._._._._._._._._._._._._._._._.",
"_._._._._._._._._._._._._._._._._._._._._._._._._._._.I t W o.T _._.T _._._._._._._._._._._._._._._._._._._._._._._._._._._._._.",
"_._._._._._._._._._._._._._._._._._._._._._._._._._., 0 2 T o.Q _._._._._._._._._._._._._._._._._._._._._._._._._._._._._._._._.",
"_._._._._._._._._._._._._._._._._._._._._._._._._._.< i 2 U X.~ T _._._._._._._._._._._._._._._._._._._._._._._._._._._._._._._.",
"_._._._._._._._._._._._._._._._._._._._._._._._._._._.2 1 a W ~ X.T _._._._._._._._._._._._._._._._._._._._._._._._._._._._._._.",
"_._._._._._._._._._._._._._._._._._._._._._._._._._._._.& 0 U ! *.Q _._._._._._._._._._._._._._._._._._._._._._._._._._._._._._.",
"_._._._._._._._._._._._._._._._._._._._._._._._._._._._._.0 Q ~ ! I _._._._._._._._._._._._._._._._._._._._._._._._._._._._._._.",
"_._._._._._._._._._._._._._._._._._._._._._._._._._._.T T Q ! T 0 _._._._._._._._._._._._._._._._._._._._._._._._._._._._._._._.",
"_._._._._._._._._._._._._._._._._._._._._._._._._._._.U ! W 0 _._._._._._._._._._._._._._._._._._._._._._._._._._._._._._._._._.",
"_._._._._._._._._._._._._._._._._._._._._._._._._._._._.0 U r , , _._._._._._._._._._._._._._._._._._._._._._._._._._._._._._._.",
"_._._._._._._._._._._._._._._._._._._._._._._._._._._._._.3 s i w , _._._._._._._._._._._._._._._._._._._._._._._._._._._._._._.",
"_._._._._._._._._._._._._._._._._._._._._._._._._._._._._.1 a w 1 * _._._._._._._._._._._._._._._._._._._._._._._._._._._._._._.",
"_._._._._._._._._._._._._._._._._._._._._._._._._._._._._.0 2 _._._._._._._._._._._._._._._._._._._._._._._._._._._._._._._._._.",
"_._._._._._._._._._._._._._._._._._._._._._._._._._._._.2 3 _._._._._._._._._._._._._._._._._._._._._._._._._._._._._._._._._._.",
"_._._._._._._._._._._._._._._._._._._._._._._._._._._., < _._._._._._._._._._._._._._._._._._._._._._._._._._._._._._._._._._._.",
"_._._._._._._._._._._._._._._._._._._._._._._._._._._._.@ @ @ _._._._._._._._._._._._._._._._._._._._._._._._._._._._._._._._._.",
"_._._._._._._._._._._._._._._._._._._._._._._._._._._._._.@ @ _._._._._._._._._._._._._._._._._._._._._._._._._._._._._._._._._.",
"_._._._._._._._._._._._._._._._._._._._._._._._._._._._._._._._._._._._._._._._._._._._._._._._._._._._._._._._._._._._._._._._.",
"_._._._._._._._._._._._._._._._._._._._._._._._._._._._._._._._._._._._._._._._._._._._._._._._._._._._._._._._._._._._._._._._.",
"_._._._._._._._._._._._._._._._._._._._._._._._._._._._._._._._._._._._._._._._._._._._._._._._._._._._._._._._._._._._._._._._.",
"_._._._._._._._._._._._._._._._._._._._._._._._._._._._._._._._._._._._._._._._._._._._._._._._._._._._._._._._._._._._._._._._.",
"_._._._._._._._._._._._._._._._._._._._._._._._._._._._._._._._._._._._._._._._._._._._._._._._._._._._._._._._._._._._._._._._.",
"_._._._._._._._._._._._._._._._._._._._._._._._._._._._._._._._._._._._._._._._._._._._._._._._._._._._._._._._._._._._._._._._.",
"_._._._._._._._._._._._._._._._._._._._._._._._._._._._._._._._._._._._._._._._._._._._._._._._._._._._._._._._._._._._._._._._."
};
