/* XPM */
static char *result[] = {
/* columns rows colors chars-per-pixel */
"64 64 184 2 ",
"   c #2B0E1E",
".  c #2A0F20",
"X  c #3A0E22",
"o  c #330D2E",
"O  c #390D2F",
"+  c #2F1F2B",
"@  c #3E0E30",
"#  c #351633",
"$  c #33233D",
"%  c #3B233E",
"&  c #392E3D",
"*  c #3A363C",
"=  c #420F28",
"-  c #520E2A",
";  c #5C0D2C",
":  c #451028",
">  c #430E31",
",  c #4B0D32",
"<  c #540E34",
"1  c #5D0E35",
"2  c #421435",
"3  c #4B1A3A",
"4  c #5F143B",
"5  c #591036",
"6  c #620D2C",
"7  c #640D35",
"8  c #6B0D36",
"9  c #6B0F38",
"0  c #730C36",
"q  c #7B0B37",
"w  c #730E39",
"e  c #7D0E3A",
"r  c #641B3C",
"t  c #651339",
"y  c #76103B",
"u  c #79103B",
"i  c #771036",
"p  c #4B213F",
"a  c #632039",
"s  c #641B41",
"d  c #7C1A45",
"f  c #412C44",
"g  c #4E2B48",
"h  c #582B48",
"j  c #45334B",
"k  c #4A344C",
"l  c #513448",
"z  c #543A52",
"x  c #5C3C55",
"c  c #5A3652",
"v  c #6A2849",
"b  c #752948",
"n  c #62394A",
"m  c #743957",
"M  c #5D445C",
"N  c #554656",
"B  c #5D5257",
"V  c #6A435B",
"C  c #61475B",
"Z  c #624C63",
"A  c #634760",
"S  c #7D4C63",
"D  c #685568",
"F  c #72566B",
"G  c #694871",
"H  c #7B5C74",
"J  c #755B72",
"K  c #786C6F",
"L  c #7E6279",
"P  c #7A6776",
"I  c #830E3A",
"U  c #8C0D3B",
"Y  c #830D35",
"T  c #940D3C",
"R  c #9C0C3D",
"E  c #92113E",
"W  c #A30C3E",
"Q  c #AC0B3F",
"!  c #B30B3F",
"~  c #B90A3F",
"^  c #89562C",
"/  c #A2573D",
"(  c #AB663F",
")  c #A7683C",
"_  c #AC7336",
"`  c #B37536",
"'  c #BA7E37",
"]  c #BA733D",
"[  c #BD7C3B",
"{  c #C0783C",
"}  c #970D42",
"|  c #861B43",
" . c #891541",
".. c #9C1645",
"X. c #941D48",
"o. c #A50E45",
"O. c #AB0D42",
"+. c #B30B41",
"@. c #BD0A40",
"#. c #A21245",
"$. c #A11D45",
"%. c #8A2A4A",
"&. c #9A2746",
"*. c #9C3B47",
"=. c #953A44",
"-. c #882F59",
";. c #A32045",
":. c #A03E44",
">. c #C00A40",
",. c #874841",
"<. c #984C43",
"1. c #9A5142",
"2. c #A14742",
"3. c #A55C42",
"4. c #A66444",
"5. c #AF7346",
"6. c #B97142",
"7. c #984260",
"8. c #975062",
"9. c #81647A",
"0. c #856D7C",
"q. c #8D6A7E",
"w. c #83737E",
"e. c #CC8C2E",
"r. c #D18F2F",
"t. c #D9952E",
"y. c #DA962D",
"u. c #CD8D34",
"i. c #C28433",
"p. c #D39133",
"a. c #D49138",
"s. c #E09A2D",
"d. c #E19C35",
"f. c #FBAE2B",
"g. c #FEB22E",
"h. c #E8A339",
"j. c #CD9242",
"k. c #D29644",
"l. c #CE9957",
"z. c #E5B677",
"x. c #876E81",
"c. c #927483",
"v. c #9B7C8D",
"b. c #957488",
"n. c #906E90",
"m. c #9F7F92",
"M. c #A87F84",
"N. c #A27E93",
"B. c #A87690",
"V. c #9F838F",
"C. c #9B8A93",
"Z. c #BB9483",
"A. c #A48494",
"S. c #A48C93",
"D. c #AA9C9D",
"F. c #A6959A",
"G. c #B2989F",
"H. c #B38CA0",
"J. c #B494A3",
"K. c #B29DA3",
"L. c #B89CA0",
"P. c #B2A4A1",
"I. c #B6A8A8",
"U. c #DBB181",
"Y. c #DCB895",
"T. c #C2AAAD",
"R. c #C8ABB5",
"E. c #C9B4B5",
"W. c #D4B6BC",
"Q. c #D1BABB",
"!. c #E8C7A9",
"~. c #DCBAC8",
"^. c #DACAC4",
"/. c #DDC2C5",
"(. c #E1CDC9",
"). c #E9CFCF",
"_. c #E7D3CE",
"`. c #EAD5D1",
"'. c #EBD2D8",
"]. c #F0DAD5",
"[. c #F4E1D9",
"{. c #FEEDE3",
"}. c #FFF1E6",
"|. c None",
/* pixels */
"|.|.|.|.|.|.|.|.|.|.|.|.|.|.|.|.|.|.|.|.|.|.|.|.|.|.|.|.|.|.|.|.|.|.|.|.|.|.|.|.|.|.|.|.|.|.|.|.|.|.|.|.|.|.|.|.|.|.|.|.|.|.|.|.",
"|.|.|.|.|.|.|.|.|.|.|.|.|.|.|.|.|.|.|.|.|.|.|.|.|.|.|.|.|.|.|.|.|.|.|.|.|.|.|.|.|.|.|.|.|.|.|.|.|.|.|.|.|.|.|.|.|.|.|.|.|.|.|.|.",
"|.|.|.|.|.|.|.|.|.|.|.|.|.|.|.|.|.|.|.|.|.|.|.|.|.|.|.|.|.|.|.|.|.|.|.|.|.|.|.|.|.|.|.|.|.|.|.|.|.|.|.|.|.|.|.|.|.|.|.|.|.|.|.|.",
"|.|.|.|.|.|.|.|.|.|.|.|.|.|.|.|.|.|.|.|.|.|.|.|.|.|.|.|.|.|.|.|.|.|.|.|.|.|.|.|.|.|.|.|.|.|.|.|.|.|.|.|.|.|.|.|.|.|.|.|.|.|.|.|.",
"|.|.|.|.|.|.|.|.|.|.|.|.|.|.|.|.|.|.|.|.|.|.|.|.|.|.|.|.|.|.|.|.|.|.|.|.|.|.|.|.|.|.|.|.|.|.|.|.|.|.|.|.|.|.|.|.|.|.|.|.|.|.|.|.",
"|.|.|.|.|.|.|.|.|.|.|.|.|.|.|.|.|.|.|.|.|.|.|.|.|.|.|.|.|.|.|.|.|.|.|.|.|.|.|.|.|.|.|.|.|.|.|.|.|.|.|.|.|.|.|.|.|.|.|.|.|.|.|.|.",
"|.|.|.|.|.|.|.|.|.|.|.|.|.|.|.|.|.|.|.|.|.|.|.|.|.|.|.|.|.S.T.T.c.|.|.|.|.|.|.|.|.|.|.|.|.|.|.|.|.|.|.|.|.|.|.|.|.|.|.|.|.|.|.|.",
"|.|.|.|.|.|.|.|.|.|.|.|.|.|.|.|.|.|.|.|.|.|.|.|.|.|.|.0.Q.[.}.{.`.v.|.|.|.|.|.|.|.|.|.|.|.|.|.|.|.|.|.|.|.|.|.|.|.|.|.|.|.|.|.|.",
"|.|.|.|.|.|.|.|.|.|.|.|.|.|.|.|.|.|.|.|.|.|.|.|.|.|.G.(.{.{.}.}.`.H.A |.|.|.|.|.|.|.|.|.|.|.|.|.|.|.|.|.|.|.|.|.|.|.|.|.|.|.|.|.",
"|.|.|.|.|.|.|.|.|.|.|.|.|.|.|.|.|.|.|.|.|.|.|.|.|.|.S.K R./.`.^.].R.A , > |.|.|.|.|.|.|.|.|.|.|.|.|.|.|.|.|.|.|.|.|.|.|.|.|.|.|.",
"|.|.|.|.|.|.|.|.|.|.|.|.|.|.|.|.|.|.|.|.|.|.|.|.|.|.f G R.W.v.& P.W.v 5 |.|.|.|.|.|.|.|.|.|.|.|.|.|.|.|.|.|.|.|.|.|.|.|.|.|.|.|.",
"|.|.|.|.|.|.|.|.|.|.|.|.|.|.|.|.|.|.|.|.|.|.|.|.|.7 m '.D.P.~.n.A.b.5 8 < o |.|.|.|.|.|.|.|.|.|.|.|.|.|.|.|.|.|.|.|.|.|.|.|.|.|.",
"|.|.|.|.|.|.|.|.|.|.|.|.|.|.|.|.|.|.|.|.|.|.|.|.|.T r I.D.P.^.B l b R W 8 |.|.|.|.|.|.|.|.|.|.|.|.|.|.|.|.|.|.|.|.|.|.|.|.|.|.|.",
"|.|.|.|.|.|.|.|.|.|.|.|.|.|.|.|.|.|.|.|.|.|.|.|.|.8 q n + * B : 7 U Q 8 |.|.|.|.|.|.|.|.|.|.|.|.|.|.|.|.|.|.|.|.|.|.|.|.|.|.|.|.",
"|.|.|.|.|.|.|.|.|.|.|.|.|.|.|.|.|.|.|.|.|.|.|.|.|.0 W q X   - W @.! W 0 |.|.|.|.|.|.|.|.|.|.|.|.|.|.|.|.|.|.|.|.|.|.|.|.|.|.|.|.",
"|.|.|.|.|.|.|.|.|.|.|.|.|.|.|.|.|.|.|.|.|.|.|.|.|.8 I 6   X u u T +.T |.|.|.|.|.|.|.|.|.|.|.|.|.|.|.|.|.|.|.|.|.|.|.|.|.|.|.|.|.",
"|.|.|.|.|.|.|.|.|.|.|.|.|.|.|.|.|.|.|.|.|.|.|.|.|.|.< w 6 . 7 I u I 7 |.|.|.|.|.|.|.|.|.|.|.|.|.|.|.|.|.|.|.|.|.|.|.|.|.|.|.|.|.",
"|.|.|.|.|.|.|.|.|.|.|.|.|.|.|.|.|.|.|.|.|.|.|.|.|.E I = X i R ! I e W i ^ |.|.|.|.|.|.|.|.|.|.|.|.|.|.|.|.|.|.|.|.|.|.|.|.|.|.|.",
"|.|.|.|.|.|.|.|.|.|.|.|.|.|.|.|.|.|.|.|.|.|.|.|.,.} ! Y X ; O.~ T u w r p.e.|.|.|.|.|.|.|.|.|.|.|.|.|.|.|.|.|.|.|.|.|.|.|.|.|.|.",
"|.|.|.|.|.|.|.|.|.|.|.|.|.|.|.|.|.|.|.|.|.|.|.t.3.O.~ 0   - ! >.O.e t ) d.1.v |.|.|.|.|.|.|.|.|.|.|.|.|.|.|.|.|.|.|.|.|.|.|.|.|.",
"|.|.|.|.|.|.|.|.|.|.|.|.|.|.|.|.|.|.|.|.|.|.|.` <.O.@.Q - Y @.@.W ..( i.,. .W W R |.|.|.|.|.|.|.|.|.|.|.|.|.|.|.|.|.|.|.|.|.|.|.",
"|.|.|.|.|.|.|.|.|.|.|.|.|.|.|.|.|.|.|.|.|.|.d [ 3.o.T R U Q >.+.X./ d.<.} W @.~ I |.|.|.|.|.|.|.|.|.|.|.|.|.|.|.|.|.|.|.|.|.|.|.",
"|.|.|.|.|.|.|.|.|.|.|.|.|.|.|.|.|.|.|.|.|.U +.<.u.&.W w I R o.*.a.u.=.+.>.@.~ U q |.|.|.|.|.|.|.|.|.|.|.|.|.|.|.|.|.|.|.|.|.|.|.",
"|.|.|.|.|.|.|.|.|.|.|.|.|.|.|.|.|.|.|.|.|.q >.%._ =.! 0 R $.6.u.[ *.+.>.@.>.R I Q 7 |.|.|.|.|.|.|.|.|.|.|.|.|.|.|.|.|.|.|.|.|.|.",
"|.|.|.|.|.|.|.|.|.|.|.|.|.|.|.|.|.|.|.|.|.U >.o.( 5.-.b -.] d.3.$.+.@.>.@.@.R W Q w > w |.|.|.|.|.|.|.|.|.|.|.|.|.|.|.|.|.|.|.|.",
"|.|.|.|.|.|.|.|.|.|.|.|.|.|.|.|.|.|.|.U W W @.@.-.G.^.z.Y.Z.:.+.~ >.@.@.@.~ ! W e 7 7 Q T |.|.|.|.|.|.|.|.|.|.|.|.|.|.|.|.|.|.|.",
"|.|.|.|.|.|.|.|.|.|.|.|.|.|.|.|.|.|.|.W >.Q +.O.B.Y.l.k.U.!.7.@.>.>.>.>.@.@.W 7 7 U ! >.T 1 |.|.|.|.|.|.|.|.|.|.|.|.|.|.|.|.|.|.",
"|.|.|.|.|.|.|.|.|.|.|.|.|.|.|.|.|.< > U Q R +.o.M.k.f.g.a.z.8.+.~ >.@.@.>.>.q 8 R @.~ Q u u W E |.|.|.|.|.|.|.|.|.|.|.|.|.|.|.|.",
"|.|.|.|.|.|.|.|.|.|.|.|.|.|.|.8 U W U Q R u E #.4.u.g.g.y.h.6.#.@.@.@.@.+.~ ~ ~ +.} ~ W E R Q ~ W |.|.|.|.|.|.|.|.|.|.|.|.|.|.|.",
"|.|.|.|.|.|.|.|.|.|.|.c.V.w.A u Q Q U T I u I +.&.` y.y.t.y.{ ..>.@.@.@.U T W T I I  .E R W Q Q ~ U |.|.|.|.|.|.|.|.|.|.|.|.|.|.",
"|.|.|.|.|.|.|.|.|.v.V.Q./.`.K.k v Q R u u u u I U b _ ' ' 6.;.@.@.@.@.@.T I u u y S P.h 2 v O.Q O.R |.|.|.|.|.|.|.|.|.|.|.|.|.|.",
"|.|.|.|.|.|.|.|.q.E.0.c.L.C.F H L | W u u u u y u u s d &.#.@.@.>.@.>.@.+.T u u t D.E.C.D b.m W Q U |.|.|.|.|.|.|.|.|.|.|.|.|.|.",
"|.|.|.|.|.|.|.M x.m.j f D M V m.A I W u u u u u u u 7 q W Q >.@.@.@.@.@.T u u w v A.x.^.x.P D , O.T |.|.|.|.|.|.|.|.|.|.|.|.|.|.",
"|.|.|.|.|.|.|.Z H N $ k x z z 0.I.| W u u u u u e E I 7 u I @.@.>.@.@.Q u u u u c 9.L H.D I.F.M T I |.|.|.|.|.|.|.|.|.|.|.|.|.|.",
"|.|.|.|.|.|.|.|.|.|.|.|.j $ # D I.| W w u u u u } >.@.I R U W @.@.@.>.+.I I u r H x D 9.x.J.L.F.} q |.|.|.|.|.|.|.|.|.|.|.|.|.|.",
"|.|.|.|.|.|.|.|.|.|.|.|.|.|.1 r % e o.9 t 8 I u R >.Q T I R I Q >.@.@.E } +.I t 9.9.f Z m.A A.x e 7 |.|.|.|.|.|.|.|.|.|.|.|.|.|.",
"|.|.|.|.|.|.|.|.|.|.|.|.|.|.|.q O Y T @ |., U w I O.+.R w T T O.@.@.+.R R 8 , 1 p g 3 $ % % J h 9 |.|.|.|.|.|.|.|.|.|.|.|.|.|.|.",
"|.|.|.|.|.|.|.|.|.|.|.|.|.|.|.q U Q q |.|.|.R T u I R ~ T ! @.@.@.@.@.@.T |.|.|.|.|.< O o o @ 4 1 |.|.|.|.|.|.|.|.|.|.|.|.|.|.|.",
"|.|.|.|.|.|.|.|.|.|.|.|.|.|.|.|.0 0 |.|.|.|.W ~ I 9 U @.R ! >.~ ! ~ @.>.W |.|.|.|.|., < < < 1 < |.|.|.|.|.|.|.|.|.|.|.|.|.|.|.|.",
"|.|.|.|.|.|.|.|.|.|.|.|.|.|.|.|.|.|.|.|.|.|.E W , , u ! W ! >.! < R >.@.R |.|.|.|.|.|.|.2 > |.|.|.|.|.|.|.|.|.|.|.|.|.|.|.|.|.|.",
"|.|.|.|.|.|.|.|.|.|.|.|.|.|.|.|.|.|.|.|.|.|.|.I |.|.> I ! W @.Q > 8 ! ! |.|.|.|.|.|.|.|.|.|.|.|.|.|.|.|.|.|.|.|.|.|.|.|.|.|.|.|.",
"|.|.|.|.|.|.|.|.|.|.|.|.|.|.|.|.|.|.|.|.|.|.|.|.|.|.|.< W I ~ Q |.|.T R |.|.|.|.|.|.|.|.|.|.|.|.|.|.|.|.|.|.|.|.|.|.|.|.|.|.|.|.",
"|.|.|.|.|.|.|.|.|.|.|.|.|.|.|.|.|.|.|.|.|.|.|.|.|.|.|.5 0 T ~ R |.|.|.|.|.|.|.|.|.|.|.|.|.|.|.|.|.|.|.|.|.|.|.|.|.|.|.|.|.|.|.|.",
"|.|.|.|.|.|.|.|.|.|.|.|.|.|.|.|.|.|.|.|.|.|.|.|.|.|., 7 8 Q >.Q |.|.|.|.|.|.|.|.|.|.|.|.|.|.|.|.|.|.|.|.|.|.|.|.|.|.|.|.|.|.|.|.",
"|.|.|.|.|.|.|.|.|.|.|.|.|.|.|.|.|.|.|.|.|.|.|.|.|.|., < 9 T @.~ T |.|.|.|.|.|.|.|.|.|.|.|.|.|.|.|.|.|.|.|.|.|.|.|.|.|.|.|.|.|.|.",
"|.|.|.|.|.|.|.|.|.|.|.|.|.|.|.|.|.|.|.|.|.|.|.|.|.|.|.> , 9 U ~ +.U |.|.|.|.|.|.|.|.|.|.|.|.|.|.|.|.|.|.|.|.|.|.|.|.|.|.|.|.|.|.",
"|.|.|.|.|.|.|.|.|.|.|.|.|.|.|.|.|.|.|.|.|.|.|.|.|.|.|.|.|.@ I ! >.R |.|.|.|.|.|.|.|.|.|.|.|.|.|.|.|.|.|.|.|.|.|.|.|.|.|.|.|.|.|.",
"|.|.|.|.|.|.|.|.|.|.|.|.|.|.|.|.|.|.|.|.|.|.|.|.|.|.|.|.|.I ~ W T 8 |.|.|.|.|.|.|.|.|.|.|.|.|.|.|.|.|.|.|.|.|.|.|.|.|.|.|.|.|.|.",
"|.|.|.|.|.|.|.|.|.|.|.|.|.|.|.|.|.|.|.|.|.|.|.|.|.|.|.|.R @.R 1 |.|.|.|.|.|.|.|.|.|.|.|.|.|.|.|.|.|.|.|.|.|.|.|.|.|.|.|.|.|.|.|.",
"|.|.|.|.|.|.|.|.|.|.|.|.|.|.|.|.|.|.|.|.|.|.|.|.|.|.|.R ! +.8 |.|.|.|.|.|.|.|.|.|.|.|.|.|.|.|.|.|.|.|.|.|.|.|.|.|.|.|.|.|.|.|.|.",
"|.|.|.|.|.|.|.|.|.|.|.|.|.|.|.|.|.|.|.|.|.|.|.|.|.|.|.|.1 y U 8 |.|.|.|.|.|.|.|.|.|.|.|.|.|.|.|.|.|.|.|.|.|.|.|.|.|.|.|.|.|.|.|.",
"|.|.|.|.|.|.|.|.|.|.|.|.|.|.|.|.|.|.|.|.|.|.|.|.|.|.|.|.|.@ 9 u t > |.|.|.|.|.|.|.|.|.|.|.|.|.|.|.|.|.|.|.|.|.|.|.|.|.|.|.|.|.|.",
"|.|.|.|.|.|.|.|.|.|.|.|.|.|.|.|.|.|.|.|.|.|.|.|.|.|.|.|.> 1 9 9 < |.|.|.|.|.|.|.|.|.|.|.|.|.|.|.|.|.|.|.|.|.|.|.|.|.|.|.|.|.|.|.",
"|.|.|.|.|.|.|.|.|.|.|.|.|.|.|.|.|.|.|.|.|.|.|.|.|.|.|.5 9 7 , |.|.|.|.|.|.|.|.|.|.|.|.|.|.|.|.|.|.|.|.|.|.|.|.|.|.|.|.|.|.|.|.|.",
"|.|.|.|.|.|.|.|.|.|.|.|.|.|.|.|.|.|.|.|.|.|.|.|.|.|.|.< < o |.|.|.|.|.|.|.|.|.|.|.|.|.|.|.|.|.|.|.|.|.|.|.|.|.|.|.|.|.|.|.|.|.|.",
"|.|.|.|.|.|.|.|.|.|.|.|.|.|.|.|.|.|.|.|.|.|.|.|.|.|.|.|.o o o |.|.|.|.|.|.|.|.|.|.|.|.|.|.|.|.|.|.|.|.|.|.|.|.|.|.|.|.|.|.|.|.|.",
"|.|.|.|.|.|.|.|.|.|.|.|.|.|.|.|.|.|.|.|.|.|.|.|.|.|.|.|.|.|.o |.|.|.|.|.|.|.|.|.|.|.|.|.|.|.|.|.|.|.|.|.|.|.|.|.|.|.|.|.|.|.|.|.",
"|.|.|.|.|.|.|.|.|.|.|.|.|.|.|.|.|.|.|.|.|.|.|.|.|.|.|.|.|.|.|.|.|.|.|.|.|.|.|.|.|.|.|.|.|.|.|.|.|.|.|.|.|.|.|.|.|.|.|.|.|.|.|.|.",
"|.|.|.|.|.|.|.|.|.|.|.|.|.|.|.|.|.|.|.|.|.|.|.|.|.|.|.|.|.|.|.|.|.|.|.|.|.|.|.|.|.|.|.|.|.|.|.|.|.|.|.|.|.|.|.|.|.|.|.|.|.|.|.|.",
"|.|.|.|.|.|.|.|.|.|.|.|.|.|.|.|.|.|.|.|.|.|.|.|.|.|.|.|.|.|.|.|.|.|.|.|.|.|.|.|.|.|.|.|.|.|.|.|.|.|.|.|.|.|.|.|.|.|.|.|.|.|.|.|.",
"|.|.|.|.|.|.|.|.|.|.|.|.|.|.|.|.|.|.|.|.|.|.|.|.|.|.|.|.|.|.|.|.|.|.|.|.|.|.|.|.|.|.|.|.|.|.|.|.|.|.|.|.|.|.|.|.|.|.|.|.|.|.|.|.",
"|.|.|.|.|.|.|.|.|.|.|.|.|.|.|.|.|.|.|.|.|.|.|.|.|.|.|.|.|.|.|.|.|.|.|.|.|.|.|.|.|.|.|.|.|.|.|.|.|.|.|.|.|.|.|.|.|.|.|.|.|.|.|.|.",
"|.|.|.|.|.|.|.|.|.|.|.|.|.|.|.|.|.|.|.|.|.|.|.|.|.|.|.|.|.|.|.|.|.|.|.|.|.|.|.|.|.|.|.|.|.|.|.|.|.|.|.|.|.|.|.|.|.|.|.|.|.|.|.|.",
"|.|.|.|.|.|.|.|.|.|.|.|.|.|.|.|.|.|.|.|.|.|.|.|.|.|.|.|.|.|.|.|.|.|.|.|.|.|.|.|.|.|.|.|.|.|.|.|.|.|.|.|.|.|.|.|.|.|.|.|.|.|.|.|."
};
