/* XPM */
static char *result[] = {
/* columns rows colors chars-per-pixel */
"64 64 176 2 ",
"   c #270D1C",
".  c #330D2E",
"X  c #3D0D2F",
"o  c #3D0D30",
"O  c #2C1B36",
"+  c #3B1233",
"@  c #3A1B38",
"#  c #3C283A",
"$  c #4A0E26",
"%  c #4E0F2B",
"&  c #540D28",
"*  c #440E31",
"=  c #4D0D32",
"-  c #530E33",
";  c #5B0E35",
":  c #5F0F3C",
">  c #481A39",
",  c #5B1337",
"<  c #53193B",
"1  c #59153A",
"2  c #6A0C2F",
"3  c #630E36",
"4  c #6B0D34",
"5  c #6A0F38",
"6  c #730D35",
"7  c #7A0C35",
"8  c #740E39",
"9  c #7E0D3A",
"0  c #6D123A",
"q  c #76103B",
"w  c #79103B",
"e  c #7E452F",
"r  c #3B2842",
"t  c #3F354A",
"y  c #6E1C41",
"u  c #7C1743",
"i  c #781841",
"p  c #412B44",
"a  c #45334B",
"s  c #4B354B",
"d  c #4F3650",
"f  c #4B3850",
"g  c #5B3B53",
"h  c #553750",
"j  c #642E4B",
"k  c #6A2246",
"l  c #722D46",
"z  c #7E3543",
"x  c #683452",
"c  c #56425A",
"v  c #5D4A5D",
"b  c #5A435A",
"n  c #75445A",
"m  c #5A4C60",
"M  c #5E5362",
"N  c #644F63",
"B  c #6E566A",
"V  c #635266",
"C  c #71566D",
"Z  c #745165",
"A  c #755B72",
"S  c #7A5E74",
"D  c #796876",
"F  c #7F687A",
"G  c #7E7275",
"H  c #840B36",
"J  c #830D3B",
"K  c #8A0D3B",
"L  c #890937",
"P  c #930D3C",
"I  c #9B0D3D",
"U  c #A40C3E",
"Y  c #AC0B3F",
"T  c #B30B3F",
"R  c #BA093F",
"E  c #935A3B",
"W  c #B5782F",
"Q  c #A6633E",
"!  c #B46A3D",
"~  c #BA7B39",
"^  c #B67937",
"/  c #C37A3C",
"(  c #8B1D47",
")  c #9B1245",
"_  c #921B48",
"`  c #9B1A47",
"'  c #A70D42",
"]  c #AB0C42",
"[  c #B30B42",
"{  c #BD0A40",
"}  c #A21E44",
"|  c #A21745",
" . c #992746",
".. c #823C41",
"X. c #993D44",
"o. c #983545",
"O. c #832C50",
"+. c #9B2B5A",
"@. c #A32045",
"#. c #C00A40",
"$. c #8A4A41",
"%. c #9C4445",
"&. c #9A4A44",
"*. c #955942",
"=. c #9E5941",
"-. c #A05643",
";. c #A84A43",
":. c #9D6256",
">. c #AF774B",
",. c #92456E",
"<. c #82526D",
"1. c #85677B",
"2. c #896C7D",
"3. c #89647B",
"4. c #9F6E7A",
"5. c #8B727E",
"6. c #89787B",
"7. c #A16272",
"8. c #AA7465",
"9. c #CA892D",
"0. c #D28F2C",
"q. c #D7942E",
"w. c #C98A35",
"e. c #D28D38",
"r. c #D79436",
"t. c #DA9634",
"y. c #DE9B32",
"u. c #D4943A",
"i. c #D89739",
"p. c #E39C2C",
"a. c #E59E32",
"s. c #E7A12E",
"d. c #F7AC2D",
"f. c #FDB22F",
"g. c #B58159",
"h. c #D49C51",
"j. c #C0927B",
"k. c #D4A067",
"l. c #E6B87B",
"z. c #8E6E83",
"x. c #876C80",
"c. c #897884",
"v. c #937386",
"b. c #967F8A",
"n. c #9F7C91",
"m. c #A07989",
"M. c #A27E9B",
"N. c #9D72A0",
"B. c #95858C",
"V. c #9D918F",
"C. c #9C8691",
"Z. c #A18691",
"A. c #A98C99",
"S. c #AA909A",
"D. c #AE93A2",
"F. c #B396A1",
"G. c #B9A7AA",
"H. c #D2B195",
"J. c #E3BB8C",
"K. c #C1A7AE",
"L. c #C8A9B3",
"P. c #C8B4B5",
"I. c #D4BDBE",
"U. c #D4B2BC",
"Y. c #E2C9B7",
"T. c #DCBFC5",
"R. c #D6C2C1",
"E. c #DCC3C5",
"W. c #DBC8C8",
"Q. c #E3CCCA",
"!. c #E5CFC7",
"~. c #EDDAD3",
"^. c #F2DBD7",
"/. c #F8E6DE",
"(. c #FFEEE3",
"). c None",
/* pixels */
").).).).).).).).).).).).).).).).).).).).).).).).).).).).).).).).).).).).).).).).).).).).).).).).).).).).).).).).).).).).).).).).",
").).).).).).).).).).).).).).).).).).).).).).).).).).).).).).).).).).).).).).).).).).).).).).).).).).).).).).).).).).).).).).).).",
").).).).).).).).).).).).).).).).).).).).).).).).).).).).).).).).).).).).).).).).).).).).).).).).).).).).).).).).).).).).).).).).",
").).).).).).).).).).).).).).).).).).).).).).).).).).).).).).).).).).).).).).).).).).).).).).).).).).).).).).).).).).).).).).).).",
").).).).).).).).).).).).).).).).).).).).).).).).).).).).).).).).).).).).).).).).).).).).).).).).).).).).).).).).).).).).).).).).",
").).).).).).).).).).).).).).).).).).).).).).).).).).).).).).).).).).).).).).).).).).).).).).).).).).).).).).).).).).).).).).).).",
").).).).).).).).).).).).).).).).).).).).).).).).).).).).).2.2.).).).).).).).).).).).).).).).).).).).).).).).).).).).).).).).).).",
").).).).).).).).).).).).).).).).).).).).).).).).).).).).F.!.~.P.Z.).).).).).).).).).).).).).).).).).).).).).).).).).).).).).).).",
").).).).).).).).).).).).).).).).).).).).).).).).).).).K.(.(.(./.U.C ).).).).).).).).).).).).).).).).).).).).).).).).).).).).).).",
").).).).).).).).).).).).).).).).).).).).).).).).).).L.^.(.(.(./.L.z.@ X ).).).).).).).).).).).).).).).).).).).).).).).).).).).).",
").).).).).).).).).).).).).).).).).).).).).).).).).A.V.F.W./.~./.^.n.< - ).).).).).).).).).).).).).).).).).).).).).).).).).).).).",
").).).).).).).).).).).).).).).).).).).).).).).).).c # M.U.K.v G E.x ; * ).).).).).).).).).).).).).).).).).).).).).).).).).).).).",
").).).).).).).).).).).).).).).).).).).).).).).).4 , S.W.B.R.N.M 3.k L J * ).).).).).).).).).).).).).).).).).).).).).).).).).).).",
").).).).).).).).).).).).).).).).).).).).).).).).6 6 6.W.j.~.V.t , I U 6 ).).).).).).).).).).).).).).).).).).).).).).).).).).).).",
").).).).).).).).).).).).).).).).).).).).).).).).).L l n # 6.j K I U K ).).).).).).).).).).).).).).).).).).).).).).).).).).).).).",
").).).).).).).).).).).).).).).).).).).).).).).).= I J 2   2 K Y { Y K ).).).).).).).).).).).).).).).).).).).).).).).).).).).).).",
").).).).).).).).).).).).).).).).).).).).).).).).).5 8 4 $ % w w I P = ).).).).).).).).).).).).).).).).).).).).).).).).).).).).).",
").).).).).).).).).).).).).).).).).).).).).).).).).3 9 4 4 7 I K 9 9 7 ).).).).).).).).).).).).).).).).).).).).).).).).).).).).).",
").).).).).).).).).).).).).).).).).).).).).).).).u Y U 2 2 Y #.I q K K e 9.).).).).).).).).).).).).).).).).).).).).).).).).).).).",
").).).).).).).).).).).).).).).).).).).).).).).^ ( R I 6 $ P #.T K 3 1 ~ a.E ).).).).).).).).).).).).).).).).).).).).).).).).).).",
").).).).).).).).).).).).).).).).).).).).).).W w._ { T 7 & Y { R I i E t.&.( J K ).).).).).).).).).).).).).).).).).).).).).).).).",
").).).).).).).).).).).).).).).).).).).).).).$.^ _ { I P 7 Y { ] ) ! t...w U [ Y q ).).).).).).).).).).).).).).).).).).).).).).).",
").).).).).).).).).).).).).).).).).).).).9 I X.u.o.] K J J ] {  .Q w.;.' R { R K ).).).).).).).).).).).).).).).).).).).).).).).).",
").).).).).).).).).).).).).).).).).).).).3 [ _ ~ =.] J 6 I ` E e.i.X.] #.R R K P 4 ).).).).).).).).).).).).).).).).).).).).).).).",
").).).).).).).).).).).).).).).).).).).)., Y ] E ! ` L J } / a.>. .[ #.{ #.Y J ] P ).).).).).).).).).).).).).).).).).).).).).).).",
").).).).).).).).).).).).).).).).).).).).K R R  .>.m.4.:.8.e.%.| { { { { { Y Y Y J - 5 P ).).).).).).).).).).).).).).).).).).).).",
").).).).).).).).).).).).).).).).).).).] ] U { ` D.Y.J.l.!.7.] { { #.{ #.R T U 4 0 3 P [ 4 ).).).).).).).).).).).).).).).).).).).",
").).).).).).).).).).).).).).).).).).7 T { ] { ,.H.i.t.u.l.j.) { { { { { #.Y 3 3 J T R U w q ).).).).).).).).).).).).).).).).).).",
").).).).).).).).).).).).).).).).6 3 9 U I P R +.>.a.f.d.h.k. .{ { { { { R Y J Y [ T T K w U Y I ).).).).).).).).).).).).).).).).",
").).).).).).).).).).).).).).5 U [ I Y Y J w [ ' =.0.f.f.0.s.%.[ #.{ { Y I T R Y P ] T I Y U { R P ).).).).).).).).).).).).).).).",
").).).).).).).).).).).v.).M > 0 T P J w q w P ' X.~ 9.9.q./ @.{ { { { ' w J K 9 w J 9 3 P T U R ' ).).).).).).).).).).).).).).).",
").).).).).).).).).).Z.Q.I.R.V V O.T J q w w w w w ..*.*.-.@.{ { { #.{ { U J q q 0 2.B # < ) Y Y U ).).).).).).).).).).).).).).).",
").).).).).).).).).C.b.S.P.c.1.1.j Y J q q w q w q q : 9 ] { { #.{ { R { I w w 0 C G.P.P.F Z ) Y K ).).).).).).).).).).).).).).).",
").).).).).).).).f z.b d S g 2.b.> Y J w w w w w w w q 3 J I { R { #.] K w w w < m F W.E.c.m @ I K ).).).).).).).).).).).).).).).",
").).).).).).).).).C f a a t P.D = U K q w q w q P ' U 8 J J ] #.{ { Y w q q 0 h A g m.B.~.G.t : U ).).).).).).).).).).).).).).).",
").).).).).).).).).).).).).a 5.p . H U , 5 w w w U { { U J P P { #.{ { I I P q x z.m C D.T.T.B.= J ).).).).).).).).).).).).).).).",
").).).).).).).).).).).).).).- ; . H U * = 3 K q P { U P 6 I w U #.R I U U I 3 4 g d r S x.K.D * 5 ).).).).).).).).).).).).).).).",
").).).).).).).).).).).).).).).K K P P ).).* P w q P T [ 9 I Y R #.#.] I ; ; * - ).* + O a d @ - 5 ).).).).).).).).).).).).).).).",
").).).).).).).).).).).).).).).- 9 Y 7 ).).).U ] J w K #.Y U #.R { { { T 8 ).).).).).= * o = 3 5 = ).).).).).).).).).).).).).).).",
").).).).).).).).).).).).).).).).).= * ).).).I T 4 , w { { I { #.{ { { R K ).).).).).).- - ; - ).).).).).).).).).).).).).).).).).",
").).).).).).).).).).).).).).).).).).).).).).).K ).).= K T U R #.P U #.U ).).).).).).).).).).).).).).).).).).).).).).).).).).).).",
").).).).).).).).).).).).).).).).).).).).).).).).).).).- T U T #.H 6 { I ).).).).).).).).).).).).).).).).).).).).).).).).).).).).",
").).).).).).).).).).).).).).).).).).).).).).).).).).).3 P K T [ J ).K ).).).).).).).).).).).).).).).).).).).).).).).).).).).).).",
").).).).).).).).).).).).).).).).).).).).).).).).).).= 3 6 Y { I ).).).).).).).).).).).).).).).).).).).).).).).).).).).).).).).).",
").).).).).).).).).).).).).).).).).).).).).).).).).).= - 8 T Y ).).).).).).).).).).).).).).).).).).).).).).).).).).).).).).).).).",
").).).).).).).).).).).).).).).).).).).).).).).).).).).- 3 I T I ).).).).).).).).).).).).).).).).).).).).).).).).).).).).).).).).",
").).).).).).).).).).).).).).).).).).).).).).).).).).).).o ; P { ] I ).).).).).).).).).).).).).).).).).).).).).).).).).).).).).).",
").).).).).).).).).).).).).).).).).).).).).).).).).).).).).3 U #.{ K ).).).).).).).).).).).).).).).).).).).).).).).).).).).).).).",
").).).).).).).).).).).).).).).).).).).).).).).).).).).).).Y R I 6 ).).).).).).).).).).).).).).).).).).).).).).).).).).).).).).).",
").).).).).).).).).).).).).).).).).).).).).).).).).).).) T #.H ).).).).).).).).).).).).).).).).).).).).).).).).).).).).).).).).).",
").).).).).).).).).).).).).).).).).).).).).).).).).).).K K I 9 ; ).).).).).).).).).).).).).).).).).).).).).).).).).).).).).).).).",
").).).).).).).).).).).).).).).).).).).).).).).).).).).).).- J q ; ).).).).).).).).).).).).).).).).).).).).).).).).).).).).).).).",
").).).).).).).).).).).).).).).).).).).).).).).).).).).).).- q w q * ).).).).).).).).).).).).).).).).).).).).).).).).).).).).).).",
").).).).).).).).).).).).).).).).).).).).).).).).).).).).3 q 3 ; - ).).).).).).).).).).).).).).).).).).).).).).).).).).).).).).).",
").).).).).).).).).).).).).).).).).).).).).).).).).).).* 0 = ).).).).).).).).).).).).).).).).).).).).).).).).).).).).).).).).).).",
").).).).).).).).).).).).).).).).).).).).).).).).).).).* 3 , ).).).).).).).).).).).).).).).).).).).).).).).).).).).).).).).).).).",
").).).).).).).).).).).).).).).).).).).).).).).).).).).).).- o . ).).).).).).).).).).).).).).).).).).).).).).).).).).).).).).).).",
").).).).).).).).).).).).).).).).).).).).).).).).).).).).).).. . ).).).).).).).).).).).).).).).).).).).).).).).).).).).).).).).).",
").).).).).).).).).).).).).).).).).).).).).).).).).).).).).).. ).).).).).).).).).).).).).).).).).).).).).).).).).).).).).).).).).",
").).).).).).).).).).).).).).).).).).).).).).).).).).).).).).).).).).).).).).).).).).).).).).).).).).).).).).).).).).).).).).).).",
").).).).).).).).).).).).).).).).).).).).).).).).).).).).).).).).).).).).).).).).).).).).).).).).).).).).).).).).).).).).).).).).",
").).).).).).).).).).).).).).).).).).).).).).).).).).).).).).).).).).).).).).).).).).).).).).).).).).).).).).).).).).).).).).).).",
").).).).).).).).).).).).).).).).).).).).).).).).).).).).).).).).).).).).).).).).).).).).).).).).).).).).).).).).).).).).).).).).",
").).).).).).).).).).).).).).).).).).).).).).).).).).).).).).).).).).).).).).).).).).).).).).).).).).).).).).).).).).).).).).).)."
};
