/* XPM */
static char *result[] = {
/* columns rows colors chars-per-pixel */
"64 64 175 2 ",
"   c #2F0D2D",
".  c #3B0F24",
"X  c #330D2E",
"o  c #3D0D2F",
"O  c #3C0E30",
"+  c #2F1533",
"@  c #361937",
"#  c #3C213D",
"$  c #480E26",
"%  c #560D2B",
"&  c #5B0E2C",
"*  c #440E31",
"=  c #4C0D32",
"-  c #530E34",
";  c #5B0D34",
":  c #5A0E3A",
">  c #471839",
",  c #531A3B",
"<  c #5C163B",
"1  c #6A0C2E",
"2  c #640E36",
"3  c #6B0C35",
"4  c #6C0F38",
"5  c #740C37",
"6  c #790C37",
"7  c #740E39",
"8  c #7D0D3A",
"9  c #6C113B",
"0  c #67163C",
"q  c #75103B",
"w  c #79103B",
"e  c #711634",
"r  c #47293E",
"t  c #51223F",
"y  c #7A2F3B",
"u  c #3C2D44",
"i  c #7C1B41",
"p  c #741E41",
"a  c #4C2A46",
"s  c #5A2343",
"d  c #48334B",
"f  c #5C304E",
"g  c #4A3951",
"h  c #573852",
"j  c #612944",
"k  c #7D2047",
"l  c #7E3A44",
"z  c #783453",
"x  c #4F474E",
"c  c #58465A",
"v  c #744041",
"b  c #5F4961",
"n  c #644C63",
"m  c #6D4D65",
"M  c #7B4763",
"N  c #6D546D",
"B  c #685365",
"V  c #78576B",
"C  c #765D72",
"Z  c #7D5B73",
"A  c #6B606D",
"S  c #7C6375",
"D  c #840E3B",
"F  c #8C0D3B",
"G  c #810C34",
"H  c #940D3C",
"J  c #9B0C3D",
"K  c #80103C",
"L  c #9A113F",
"P  c #A30C3E",
"I  c #AB0B3E",
"U  c #B30B3F",
"Y  c #B90A3F",
"T  c #A65F3D",
"R  c #98612C",
"E  c #A56E3B",
"W  c #A4643D",
"Q  c #B4683D",
"!  c #B77739",
"~  c #8C0E40",
"^  c #9C0B41",
"/  c #8F1848",
"(  c #991948",
")  c #A50D41",
"_  c #AD0D43",
"`  c #B40B42",
"'  c #BD0A40",
"]  c #A21245",
"[  c #A81044",
"{  c #8D2147",
"}  c #9B214D",
"|  c #863C44",
" . c #9A3644",
".. c #973144",
"X. c #8B2F53",
"o. c #933A56",
"O. c #A13B45",
"+. c #C00A40",
"@. c #8E4544",
"#. c #9B4144",
"$. c #9A4B45",
"%. c #974042",
"&. c #8F5142",
"*. c #9A5942",
"=. c #AA4E42",
"-. c #A44244",
";. c #A65D42",
":. c #9B6358",
">. c #874D65",
",. c #865B6E",
"<. c #97577B",
"1. c #856878",
"2. c #89667B",
"3. c #A1696A",
"4. c #A87D6F",
"5. c #C9882E",
"6. c #D18F2D",
"7. c #D8952E",
"8. c #C78638",
"9. c #D69333",
"0. c #DB9731",
"q. c #DD9934",
"w. c #D19138",
"e. c #E59E2E",
"r. c #E29C34",
"t. c #F9AE2F",
"y. c #FEB32F",
"u. c #B18366",
"i. c #D59F56",
"p. c #C88A44",
"a. c #D4A05F",
"s. c #E4AF66",
"d. c #E3B36F",
"f. c #8C6F83",
"g. c #857180",
"h. c #927485",
"j. c #947389",
"k. c #997A8A",
"l. c #977A8C",
"z. c #A0748E",
"x. c #A37CA6",
"c. c #98818D",
"v. c #9E8B93",
"b. c #998690",
"n. c #A58793",
"m. c #AA979C",
"M. c #B8999E",
"N. c #B38BA0",
"B. c #AD9AA1",
"V. c #B698A4",
"C. c #B699A2",
"Z. c #B8A7A9",
"A. c #E8BE8A",
"S. c #C398BA",
"D. c #C3A3AE",
"F. c #C4AAB2",
"G. c #C9A7B3",
"H. c #D1ADB9",
"J. c #CBB4B7",
"K. c #CDB9B9",
"L. c #C8B8B4",
"P. c #D3BCB9",
"I. c #E3C6AB",
"U. c #EFD3B9",
"Y. c #D9BDC2",
"T. c #DDC2C6",
"R. c #DBC6C4",
"E. c #E3CBCA",
"W. c #E9CFCF",
"Q. c #EEDCD4",
"!. c #ECD4D2",
"~. c #F0DCD5",
"^. c #F3E1D9",
"/. c #FFEEE3",
"(. c None",
/* pixels */
"(.(.(.(.(.(.(.(.(.(.(.(.(.(.(.(.(.(.(.(.(.(.(.(.(.(.(.(.(.(.(.(.(.(.(.(.(.(.(.(.(.(.(.(.(.(.(.(.(.(.(.(.(.(.(.(.(.(.(.(.(.(.(.(.",
"(.(.(.(.(.(.(.(.(.(.(.(.(.(.(.(.(.(.(.(.(.(.(.(.(.(.(.(.(.(.(.(.(.(.(.(.(.(.(.(.(.(.(.(.(.(.(.(.(.(.(.(.(.(.(.(.(.(.(.(.(.(.(.(.",
"(.(.(.(.(.(.(.(.(.(.(.(.(.(.(.(.(.(.(.(.(.(.(.(.(.(.(.(.(.(.(.(.(.(.(.(.(.(.(.(.(.(.(.(.(.(.(.(.(.(.(.(.(.(.(.(.(.(.(.(.(.(.(.(.",
"(.(.(.(.(.(.(.(.(.(.(.(.(.(.(.(.(.(.(.(.(.(.(.(.(.(.(.(.(.(.(.(.(.(.(.(.(.(.(.(.(.(.(.(.(.(.(.(.(.(.(.(.(.(.(.(.(.(.(.(.(.(.(.(.",
"(.(.(.(.(.(.(.(.(.(.(.(.(.(.(.(.(.(.(.(.(.(.(.(.(.(.(.(.(.(.(.(.(.(.(.(.(.(.(.(.(.(.(.(.(.(.(.(.(.(.(.(.(.(.(.(.(.(.(.(.(.(.(.(.",
"(.(.(.(.(.(.(.(.(.(.(.(.(.(.(.(.(.(.(.(.(.(.(.(.(.(.(.(.(.(.(.(.(.(.(.(.(.(.(.(.(.(.(.(.(.(.(.(.(.(.(.(.(.(.(.(.(.(.(.(.(.(.(.(.",
"(.(.(.(.(.(.(.(.(.(.(.(.(.(.(.(.(.(.(.(.(.(.(.(.(.(.(.(.(.2.(.(.(.(.(.(.(.(.(.(.(.(.(.(.(.(.(.(.(.(.(.(.(.(.(.(.(.(.(.(.(.(.(.(.",
"(.(.(.(.(.(.(.(.(.(.(.(.(.(.(.(.(.(.(.(.(.(.(.(.(.(.(.n.P.Q.E.M.(.(.(.(.(.(.(.(.(.(.(.(.(.(.(.(.(.(.(.(.(.(.(.(.(.(.(.(.(.(.(.(.",
"(.(.(.(.(.(.(.(.(.(.(.(.(.(.(.(.(.(.(.(.(.(.(.(.(.(.c.~./././.!.l.(.(.(.(.(.(.(.(.(.(.(.(.(.(.(.(.(.(.(.(.(.(.(.(.(.(.(.(.(.(.(.",
"(.(.(.(.(.(.(.(.(.(.(.(.(.(.(.(.(.(.(.(.(.(.(.(.(.h.P././././.Y.N.h = (.(.(.(.(.(.(.(.(.(.(.(.(.(.(.(.(.(.(.(.(.(.(.(.(.(.(.(.(.",
"(.(.(.(.(.(.(.(.(.(.(.(.(.(.(.(.(.(.(.(.(.(.(.(.V K.Q.E.!.^.Q./.F.f - (.(.(.(.(.(.(.(.(.(.(.(.(.(.(.(.(.(.(.(.(.(.(.(.(.(.(.(.(.",
"(.(.(.(.(.(.(.(.(.(.(.(.(.(.(.(.(.(.(.(.(.(.(.* 0 r b G.H.j.x J.n.: 3 - X (.(.(.(.(.(.(.(.(.(.(.(.(.(.(.(.(.(.(.(.(.(.(.(.(.(.(.",
"(.(.(.(.(.(.(.(.(.(.(.(.(.(.(.(.(.(.(.(.(.(.(.; J t x.b.L.S.N 1.>.H J ; (.(.(.(.(.(.(.(.(.(.(.(.(.(.(.(.(.(.(.(.(.(.(.(.(.(.(.(.",
"(.(.(.(.(.(.(.(.(.(.(.(.(.(.(.(.(.(.(.(.(.(.(.(.2 z R.m.L.R.M 0 G J 2 (.(.(.(.(.(.(.(.(.(.(.(.(.(.(.(.(.(.(.(.(.(.(.(.(.(.(.(.(.",
"(.(.(.(.(.(.(.(.(.(.(.(.(.(.(.(.(.(.(.(.(.(.(.(.G L >.t ,.,.6 J I J 3 (.(.(.(.(.(.(.(.(.(.(.(.(.(.(.(.(.(.(.(.(.(.(.(.(.(.(.(.(.",
"(.(.(.(.(.(.(.(.(.(.(.(.(.(.(.(.(.(.(.(.(.(.(.(.6 F & 1 6 D ` +.` F (.(.(.(.(.(.(.(.(.(.(.(.(.(.(.(.(.(.(.(.(.(.(.(.(.(.(.(.(.(.",
"(.(.(.(.(.(.(.(.(.(.(.(.(.(.(.(.(.(.(.(.(.(.(.(.(.2 3 $ 2 w D L H ; (.(.(.(.(.(.(.(.(.(.(.(.(.(.(.(.(.(.(.(.(.(.(.(.(.(.(.(.(.(.",
"(.(.(.(.(.(.(.(.(.(.(.(.(.(.(.(.(.(.(.(.(.(.(.(.F 8 . 1 w H K q H ` e R (.(.(.(.(.(.(.(.(.(.(.(.(.(.(.(.(.(.(.(.(.(.(.(.(.(.(.(.",
"(.(.(.(.(.(.(.(.(.(.(.(.(.(.(.(.(.(.(.(.(.(.(.l ) ` G & 6 Y H e 8 8 y r.5.(.(.(.(.(.(.(.(.(.(.(.(.(.(.(.(.(.(.(.(.(.(.(.(.(.(.(.",
"(.(.(.(.(.(.(.(.(.(.(.(.(.(.(.(.(.(.(.(.(.(.0.$.` J & . H U U H 6 < ! r.@.(.(.(.(.(.(.(.(.(.(.(.(.(.(.(.(.(.(.(.(.(.(.(.(.(.(.(.",
"(.(.(.(.(.(.(.(.(.(.(.(.(.(.(.(.(.(.(.(.(.v ! @.` I G % ) ' ` ) ( ! ! | ~ P H K (.(.(.(.(.(.(.(.(.(.(.(.(.(.(.(.(.(.(.(.(.(.(.(.",
"(.(.(.(.(.(.(.(.(.(.(.(.(.(.(.(.(.(.(.(.F k 8.$._ H 7 3 _ ' ` / Q q. .F I +.' F (.(.(.(.(.(.(.(.(.(.(.(.(.(.(.(.(.(.(.(.(.(.(.(.",
"(.(.(.(.(.(.(.(.(.(.(.(.(.(.(.(.(.(.(.(.H ` T 8.( H - D U _ =.r.8. .` +.+.+.J 3 (.(.(.(.(.(.(.(.(.(.(.(.(.(.(.(.(.(.(.(.(.(.(.(.",
"(.(.(.(.(.(.(.(.(.(.(.(.(.(.(.(.(.(.(.(.F ` #.E / I 4 U ` %.9.r. .` ' ' Y I 7 F ; (.(.(.(.(.(.(.(.(.(.(.(.(.(.(.(.(.(.(.(.(.(.(.",
"(.(.(.(.(.(.(.(.(.(.(.(.(.(.(.(.(.(.(.q J ' ( E  .^ 4 ] =.r.Q  .` +.' ' +.I L U 3 (.(.(.(.(.(.(.(.(.(.(.(.(.(.(.(.(.(.(.(.(.(.(.",
"(.(.(.(.(.(.(.(.(.(.(.(.(.(.(.(.(.(.(.J P ' ) ;.u.z.:.3.p.Q ] ` +.' ' +.' I I F w - 2 (.(.(.(.(.(.(.(.(.(.(.(.(.(.(.(.(.(.(.(.(.",
"(.(.(.(.(.(.(.(.(.(.(.(.(.(.(.(.(.(.J ' I Y ` <.P.I.s.U.C.} ' ' ' ' +.' +.U 6 9 3 2 H J (.(.(.(.(.(.(.(.(.(.(.(.(.(.(.(.(.(.(.(.",
"(.(.(.(.(.(.(.(.(.(.(.(.(.(.(.(.(.- J ` ) ` ( C.i.q.9.a.A.X.' ' ' ' ' ' +.P ; 2 D I Y H - (.(.(.(.(.(.(.(.(.(.(.(.(.(.(.(.(.(.(.",
"(.(.(.(.(.(.(.(.(.(.(.(.(.(.(.2 5 3 I H w J ( u.0.y.y.w.d.o.' ' +.+.+.` I Y U U U Y ` D D L D (.(.(.(.(.(.(.(.(.(.(.(.(.(.(.(.(.",
"(.(.(.(.(.(.(.(.(.(.(.(.(.= H I I J I F q H ] W 6.t.y.e.7.! ] +.' Y +.P D J I H F P Y F H U U J (.(.(.(.(.(.(.(.(.(.(.(.(.(.(.(.",
"(.(.(.(.(.(.(.(.(.(.(.S A d , H I D 8 w w w D i W 6.6.6.9.-.` +.' ' ' U P w q q 8 P P H P I U ` H (.(.(.(.(.(.(.(.(.(.(.(.(.(.(.",
"(.(.(.(.(.(.(.(.(.Z D.Y.^.v.c M ] J q w w w w w p &.&.*.O.` +.' ' +.' ' I w w w 0 , < > i I P ` H (.(.(.(.(.(.(.(.(.(.(.(.(.(.(.",
"(.(.(.(.(.(.(.(.u m.V.V.H.j.h.n F J w q w w w w q 9 : F ^ Y +.+.+.U P F w w w 0 2.C 1.k.2.X.U P 2 (.(.(.(.(.(.(.(.(.(.(.(.(.(.(.",
"(.(.(.(.(.(.(.(.g f.n Z j.C Z.d ; I K q w w w w F F 9 5 w I +.Y ' U K q w w 8 j Z.l.R.Z.g.Z w I 2 (.(.(.(.(.(.(.(.(.(.(.(.(.(.(.",
"(.(.(.(.(.(.(.(.(.c u g n B.B.# = U D q w q w D ` +.I 8 F H ` +.' ' I D K D q a C f.V.b.F.B > P 3 (.(.(.(.(.(.(.(.(.(.(.(.(.(.(.",
"(.(.(.(.(.(.(.(.(.(.(.(.b N s * * H D = 9 K w D Y U I w P K J ' ' ' U L ` P 2 m C N C l.b.K.d H 3 (.(.(.(.(.(.(.(.(.(.(.(.(.(.(.",
"(.(.(.(.(.(.(.(.(.(.(.(.(.(.3 ;   6 F (.o 6 K w J U I w 6 H J ' ' ' I H 5 8 ; h h.f.d b h.l.@ - 4 (.(.(.(.(.(.(.(.(.(.(.(.(.(.(.",
"(.(.(.(.(.(.(.(.(.(.(.(.(.(.(.G - H F (.(.8 J D w F U H D +.Y ' ' ' Y I ; (.(.(.(.h + + d u O 2 2 (.(.(.(.(.(.(.(.(.(.(.(.(.(.(.",
"(.(.(.(.(.(.(.(.(.(.(.(.(.(.(.3 H P 3 (.(.(.P P - q I ` J ` +.+.' ' +.` F (.(.(.(.- O X X o - 2 (.(.(.(.(.(.(.(.(.(.(.(.(.(.(.(.",
"(.(.(.(.(.(.(.(.(.(.(.(.(.(.(.(.(.= (.(.(.(.F H * - F Y I I +.Y ' Y +._ (.(.(.(.(.(.= = = - - (.(.(.(.(.(.(.(.(.(.(.(.(.(.(.(.(.",
"(.(.(.(.(.(.(.(.(.(.(.(.(.(.(.(.(.(.(.(.(.(.(.- (.(.2 J U J U +.H 3 U J (.(.(.(.(.(.(.= = (.(.(.(.(.(.(.(.(.(.(.(.(.(.(.(.(.(.(.",
"(.(.(.(.(.(.(.(.(.(.(.(.(.(.(.(.(.(.(.(.(.(.(.(.(.(.(.(.H F J +.D (.H H (.(.(.(.(.(.(.(.(.(.(.(.(.(.(.(.(.(.(.(.(.(.(.(.(.(.(.(.",
"(.(.(.(.(.(.(.(.(.(.(.(.(.(.(.(.(.(.(.(.(.(.(.(.(.(.(.(.= 6 J Y D (.(.(.(.(.(.(.(.(.(.(.(.(.(.(.(.(.(.(.(.(.(.(.(.(.(.(.(.(.(.(.",
"(.(.(.(.(.(.(.(.(.(.(.(.(.(.(.(.(.(.(.(.(.(.(.(.(.(.(.* = G Y I (.(.(.(.(.(.(.(.(.(.(.(.(.(.(.(.(.(.(.(.(.(.(.(.(.(.(.(.(.(.(.(.",
"(.(.(.(.(.(.(.(.(.(.(.(.(.(.(.(.(.(.(.(.(.(.(.(.(.(.= - 3 U U (.(.(.(.(.(.(.(.(.(.(.(.(.(.(.(.(.(.(.(.(.(.(.(.(.(.(.(.(.(.(.(.(.",
"(.(.(.(.(.(.(.(.(.(.(.(.(.(.(.(.(.(.(.(.(.(.(.(.(.(.= - q _ H (.(.(.(.(.(.(.(.(.(.(.(.(.(.(.(.(.(.(.(.(.(.(.(.(.(.(.(.(.(.(.(.(.",
"(.(.(.(.(.(.(.(.(.(.(.(.(.(.(.(.(.(.(.(.(.(.(.(.(.(.(.O : D I I H (.(.(.(.(.(.(.(.(.(.(.(.(.(.(.(.(.(.(.(.(.(.(.(.(.(.(.(.(.(.(.",
"(.(.(.(.(.(.(.(.(.(.(.(.(.(.(.(.(.(.(.(.(.(.(.(.(.(.(.(.(.; J +.' H (.(.(.(.(.(.(.(.(.(.(.(.(.(.(.(.(.(.(.(.(.(.(.(.(.(.(.(.(.(.",
"(.(.(.(.(.(.(.(.(.(.(.(.(.(.(.(.(.(.(.(.(.(.(.(.(.(.(.(.(.P Y Y P 6 (.(.(.(.(.(.(.(.(.(.(.(.(.(.(.(.(.(.(.(.(.(.(.(.(.(.(.(.(.(.",
"(.(.(.(.(.(.(.(.(.(.(.(.(.(.(.(.(.(.(.(.(.(.(.(.(.(.(.(._ ' I 6 (.(.(.(.(.(.(.(.(.(.(.(.(.(.(.(.(.(.(.(.(.(.(.(.(.(.(.(.(.(.(.(.",
"(.(.(.(.(.(.(.(.(.(.(.(.(.(.(.(.(.(.(.(.(.(.(.(.(.(.(.P ' I 2 (.(.(.(.(.(.(.(.(.(.(.(.(.(.(.(.(.(.(.(.(.(.(.(.(.(.(.(.(.(.(.(.(.",
"(.(.(.(.(.(.(.(.(.(.(.(.(.(.(.(.(.(.(.(.(.(.(.(.(.(.(.6 H ^ G ; (.(.(.(.(.(.(.(.(.(.(.(.(.(.(.(.(.(.(.(.(.(.(.(.(.(.(.(.(.(.(.(.",
"(.(.(.(.(.(.(.(.(.(.(.(.(.(.(.(.(.(.(.(.(.(.(.(.(.(.(.(.(.= q w - (.(.(.(.(.(.(.(.(.(.(.(.(.(.(.(.(.(.(.(.(.(.(.(.(.(.(.(.(.(.(.",
"(.(.(.(.(.(.(.(.(.(.(.(.(.(.(.(.(.(.(.(.(.(.(.(.(.(.(.(.(.= e w ; (.(.(.(.(.(.(.(.(.(.(.(.(.(.(.(.(.(.(.(.(.(.(.(.(.(.(.(.(.(.(.",
"(.(.(.(.(.(.(.(.(.(.(.(.(.(.(.(.(.(.(.(.(.(.(.(.(.(.(.(.- 9 q ; (.(.(.(.(.(.(.(.(.(.(.(.(.(.(.(.(.(.(.(.(.(.(.(.(.(.(.(.(.(.(.(.",
"(.(.(.(.(.(.(.(.(.(.(.(.(.(.(.(.(.(.(.(.(.(.(.(.(.(.(.* 9 2 = (.(.(.(.(.(.(.(.(.(.(.(.(.(.(.(.(.(.(.(.(.(.(.(.(.(.(.(.(.(.(.(.(.",
"(.(.(.(.(.(.(.(.(.(.(.(.(.(.(.(.(.(.(.(.(.(.(.(.(.(.(.(.: * (.(.(.(.(.(.(.(.(.(.(.(.(.(.(.(.(.(.(.(.(.(.(.(.(.(.(.(.(.(.(.(.(.(.",
"(.(.(.(.(.(.(.(.(.(.(.(.(.(.(.(.(.(.(.(.(.(.(.(.(.(.(.(.(.X X (.(.(.(.(.(.(.(.(.(.(.(.(.(.(.(.(.(.(.(.(.(.(.(.(.(.(.(.(.(.(.(.(.",
"(.(.(.(.(.(.(.(.(.(.(.(.(.(.(.(.(.(.(.(.(.(.(.(.(.(.(.(.(.(.X (.(.(.(.(.(.(.(.(.(.(.(.(.(.(.(.(.(.(.(.(.(.(.(.(.(.(.(.(.(.(.(.(.",
"(.(.(.(.(.(.(.(.(.(.(.(.(.(.(.(.(.(.(.(.(.(.(.(.(.(.(.(.(.(.(.(.(.(.(.(.(.(.(.(.(.(.(.(.(.(.(.(.(.(.(.(.(.(.(.(.(.(.(.(.(.(.(.(.",
"(.(.(.(.(.(.(.(.(.(.(.(.(.(.(.(.(.(.(.(.(.(.(.(.(.(.(.(.(.(.(.(.(.(.(.(.(.(.(.(.(.(.(.(.(.(.(.(.(.(.(.(.(.(.(.(.(.(.(.(.(.(.(.(.",
"(.(.(.(.(.(.(.(.(.(.(.(.(.(.(.(.(.(.(.(.(.(.(.(.(.(.(.(.(.(.(.(.(.(.(.(.(.(.(.(.(.(.(.(.(.(.(.(.(.(.(.(.(.(.(.(.(.(.(.(.(.(.(.(.",
"(.(.(.(.(.(.(.(.(.(.(.(.(.(.(.(.(.(.(.(.(.(.(.(.(.(.(.(.(.(.(.(.(.(.(.(.(.(.(.(.(.(.(.(.(.(.(.(.(.(.(.(.(.(.(.(.(.(.(.(.(.(.(.(.",
"(.(.(.(.(.(.(.(.(.(.(.(.(.(.(.(.(.(.(.(.(.(.(.(.(.(.(.(.(.(.(.(.(.(.(.(.(.(.(.(.(.(.(.(.(.(.(.(.(.(.(.(.(.(.(.(.(.(.(.(.(.(.(.(."
};
