/* XPM */
static char *result[] = {
/* columns rows colors chars-per-pixel */
"64 64 174 2 ",
"   c #2F0D1F",
".  c #330D2E",
"X  c #3B0D2F",
"o  c #3E0D30",
"O  c #2D1230",
"+  c #341936",
"@  c #32252F",
"#  c #38233E",
"$  c #480D29",
"%  c #560E2C",
"&  c #430E31",
"*  c #4B0E32",
"=  c #540D33",
"-  c #5B0D34",
";  c #481738",
":  c #541337",
">  c #5C173A",
",  c #6A0D2F",
"<  c #600E2D",
"1  c #630E35",
"2  c #6B0D36",
"3  c #6A0F38",
"4  c #670F38",
"5  c #740D36",
"6  c #7B0B36",
"7  c #730E39",
"8  c #7C0D3A",
"9  c #661138",
"0  c #6B1039",
"q  c #6A1437",
"w  c #75113B",
"e  c #79103B",
"r  c #4A203D",
"t  c #68293F",
"y  c #382841",
"u  c #3D3040",
"i  c #5F1F42",
"p  c #691A43",
"a  c #7C1D45",
"s  c #4C2C48",
"d  c #592242",
"f  c #4D334D",
"g  c #44354A",
"h  c #58334E",
"j  c #4A3A51",
"k  c #543D56",
"l  c #593A55",
"z  c #632848",
"x  c #772946",
"c  c #7A2B50",
"v  c #613F58",
"b  c #5A465D",
"n  c #6E4B5E",
"m  c #634D64",
"M  c #6B546A",
"N  c #695568",
"B  c #735969",
"V  c #755C72",
"C  c #7A5C70",
"Z  c #7E6274",
"A  c #776173",
"S  c #840E3B",
"D  c #8C0D3B",
"F  c #940D3C",
"G  c #9C0C3D",
"H  c #A40C3E",
"J  c #AC0B3F",
"K  c #B40B3F",
"L  c #BA0A3F",
"P  c #814B3E",
"I  c #985D3F",
"U  c #A1523F",
"Y  c #99602F",
"T  c #AD7139",
"R  c #BA7A36",
"E  c #B4763A",
"W  c #9E0B40",
"Q  c #851241",
"!  c #9B1246",
"~  c #951E49",
"^  c #971346",
"/  c #A50D42",
"(  c #AD0C43",
")  c #B50A41",
"_  c #BD0A40",
"`  c #A21343",
"'  c #AB1244",
"]  c #862C47",
"[  c #962345",
"{  c #9D2B46",
"}  c #893A44",
"|  c #83375E",
" . c #A12D45",
".. c #C10A40",
"X. c #8C4443",
"o. c #964C45",
"O. c #9C5541",
"+. c #A04644",
"@. c #A45143",
"#. c #AB5944",
"$. c #A75447",
"%. c #B15F40",
"&. c #B0704A",
"*. c #864C69",
"=. c #82526F",
"-. c #9A4F75",
";. c #805770",
":. c #985C76",
">. c #81667B",
",. c #8B697E",
"<. c #876778",
"1. c #827478",
"2. c #A66974",
"3. c #B07C71",
"4. c #C8872C",
"5. c #DA952D",
"6. c #C28335",
"7. c #CA8B34",
"8. c #C6853B",
"9. c #D18D39",
"0. c #D08C37",
"q. c #DC9935",
"w. c #E19B2E",
"e. c #F7AC2D",
"r. c #FEB42E",
"t. c #E5A034",
"y. c #F3AC31",
"u. c #CD9346",
"i. c #CD9B5E",
"p. c #DAA868",
"a. c #916B82",
"s. c #8D7185",
"d. c #917283",
"f. c #967989",
"g. c #9E7E91",
"h. c #87688A",
"j. c #A279A3",
"k. c #9A8F8C",
"l. c #98838B",
"z. c #A2828C",
"x. c #A18593",
"c. c #A98B9B",
"v. c #B28B9F",
"b. c #A3939A",
"n. c #AE949E",
"m. c #B0909F",
"M. c #B99CA6",
"N. c #BA9EB0",
"B. c #B7A3A8",
"V. c #C5A69B",
"C. c #E1B888",
"Z. c #C09FAC",
"A. c #C3A4AE",
"S. c #C1B4AF",
"D. c #C9A7B3",
"F. c #CFBCBC",
"G. c #CAB6B7",
"H. c #D5BEBE",
"J. c #D6B7BE",
"K. c #D7B9A4",
"L. c #D3C2BD",
"P. c #EFCFAE",
"I. c #D6BCC0",
"U. c #DCC7C6",
"Y. c #E1C6CA",
"T. c #E7D3CE",
"R. c #EDD5D3",
"E. c #EAD9D1",
"W. c #F3DFD8",
"Q. c #F5E2DA",
"!. c #FBE6DF",
"~. c #FFEEE4",
"^. c #FFF1E6",
"/. c None",
/* pixels */
"/./././././././././././././././././././././././././././././././././././././././././././././././././././././././././././././././.",
"/./././././././././././././././././././././././././././././././././././././././././././././././././././././././././././././././.",
"/./././././././././././././././././././././././././././././././././././././././././././././././././././././././././././././././.",
"/./././././././././././././././././././././././././././././././././././././././././././././././././././././././././././././././.",
"/./././././././././././././././././././././././././././././././././././././././././././././././././././././././././././././././.",
"/./././././././././././././././././././././././././././.f.f././././././././././././././././././././././././././././././././././.",
"/./././././././././././././././././././././././././.x.G.Q.Q.H.z././././././././././././././././././././././././././././././././.",
"/./././././././././././././././././././././././././.L.^.~.~.!.Z.M /././././././././././././././././././././././././././././././.",
"/././././././././././././././././././././././././.z.T.~.~.^.W.A.>.X o /././././././././././././././././././././././././././././.",
"/./././././././././././././././././././././././.n.H.Y.J.R.U.Q.E.C - * /././././././././././././././././././././././././././././.",
"/././././././././././././././././././././././.; n # x.J.M.g 1.D.z - * /././././././././././././././././././././././././././././.",
"/././././././././././././././././././././././.S q s.N.k.Y.j.B =.w G 8 X /./././././././././././././././././././././././././././.",
"/././././././././././././././././././././././.5 9 l.B.k.E.<.> 2 H F /./././././././././././././././././././././././././././././.",
"/././././././././././././././././././././././.: F x t @ B t H H J 8 /./././././././././././././././././././././././././././././.",
"/././././././././././././././././././././././.1 G e %   6 D H L J S /./././././././././././././././././././././././././././././.",
"/./././././././././././././././././././././././.< w w $ % e e G 5 /././././././././././././././././././././././././././././././.",
"/./././././././././././././././././././././././.5 S < 5 D H S e D S /./././././././././././././././././././././././././././././.",
"/././././././././././././././././././././././.Q L G , , K ..F e D 5 Y 4././././././././././././././././././././././././././././.",
"/././././././././././././././././././././.4.E ^ ..F < $ H ..K S - x q.9.P /././././././././././././././././././././././././././.",
"/././././././././././././././././././././.R E ! L K 5 , K L J F t T 7.] Q e /./././././././././././././././././././././././././.",
"/./././././././././././././././././././.p I T ! K G S D ( _ / ~ 9.0.a D K J G e /./././././././././././././././././././././././.",
"/././././././././././././././././././.S / +.9.{ H D e S _ ' @.R R  .) L _ _ F /././././././././././././././././././././././././.",
"/././././././././././././././././././.2 ) ~ 7.X.( 2 7 H / @.y.9.[ _ L .._ G 8 /././././././././././././././././././././././././.",
"/././././././././././././././././././.2 L ' o.X.) 6 F ' #.7.O.{ _ ....L _ D H 8 /./././././././././././././././././././././././.",
"/./././././././././././././././././.D F _ ) o.8.| c ] $.t.$.' _ _ _ _ _ K H K 8 * /././././././././././././././././././././././.",
"/./././././././././././././././././.H ( J L ^ g.Y.C.p.A.$.( _ _ _ _ _ _ _ J S 8 1 5 D /././././././././././././././././././././.",
"/././././././././././././././././.D L K K K -.K.i.u.p.P.2.( _ _ _ _ _ _ _ 5 3 3 1 G D /././././././././././././././././././././.",
"/./././././././././././././././.& 8 G D F J :.i.y.r.t.p.3./ ...._ _ _ _ _ D 2 D K L S 0 /./././././././././././././././././././.",
"/././././././././././././.1 S D D K G e e / o.7.r.r.w.t.&./ _ _ _ _ ) F F ( J _ _ H e S F S /./././././././././././././././././.",
"/./././././././././././.+ 9 G K F F e e e S } 6.5.q.5.w.@.( .._ _ ..K F 8 S S G ) F D ^ ( ( F /././././././././././././././././.",
"/././././././././.,.M.G.b.u l ^ H e e e e e w X.R R 6.U ( _ _ _ _ _ L K D e e G H H H H H J H /././././././././././././././././.",
"/./././././././.C A.U.F.l.a.a.c J e e e e e e p x i a ! _ _ _ _ _ K ^ D e e e e q - ; d H J H 2 /./././././././././././././././.",
"/./././././././.n.m.s.g.b v.V * H S e e e e e e e 2 2 S G _ _ _ _ G e w e e w d f f ,.a.*./ G * /./././././././././././././././.",
"/./././././././.V M m s.l.I.f . D W e 6 w e e G J ( 6 S S K ..L _ ) F e e e 3 1.B.s.M.l.C : H = /./././././././././././././././.",
"/./././././././././.y N b.d.> . 1 J 1 q e e e ( _ ) F D F G _ _ _ ..J F H S : A x.B.b.I.N s G = /./././././././././././././././.",
"/././././././././././././.; 5 & X F 2 * 1 D e F ) J D w D S K L _ _ H F D 5 i N m f.Z g.b.Z 2 * /./././././././././././././././.",
"/./././././././././././././.2 - . S D /.= G e e F K H 0 H K L ...._ G 6 /.& s f.M j k V c.n 9 * /./././././././././././././././.",
"/././././././././././././././.D G J 6 /./.J K 8 0 F L G K ..L .._ _ ) F /././.l l y O y s & 3 * /./././././././././././././././.",
"/./././././././././././././././.6 5 /././.F H - * 9 J ) G K ..L .._ ..G /././.& * . . o & 1 9 /././././././././././././././././.",
"/./././././././././././././././././././././.6 * /./.D L J J ..L H L L / /./././.= * = = * o /./././././././././././././././././.",
"/././././././././././././././././././././././././././.D K G J L 8 2 G G /././././.* /./././././././././././././././././././././.",
"/./././././././././././././././././././././././././././.D D G ..F /./.S /./././././././././././././././././././././././././././.",
"/././././././././././././././././././././././././././././.- G ..K 1 /./././././././././././././././././././././././././././././.",
"/././././././././././././././././././././././././././././.- H ..L S /./././././././././././././././././././././././././././././.",
"/././././././././././././././././././././././././././.* - 8 K ..K D /./././././././././././././././././././././././././././././.",
"/./././././././././././././././././././././././././.* q e H L H F /././././././././././././././././././././././././././././././.",
"/./././././././././././././././././././././././././.* w e ) F /././././././././././././././././././././././././././././././././.",
"/././././././././././././././././././././././././././.- 9 D G - /./././././././././././././././././././././././././././././././.",
"/././././././././././././././././././././././././././././.- D G 8 /././././././././././././././././././././././././././././././.",
"/././././././././././././././././././././././././././././.S F ) H - /./././././././././././././././././././././././././././././.",
"/././././././././././././././././././././././././././.F H K J D - /././././././././././././././././././././././././././././././.",
"/././././././././././././././././././././././././././.D K K D /././././././././././././././././././././././././././././././././.",
"/./././././././././././././././././././././././././././.2 e D 3 /./././././././././././././././././././././././././././././././.",
"/././././././././././././././././././././././././././././.* w 3 * /././././././././././././././././././././././././././././././.",
"/././././././././././././././././././././././././././././.* q 3 /./././././././././././././././././././././././././././././././.",
"/./././././././././././././././././././././././././././.- 1 * /././././././././././././././././././././././././././././././././.",
"/././././././././././././././././././././././././././.& 9 & /./././././././././././././././././././././././././././././././././.",
"/./././././././././././././././././././././././././././.o . . . /./././././././././././././././././././././././././././././././.",
"/./././././././././././././././././././././././././././././.. . /./././././././././././././././././././././././././././././././.",
"/./././././././././././././././././././././././././././././././././././././././././././././././././././././././././././././././.",
"/./././././././././././././././././././././././././././././././././././././././././././././././././././././././././././././././.",
"/./././././././././././././././././././././././././././././././././././././././././././././././././././././././././././././././.",
"/./././././././././././././././././././././././././././././././././././././././././././././././././././././././././././././././.",
"/./././././././././././././././././././././././././././././././././././././././././././././././././././././././././././././././."
};
