/* XPM */
static char *result[] = {
/* columns rows colors chars-per-pixel */
"64 64 179 2 ",
"   c #250E1D",
".  c #1E1922",
"X  c #320D2E",
"o  c #3B0D2F",
"O  c #370E22",
"+  c #3D0D30",
"@  c #2F1230",
"#  c #371332",
"$  c #3B1C2C",
"%  c #3A243B",
"&  c #4D0E28",
"*  c #480E26",
"=  c #5F0B2C",
"-  c #53142F",
";  c #430E31",
":  c #4B0E32",
">  c #530E34",
",  c #5C0D34",
"<  c #4A1235",
"1  c #571235",
"2  c #5D153A",
"3  c #5B1A3E",
"4  c #6B0D2F",
"5  c #640D35",
"6  c #6C0D35",
"7  c #6B0F38",
"8  c #670F38",
"9  c #720C36",
"0  c #790C36",
"q  c #740F39",
"w  c #7C0E3A",
"e  c #6C133D",
"r  c #6A193E",
"t  c #75103B",
"y  c #7A103B",
"u  c #7E492D",
"i  c #3F3047",
"p  c #3C2C45",
"a  c #5D1A41",
"s  c #6E1642",
"d  c #651E42",
"f  c #771E41",
"g  c #452E49",
"h  c #432C46",
"j  c #572746",
"k  c #48344C",
"l  c #52304B",
"z  c #6B2342",
"x  c #602143",
"c  c #753D5A",
"v  c #484046",
"b  c #5E485F",
"n  c #5B455A",
"m  c #585355",
"M  c #5D4860",
"N  c #674B63",
"B  c #6C566A",
"V  c #735A6F",
"C  c #74556D",
"Z  c #785C73",
"A  c #6C606D",
"S  c #7B6277",
"D  c #7D6875",
"F  c #840D3A",
"G  c #8C0D3B",
"H  c #890D37",
"J  c #940D3D",
"K  c #9C0C3D",
"L  c #84113F",
"P  c #A40C3E",
"I  c #AB0B3F",
"U  c #B30B3F",
"Y  c #B90A3F",
"T  c #9B483B",
"R  c #8E513E",
"E  c #9E5B3F",
"W  c #AD533D",
"Q  c #B1523F",
"!  c #9B613B",
"~  c #AF6B3E",
"^  c #A5663C",
"/  c #BB6F3E",
"(  c #AE723B",
")  c #BD773B",
"_  c #8C0E42",
"`  c #8D1443",
"'  c #9C1345",
"]  c #9A1C48",
"[  c #AB0C43",
"{  c #A60C43",
"}  c #B50B40",
"|  c #BD0A40",
" . c #A31C44",
".. c #A61243",
"X. c #952547",
"o. c #983646",
"O. c #883C50",
"+. c #83264C",
"@. c #C00A40",
"#. c #974243",
"$. c #9A4144",
"%. c #83415C",
"&. c #9D4D56",
"*. c #A45843",
"=. c #AB6143",
"-. c #AB674D",
";. c #864967",
":. c #80586C",
">. c #975A6F",
",. c #9A577B",
"<. c #82637A",
"1. c #85697E",
"2. c #887779",
"3. c #B07C6F",
"4. c #AA7073",
"5. c #BF8034",
"6. c #CC8B2E",
"7. c #D7932D",
"8. c #DB972F",
"9. c #DF992E",
"0. c #D08B31",
"q. c #D39236",
"w. c #DC9A32",
"e. c #D59438",
"r. c #C5853B",
"t. c #E29C2D",
"y. c #E79B33",
"u. c #FFB42F",
"i. c #F8AC2B",
"p. c #BE8344",
"a. c #D09649",
"s. c #D19C57",
"d. c #CA9654",
"f. c #DEAB66",
"g. c #916E85",
"h. c #8D7B85",
"j. c #937687",
"k. c #977C8B",
"l. c #9C7A8E",
"z. c #927488",
"x. c #9A7B98",
"c. c #A37B91",
"v. c #8F8583",
"b. c #97848B",
"n. c #9E8592",
"m. c #A58397",
"M. c #A78A96",
"N. c #AE949D",
"B. c #A69097",
"V. c #B1949E",
"C. c #ADA39E",
"Z. c #AF8AAC",
"A. c #AF96A1",
"S. c #B497A2",
"D. c #BA9BA8",
"F. c #BCAAAE",
"G. c #D8B799",
"H. c #E7BE8C",
"J. c #C29AAC",
"K. c #C4ABAF",
"L. c #C0B2AD",
"P. c #CDB3AD",
"I. c #C1ABB3",
"U. c #C8AAB4",
"Y. c #D2AEBA",
"T. c #D5BCBE",
"R. c #EBC088",
"E. c #EECA9D",
"W. c #D5C0BF",
"Q. c #DCC4C5",
"!. c #E2C6C9",
"~. c #E4D2CA",
"^. c #E6CBD0",
"/. c #ECDAD3",
"(. c #F4DED9",
"). c #F8E5DD",
"_. c #FFEDE3",
"`. c #FFF1E6",
"'. c None",
/* pixels */
"'.'.'.'.'.'.'.'.'.'.'.'.'.'.'.'.'.'.'.'.'.'.'.'.'.'.'.'.'.'.'.'.'.'.'.'.'.'.'.'.'.'.'.'.'.'.'.'.'.'.'.'.'.'.'.'.'.'.'.'.'.'.'.'.",
"'.'.'.'.'.'.'.'.'.'.'.'.'.'.'.'.'.'.'.'.'.'.'.'.'.'.'.'.'.'.'.'.'.'.'.'.'.'.'.'.'.'.'.'.'.'.'.'.'.'.'.'.'.'.'.'.'.'.'.'.'.'.'.'.",
"'.'.'.'.'.'.'.'.'.'.'.'.'.'.'.'.'.'.'.'.'.'.'.'.'.'.'.'.'.'.'.'.'.'.'.'.'.'.'.'.'.'.'.'.'.'.'.'.'.'.'.'.'.'.'.'.'.'.'.'.'.'.'.'.",
"'.'.'.'.'.'.'.'.'.'.'.'.'.'.'.'.'.'.'.'.'.'.'.'.'.'.'.'.'.'.'.'.'.'.'.'.'.'.'.'.'.'.'.'.'.'.'.'.'.'.'.'.'.'.'.'.'.'.'.'.'.'.'.'.",
"'.'.'.'.'.'.'.'.'.'.'.'.'.'.'.'.'.'.'.'.'.'.'.'.'.'.'.'.'.'.'.'.'.'.'.'.'.'.'.'.'.'.'.'.'.'.'.'.'.'.'.'.'.'.'.'.'.'.'.'.'.'.'.'.",
"'.'.'.'.'.'.'.'.'.'.'.'.'.'.'.'.'.'.'.'.'.'.'.'.'.'.'.M.T.T.N.'.'.'.'.'.'.'.'.'.'.'.'.'.'.'.'.'.'.'.'.'.'.'.'.'.'.'.'.'.'.'.'.'.",
"'.'.'.'.'.'.'.'.'.'.'.'.'.'.'.'.'.'.'.'.'.'.'.'.'.'.K.).`.`.).D.'.'.'.'.'.'.'.'.'.'.'.'.'.'.'.'.'.'.'.'.'.'.'.'.'.'.'.'.'.'.'.'.",
"'.'.'.'.'.'.'.'.'.'.'.'.'.'.'.'.'.'.'.'.'.'.'.'.'.S./._._.`.(.J.S '.'.'.'.'.'.'.'.'.'.'.'.'.'.'.'.'.'.'.'.'.'.'.'.'.'.'.'.'.'.'.",
"'.'.'.'.'.'.'.'.'.'.'.'.'.'.'.'.'.'.'.'.'.'.'.'.V.L.T.Y.~.L.~.!.<.: : '.'.'.'.'.'.'.'.'.'.'.'.'.'.'.'.'.'.'.'.'.'.'.'.'.'.'.'.'.",
"'.'.'.'.'.'.'.'.'.'.'.'.'.'.'.'.'.'.'.'.'.'.'.'.n % m.T.D.h D Q.c , ; '.'.'.'.'.'.'.'.'.'.'.'.'.'.'.'.'.'.'.'.'.'.'.'.'.'.'.'.'.",
"'.'.'.'.'.'.'.'.'.'.'.'.'.'.'.'.'.'.'.'.'.'.'.6 1 x.I.v.^.Z.k.c.3 0 6 o '.'.'.'.'.'.'.'.'.'.'.'.'.'.'.'.'.'.'.'.'.'.'.'.'.'.'.'.",
"'.'.'.'.'.'.'.'.'.'.'.'.'.'.'.'.'.'.'.'.'.'.'.H 0 2.C.v.~.m % x J I 9 '.'.'.'.'.'.'.'.'.'.'.'.'.'.'.'.'.'.'.'.'.'.'.'.'.'.'.'.'.",
"'.'.'.'.'.'.'.'.'.'.'.'.'.'.'.'.'.'.'.'.'.'.'.'.H z $ . v - 4 G I w '.'.'.'.'.'.'.'.'.'.'.'.'.'.'.'.'.'.'.'.'.'.'.'.'.'.'.'.'.'.",
"'.'.'.'.'.'.'.'.'.'.'.'.'.'.'.'.'.'.'.'.'.'.'., P F *   = J Y Y P H '.'.'.'.'.'.'.'.'.'.'.'.'.'.'.'.'.'.'.'.'.'.'.'.'.'.'.'.'.'.",
"'.'.'.'.'.'.'.'.'.'.'.'.'.'.'.'.'.'.'.'.'.'.'.'.y 4 *   6 y F [ K , '.'.'.'.'.'.'.'.'.'.'.'.'.'.'.'.'.'.'.'.'.'.'.'.'.'.'.'.'.'.",
"'.'.'.'.'.'.'.'.'.'.'.'.'.'.'.'.'.'.'.'.'.'.'.'.> 5 4 O 1 G y F 9 , '.'.'.'.'.'.'.'.'.'.'.'.'.'.'.'.'.'.'.'.'.'.'.'.'.'.'.'.'.'.",
"'.'.'.'.'.'.'.'.'.'.'.'.'.'.'.'.'.'.'.'.'.'.'.L K 5   4 J Y G q K H R '.'.'.'.'.'.'.'.'.'.'.'.'.'.'.'.'.'.'.'.'.'.'.'.'.'.'.'.'.",
"'.'.'.'.'.'.'.'.'.'.'.'.'.'.'.'.'.'.'.'.'.'.! ` Y J & & K Y P F 6 - ) 9.'.'.'.'.'.'.'.'.'.'.'.'.'.'.'.'.'.'.'.'.'.'.'.'.'.'.'.'.",
"'.'.'.'.'.'.'.'.'.'.'.'.'.'.'.'.'.'.'.'.'.6.r.' Y H O O P @.U G e R y.Q z '.'.'.'.'.'.'.'.'.'.'.'.'.'.'.'.'.'.'.'.'.'.'.'.'.'.'.",
"'.'.'.'.'.'.'.'.'.'.'.'.'.'.'.'.'.'.'.'.'.E ^ ' Y Y 4 0 Y @.I K ^ 6.T K [ K G '.'.'.'.'.'.'.'.'.'.'.'.'.'.'.'.'.'.'.'.'.'.'.'.'.",
"'.'.'.'.'.'.'.'.'.'.'.'.'.'.'.'.'.'.'.'._ *.r.] { J G { Y } X.#.w.Q P U @.Y I '.'.'.'.'.'.'.'.'.'.'.'.'.'.'.'.'.'.'.'.'.'.'.'.'.",
"'.'.'.'.'.'.'.'.'.'.'.'.'.'.'.'.'.'.'.w } X.q.#.[ q 9 J ..o.e.w.o.[ @.Y Y I 6 '.'.'.'.'.'.'.'.'.'.'.'.'.'.'.'.'.'.'.'.'.'.'.'.'.",
"'.'.'.'.'.'.'.'.'.'.'.'.'.'.'.'.'.'.'.5 Y ] ! E { _ J  ./ e.) o.[ @.@.@.Y F F 6 '.'.'.'.'.'.'.'.'.'.'.'.'.'.'.'.'.'.'.'.'.'.'.'.",
"'.'.'.'.'.'.'.'.'.'.'.'.'.'.'.'.'.'.'.F Y } o.p.:.O.O.-.t.*.] | @.| | | U K U F '.'.'.'.'.'.'.'.'.'.'.'.'.'.'.'.'.'.'.'.'.'.'.'.",
"'.'.'.'.'.'.'.'.'.'.'.'.'.'.'.'.'.'.K P U Y ] M.~.H.H.P.&.[ | | | @.| | U U K y 1 '.'.'.'.'.'.'.'.'.'.'.'.'.'.'.'.'.'.'.'.'.'.'.",
"'.'.'.'.'.'.'.'.'.'.'.'.'.'.'.'.'.J Y U I U ,.G.a.e.s.E.4.[ @.| | | @.| | G e t 6 J F '.'.'.'.'.'.'.'.'.'.'.'.'.'.'.'.'.'.'.'.'.",
"'.'.'.'.'.'.'.'.'.'.'.'.'.'.'.'.'.q I K P U >.d.i.u.y.f.3.{ @.| | | | | Y 0 5 6 K Y F : '.'.'.'.'.'.'.'.'.'.'.'.'.'.'.'.'.'.'.'.",
"'.'.'.'.'.'.'.'.'.'.'.'.'.: , F 6 K K y F ] ~ w.u.u.w.t.=.[ | @.| @.| P I U I Y | G y L y '.'.'.'.'.'.'.'.'.'.'.'.'.'.'.'.'.'.'.",
"'.'.'.'.'.'.'.'.'.'.'.'.'.w I Y K I J t y ` ^ 6.7.7.9.)  .| | | @.@.U L y y J U I w F I P J '.'.'.'.'.'.'.'.'.'.'.'.'.'.'.'.'.'.",
"'.'.'.'.'.'.'.'.'.'.j.h.A % r } K y y y y y f E ( ( =. .| | | | Y @.Y I G y J Y P [ [ P [ I '.'.'.'.'.'.'.'.'.'.'.'.'.'.'.'.'.'.",
"'.'.'.'.'.'.'.'.N N.!./.F.C Z +.I y y y y y t s s a _ | | | | @.@.Y I J L y y L q 9 5 K I P J '.'.'.'.'.'.'.'.'.'.'.'.'.'.'.'.'.",
"'.'.'.'.'.'.'.'.n.J.N.n.b c.S d I y y y y t y y y , w P | | | | Y G y t t t t :.2.l N ;...I 6 '.'.'.'.'.'.'.'.'.'.'.'.'.'.'.'.'.",
"'.'.'.'.'.'.'.'.k.z.Z m.S U.b , [ y y t t y y H J F 5 w I | @.| @.P y t t y j S.I.W.S.S c ..9 '.'.'.'.'.'.'.'.'.'.'.'.'.'.'.'.'.",
"'.'.'.'.'.'.'.'.'.i k B D.F.% 5 Y F t t y t y I @.} 0 J J | | | @.Y G G L y d j.k.Q.l.F.V F F '.'.'.'.'.'.'.'.'.'.'.'.'.'.'.'.'.",
"'.'.'.'.'.'.'.'.'.'.'.M N l > ; P J : > q L y P | P 0 G w ' | | Y I K Y P w 3 N V l.V Q.B.;.5 '.'.'.'.'.'.'.'.'.'.'.'.'.'.'.'.'.",
"'.'.'.'.'.'.'.'.'.'.'.'.'.< 9 X 6 K : '.> G t L I } J 5 J I @.| @.K J 8 5 > j 1.N 1.l.z.N.V ; '.'.'.'.'.'.'.'.'.'.'.'.'.'.'.'.'.",
"'.'.'.'.'.'.'.'.'.'.'.'.'.'.9 9 0 P > '.5 I J w w K } q U @.| | | U K > '.'.p Z g h Z M C a + '.'.'.'.'.'.'.'.'.'.'.'.'.'.'.'.'.",
"'.'.'.'.'.'.'.'.'.'.'.'.'.'.'.0 K 0 '.'.G Y K > 1 w U [ P @.@.| | | U '.'.'.# < X X @ @ 2 , '.'.'.'.'.'.'.'.'.'.'.'.'.'.'.'.'.'.",
"'.'.'.'.'.'.'.'.'.'.'.'.'.'.'.'.'.'.'.'.'.[ G '.'.: K Y P U | K U @.} '.'.'.; , : + + : t : '.'.'.'.'.'.'.'.'.'.'.'.'.'.'.'.'.'.",
"'.'.'.'.'.'.'.'.'.'.'.'.'.'.'.'.'.'.'.'.'.'.6 '.'.'.5 I P I | 0 G Y } '.'.'.'.; : > > 1 > '.'.'.'.'.'.'.'.'.'.'.'.'.'.'.'.'.'.'.",
"'.'.'.'.'.'.'.'.'.'.'.'.'.'.'.'.'.'.'.'.'.'.'.'.'.'.'.F I H | K > 0 K '.'.'.'.'.'.'.'.'.'.'.'.'.'.'.'.'.'.'.'.'.'.'.'.'.'.'.'.'.",
"'.'.'.'.'.'.'.'.'.'.'.'.'.'.'.'.'.'.'.'.'.'.'.'.'.'.'.'.F 0 | | 0 '.'.'.'.'.'.'.'.'.'.'.'.'.'.'.'.'.'.'.'.'.'.'.'.'.'.'.'.'.'.'.",
"'.'.'.'.'.'.'.'.'.'.'.'.'.'.'.'.'.'.'.'.'.'.'.'.'.'.'.'.> 9 | @.P '.'.'.'.'.'.'.'.'.'.'.'.'.'.'.'.'.'.'.'.'.'.'.'.'.'.'.'.'.'.'.",
"'.'.'.'.'.'.'.'.'.'.'.'.'.'.'.'.'.'.'.'.'.'.'.'.'.'.'.'.'.6 | | U 9 '.'.'.'.'.'.'.'.'.'.'.'.'.'.'.'.'.'.'.'.'.'.'.'.'.'.'.'.'.'.",
"'.'.'.'.'.'.'.'.'.'.'.'.'.'.'.'.'.'.'.'.'.'.'.'.'.'.'.'.1 G | | | G '.'.'.'.'.'.'.'.'.'.'.'.'.'.'.'.'.'.'.'.'.'.'.'.'.'.'.'.'.'.",
"'.'.'.'.'.'.'.'.'.'.'.'.'.'.'.'.'.'.'.'.'.'.'.'.'.'.'.: q P @.| I '.'.'.'.'.'.'.'.'.'.'.'.'.'.'.'.'.'.'.'.'.'.'.'.'.'.'.'.'.'.'.",
"'.'.'.'.'.'.'.'.'.'.'.'.'.'.'.'.'.'.'.'.'.'.'.'.'.'.'., L U } J '.'.'.'.'.'.'.'.'.'.'.'.'.'.'.'.'.'.'.'.'.'.'.'.'.'.'.'.'.'.'.'.",
"'.'.'.'.'.'.'.'.'.'.'.'.'.'.'.'.'.'.'.'.'.'.'.'.'.'.'., q J U G '.'.'.'.'.'.'.'.'.'.'.'.'.'.'.'.'.'.'.'.'.'.'.'.'.'.'.'.'.'.'.'.",
"'.'.'.'.'.'.'.'.'.'.'.'.'.'.'.'.'.'.'.'.'.'.'.'.'.'.'.'.: q I I 5 '.'.'.'.'.'.'.'.'.'.'.'.'.'.'.'.'.'.'.'.'.'.'.'.'.'.'.'.'.'.'.",
"'.'.'.'.'.'.'.'.'.'.'.'.'.'.'.'.'.'.'.'.'.'.'.'.'.'.'.'.'.G P @.F '.'.'.'.'.'.'.'.'.'.'.'.'.'.'.'.'.'.'.'.'.'.'.'.'.'.'.'.'.'.'.",
"'.'.'.'.'.'.'.'.'.'.'.'.'.'.'.'.'.'.'.'.'.'.'.'.'.'.'.'.P Y U U 0 '.'.'.'.'.'.'.'.'.'.'.'.'.'.'.'.'.'.'.'.'.'.'.'.'.'.'.'.'.'.'.",
"'.'.'.'.'.'.'.'.'.'.'.'.'.'.'.'.'.'.'.'.'.'.'.'.'.'.'.q I K , 5 '.'.'.'.'.'.'.'.'.'.'.'.'.'.'.'.'.'.'.'.'.'.'.'.'.'.'.'.'.'.'.'.",
"'.'.'.'.'.'.'.'.'.'.'.'.'.'.'.'.'.'.'.'.'.'.'.'.'.'.'.; t H , '.'.'.'.'.'.'.'.'.'.'.'.'.'.'.'.'.'.'.'.'.'.'.'.'.'.'.'.'.'.'.'.'.",
"'.'.'.'.'.'.'.'.'.'.'.'.'.'.'.'.'.'.'.'.'.'.'.'.'.'.'.'.: 8 e > '.'.'.'.'.'.'.'.'.'.'.'.'.'.'.'.'.'.'.'.'.'.'.'.'.'.'.'.'.'.'.'.",
"'.'.'.'.'.'.'.'.'.'.'.'.'.'.'.'.'.'.'.'.'.'.'.'.'.'.'.'.'.'.e q ; '.'.'.'.'.'.'.'.'.'.'.'.'.'.'.'.'.'.'.'.'.'.'.'.'.'.'.'.'.'.'.",
"'.'.'.'.'.'.'.'.'.'.'.'.'.'.'.'.'.'.'.'.'.'.'.'.'.'.'.'.'.> 6 1 '.'.'.'.'.'.'.'.'.'.'.'.'.'.'.'.'.'.'.'.'.'.'.'.'.'.'.'.'.'.'.'.",
"'.'.'.'.'.'.'.'.'.'.'.'.'.'.'.'.'.'.'.'.'.'.'.'.'.'.'.'.'.: ; '.'.'.'.'.'.'.'.'.'.'.'.'.'.'.'.'.'.'.'.'.'.'.'.'.'.'.'.'.'.'.'.'.",
"'.'.'.'.'.'.'.'.'.'.'.'.'.'.'.'.'.'.'.'.'.'.'.'.'.'.'.'.'.X o '.'.'.'.'.'.'.'.'.'.'.'.'.'.'.'.'.'.'.'.'.'.'.'.'.'.'.'.'.'.'.'.'.",
"'.'.'.'.'.'.'.'.'.'.'.'.'.'.'.'.'.'.'.'.'.'.'.'.'.'.'.'.'.'.X '.'.'.'.'.'.'.'.'.'.'.'.'.'.'.'.'.'.'.'.'.'.'.'.'.'.'.'.'.'.'.'.'.",
"'.'.'.'.'.'.'.'.'.'.'.'.'.'.'.'.'.'.'.'.'.'.'.'.'.'.'.'.'.'.'.'.'.'.'.'.'.'.'.'.'.'.'.'.'.'.'.'.'.'.'.'.'.'.'.'.'.'.'.'.'.'.'.'.",
"'.'.'.'.'.'.'.'.'.'.'.'.'.'.'.'.'.'.'.'.'.'.'.'.'.'.'.'.'.'.'.'.'.'.'.'.'.'.'.'.'.'.'.'.'.'.'.'.'.'.'.'.'.'.'.'.'.'.'.'.'.'.'.'.",
"'.'.'.'.'.'.'.'.'.'.'.'.'.'.'.'.'.'.'.'.'.'.'.'.'.'.'.'.'.'.'.'.'.'.'.'.'.'.'.'.'.'.'.'.'.'.'.'.'.'.'.'.'.'.'.'.'.'.'.'.'.'.'.'.",
"'.'.'.'.'.'.'.'.'.'.'.'.'.'.'.'.'.'.'.'.'.'.'.'.'.'.'.'.'.'.'.'.'.'.'.'.'.'.'.'.'.'.'.'.'.'.'.'.'.'.'.'.'.'.'.'.'.'.'.'.'.'.'.'.",
"'.'.'.'.'.'.'.'.'.'.'.'.'.'.'.'.'.'.'.'.'.'.'.'.'.'.'.'.'.'.'.'.'.'.'.'.'.'.'.'.'.'.'.'.'.'.'.'.'.'.'.'.'.'.'.'.'.'.'.'.'.'.'.'."
};
