/* XPM */
static char *result[] = {
/* columns rows colors chars-per-pixel */
"64 64 182 2 ",
"   c #140E19",
".  c #1D0E1B",
"X  c #290E1E",
"o  c #340E22",
"O  c #3A0F24",
"+  c #340D2E",
"@  c #390D2F",
"#  c #3D0D30",
"$  c #2F1231",
"%  c #3E1D3A",
"&  c #341E39",
"*  c #3C223D",
"=  c #37273E",
"-  c #3B353C",
";  c #540E2D",
":  c #5A0E2C",
">  c #440E31",
",  c #4B0D32",
"<  c #540D33",
"1  c #5B0E35",
"2  c #491335",
"3  c #421837",
"4  c #5C133C",
"5  c #5F183C",
"6  c #561C3E",
"7  c #650E2E",
"8  c #630D36",
"9  c #6D0D35",
"0  c #650E38",
"q  c #6B0F38",
"w  c #740C36",
"e  c #7A0C36",
"r  c #740F39",
"t  c #7B0D39",
"y  c #6C1039",
"u  c #671438",
"i  c #75103B",
"p  c #7A103B",
"a  c #701436",
"s  c #682635",
"d  c #3F2A44",
"f  c #6F1140",
"g  c #7C1C46",
"h  c #442A44",
"j  c #5E2848",
"k  c #43344B",
"l  c #4C354E",
"z  c #403047",
"x  c #533D56",
"c  c #5E3954",
"v  c #632345",
"b  c #6E294A",
"n  c #763443",
"m  c #663953",
"M  c #773354",
"N  c #64384B",
"B  c #58445A",
"V  c #634B62",
"C  c #754E67",
"Z  c #6C5A63",
"A  c #6E546B",
"S  c #72586E",
"D  c #75546B",
"F  c #755B71",
"G  c #70686A",
"H  c #7E7275",
"J  c #830E3B",
"K  c #8C0E3C",
"L  c #930C3C",
"P  c #9B0C3D",
"I  c #900B36",
"U  c #94113E",
"Y  c #A30C3D",
"T  c #AC0B3F",
"R  c #B30B3F",
"E  c #BB0A3F",
"W  c #9D5E3E",
"Q  c #A85F3F",
"!  c #9C623F",
"~  c #A5613F",
"^  c #BC753B",
"/  c #BC7B3A",
"(  c #B67338",
")  c #8D0D41",
"_  c #950C40",
"`  c #8B1342",
"'  c #831240",
"]  c #981647",
"[  c #A40C42",
"{  c #AC0C42",
"}  c #B50A41",
"|  c #BD0A40",
" . c #A31345",
".. c #AE1043",
"X. c #832B43",
"o. c #9A2948",
"O. c #873D45",
"+. c #933B45",
"@. c #9A3745",
"#. c #923657",
"$. c #9A2855",
"%. c #A22245",
"&. c #A13944",
"*. c #C00A40",
"=. c #8B4545",
"-. c #9A4644",
";. c #9C5342",
":. c #9B5F40",
">. c #8F5454",
",. c #A85A42",
"<. c #AB6440",
"1. c #A96841",
"2. c #9B5C63",
"3. c #924F74",
"4. c #855B75",
"5. c #826379",
"6. c #856A7C",
"7. c #806F76",
"8. c #A57766",
"9. c #BE8137",
"0. c #CD8C2D",
"q. c #C1822C",
"w. c #D08D2D",
"e. c #D3912E",
"r. c #DF9A2D",
"t. c #C68735",
"y. c #D38F35",
"u. c #D59334",
"i. c #D89638",
"p. c #E29B2E",
"a. c #E19D34",
"s. c #F6AC2E",
"d. c #FFB52F",
"f. c #E9A334",
"g. c #BB8D68",
"h. c #CA8B40",
"j. c #D5A15E",
"k. c #CFA07B",
"l. c #D6A569",
"z. c #E7B369",
"x. c #8A6D82",
"c. c #866C80",
"v. c #956888",
"b. c #8B7986",
"n. c #9C7D8E",
"m. c #947787",
"M. c #966F9A",
"N. c #A27F93",
"B. c #A58994",
"V. c #A98C9A",
"C. c #A58796",
"Z. c #A39495",
"A. c #AE949C",
"S. c #A8999B",
"D. c #B99594",
"F. c #B38FA1",
"G. c #B69AA4",
"H. c #BB97A5",
"J. c #B7A2A5",
"K. c #E8BF8E",
"L. c #C3ABAF",
"P. c #C3A3AD",
"I. c #C5ABB1",
"U. c #CBACB6",
"Y. c #C8A7B5",
"T. c #D1ADB9",
"R. c #C3B3B2",
"E. c #CBB6B8",
"W. c #D4BDB8",
"Q. c #E7CCB5",
"!. c #EDD2B8",
"~. c #D9C9C3",
"^. c #D7C4C4",
"/. c #E2C6C9",
"(. c #E9D5CF",
"). c #EECEDC",
"_. c #EAD2D0",
"`. c #EDDAD4",
"'. c #F8E5DD",
"]. c #FFEEE4",
"[. c #FFF1E6",
"{. c None",
/* pixels */
"{.{.{.{.{.{.{.{.{.{.{.{.{.{.{.{.{.{.{.{.{.{.{.{.{.{.{.{.{.{.{.{.{.{.{.{.{.{.{.{.{.{.{.{.{.{.{.{.{.{.{.{.{.{.{.{.{.{.{.{.{.{.{.{.",
"{.{.{.{.{.{.{.{.{.{.{.{.{.{.{.{.{.{.{.{.{.{.{.{.{.{.{.{.{.{.{.{.{.{.{.{.{.{.{.{.{.{.{.{.{.{.{.{.{.{.{.{.{.{.{.{.{.{.{.{.{.{.{.{.",
"{.{.{.{.{.{.{.{.{.{.{.{.{.{.{.{.{.{.{.{.{.{.{.{.{.{.{.{.{.{.{.{.{.{.{.{.{.{.{.{.{.{.{.{.{.{.{.{.{.{.{.{.{.{.{.{.{.{.{.{.{.{.{.{.",
"{.{.{.{.{.{.{.{.{.{.{.{.{.{.{.{.{.{.{.{.{.{.{.{.{.{.{.{.{.{.{.{.{.{.{.{.{.{.{.{.{.{.{.{.{.{.{.{.{.{.{.{.{.{.{.{.{.{.{.{.{.{.{.{.",
"{.{.{.{.{.{.{.{.{.{.{.{.{.{.{.{.{.{.{.{.{.{.{.{.{.{.{.{.m.A.B.{.{.{.{.{.{.{.{.{.{.{.{.{.{.{.{.{.{.{.{.{.{.{.{.{.{.{.{.{.{.{.{.{.",
"{.{.{.{.{.{.{.{.{.{.{.{.{.{.{.{.{.{.{.{.{.{.{.{.{.{.{.L.(.].'.W.6.{.{.{.{.{.{.{.{.{.{.{.{.{.{.{.{.{.{.{.{.{.{.{.{.{.{.{.{.{.{.{.",
"{.{.{.{.{.{.{.{.{.{.{.{.{.{.{.{.{.{.{.{.{.{.{.{.{.{.B.'.].[.[._.N.{.{.{.{.{.{.{.{.{.{.{.{.{.{.{.{.{.{.{.{.{.{.{.{.{.{.{.{.{.{.{.",
"{.{.{.{.{.{.{.{.{.{.{.{.{.{.{.{.{.{.{.{.{.{.{.{.{.L.(._./.L.S.`.Y.x > {.{.{.{.{.{.{.{.{.{.{.{.{.{.{.{.{.{.{.{.{.{.{.{.{.{.{.{.{.",
"{.{.{.{.{.{.{.{.{.{.{.{.{.{.{.{.{.{.{.{.{.{.{.{.{.7.Z Y.T.v.= G.P.v 1 {.{.{.{.{.{.{.{.{.{.{.{.{.{.{.{.{.{.{.{.{.{.{.{.{.{.{.{.{.",
"{.{.{.{.{.{.{.{.{.{.{.{.{.{.{.{.{.{.{.{.{.{.{.{.< 3 M.Z.~.).Y.H.4.1 1 > {.{.{.{.{.{.{.{.{.{.{.{.{.{.{.{.{.{.{.{.{.{.{.{.{.{.{.{.",
"{.{.{.{.{.{.{.{.{.{.{.{.{.{.{.{.{.{.{.{.{.{.{.1 L N ~.Z.R.~.7.Z M K Y 1 {.{.{.{.{.{.{.{.{.{.{.{.{.{.{.{.{.{.{.{.{.{.{.{.{.{.{.{.",
"{.{.{.{.{.{.{.{.{.{.{.{.{.{.{.{.{.{.{.{.{.{.{.{.e a G - G G   ; J T w {.{.{.{.{.{.{.{.{.{.{.{.{.{.{.{.{.{.{.{.{.{.{.{.{.{.{.{.{.",
"{.{.{.{.{.{.{.{.{.{.{.{.{.{.{.{.{.{.{.{.{.{.{.{.e P 9     o e T T P 8 {.{.{.{.{.{.{.{.{.{.{.{.{.{.{.{.{.{.{.{.{.{.{.{.{.{.{.{.{.",
"{.{.{.{.{.{.{.{.{.{.{.{.{.{.{.{.{.{.{.{.{.{.{.{.e I ;   . e K T R P {.{.{.{.{.{.{.{.{.{.{.{.{.{.{.{.{.{.{.{.{.{.{.{.{.{.{.{.{.{.",
"{.{.{.{.{.{.{.{.{.{.{.{.{.{.{.{.{.{.{.{.{.{.{.{.{.u 9   . : p J I < {.{.{.{.{.{.{.{.{.{.{.{.{.{.{.{.{.{.{.{.{.{.{.{.{.{.{.{.{.{.",
"{.{.{.{.{.{.{.{.{.{.{.{.{.{.{.{.{.{.{.{.{.{.{.{.J w O X w U Y p J P 9 {.{.{.{.{.{.{.{.{.{.{.{.{.{.{.{.{.{.{.{.{.{.{.{.{.{.{.{.{.",
"{.{.{.{.{.{.{.{.{.{.{.{.{.{.{.{.{.{.{.{.{.{.{.n P P 7 . ; Y R J t J s 0.q.{.{.{.{.{.{.{.{.{.{.{.{.{.{.{.{.{.{.{.{.{.{.{.{.{.{.{.",
"{.{.{.{.{.{.{.{.{.{.{.{.{.{.{.{.{.{.{.{.{.{.e.=.[ P :   O L E P r 5 W f.W {.{.{.{.{.{.{.{.{.{.{.{.{.{.{.{.{.{.{.{.{.{.{.{.{.{.{.",
"{.{.{.{.{.{.{.{.{.{.{.{.{.{.{.{.{.{.{.{.{.{.q.O.R E I o e E R P ` Q y.;.` L K {.{.{.{.{.{.{.{.{.{.{.{.{.{.{.{.{.{.{.{.{.{.{.{.{.",
"{.{.{.{.{.{.{.{.{.{.{.{.{.{.{.{.{.{.{.{.{.g / ,.[ T Y K E *.E o.Q a.,.' P | } J {.{.{.{.{.{.{.{.{.{.{.{.{.{.{.{.{.{.{.{.{.{.{.{.",
"{.{.{.{.{.{.{.{.{.{.{.{.{.{.{.{.{.{.{.{.L { ;.y.] Y J K [ ] +.i.( +...| | E J < {.{.{.{.{.{.{.{.{.{.{.{.{.{.{.{.{.{.{.{.{.{.{.{.",
"{.{.{.{.{.{.{.{.{.{.{.{.{.{.{.{.{.{.{.{.L | @./ @._ 8 ` @.^ t.<.%.} | | | Y t I {.{.{.{.{.{.{.{.{.{.{.{.{.{.{.{.{.{.{.{.{.{.{.{.",
"{.{.{.{.{.{.{.{.{.{.{.{.{.{.{.{.{.{.{.{.L *. .,.8.v.>.2.y.1.o. .| *.| *.E P Y { 8 {.{.{.{.{.{.{.{.{.{.{.{.{.{.{.{.{.{.{.{.{.{.{.",
"{.{.{.{.{.{.{.{.{.{.{.{.{.{.{.{.{.{.{.L [ | } 3.W.!.z.!.D.%.| *.| | | *.R T T J y < {.{.{.{.{.{.{.{.{.{.{.{.{.{.{.{.{.{.{.{.{.{.",
"{.{.{.{.{.{.{.{.{.{.{.{.{.{.{.{.{.{.L } Y | ] G.j.i.u.l.K.#.| | | | | | | Y i y 8 t P {.{.{.{.{.{.{.{.{.{.{.{.{.{.{.{.{.{.{.{.{.",
"{.{.{.{.{.{.{.{.{.{.{.{.{.{.{.{.{.8 P | T } o.g.f.d.s.i.k.$.| | | | | *.| 9 1 w Y | E J {.{.{.{.{.{.{.{.{.{.{.{.{.{.{.{.{.{.{.{.",
"{.{.{.{.{.{.{.{.{.{.{.{.{.{.{.{.1 1 P L p _ -.0.s.d.r.r.1...*.| | | | R | Y Y R E Y J J J {.{.{.{.{.{.{.{.{.{.{.{.{.{.{.{.{.{.{.",
"{.{.{.{.{.{.{.{.{.{.{.{.{., J P Y P } J i U o.( w.0.e.u.@.| | | *.| E K Y P L L R U J L R Y {.{.{.{.{.{.{.{.{.{.{.{.{.{.{.{.{.{.",
"{.{.{.{.{.{.{.{.{.{.{.{.{.% i T Y K K p i p _ X.:.! 1.@.} *.*.| | | } J J p i p _ Y { R Y | Y {.{.{.{.{.{.{.{.{.{.{.{.{.{.{.{.{.",
"{.{.{.{.{.{.{.{.{.C G.I.^.b.k M T L i p p p i i f 4 ) } *.| | | | | | R U p p r u y < L } Y R K {.{.{.{.{.{.{.{.{.{.{.{.{.{.{.{.",
"{.{.{.{.{.{.{.{.d B.L.U./.V.c.A U P i p p p i p p 8 L } } | | | E | { K p i r b m.l $ v ] R Y K {.{.{.{.{.{.{.{.{.{.{.{.{.{.{.{.",
"{.{.{.{.{.{.{.{.k B.F 5.n.A F.l I P i p p i p p t i 8 p P | | | | T t p p p b J.E.6.V x.C U { J {.{.{.{.{.{.{.{.{.{.{.{.{.{.{.{.",
"{.{.{.{.{.{.{.{.{.V k B A S.I.h L _ i p p p p J E T r L J } *.*.| | P p p p j V.b.^.F V V 2 T t {.{.{.{.{.{.{.{.{.{.{.{.{.{.{.{.",
"{.{.{.{.{.{.{.{.{.{.{.{.V 6.m @ L P y < i p i J | R t R L K | | | | Y Y P p 5 V c.V.k n.n.c _ 1 {.{.{.{.{.{.{.{.{.{.{.{.{.{.{.{.",
"{.{.{.{.{.{.{.{.{.{.{.{.{.% w , I P 1 # > t J p Y R P U K J { *.| T P L t 5 C 5.F A B E.A.G.v , {.{.{.{.{.{.{.{.{.{.{.{.{.{.{.{.",
"{.{.{.{.{.{.{.{.{.{.{.{.{.< w > P L > {.{.t P p J L } L } | | | | | { t + h S V l k S x.V.A.6 {.{.{.{.{.{.{.{.{.{.{.{.{.{.{.{.{.",
"{.{.{.{.{.{.{.{.{.{.{.{.{.{.J P R t {.{.{.P | Y 0 i P Y T | | | | | | P {.{.{.2 3 = = x D b 1 {.{.{.{.{.{.{.{.{.{.{.{.{.{.{.{.{.",
"{.{.{.{.{.{.{.{.{.{.{.{.{.{.{.8 8 {.{.{.{.P } w # y K R Y | | I R | *.P {.{.{.< @ $ + $ > 9 2 {.{.{.{.{.{.{.{.{.{.{.{.{.{.{.{.{.",
"{.{.{.{.{.{.{.{.{.{.{.{.{.{.{.{.{.{.{.{.{.L K {.{.2 J } I R | w J E | P {.{.{.< < > # # 1 1 {.{.{.{.{.{.{.{.{.{.{.{.{.{.{.{.{.{.",
"{.{.{.{.{.{.{.{.{.{.{.{.{.{.{.{.{.{.{.{.{.{.{.{.{.{.8 E J Y *.e {.Y T K {.{.{.{.> < < < < {.{.{.{.{.{.{.{.{.{.{.{.{.{.{.{.{.{.{.",
"{.{.{.{.{.{.{.{.{.{.{.{.{.{.{.{.{.{.{.{.{.{.{.{.{.{.{.L J Y *.Y {.{.K {.{.{.{.{.{.{.{.{.{.{.{.{.{.{.{.{.{.{.{.{.{.{.{.{.{.{.{.{.",
"{.{.{.{.{.{.{.{.{.{.{.{.{.{.{.{.{.{.{.{.{.{.{.{.{.{.{.u 9 T E R 8 {.{.{.{.{.{.{.{.{.{.{.{.{.{.{.{.{.{.{.{.{.{.{.{.{.{.{.{.{.{.{.",
"{.{.{.{.{.{.{.{.{.{.{.{.{.{.{.{.{.{.{.{.{.{.{.{.{.{.{.> < Y E | Y {.{.{.{.{.{.{.{.{.{.{.{.{.{.{.{.{.{.{.{.{.{.{.{.{.{.{.{.{.{.{.",
"{.{.{.{.{.{.{.{.{.{.{.{.{.{.{.{.{.{.{.{.{.{.{.{.{.{.{.{.1 w E E } K {.{.{.{.{.{.{.{.{.{.{.{.{.{.{.{.{.{.{.{.{.{.{.{.{.{.{.{.{.{.",
"{.{.{.{.{.{.{.{.{.{.{.{.{.{.{.{.{.{.{.{.{.{.{.{.{.{.{.{.> q T *.*.Y {.{.{.{.{.{.{.{.{.{.{.{.{.{.{.{.{.{.{.{.{.{.{.{.{.{.{.{.{.{.",
"{.{.{.{.{.{.{.{.{.{.{.{.{.{.{.{.{.{.{.{.{.{.{.{.{.{.{.{.0 K E *.| P {.{.{.{.{.{.{.{.{.{.{.{.{.{.{.{.{.{.{.{.{.{.{.{.{.{.{.{.{.{.",
"{.{.{.{.{.{.{.{.{.{.{.{.{.{.{.{.{.{.{.{.{.{.{.{.{.{.{.8 p R L L P {.{.{.{.{.{.{.{.{.{.{.{.{.{.{.{.{.{.{.{.{.{.{.{.{.{.{.{.{.{.{.",
"{.{.{.{.{.{.{.{.{.{.{.{.{.{.{.{.{.{.{.{.{.{.{.{.{.{.{.8 p T e {.{.{.{.{.{.{.{.{.{.{.{.{.{.{.{.{.{.{.{.{.{.{.{.{.{.{.{.{.{.{.{.{.",
"{.{.{.{.{.{.{.{.{.{.{.{.{.{.{.{.{.{.{.{.{.{.{.{.{.{.{.2 8 L T t {.{.{.{.{.{.{.{.{.{.{.{.{.{.{.{.{.{.{.{.{.{.{.{.{.{.{.{.{.{.{.{.",
"{.{.{.{.{.{.{.{.{.{.{.{.{.{.{.{.{.{.{.{.{.{.{.{.{.{.{.{.{.i | Y , {.{.{.{.{.{.{.{.{.{.{.{.{.{.{.{.{.{.{.{.{.{.{.{.{.{.{.{.{.{.{.",
"{.{.{.{.{.{.{.{.{.{.{.{.{.{.{.{.{.{.{.{.{.{.{.{.{.{.{.{.K P { U , {.{.{.{.{.{.{.{.{.{.{.{.{.{.{.{.{.{.{.{.{.{.{.{.{.{.{.{.{.{.{.",
"{.{.{.{.{.{.{.{.{.{.{.{.{.{.{.{.{.{.{.{.{.{.{.{.{.{.{.r K K y 8 {.{.{.{.{.{.{.{.{.{.{.{.{.{.{.{.{.{.{.{.{.{.{.{.{.{.{.{.{.{.{.{.",
"{.{.{.{.{.{.{.{.{.{.{.{.{.{.{.{.{.{.{.{.{.{.{.{.{.{.{.> i q # {.{.{.{.{.{.{.{.{.{.{.{.{.{.{.{.{.{.{.{.{.{.{.{.{.{.{.{.{.{.{.{.{.",
"{.{.{.{.{.{.{.{.{.{.{.{.{.{.{.{.{.{.{.{.{.{.{.{.{.{.{.{.1 8 < {.{.{.{.{.{.{.{.{.{.{.{.{.{.{.{.{.{.{.{.{.{.{.{.{.{.{.{.{.{.{.{.{.",
"{.{.{.{.{.{.{.{.{.{.{.{.{.{.{.{.{.{.{.{.{.{.{.{.{.{.{.{.{.> 1 < {.{.{.{.{.{.{.{.{.{.{.{.{.{.{.{.{.{.{.{.{.{.{.{.{.{.{.{.{.{.{.{.",
"{.{.{.{.{.{.{.{.{.{.{.{.{.{.{.{.{.{.{.{.{.{.{.{.{.{.{.{.{.{.# {.{.{.{.{.{.{.{.{.{.{.{.{.{.{.{.{.{.{.{.{.{.{.{.{.{.{.{.{.{.{.{.{.",
"{.{.{.{.{.{.{.{.{.{.{.{.{.{.{.{.{.{.{.{.{.{.{.{.{.{.{.{.{.+ + {.{.{.{.{.{.{.{.{.{.{.{.{.{.{.{.{.{.{.{.{.{.{.{.{.{.{.{.{.{.{.{.{.",
"{.{.{.{.{.{.{.{.{.{.{.{.{.{.{.{.{.{.{.{.{.{.{.{.{.{.{.{.{.+ {.{.{.{.{.{.{.{.{.{.{.{.{.{.{.{.{.{.{.{.{.{.{.{.{.{.{.{.{.{.{.{.{.{.",
"{.{.{.{.{.{.{.{.{.{.{.{.{.{.{.{.{.{.{.{.{.{.{.{.{.{.{.{.{.+ {.{.{.{.{.{.{.{.{.{.{.{.{.{.{.{.{.{.{.{.{.{.{.{.{.{.{.{.{.{.{.{.{.{.",
"{.{.{.{.{.{.{.{.{.{.{.{.{.{.{.{.{.{.{.{.{.{.{.{.{.{.{.{.{.{.{.{.{.{.{.{.{.{.{.{.{.{.{.{.{.{.{.{.{.{.{.{.{.{.{.{.{.{.{.{.{.{.{.{.",
"{.{.{.{.{.{.{.{.{.{.{.{.{.{.{.{.{.{.{.{.{.{.{.{.{.{.{.{.{.{.{.{.{.{.{.{.{.{.{.{.{.{.{.{.{.{.{.{.{.{.{.{.{.{.{.{.{.{.{.{.{.{.{.{.",
"{.{.{.{.{.{.{.{.{.{.{.{.{.{.{.{.{.{.{.{.{.{.{.{.{.{.{.{.{.{.{.{.{.{.{.{.{.{.{.{.{.{.{.{.{.{.{.{.{.{.{.{.{.{.{.{.{.{.{.{.{.{.{.{.",
"{.{.{.{.{.{.{.{.{.{.{.{.{.{.{.{.{.{.{.{.{.{.{.{.{.{.{.{.{.{.{.{.{.{.{.{.{.{.{.{.{.{.{.{.{.{.{.{.{.{.{.{.{.{.{.{.{.{.{.{.{.{.{.{.",
"{.{.{.{.{.{.{.{.{.{.{.{.{.{.{.{.{.{.{.{.{.{.{.{.{.{.{.{.{.{.{.{.{.{.{.{.{.{.{.{.{.{.{.{.{.{.{.{.{.{.{.{.{.{.{.{.{.{.{.{.{.{.{.{."
};
