/* XPM */
static char *result[] = {
/* columns rows colors chars-per-pixel */
"64 64 186 2 ",
"   c #130F19",
".  c #1A0F1B",
"X  c #100D17",
"o  c #350E22",
"O  c #330D2E",
"+  c #3C0D2F",
"@  c #3E0E23",
"#  c #2B102E",
"$  c #2E1633",
"%  c #3F1535",
"&  c #371D3A",
"*  c #2F253D",
"=  c #33253E",
"-  c #3D373E",
";  c #430E26",
":  c #570E2B",
">  c #440E31",
",  c #4C0D32",
"<  c #530D33",
"1  c #5B0D34",
"2  c #441132",
"3  c #4B1335",
"4  c #4B1939",
"5  c #551739",
"6  c #640D2D",
"7  c #700C2E",
"8  c #640D35",
"9  c #6C0C35",
"0  c #6B0F39",
"q  c #670F38",
"w  c #750C35",
"e  c #790D35",
"r  c #740E3A",
"t  c #7C0E3A",
"y  c #641139",
"u  c #6D113B",
"i  c #69183E",
"p  c #76103B",
"a  c #79103B",
"s  c #44203C",
"d  c #72392E",
"f  c #7E413F",
"g  c #3C2A43",
"h  c #352840",
"j  c #3E3349",
"k  c #7B1543",
"l  c #751641",
"z  c #4B2643",
"x  c #562444",
"c  c #4A354D",
"v  c #44344C",
"b  c #4B3850",
"n  c #533D55",
"m  c #573A57",
"M  c #612546",
"N  c #752544",
"B  c #753645",
"V  c #683552",
"C  c #713F59",
"Z  c #673348",
"A  c #5C3C61",
"S  c #4E4456",
"D  c #534359",
"F  c #5F455C",
"G  c #5C5259",
"H  c #67465F",
"J  c #62575D",
"K  c #5E4A61",
"L  c #644C63",
"P  c #6C4862",
"I  c #6B546A",
"U  c #725E6D",
"Y  c #7D5E75",
"T  c #7A4864",
"R  c #7A6274",
"E  c #796976",
"W  c #830E3B",
"Q  c #8B0E3C",
"!  c #860B36",
"~  c #930D3C",
"^  c #9B0C3D",
"/  c #8C113D",
"(  c #A40C3E",
")  c #AC0B3E",
"_  c #B30B3F",
"`  c #BA093F",
"'  c #8C4D3E",
"]  c #92543D",
"[  c #BD7E2D",
"{  c #A86D37",
"}  c #AB6B3B",
"|  c #A26B33",
" . c #B4663F",
".. c #AE7436",
"X. c #B67739",
"o. c #9D0E42",
"O. c #8C1542",
"+. c #851C46",
"@. c #9B1245",
"#. c #941C46",
"$. c #9C1B45",
"%. c #921B48",
"&. c #A30D41",
"*. c #AC0C43",
"=. c #B30C42",
"-. c #BE0A40",
";. c #A61344",
":. c #892848",
">. c #9B2446",
",. c #952A47",
"<. c #8F3C44",
"1. c #9A2C5B",
"2. c #983545",
"3. c #C00A40",
"4. c #8B4141",
"5. c #9B4947",
"6. c #9B5142",
"7. c #A54B42",
"8. c #A35142",
"9. c #B97444",
"0. c #91456E",
"q. c #815A73",
"w. c #9A6963",
"e. c #83657C",
"r. c #81687A",
"t. c #8B787F",
"y. c #D8942D",
"u. c #C58631",
"i. c #CB8B3B",
"p. c #C98937",
"a. c #D08F34",
"s. c #D49232",
"d. c #D09138",
"f. c #E49D2E",
"g. c #E19C34",
"h. c #EDA52E",
"j. c #E6A02F",
"k. c #F4AA2D",
"l. c #FFB62F",
"z. c #D69941",
"x. c #C28A58",
"c. c #C69670",
"v. c #D8A668",
"b. c #CAA47E",
"n. c #8C6D83",
"m. c #897683",
"M. c #937685",
"N. c #94768A",
"B. c #9A7B8D",
"V. c #997A8C",
"C. c #9C7F91",
"Z. c #AB7480",
"A. c #8F8484",
"S. c #9D808C",
"D. c #918685",
"F. c #9E8693",
"G. c #9F9196",
"H. c #A89199",
"J. c #AA9D9A",
"K. c #A69698",
"L. c #BC9687",
"P. c #B08DAB",
"I. c #AB9EA1",
"U. c #BC9EAA",
"Y. c #B79EA4",
"T. c #B8A4A8",
"R. c #D7B18B",
"E. c #C9A597",
"W. c #C4AAAD",
"Q. c #C9AEB5",
"!. c #C7A6B3",
"~. c #D2AEBA",
"^. c #C9B7B7",
"/. c #D6B9BE",
"(. c #D6C0BF",
"). c #E0BDD3",
"_. c #DDC2C5",
"`. c #DAC7C4",
"'. c #EED5C2",
"]. c #ECD8D2",
"[. c #F0DBD7",
"{. c #E3C7CA",
"}. c #F5E2DA",
"|. c #FEEDE4",
" X c #FFF3E8",
".X c None",
/* pixels */
".X.X.X.X.X.X.X.X.X.X.X.X.X.X.X.X.X.X.X.X.X.X.X.X.X.X.X.X.X.X.X.X.X.X.X.X.X.X.X.X.X.X.X.X.X.X.X.X.X.X.X.X.X.X.X.X.X.X.X.X.X.X.X.X",
".X.X.X.X.X.X.X.X.X.X.X.X.X.X.X.X.X.X.X.X.X.X.X.X.X.X.X.X.X.X.X.X.X.X.X.X.X.X.X.X.X.X.X.X.X.X.X.X.X.X.X.X.X.X.X.X.X.X.X.X.X.X.X.X",
".X.X.X.X.X.X.X.X.X.X.X.X.X.X.X.X.X.X.X.X.X.X.X.X.X.X.X.X.X.X.X.X.X.X.X.X.X.X.X.X.X.X.X.X.X.X.X.X.X.X.X.X.X.X.X.X.X.X.X.X.X.X.X.X",
".X.X.X.X.X.X.X.X.X.X.X.X.X.X.X.X.X.X.X.X.X.X.X.X.X.X.X.X.X.X.X.X.X.X.X.X.X.X.X.X.X.X.X.X.X.X.X.X.X.X.X.X.X.X.X.X.X.X.X.X.X.X.X.X",
".X.X.X.X.X.X.X.X.X.X.X.X.X.X.X.X.X.X.X.X.X.X.X.X.X.X.X.X.X.X.X.X.X.X.X.X.X.X.X.X.X.X.X.X.X.X.X.X.X.X.X.X.X.X.X.X.X.X.X.X.X.X.X.X",
".X.X.X.X.X.X.X.X.X.X.X.X.X.X.X.X.X.X.X.X.X.X.X.X.X.X.X.XZ.^.(.Y..X.X.X.X.X.X.X.X.X.X.X.X.X.X.X.X.X.X.X.X.X.X.X.X.X.X.X.X.X.X.X.X",
".X.X.X.X.X.X.X.X.X.X.X.X.X.X.X.X.X.X.X.X.X.X.X.X.X.X.XT.|. X X|.Q.L .X.X.X.X.X.X.X.X.X.X.X.X.X.X.X.X.X.X.X.X.X.X.X.X.X.X.X.X.X.X",
".X.X.X.X.X.X.X.X.X.X.X.X.X.X.X.X.X.X.X.X.X.X.X.X.XS.`.].`._.J.^./.n..X.X.X.X.X.X.X.X.X.X.X.X.X.X.X.X.X.X.X.X.X.X.X.X.X.X.X.X.X.X",
".X.X.X.X.X.X.X.X.X.X.X.X.X.X.X.X.X.X.X.X.X.X.X.X.Xm.I D.~.!.m G ].C.3 < .X.X.X.X.X.X.X.X.X.X.X.X.X.X.X.X.X.X.X.X.X.X.X.X.X.X.X.X",
".X.X.X.X.X.X.X.X.X.X.X.X.X.X.X.X.X.X.X.X.X.X.X.X.X2 n P.J.[.).U.!.T 1 > .X.X.X.X.X.X.X.X.X.X.X.X.X.X.X.X.X.X.X.X.X.X.X.X.X.X.X.X",
".X.X.X.X.X.X.X.X.X.X.X.X.X.X.X.X.X.X.X.X.X.X.X.X9 e A.`.D.[.J.E V.M r w + .X.X.X.X.X.X.X.X.X.X.X.X.X.X.X.X.X.X.X.X.X.X.X.X.X.X.X",
".X.X.X.X.X.X.X.X.X.X.X.X.X.X.X.X.X.X.X.X.X.X.X.Xw ~ Z G s A.-   x Q _ W .X.X.X.X.X.X.X.X.X.X.X.X.X.X.X.X.X.X.X.X.X.X.X.X.X.X.X.X",
".X.X.X.X.X.X.X.X.X.X.X.X.X.X.X.X.X.X.X.X.X.X.X.X.X9 8   X   . : Q ( Q .X.X.X.X.X.X.X.X.X.X.X.X.X.X.X.X.X.X.X.X.X.X.X.X.X.X.X.X.X",
".X.X.X.X.X.X.X.X.X.X.X.X.X.X.X.X.X.X.X.X.X.X.X.X< ~ e       6 ( -.) ~ .X.X.X.X.X.X.X.X.X.X.X.X.X.X.X.X.X.X.X.X.X.X.X.X.X.X.X.X.X",
".X.X.X.X.X.X.X.X.X.X.X.X.X.X.X.X.X.X.X.X.X.X.X.X.Xe ! o     9 W ( ( 8 .X.X.X.X.X.X.X.X.X.X.X.X.X.X.X.X.X.X.X.X.X.X.X.X.X.X.X.X.X",
".X.X.X.X.X.X.X.X.X.X.X.X.X.X.X.X.X.X.X.X.X.X.X.X.X3 e @   : a W t w 8 .X.X.X.X.X.X.X.X.X.X.X.X.X.X.X.X.X.X.X.X.X.X.X.X.X.X.X.X.X",
".X.X.X.X.X.X.X.X.X.X.X.X.X.X.X.X.X.X.X.X.X.X.X.Xa Q o   . ! ^ / w ^ ~ d .X.X.X.X.X.X.X.X.X.X.X.X.X.X.X.X.X.X.X.X.X.X.X.X.X.X.X.X",
".X.X.X.X.X.X.X.X.X.X.X.X.X.X.X.X.X.X.X.X.X.X.X{ +.( w     ; ~ ) ! 9 6 | j.| .X.X.X.X.X.X.X.X.X.X.X.X.X.X.X.X.X.X.X.X.X.X.X.X.X.X",
".X.X.X.X.X.X.X.X.X.X.X.X.X.X.X.X.X.X.X.X.X.X[ d.#.` 6 . . 6 ( _ ~ u T f.9.l .X.X.X.X.X.X.X.X.X.X.X.X.X.X.X.X.X.X.X.X.X.X.X.X.X.X",
".X.X.X.X.X.X.X.X.X.X.X.X.X.X.X.X.X.X.X.X.Xt ' ..%.3._ w 7 ` ` ) &.8.s.] l ( ) ~ W .X.X.X.X.X.X.X.X.X.X.X.X.X.X.X.X.X.X.X.X.X.X.X",
".X.X.X.X.X.X.X.X.X.X.X.X.X.X.X.X.X.X.X.Xt o.5.d.,.*.*.Q *.3.=.>.8.p. .@.( -.-.Q u .X.X.X.X.X.X.X.X.X.X.X.X.X.X.X.X.X.X.X.X.X.X.X",
".X.X.X.X.X.X.X.X.X.X.X.X.X.X.X.X.X.X.X.X1 =.@.} 6.o.t w O.#.5.X.i.4.;.` -.-.~ w 1 .X.X.X.X.X.X.X.X.X.X.X.X.X.X.X.X.X.X.X.X.X.X.X",
".X.X.X.X.X.X.X.X.X.X.X.X.X.X.X.X.X.X.X.X9 _ _ <.p.:.k p 2.i.i.6.>.*.` -.-._ t ) Q .X.X.X.X.X.X.X.X.X.X.X.X.X.X.X.X.X.X.X.X.X.X.X",
".X.X.X.X.X.X.X.X.X.X.X.X.X.X.X.X.X.X.X^ ~ _ 3.$.w.W.E.c.L.9.>.*.-.3.-.-.-.) ^ _ Q < .X.X.X.X.X.X.X.X.X.X.X.X.X.X.X.X.X.X.X.X.X.X",
".X.X.X.X.X.X.X.X.X.X.X.X.X.X.X.X.X.X.X) _ ( ` 1.W.R.v.v.'.Z.*.3.-.-.-.-.-._ ) t u 1 w ^ .X.X.X.X.X.X.X.X.X.X.X.X.X.X.X.X.X.X.X.X",
".X.X.X.X.X.X.X.X.X.X.X.X.X.X.X.X.X.Xt _ =.*.` 0.b.f.h.f.v.c.@.3.3.-.-.-.3._ 9 1 W ) _ ) 0 .X.X.X.X.X.X.X.X.X.X.X.X.X.X.X.X.X.X.X",
".X.X.X.X.X.X.X.X.X.X.X.X.X.X.X.X1 , w ^ Q Q &.5.d.k.l.h.z.x.@.3.-.-.3.3.3.( 9 ^ ` 3.` ( p a Q .X.X.X.X.X.X.X.X.X.X.X.X.X.X.X.X.X",
".X.X.X.X.X.X.X.X.X.X.X.X.X.X8 ~ ) ^ _ ( r t %.} s.h.h.y.s.7.=.-.-.-.-._ ) -.-._ ^ _ _ Q W _ _ .X.X.X.X.X.X.X.X.X.X.X.X.X.X.X.X.X",
".X.X.X.X.X.X.X.X.X.X.X.X.Xj 4 Q _ ~ Q W p a W :.X.u.u.d.7.*.-.-.-.-.3.^ W ^ ^ W a ) ^ ~ ^ ( =.^ .X.X.X.X.X.X.X.X.X.X.X.X.X.X.X.X",
".X.X.X.X.X.X.X.X.X.XM./.T.^.D n :._ t t a p r l N B B ,.=.-.-.-.-.-.3.( Q a p p p u p 1 ! ) ( ) .X.X.X.X.X.X.X.X.X.X.X.X.X.X.X.X",
".X.X.X.X.X.X.X.X.XS.H.Q._.K.e.e.V ) W r p a a p r r 8 -.-.-.-.-.3.-.-.3.( a a u V H.R # x #._ ( Q .X.X.X.X.X.X.X.X.X.X.X.X.X.X.X",
".X.X.X.X.X.X.X.Xc M.H D n.L e.M.5 _ W r a p p t a W 8 Q ^ -.-.-.-.-.&.~ t p t M C.G.G.E e.Y O._ Q .X.X.X.X.X.X.X.X.X.X.X.X.X.X.X",
".X.X.X.X.X.X.X.Xn R n c b j T.m.3 _ ! p p p p p ^ ` Q r t ( -.-.-.3.^ a a p u P n.c U.V.L m.4 ( W .X.X.X.X.X.X.X.X.X.X.X.X.X.X.X",
".X.X.X.X.X.X.X.X.Xv * g = S I.c , *.W y 8 t a p ( 3.~ t ^ Q -.-.-.-.-.~ / Q i L K Y B.v m.^.U #.9 .X.X.X.X.X.X.X.X.X.X.X.X.X.X.X",
".X.X.X.X.X.X.X.X.X.X.X.X.X.X% # 1 ) a > > < Q p ! =.) Q &.W ~ -.-.-.^ ( ) ^ z M.R D F n V.r.^.P < .X.X.X.X.X.X.X.X.X.X.X.X.X.X.X",
".X.X.X.X.X.X.X.X.X.X.X.X.X< 9 > ~ ^ 1 .X.X> ^ Q p / ( &.~ ^ ( -.3.=.~ ^ 8 , $ h = c m L n.I B.x > .X.X.X.X.X.X.X.X.X.X.X.X.X.X.X",
".X.X.X.X.X.X.X.X.X.X.X.X.X.X9 ^ _ ! .X.X.X.X*.` W y Q _ ( ` 3.` 3.` =.) 8 .X.X.X3 4 & & g L P < .X.X.X.X.X.X.X.X.X.X.X.X.X.X.X.X",
".X.X.X.X.X.X.X.X.X.X.X.X.X.X.X8 8 , .X.X.X.X=.^ .X.Xt ) ( ` -.) ) 3.3.` Q .X.X.X2 , O O O % u < .X.X.X.X.X.X.X.X.X.X.X.X.X.X.X.X",
".X.X.X.X.X.X.X.X.X.X.X.X.X.X.X.X.X.X.X.X.X.X! .X.X.X8 ` Q _ -.w 9 ` -.=.Q .X.X.X.X, < < , < < .X.X.X.X.X.X.X.X.X.X.X.X.X.X.X.X.X",
".X.X.X.X.X.X.X.X.X.X.X.X.X.X.X.X.X.X.X.X.X.X.X.X.X.X1 ) Q ( -.w .X~ -.( .X.X.X.X.X.X.X> > .X.X.X.X.X.X.X.X.X.X.X.X.X.X.X.X.X.X.X",
".X.X.X.X.X.X.X.X.X.X.X.X.X.X.X.X.X.X.X.X.X.X.X.X.X.X.XW e ( -.0 .XW ( .X.X.X.X.X.X.X.X.X.X.X.X.X.X.X.X.X.X.X.X.X.X.X.X.X.X.X.X.X",
".X.X.X.X.X.X.X.X.X.X.X.X.X.X.X.X.X.X.X.X.X.X.X.X.X.X.Xy 8 ) =.! .X.X.X.X.X.X.X.X.X.X.X.X.X.X.X.X.X.X.X.X.X.X.X.X.X.X.X.X.X.X.X.X",
".X.X.X.X.X.X.X.X.X.X.X.X.X.X.X.X.X.X.X.X.X.X.X.X.X.X.X< 1 =.-.) 1 .X.X.X.X.X.X.X.X.X.X.X.X.X.X.X.X.X.X.X.X.X.X.X.X.X.X.X.X.X.X.X",
".X.X.X.X.X.X.X.X.X.X.X.X.X.X.X.X.X.X.X.X.X.X.X.X.X.X.X, 1 ~ -.-.^ .X.X.X.X.X.X.X.X.X.X.X.X.X.X.X.X.X.X.X.X.X.X.X.X.X.X.X.X.X.X.X",
".X.X.X.X.X.X.X.X.X.X.X.X.X.X.X.X.X.X.X.X.X.X.X.X.X.X.X.X< t ( -._ ^ .X.X.X.X.X.X.X.X.X.X.X.X.X.X.X.X.X.X.X.X.X.X.X.X.X.X.X.X.X.X",
".X.X.X.X.X.X.X.X.X.X.X.X.X.X.X.X.X.X.X.X.X.X.X.X.X.X.X.X.X0 Q -.3.( .X.X.X.X.X.X.X.X.X.X.X.X.X.X.X.X.X.X.X.X.X.X.X.X.X.X.X.X.X.X",
".X.X.X.X.X.X.X.X.X.X.X.X.X.X.X.X.X.X.X.X.X.X.X.X.X.X.X.X< W ) _ Q W .X.X.X.X.X.X.X.X.X.X.X.X.X.X.X.X.X.X.X.X.X.X.X.X.X.X.X.X.X.X",
".X.X.X.X.X.X.X.X.X.X.X.X.X.X.X.X.X.X.X.X.X.X.X.X.X.X.X~ Q =.( < .X.X.X.X.X.X.X.X.X.X.X.X.X.X.X.X.X.X.X.X.X.X.X.X.X.X.X.X.X.X.X.X",
".X.X.X.X.X.X.X.X.X.X.X.X.X.X.X.X.X.X.X.X.X.X.X.X.X.X.X9 ^ ) ) ~ .X.X.X.X.X.X.X.X.X.X.X.X.X.X.X.X.X.X.X.X.X.X.X.X.X.X.X.X.X.X.X.X",
".X.X.X.X.X.X.X.X.X.X.X.X.X.X.X.X.X.X.X.X.X.X.X.X.X.X.X.X.X< r ^ t .X.X.X.X.X.X.X.X.X.X.X.X.X.X.X.X.X.X.X.X.X.X.X.X.X.X.X.X.X.X.X",
".X.X.X.X.X.X.X.X.X.X.X.X.X.X.X.X.X.X.X.X.X.X.X.X.X.X.X.X.X> u p 1 .X.X.X.X.X.X.X.X.X.X.X.X.X.X.X.X.X.X.X.X.X.X.X.X.X.X.X.X.X.X.X",
".X.X.X.X.X.X.X.X.X.X.X.X.X.X.X.X.X.X.X.X.X.X.X.X.X.X.X.X.X8 u 1 .X.X.X.X.X.X.X.X.X.X.X.X.X.X.X.X.X.X.X.X.X.X.X.X.X.X.X.X.X.X.X.X",
".X.X.X.X.X.X.X.X.X.X.X.X.X.X.X.X.X.X.X.X.X.X.X.X.X.X.X.Xq q 2 .X.X.X.X.X.X.X.X.X.X.X.X.X.X.X.X.X.X.X.X.X.X.X.X.X.X.X.X.X.X.X.X.X",
".X.X.X.X.X.X.X.X.X.X.X.X.X.X.X.X.X.X.X.X.X.X.X.X.X.X.X> u 1 .X.X.X.X.X.X.X.X.X.X.X.X.X.X.X.X.X.X.X.X.X.X.X.X.X.X.X.X.X.X.X.X.X.X",
".X.X.X.X.X.X.X.X.X.X.X.X.X.X.X.X.X.X.X.X.X.X.X.X.X.X.X.X> 8 < .X.X.X.X.X.X.X.X.X.X.X.X.X.X.X.X.X.X.X.X.X.X.X.X.X.X.X.X.X.X.X.X.X",
".X.X.X.X.X.X.X.X.X.X.X.X.X.X.X.X.X.X.X.X.X.X.X.X.X.X.X.X.X.X< + .X.X.X.X.X.X.X.X.X.X.X.X.X.X.X.X.X.X.X.X.X.X.X.X.X.X.X.X.X.X.X.X",
".X.X.X.X.X.X.X.X.X.X.X.X.X.X.X.X.X.X.X.X.X.X.X.X.X.X.X.X.XO O O .X.X.X.X.X.X.X.X.X.X.X.X.X.X.X.X.X.X.X.X.X.X.X.X.X.X.X.X.X.X.X.X",
".X.X.X.X.X.X.X.X.X.X.X.X.X.X.X.X.X.X.X.X.X.X.X.X.X.X.X.X.XO .X.X.X.X.X.X.X.X.X.X.X.X.X.X.X.X.X.X.X.X.X.X.X.X.X.X.X.X.X.X.X.X.X.X",
".X.X.X.X.X.X.X.X.X.X.X.X.X.X.X.X.X.X.X.X.X.X.X.X.X.X.X.X.X.X.X.X.X.X.X.X.X.X.X.X.X.X.X.X.X.X.X.X.X.X.X.X.X.X.X.X.X.X.X.X.X.X.X.X",
".X.X.X.X.X.X.X.X.X.X.X.X.X.X.X.X.X.X.X.X.X.X.X.X.X.X.X.X.X.X.X.X.X.X.X.X.X.X.X.X.X.X.X.X.X.X.X.X.X.X.X.X.X.X.X.X.X.X.X.X.X.X.X.X",
".X.X.X.X.X.X.X.X.X.X.X.X.X.X.X.X.X.X.X.X.X.X.X.X.X.X.X.X.X.X.X.X.X.X.X.X.X.X.X.X.X.X.X.X.X.X.X.X.X.X.X.X.X.X.X.X.X.X.X.X.X.X.X.X",
".X.X.X.X.X.X.X.X.X.X.X.X.X.X.X.X.X.X.X.X.X.X.X.X.X.X.X.X.X.X.X.X.X.X.X.X.X.X.X.X.X.X.X.X.X.X.X.X.X.X.X.X.X.X.X.X.X.X.X.X.X.X.X.X",
".X.X.X.X.X.X.X.X.X.X.X.X.X.X.X.X.X.X.X.X.X.X.X.X.X.X.X.X.X.X.X.X.X.X.X.X.X.X.X.X.X.X.X.X.X.X.X.X.X.X.X.X.X.X.X.X.X.X.X.X.X.X.X.X",
".X.X.X.X.X.X.X.X.X.X.X.X.X.X.X.X.X.X.X.X.X.X.X.X.X.X.X.X.X.X.X.X.X.X.X.X.X.X.X.X.X.X.X.X.X.X.X.X.X.X.X.X.X.X.X.X.X.X.X.X.X.X.X.X"
};
