/* XPM */
static char *ac9b49756a6f450f900b91deb2d9dadbnlFXcYdKdCu1YSPH_2[] = {
/* columns rows colors chars-per-pixel */
"64 64 256 2 ",
"   c None",
".  c #216B3F",
"X  c #36683E",
"o  c #26793B",
"O  c #38793A",
"+  c #000D5D",
"@  c #0F035D",
"#  c #03125C",
"$  c #0C135D",
"%  c #041B5A",
"&  c #19165F",
"*  c #110A5B",
"=  c #2A015C",
"-  c #2B0B5C",
";  c #2B0F57",
":  c #340B5E",
">  c #380E5F",
",  c #2C1257",
"<  c #2B145D",
"1  c #2C1D5D",
"2  c #2A1C59",
"3  c #3B125F",
"4  c #3C195F",
"5  c #072356",
"6  c #07205D",
"7  c #0A255C",
"8  c #0B295D",
"9  c #0A2B55",
"0  c #19255E",
"q  c #0F325C",
"w  c #123B53",
"e  c #10355D",
"r  c #133D5E",
"t  c #16355B",
"y  c #0F384F",
"u  c #30364E",
"i  c #2C235E",
"p  c #2C295C",
"a  c #2A2958",
"s  c #3B265B",
"d  c #2D355D",
"f  c #293A5B",
"g  c #321E60",
"h  c #3D1C61",
"j  c #281A60",
"k  c #143F61",
"l  c #302F60",
"z  c #2D3E60",
"x  c #2D3460",
"c  c #4D355D",
"v  c #472B5E",
"b  c #441C60",
"n  c #401760",
"m  c #442361",
"M  c #4C2462",
"N  c #4B2D62",
"B  c #422961",
"V  c #453462",
"C  c #483562",
"Z  c #443E62",
"A  c #483B62",
"S  c #12414C",
"D  c #164D4A",
"F  c #175047",
"G  c #1C5C45",
"H  c #1B5748",
"J  c #144252",
"K  c #1C4C52",
"L  c #16445D",
"P  c #194C5C",
"I  c #1C535E",
"U  c #1C5356",
"Y  c #225B48",
"T  c #2E455F",
"R  c #2F4D5C",
"E  c #285256",
"W  c #345252",
"Q  c #1E6442",
"!  c #236B41",
"~  c #29664B",
"^  c #2A694A",
"/  c #246848",
"(  c #356441",
")  c #33644B",
"_  c #34764B",
"`  c #25675B",
"'  c #316C5C",
"]  c #37695A",
"[  c #2A725C",
"{  c #2C7755",
"}  c #317D5F",
"|  c #35755A",
" . c #27734F",
".. c #1A4860",
"X. c #1D5460",
"o. c #2E4E60",
"O. c #294A60",
"+. c #225E61",
"@. c #2F5B61",
"#. c #2C5461",
"$. c #3C5962",
"%. c #314A61",
"&. c #246261",
"*. c #2A6D62",
"=. c #3A6362",
"-. c #306B61",
";. c #386B62",
":. c #306460",
">. c #2C7561",
",. c #2F7C63",
"<. c #337362",
"1. c #317E63",
"2. c #474859",
"3. c #457949",
"4. c #43655D",
"5. c #444262",
"6. c #414A62",
"7. c #2D8B36",
"8. c #2B843B",
"9. c #2D893A",
"0. c #319533",
"q. c #3B9233",
"w. c #359937",
"e. c #379033",
"r. c #36A42E",
"t. c #3EA62D",
"y. c #37A82E",
"u. c #3FBC27",
"i. c #3DB52E",
"p. c #3FBA2C",
"a. c #3CAD36",
"s. c #3AA63D",
"d. c #3BAA3B",
"f. c #3AA333",
"g. c #3DB234",
"h. c #429738",
"j. c #42AB2D",
"k. c #40BE27",
"l. c #40BE2A",
"z. c #41B629",
"x. c #45A23F",
"c. c #49AB3E",
"v. c #45A93B",
"b. c #44BB32",
"n. c #4AB23A",
"m. c #45BA3A",
"M. c #4EB93C",
"N. c #42B435",
"B. c #52BF39",
"V. c #3FC025",
"C. c #42C325",
"Z. c #46C925",
"A. c #49CD26",
"S. c #44C428",
"D. c #4BCC2A",
"F. c #4BC72C",
"G. c #4DD227",
"H. c #4FD32A",
"J. c #53DA27",
"K. c #52D52B",
"L. c #55DC29",
"P. c #58DF2A",
"I. c #51D727",
"U. c #4DC634",
"Y. c #54C239",
"T. c #54CA3F",
"R. c #57C935",
"E. c #5DDB34",
"W. c #5AD43D",
"Q. c #5EDC3B",
"!. c #58D336",
"~. c #60DF3A",
"^. c #60DD33",
"/. c #65CA3B",
"(. c #5BE329",
"). c #5FE92A",
"_. c #57E027",
"`. c #62EC2B",
"'. c #66F12B",
"]. c #6AF62D",
"[. c #6DFB2D",
"{. c #70FF2D",
"}. c #63E537",
"|. c #66EB35",
" X c #68EF33",
".X c #62E338",
"XX c #6BF431",
"oX c #36854B",
"OX c #348A4C",
"+X c #358245",
"@X c #389E46",
"#X c #36964D",
"$X c #37994A",
"%X c #399C49",
"&X c #359745",
"*X c #338453",
"=X c #348D55",
"-X c #32835D",
";X c #358B5B",
":X c #388E5C",
">X c #359253",
",X c #3E9B56",
"<X c #3B935A",
"1X c #3C9958",
"2X c #2F8947",
"3X c #39A243",
"4X c #3EA844",
"5X c #3EA549",
"6X c #318162",
"7X c #409F55",
"8X c #46AC4D",
"9X c #4AB44C",
"0X c #4EBA49",
"qX c #49B744",
"wX c #50BC48",
"eX c #43A453",
"rX c #45A951",
"tX c #52C345",
"yX c #58CE41",
"uX c #55C943",
"iX c #4FC045",
"pX c black",
"aX c black",
"sX c black",
"dX c black",
"fX c black",
"gX c black",
"hX c black",
"jX c black",
"kX c black",
"lX c black",
"zX c black",
"xX c black",
"cX c black",
"vX c black",
"bX c black",
"nX c black",
"mX c black",
"MX c black",
"NX c black",
"BX c black",
"VX c black",
"CX c black",
"ZX c black",
"AX c black",
"SX c black",
"DX c black",
"FX c black",
"GX c black",
"HX c black",
"JX c black",
"KX c black",
"LX c black",
"PX c black",
"IX c black",
"UX c black",
/* pixels */
"                                                                                                                                ",
"                                                                                                                                ",
"                                                                                                                                ",
"                                                                                                                                ",
"                                                                                                                                ",
"                                                                              ,.,.,.,.                                          ",
"                                                                            eXrXrXeXeXeX                                        ",
"                                                                      <X6X<XQ.[.{.[.{.yX<X:X                                    ",
"                                                                    6X0X X X].[.[.[.[.XX|.XX9X6X                                ",
"                                                                  6XtX|.].I.H.G.I.I.G.(.{.{.}.0X1.                              ",
"                                                                  eX|.].(.C.A.I.G.H.Z.A.).).]..XeX                              ",
"                                                              ;XrX[.].P.C.Z.'.[.[.[.J.Z.Z.S.(.XX.X1X                            ",
"                                                            1.0XXX{.J.S.A.].[.[.{.[.].].`.Z.S.g.,X}.9X,.                        ",
"                                                            ,.0X].P.Z.A.`.[.).L._.L.L.).].Z.S.0.U K.eX,.                        ",
"                                                            eXT.(.C.A.`.[.`.A.i.a.a.p.G.(.Z.A.e.5 o &X>X                        ",
"                                                          ;X}.P.V.C.`.[.`.C.V.@X1.1.a.k.C.Z.(.c.% # o s.6X                      ",
"                                                          ;X|.(.C.C.`.(.A.k.@X@.1 2 ' @XZ.`.wX$X8.% 5 U 6X                      ",
"                                                        1XuXXX(.Z.(.[.(.S.k.) < = 3 Z 3.z.3.E ` 2X% + 0 6.                      ",
"                                                      1.7X].`.P.J.`.`.I.k.d.u = > M 4 ) j.; @ e >.D 5 & M                       ",
"                                                      6XeXXXA.P.`.C.C.C.g.| 2 3 M M & F t., * e :Xk.G 0 N                       ",
"                                                    6XtXE.A.C.P.'.C.C.C.w.a - 3 M M & D u.f.S Y }.`.P.R./.7X                    ",
"                                                    1.yX'.Z.L.P.K.C.C.C.q.= = 3 m 1 G 7.C._.n.M.].(._.L.P.tXrX                  ",
"                                                    <XW.).Z.`.J.V.C.C.C.q.= = 3 m $ w.G.I.[.[.].`.Z.p.g.N.'.9X6X                ",
"                                                  :X.XJ.C.C.Z.C.C.C.C.C.q.; = 4 B 5 M.[.].[.J.S.S.k.&X} ;X.X8X<.                ",
"                                                1XQ.K.Z.C.C.k.C.C.V.C.C.a.' < l | Y.XX'.A.G.A.g.*XJ 8 ..6X1X4.A                 ",
"                                              rXuXXXA.V.C.C.I.A.C.C.V.C.p.&X( _ 5X(.).J.k.d.9./ ..& 0 E 1.=.Z                   ",
"                                            6XuX[.`.Z.C.Z.A.].(.V.V.C.C.Z.A.A.Z.C.V.z.j.h.' t $ & l =.1.;.C                     ",
"                                            6XyX'.Z.C.V.G.].[.P.C.C.C.V.A.].[.J.C.C.>X] N - h M C <.1.=.N                       ",
"                                          ;XuXXX'.Z.(.`.`.].L.A.C.C.C.G.`.{.(.m.=XW a i h n b Z ;.1.$.A                         ",
"                                          6X|.Y.v.L.].{.{.[.P.A.V.C.a.!.[.(.m._ z = = = = m h z 1.4.5.                          ",
"                                          eX|.~ S `.[.[.{.{.{.(.C.V.=X9X(.S.*Xx = = = = : M i ..<.C                             ",
"                                      1.9XXX[.~ w S.].{.[.{.[.P.u.C.>X3XZ.C.u = = = = : M M $.1.;.N                             ",
"                                    1.0X}.].L.G 8 #XD.J.I.I.I.A.i.$X-X3Xp.#Xp = = = n b M < #.;.5.                              ",
"                                    1.yX{.].Z.F 8 ,.3X8.8.s.d.s.@X6X>Xg.f.o.< = = = b M m # X.=.M                               ",
"                                    :XW.{.].G.Y e >.>.r q ,.6X6X6X;Xg.C.q.= = = = = b M m # X.=.N                               ",
"                                  1X}.].{.{.].Z.8.7 6 X.>.,.6X,.,X|.A.C.q.- = = = = b M m # X.1.;.C                             ",
"                                eXW.{.(.(.[.P.).K.7.8.w.a.4X-XeX~.{.H.7.u = = = : n M M m # X.6X1.=.;.                          ",
"                              1XuX{.`.J.(.].w.!.'.C.Z.C.C.u.$XT.{.`.A.( = = = = = M M b g # k [ >X>X>X>X                        ",
"                      :X:X:X:XyX].`.Z.`.XXE.K n.'.A.V.V.V.C.S.P.`.C.C.X = = = = = M M l # + + D i.k.C.f.<.                      ",
"                    6XyX|.|.|.K.A.Z.k.`.n.S M.].[.'.A.V.C.Z.`.(.Z.k.V.X = = = = = M M 1 + # + % y i.C.h.C                       ",
"                  <XyXXX{.[.J.(.`.(.`.[.x.5 ^.{.[.[.'.).`.).9Xm.z.$Xb.X = = = : b M 1 $ # + F 8.0.V.a.4.M                       ",
"                1.<XXX{.[.(.Z.(.{.{.{.{.x.% U.[.[.[.[.{.[.yX<X#Xs.6Xa.X = = = 3 M M t S S S 0.S.a.0. .#.A                       ",
"                ;X7X].].(.C.C.).{.{.[.{.v.% r.(.].].].XXyX6X6X6X6X6Xa.X , , , s c c h.C.V.i.i.w.` 8 % k 1.A                     ",
"              6X0X X{.K.Z.k.V.(.{.{.{.{.x.% r.A.A.A.A.4X:X6X6X6X6X-Xa.k.t.t.t.t.j.j.k.C.i.=XU 5 8 &.>.<.6X<.6.M                 ",
"        1.,.6X9X.X{.[.A.u.Z.L.P.L.L.L.L.N.. ! 0.p.@X@X=X6X,.P &.6X6X#Xg.C.C.C.C.C.s.3X3X$X6X+...I @XqXtXwX;X6.M M M             ",
"      eXeXeXrX|.E.Y.`.J.G.J.`.G.C.C.C.C.C.k.G . 2X` I ` &.+.e I 6X6X1.#Xg.g.a.g.d.-X1.1.6X6X6X6X;Xd.K.'.`.5X%.s 2.5.C           ",
"    6XQ.[.[.XX{.+Xy i.`.[.`.S.k.C.C.k.C.C.C.k.G # % % % # 6 *.1.6X6X1.6X6X6X6X6X-X6X6X1.6X6X6X6X6X6Xd.C.C.C.G w z.*X$.M N       ",
"  >Xg.F.).{.{.{._ + y *XeX7X#Xa.C.C.C.C.G.`.Z.r.0.0.0.{ &.&.,.1.1.6X6X6X6X6X6X6X1.1.6X6X1.6X1.6X6X,.4XC.C.k.U.M.=Xr O.;.=.C     ",
"6X>XC.V.G.(.[.{.Y.+X! P k P &Xz.A.L.C.V.J.[.(.A.C.C.C.g.3X3X3Xs.%X6X6X6X6X6X,.6X6X%X;X6X,.6X6X,.-X3Xg.V.C.L.].|.6X6 _ tX0X4.6.  ",
"@.| a.a.i.Z.`.].{.].Z.! K / A.H.(.].Z.r.b.[.{.(.H.G.C.C.C.C.g.g.3X6X1.6X6X6X=X>X$Xu.3X>X>X6X6X;X$Xu.C.u.g.W.~.iX` J n.{.].,X$.M ",
"= i } 6X3XV.S.`.[.'.Z.`.XX].[.[.[.'.C.F ^ {.{.[.[.[.A.C.C.S.=X-X6X6X6X6X6X6Xd.V.C.V.V.u.g.;X6X>Xu.V.C.d.6X,.6X&.9 w.).[.].1X$.M ",
"    i *.:X>X>X,Xm.G.C.A.G.K.[.{.`.G.C.F ^ {.{.{.{.[.'.'.`.`.b.$X6X6X,.6X6X6X=X4XC.C.@X=X=X-X6X-X>X=X>X[ 8 8 8 J 0.P.].].D.:X%.: ",
"      d z z z -.>X@X3X3X3X4XJ.(.I.V.C.D K iXL._.L.(._._._.L.Z.s.6X6X6X6X6X6X6X>X3X3X-X6X,.6X>X#X1.,.,.[ ! . ! 8.C.J.P.K.@XR p   ",
"      = = = = #.-.-.-.*.<.-Xg.u.V.C.C.Q L [ d.i.i.i.i.i.i.g.y.2X*.*.*.>.6X6X6X6X,.6X6X6X;X;Xa.g.=X=X;X3XC.p.p.i.p.i.i.s.:.<     ",
"              - - - - - d ,.-Xs.C.V.V.u.o 7 [ -X-X6X6X} -X} y 5 6 % 6 I 6X6X6X6X6X6X6X#Xu.l.S.S.p.u.p.k.V.>X6X-X6X-X-X' <       ",
"                        < 1 2 ] >X>X>Xg.i.7.e 8 8 7 8 8 8 e 8XY.Y.Y.Y.!.~..X}.U.g.g.g.i.Z.).`.(.C.C.3X>X>X6X6X<.i 1 1 1         ",
"                          = = x o.o.o.oXb.u.! Y ^ ^ ~ H F G K.).).).).).'.[.[.(.V.V.G.J.J.).).L.C.C.%X6X,.@.R %.= = =           ",
"                              = = = = O.oXi.g.P.].'.].I.C.Z.A.A.A.A.A.C.G.[.[.).A.G.'.[.`.Z.u.i.i.f.oX-.:.< = =                 ",
"                                      - d -X-Xd.Z.S.S.C.H.'.].].].].].L.G.[.[.].].].[.`.C.V.@X-X' 2 - - -                       ",
"                                        < i >.:X>X>X>Xg.Z.G.G.H.G.G.G.A.C.G.G.G.G.G.G.b.>X>XR 1 1                               ",
"                                          - T o.o.o.o.oXd.d.d.d.d.s.d.d.a.d.d.d.s.O O ) o.o.p = =                               ",
"                                            = = = = = O.-.-.-.-.-.-.*.-.' *.-.-.@.- = = = =                                     ",
"                                                      - - - - - - - - - - - - - -                                               ",
"                                                                                                                                "
};
