/* XPM */
static char *result[] = {
/* columns rows colors chars-per-pixel */
"64 64 175 2 ",
"   c #1C0F1C",
".  c #250D1D",
"X  c #300B1E",
"o  c #2F0E2E",
"O  c #330D2E",
"+  c #3A0D2F",
"@  c #3D0E30",
"#  c #351936",
"$  c #33232F",
"%  c #2F2733",
"&  c #3B213D",
"*  c #440E25",
"=  c #420C2F",
"-  c #4D0D26",
";  c #540E2A",
":  c #40102F",
">  c #430E31",
",  c #4D0E32",
"<  c #540D33",
"1  c #5B0E35",
"2  c #55143A",
"3  c #630E35",
"4  c #6B0D35",
"5  c #670F38",
"6  c #6B0F38",
"7  c #750D35",
"8  c #790C37",
"9  c #740E3A",
"0  c #7D0E3A",
"q  c #6D133C",
"w  c #65133A",
"e  c #76103B",
"r  c #79103B",
"t  c #49213E",
"y  c #5A213F",
"u  c #794539",
"i  c #3C2741",
"p  c #631E41",
"a  c #6D1843",
"s  c #7D1A42",
"d  c #771443",
"f  c #5D2943",
"g  c #43344C",
"h  c #48354D",
"j  c #53324D",
"k  c #553953",
"l  c #602545",
"z  c #7B3D45",
"x  c #603A56",
"c  c #772A43",
"v  c #4F4050",
"b  c #5D455D",
"n  c #594D5E",
"m  c #4C444A",
"M  c #60424F",
"N  c #61445C",
"B  c #674C61",
"V  c #794A63",
"C  c #6B556B",
"Z  c #6F586E",
"A  c #78576A",
"S  c #7B5E74",
"D  c #776172",
"F  c #7D6A79",
"G  c #7D6475",
"H  c #840E3B",
"J  c #8C0D3B",
"K  c #8E0C36",
"L  c #930D3C",
"P  c #9C0C3D",
"I  c #A30C3E",
"U  c #AB0B3E",
"Y  c #B30B3F",
"T  c #B90A3F",
"R  c #90563B",
"E  c #A45F3F",
"W  c #AD6D39",
"Q  c #A9673F",
"!  c #AF723B",
"~  c #B37535",
"^  c #BA793B",
"/  c #B67839",
"(  c #890E42",
")  c #9B1246",
"_  c #9B174A",
"`  c #951845",
"'  c #970D43",
"]  c #A40E44",
"[  c #AD0D43",
"{  c #B60B40",
"}  c #BE0A40",
"|  c #A71145",
" . c #822349",
".. c #9C2246",
"X. c #942E46",
"o. c #922344",
"O. c #873744",
"+. c #973447",
"@. c #863256",
"#. c #913754",
"$. c #A12645",
"%. c #A03045",
"&. c #C10A40",
"*. c #8F4840",
"=. c #9D4345",
"-. c #9B4C44",
";. c #9E5A41",
":. c #AA5142",
">. c #BE7B41",
",. c #B17D53",
"<. c #804866",
"1. c #845F76",
"2. c #86667B",
"3. c #C7872D",
"4. c #C8872F",
"5. c #D08D2C",
"6. c #D6922D",
"7. c #CF8C36",
"8. c #CC8439",
"9. c #CD8D39",
"0. c #DD9932",
"q. c #D49338",
"w. c #D69333",
"e. c #E19E35",
"r. c #ECA32C",
"t. c #F1A82E",
"y. c #FFB52F",
"u. c #BF8B62",
"i. c #D39947",
"p. c #C18B53",
"a. c #D7A158",
"s. c #E5AE5B",
"d. c #7D5D80",
"f. c #8E6B81",
"g. c #917286",
"h. c #967A89",
"j. c #9A7C8D",
"k. c #9A778D",
"l. c #A07C92",
"z. c #AB798C",
"x. c #9E8C92",
"c. c #B99287",
"v. c #A38D96",
"b. c #AA8597",
"n. c #B0899E",
"m. c #B3969B",
"M. c #A89D9A",
"N. c #A680A9",
"B. c #BA95A6",
"V. c #B499A4",
"C. c #B5A2A7",
"Z. c #BDAEAB",
"A. c #BAA2A9",
"S. c #D7AF85",
"D. c #E8BD82",
"F. c #C2A3AF",
"G. c #C6ADAB",
"H. c #DBBDA6",
"J. c #C6ACB1",
"K. c #C8AAB4",
"L. c #CAB5B5",
"P. c #D3B8BC",
"I. c #EDCEB1",
"U. c #D1A9C4",
"Y. c #DABFC1",
"T. c #DECCC7",
"R. c #DCC8C6",
"E. c #E2C6C9",
"W. c #E3CACA",
"Q. c #E4D1CC",
"!. c #EDD8D3",
"~. c #F9E7DE",
"^. c #FFEEE3",
"/. c #FFF0E5",
"(. c None",
/* pixels */
"(.(.(.(.(.(.(.(.(.(.(.(.(.(.(.(.(.(.(.(.(.(.(.(.(.(.(.(.(.(.(.(.(.(.(.(.(.(.(.(.(.(.(.(.(.(.(.(.(.(.(.(.(.(.(.(.(.(.(.(.(.(.(.(.",
"(.(.(.(.(.(.(.(.(.(.(.(.(.(.(.(.(.(.(.(.(.(.(.(.(.(.(.(.(.(.(.(.(.(.(.(.(.(.(.(.(.(.(.(.(.(.(.(.(.(.(.(.(.(.(.(.(.(.(.(.(.(.(.(.",
"(.(.(.(.(.(.(.(.(.(.(.(.(.(.(.(.(.(.(.(.(.(.(.(.(.(.(.(.(.(.(.(.(.(.(.(.(.(.(.(.(.(.(.(.(.(.(.(.(.(.(.(.(.(.(.(.(.(.(.(.(.(.(.(.",
"(.(.(.(.(.(.(.(.(.(.(.(.(.(.(.(.(.(.(.(.(.(.(.(.(.(.(.(.(.(.(.(.(.(.(.(.(.(.(.(.(.(.(.(.(.(.(.(.(.(.(.(.(.(.(.(.(.(.(.(.(.(.(.(.",
"(.(.(.(.(.(.(.(.(.(.(.(.(.(.(.(.(.(.(.(.(.(.(.(.(.(.(.(.(.(.(.(.(.(.(.(.(.(.(.(.(.(.(.(.(.(.(.(.(.(.(.(.(.(.(.(.(.(.(.(.(.(.(.(.",
"(.(.(.(.(.(.(.(.(.(.(.(.(.(.(.(.(.(.(.(.(.(.(.(.(.(.(.(.(.(.(.(.(.(.(.(.(.(.(.(.(.(.(.(.(.(.(.(.(.(.(.(.(.(.(.(.(.(.(.(.(.(.(.(.",
"(.(.(.(.(.(.(.(.(.(.(.(.(.(.(.(.(.(.(.(.(.(.(.(.(.(.(.(.(.(.(.(.(.(.(.(.(.(.(.(.(.(.(.(.(.(.(.(.(.(.(.(.(.(.(.(.(.(.(.(.(.(.(.(.",
"(.(.(.(.(.(.(.(.(.(.(.(.(.(.(.(.(.(.(.(.(.(.(.(.(.(.(.(.(.(.(.(.(.(.(.(.(.(.(.(.(.(.(.(.(.(.(.(.(.(.(.(.(.(.(.(.(.(.(.(.(.(.(.(.",
"(.(.(.(.(.(.(.(.(.(.(.(.(.(.(.(.(.(.(.(.(.(.(.(.(.(.(.(.(.(.(.(.(.(.(.(.(.(.(.(.(.(.(.(.(.(.(.(.(.(.(.(.(.(.(.(.(.(.(.(.(.(.(.(.",
"(.(.(.(.(.(.(.(.(.(.(.(.(.(.(.(.(.(.(.(.(.(.(.(.(.m.P.J.h.(.(.(.(.(.(.(.(.(.(.(.(.(.(.(.(.(.(.(.(.(.(.(.(.(.(.(.(.(.(.(.(.(.(.(.",
"(.(.(.(.(.(.(.(.(.(.(.(.(.(.(.(.(.(.(.(.(.(.(.(.R.~.^.^.!.h.(.(.(.(.(.(.(.(.(.(.(.(.(.(.(.(.(.(.(.(.(.(.(.(.(.(.(.(.(.(.(.(.(.(.",
"(.(.(.(.(.(.(.(.(.(.(.(.(.(.(.(.(.(.(.(.(.(.(.L.^.^.^.^.E.n.n (.(.(.(.(.(.(.(.(.(.(.(.(.(.(.(.(.(.(.(.(.(.(.(.(.(.(.(.(.(.(.(.(.",
"(.(.(.(.(.(.(.(.(.(.(.(.(.(.(.(.(.(.(.(.(.(.(.R.^.^.^.^.Q.m.x < > (.(.(.(.(.(.(.(.(.(.(.(.(.(.(.(.(.(.(.(.(.(.(.(.(.(.(.(.(.(.(.",
"(.(.(.(.(.(.(.(.(.(.(.(.(.(.(.(.(.(.(.(.(.(.J.Q.E.E.!.T.Q.b.a 1 (.(.(.(.(.(.(.(.(.(.(.(.(.(.(.(.(.(.(.(.(.(.(.(.(.(.(.(.(.(.(.(.",
"(.(.(.(.(.(.(.(.(.(.(.(.(.(.(.(.(.(.(.(.>  .A k F.P.j.% 1.2.1 7 1 O (.(.(.(.(.(.(.(.(.(.(.(.(.(.(.(.(.(.(.(.(.(.(.(.(.(.(.(.(.(.",
"(.(.(.(.(.(.(.(.(.(.(.(.(.(.(.(.(.(.(.(.(.L f l.x.Z.U.d.D <.L I 3 (.(.(.(.(.(.(.(.(.(.(.(.(.(.(.(.(.(.(.(.(.(.(.(.(.(.(.(.(.(.(.",
"(.(.(.(.(.(.(.(.(.(.(.(.(.(.(.(.(.(.(.(.(.1 f L.M.Z.R.V q K Y r @ (.(.(.(.(.(.(.(.(.(.(.(.(.(.(.(.(.(.(.(.(.(.(.(.(.(.(.(.(.(.(.",
"(.(.(.(.(.(.(.(.(.(.(.(.(.(.(.(.(.(.(.(.(.(.+ M $ m A 7 L T Y P < 2 R (.(.(.(.(.(.(.(.(.(.(.(.(.(.(.(.(.(.(.(.(.(.(.(.(.(.(.(.(.",
"(.(.(.(.(.(.(.(.(.(.(.(.(.(.(.(.(.(.(.(.(.(.< 4 7 . X 7 H H H J 9 a ^ Q ( J (.(.(.(.(.(.(.(.(.(.(.(.(.(.(.(.(.(.(.(.(.(.(.(.(.(.",
"(.(.(.(.(.(.(.(.(.(.(.(.(.(.(.(.(.(.(.(.(.(.(.9 4   ; H I I r H ' O.q.+.{ Y I 9 (.(.(.(.(.(.(.(.(.(.(.(.(.(.(.(.(.(.(.(.(.(.(.(.",
"(.(.(.(.(.(.(.(.(.(.(.(.(.(.(.(.(.(.(.(.(.(.u ) L 3 X * K } J 9 d E E | T T K (.(.(.(.(.(.(.(.(.(.(.(.(.(.(.(.(.(.(.(.(.(.(.(.(.",
"(.(.(.(.(.(.(.(.(.(.(.(.(.(.(.(.(.(.(.(.(.3./ ) U 8 X   7 { P 9 O.0.*.{ &.Y L < (.(.(.(.(.(.(.(.(.(.(.(.(.(.(.(.(.(.(.(.(.(.(.(.",
"(.(.(.(.(.(.(.(.(.(.(.(.(.(.(.(.(.(.(.(.(.~ ! ) T U - * I T U d >.q...} &.T T L 3 (.(.(.(.(.(.(.(.(.(.(.(.(.(.(.(.(.(.(.(.(.(.(.",
"(.(.(.(.(.(.(.(.(.(.(.(.(.(.(.(.(.(.(.L ' ;.! ) Y Y K I &.T ] *.w.-.[ } &.T &.T L (.(.(.(.(.(.(.(.(.(.(.(.(.(.(.(.(.(.(.(.(.(.(.",
"(.(.(.(.(.(.(.(.(.(.(.(.(.(.(.(.(.(.(.I { =.q.+.Y L H J Y { %.w.W ` } } T } &.P e 3 L (.(.(.(.(.(.(.(.(.(.(.(.(.(.(.(.(.(.(.(.(.",
"(.(.(.(.(.(.(.(.(.(.(.(.(.(.(.(.(.(.(.P &.` / ;.| U 5 P [ o./ 8.$.} } } &.&.T 9 1 K ] < (.(.(.(.(.(.(.(.(.(.(.(.(.(.(.(.(.(.(.(.",
"(.(.(.(.(.(.(.(.(.(.(.(.(.(.(.(.(.(.e I &.| :.e.X.' q ` =.7.^ ..} } } } &.T U 1 5 Y K w (.(.(.(.(.(.(.(.(.(.(.(.(.(.(.(.(.(.(.(.",
"(.(.(.(.(.(.(.(.(.(.(.(.(.(.(.(.(.(.H U T T ..>.c.F.u.c.p.8.$.} } } } } T &.U , J } L r H J (.(.(.(.(.(.(.(.(.(.(.(.(.(.(.(.(.(.",
"(.(.(.(.(.(.(.(.(.(.(.(.(.(.(.(.(.U U I &.} | z.H.S.a.I.G.@.} } } &.} &.&.T Y H U } I J [ { L (.(.(.(.(.(.(.(.(.(.(.(.(.(.(.(.(.",
"(.(.(.(.(.(.(.(.(.(.(.(.(.(.(.(.9 U { I Y &._ m.i.r.r.i.D.#.T &.} } } T Y P T Y U Y H [ T &.I (.(.(.(.(.(.(.(.(.(.(.(.(.(.(.(.(.",
"(.(.(.(.(.(.(.(.(.(.(.(.> H H 7 T I H r J { _ ,.0.y.y.7.s.#.T T } } } &.] e K H L P J Y &.&.P (.(.(.(.(.(.(.(.(.(.(.(.(.(.(.(.(.",
"(.(.(.(.(.(.(.(.(.(.(.(.< I T P U P r r e P ) ! 6.t.t.5.0.X.T &.} } } } U H 9 0 H P Y I Y &.I (.(.(.(.(.(.(.(.(.(.(.(.(.(.(.(.(.",
"(.(.(.(.(.(.(.(.(.(.(.C b t L U J r e r e 0 L O./ 4.4.w.:.[ } } &.} } } } L e l 2 > q Y I Y P (.(.(.(.(.(.(.(.(.(.(.(.(.(.(.(.(.",
"(.(.(.(.(.(.(.(.A 2.g.J.g.Z V I ' e r r e 9 0 e c z z +.[ &.} } } } } } I e V Z.D S 2.@.U U 0 (.(.(.(.(.(.(.(.(.(.(.(.(.(.(.(.(.",
"(.(.(.(.(.(.(.2.B.Q.Y.Q.j.g.j I J r r e e e e r 9 1 w J U } } } } &.T P 0 3 v.P.P.R.2.S s { w (.(.(.(.(.(.(.(.(.(.(.(.(.(.(.(.(.",
"(.(.(.(.(.(.x A n.K.V.v.b V.A 8 I r e r r e e r 0 9 w r J Y &.} } } } P 0 w 2.g.V.x.C.C.l I 1 (.(.(.(.(.(.(.(.(.(.(.(.(.(.(.(.(.",
"(.(.(.(.(.(.g b N G C b N Q.F 1 [ r r r e r r ' { I 4 L H J } } } &.T [ H e k h k.Z V.A.v.s < (.(.(.(.(.(.(.(.(.(.(.(.(.(.(.(.(.",
"(.(.(.(.(.(.(.g (.(.(.(.(.N & @ P L 9 w 3 3 K J J [ K H P I { } &.&.Y J I e 2.Z G C l.F j.q < (.(.(.(.(.(.(.(.(.(.(.(.(.(.(.(.(.",
"(.(.(.(.(.(.(.(.(.(.(.(.(.4 , O J P 3 = > 1 U I 1 L [ I T &.&.Y Y &.} U { L k k # & b h i 1 1 (.(.(.(.(.(.(.(.(.(.(.(.(.(.(.(.(.",
"(.(.(.(.(.(.(.(.(.(.(.(.(.1 4 + 8 U < (.(.(.L J (.5 L I &.T Y 5 8 } } { 4 3 @ , O O O o + w < (.(.(.(.(.(.(.(.(.(.(.(.(.(.(.(.(.",
"(.(.(.(.(.(.(.(.(.(.(.(.(.(.8 P L K (.(.(.(.H (.(.> 6 9 Y } P (.< I &.I (.(.(.< O O O , < < (.(.(.(.(.(.(.(.(.(.(.(.(.(.(.(.(.(.",
"(.(.(.(.(.(.(.(.(.(.(.(.(.(.< 4 (.(.(.(.(.(.(.(.(.(.5 1 P &.U (.(.I } J (.(.(., < < < , (.(.(.(.(.(.(.(.(.(.(.(.(.(.(.(.(.(.(.(.",
"(.(.(.(.(.(.(.(.(.(.(.(.(.(.(.(.(.(.(.(.(.(.(.(.(.(.1 2 H { { L (.L L (.(.(.(.(.(.(.(.(.(.(.(.(.(.(.(.(.(.(.(.(.(.(.(.(.(.(.(.(.",
"(.(.(.(.(.(.(.(.(.(.(.(.(.(.(.(.(.(.(.(.(.(.(.(.(.(.> < 6 J Y U (.(.(.(.(.(.(.(.(.(.(.(.(.(.(.(.(.(.(.(.(.(.(.(.(.(.(.(.(.(.(.(.",
"(.(.(.(.(.(.(.(.(.(.(.(.(.(.(.(.(.(.(.(.(.(.(.(.(.(.(.> > 5 K Y I (.(.(.(.(.(.(.(.(.(.(.(.(.(.(.(.(.(.(.(.(.(.(.(.(.(.(.(.(.(.(.",
"(.(.(.(.(.(.(.(.(.(.(.(.(.(.(.(.(.(.(.(.(.(.(.(.(.(.(.(.(.> J Y } H (.(.(.(.(.(.(.(.(.(.(.(.(.(.(.(.(.(.(.(.(.(.(.(.(.(.(.(.(.(.",
"(.(.(.(.(.(.(.(.(.(.(.(.(.(.(.(.(.(.(.(.(.(.(.(.(.(.(.(.(.0 U &.P (.(.(.(.(.(.(.(.(.(.(.(.(.(.(.(.(.(.(.(.(.(.(.(.(.(.(.(.(.(.(.",
"(.(.(.(.(.(.(.(.(.(.(.(.(.(.(.(.(.(.(.(.(.(.(.(.(.(.(.(.K { Y L (.(.(.(.(.(.(.(.(.(.(.(.(.(.(.(.(.(.(.(.(.(.(.(.(.(.(.(.(.(.(.(.",
"(.(.(.(.(.(.(.(.(.(.(.(.(.(.(.(.(.(.(.(.(.(.(.(.(.(.(.(.3 I P , (.(.(.(.(.(.(.(.(.(.(.(.(.(.(.(.(.(.(.(.(.(.(.(.(.(.(.(.(.(.(.(.",
"(.(.(.(.(.(.(.(.(.(.(.(.(.(.(.(.(.(.(.(.(.(.(.(.(.(.(.(.(.< 9 3 (.(.(.(.(.(.(.(.(.(.(.(.(.(.(.(.(.(.(.(.(.(.(.(.(.(.(.(.(.(.(.(.",
"(.(.(.(.(.(.(.(.(.(.(.(.(.(.(.(.(.(.(.(.(.(.(.(.(.(.(.(.(.(.1 6 > (.(.(.(.(.(.(.(.(.(.(.(.(.(.(.(.(.(.(.(.(.(.(.(.(.(.(.(.(.(.(.",
"(.(.(.(.(.(.(.(.(.(.(.(.(.(.(.(.(.(.(.(.(.(.(.(.(.(.(.(.(.(.< 6 > (.(.(.(.(.(.(.(.(.(.(.(.(.(.(.(.(.(.(.(.(.(.(.(.(.(.(.(.(.(.(.",
"(.(.(.(.(.(.(.(.(.(.(.(.(.(.(.(.(.(.(.(.(.(.(.(.(.(.(.(.(.1 w 1 (.(.(.(.(.(.(.(.(.(.(.(.(.(.(.(.(.(.(.(.(.(.(.(.(.(.(.(.(.(.(.(.",
"(.(.(.(.(.(.(.(.(.(.(.(.(.(.(.(.(.(.(.(.(.(.(.(.(.(.(.(.(.w < (.(.(.(.(.(.(.(.(.(.(.(.(.(.(.(.(.(.(.(.(.(.(.(.(.(.(.(.(.(.(.(.(.",
"(.(.(.(.(.(.(.(.(.(.(.(.(.(.(.(.(.(.(.(.(.(.(.(.(.(.(.(.(.< , (.(.(.(.(.(.(.(.(.(.(.(.(.(.(.(.(.(.(.(.(.(.(.(.(.(.(.(.(.(.(.(.(.",
"(.(.(.(.(.(.(.(.(.(.(.(.(.(.(.(.(.(.(.(.(.(.(.(.(.(.(.(.(.> + (.(.(.(.(.(.(.(.(.(.(.(.(.(.(.(.(.(.(.(.(.(.(.(.(.(.(.(.(.(.(.(.(.",
"(.(.(.(.(.(.(.(.(.(.(.(.(.(.(.(.(.(.(.(.(.(.(.(.(.(.(.(.(.(.O (.(.(.(.(.(.(.(.(.(.(.(.(.(.(.(.(.(.(.(.(.(.(.(.(.(.(.(.(.(.(.(.(.",
"(.(.(.(.(.(.(.(.(.(.(.(.(.(.(.(.(.(.(.(.(.(.(.(.(.(.(.(.(.(.O (.(.(.(.(.(.(.(.(.(.(.(.(.(.(.(.(.(.(.(.(.(.(.(.(.(.(.(.(.(.(.(.(.",
"(.(.(.(.(.(.(.(.(.(.(.(.(.(.(.(.(.(.(.(.(.(.(.(.(.(.(.(.(.(.(.(.(.(.(.(.(.(.(.(.(.(.(.(.(.(.(.(.(.(.(.(.(.(.(.(.(.(.(.(.(.(.(.(.",
"(.(.(.(.(.(.(.(.(.(.(.(.(.(.(.(.(.(.(.(.(.(.(.(.(.(.(.(.(.(.(.(.(.(.(.(.(.(.(.(.(.(.(.(.(.(.(.(.(.(.(.(.(.(.(.(.(.(.(.(.(.(.(.(.",
"(.(.(.(.(.(.(.(.(.(.(.(.(.(.(.(.(.(.(.(.(.(.(.(.(.(.(.(.(.(.(.(.(.(.(.(.(.(.(.(.(.(.(.(.(.(.(.(.(.(.(.(.(.(.(.(.(.(.(.(.(.(.(.(.",
"(.(.(.(.(.(.(.(.(.(.(.(.(.(.(.(.(.(.(.(.(.(.(.(.(.(.(.(.(.(.(.(.(.(.(.(.(.(.(.(.(.(.(.(.(.(.(.(.(.(.(.(.(.(.(.(.(.(.(.(.(.(.(.(.",
"(.(.(.(.(.(.(.(.(.(.(.(.(.(.(.(.(.(.(.(.(.(.(.(.(.(.(.(.(.(.(.(.(.(.(.(.(.(.(.(.(.(.(.(.(.(.(.(.(.(.(.(.(.(.(.(.(.(.(.(.(.(.(.(.",
"(.(.(.(.(.(.(.(.(.(.(.(.(.(.(.(.(.(.(.(.(.(.(.(.(.(.(.(.(.(.(.(.(.(.(.(.(.(.(.(.(.(.(.(.(.(.(.(.(.(.(.(.(.(.(.(.(.(.(.(.(.(.(.(."
};
