/* XPM */
static char *ac9b49756a6f450f900b91deb2d9dadbnlFXcYdKdCu1YSPH_3[] = {
/* columns rows colors chars-per-pixel */
"64 64 256 2 ",
"   c None",
".  c #20693F",
"X  c #36663F",
"o  c #376C3D",
"O  c #38763B",
"+  c #387C3A",
"@  c #277D3C",
"#  c #000D5D",
"$  c #11075C",
"%  c #03125C",
"&  c #0C145D",
"*  c #051C5A",
"=  c #0C1A5D",
"-  c #16165F",
";  c #2A015C",
":  c #2B0B5C",
">  c #340A5E",
",  c #350A5E",
"<  c #2C1357",
"1  c #2B145D",
"2  c #2C1D5D",
"3  c #22195F",
"4  c #3B125F",
"5  c #0F394F",
"6  c #113E4D",
"7  c #09255C",
"8  c #0B2A5E",
"9  c #092558",
"0  c #17295C",
"q  c #0E315D",
"w  c #0E3651",
"e  c #133C5D",
"r  c #113756",
"t  c #2D245D",
"y  c #2D2A5B",
"u  c #38245A",
"i  c #2D345E",
"p  c #2D3A5E",
"a  c #223953",
"s  c #30364E",
"d  c #251860",
"f  c #321E60",
"g  c #3E1360",
"h  c #173A60",
"j  c #382360",
"k  c #2D3B60",
"l  c #303160",
"z  c #4C375B",
"x  c #441C60",
"c  c #432361",
"v  c #4C2562",
"b  c #4B2D62",
"n  c #493562",
"m  c #463E62",
"M  c #12424C",
"N  c #154A4C",
"B  c #195448",
"V  c #184658",
"C  c #1D545E",
"Z  c #1E5654",
"A  c #2E465F",
"S  c #2F4E59",
"D  c #334757",
"F  c #265759",
"G  c #355459",
"H  c #29544C",
"J  c #1E6542",
"K  c #226C40",
"L  c #246D4D",
"P  c #356743",
"I  c #257440",
"U  c #2A734D",
"Y  c #337849",
"T  c #25665C",
"R  c #346A59",
"E  c #2A7458",
"W  c #357755",
"Q  c #174560",
"!  c #1D5360",
"~  c #2E4E60",
"^  c #2E4560",
"/  c #354661",
"(  c #2F5461",
")  c #225D61",
"_  c #2F5B61",
"`  c #3C5662",
"'  c #375962",
"]  c #266661",
"[  c #2B6D62",
"{  c #256961",
"}  c #3A6362",
"|  c #316B61",
" . c #336362",
".. c #2B7261",
"X. c #2F7C63",
"o. c #337462",
"O. c #317E63",
"+. c #474859",
"@. c #46594E",
"#. c #42695D",
"$. c #434562",
"%. c #414A62",
"&. c #405362",
"*. c #2E8C36",
"=. c #2B853A",
"-. c #3B9332",
";. c #349A33",
":. c #359B3C",
">. c #369934",
",. c #2F9034",
"<. c #36A52E",
"1. c #3EA62D",
"2. c #3AAA2D",
"3. c #3FBE26",
"4. c #3DB52C",
"5. c #3FBA2C",
"6. c #3DAD34",
"7. c #3AA53D",
"8. c #3BAA3C",
"9. c #39A13A",
"0. c #3DB234",
"q. c #439438",
"w. c #42AB2D",
"e. c #40BE26",
"r. c #40BD2A",
"t. c #40B627",
"y. c #44A53D",
"u. c #47B938",
"i. c #58B239",
"p. c #3FC025",
"a. c #42C325",
"s. c #46C926",
"d. c #49CD26",
"f. c #43C229",
"g. c #49C72E",
"h. c #4BCC2A",
"j. c #4DD227",
"k. c #4FD22A",
"l. c #53DB27",
"z. c #51D629",
"x. c #55DB29",
"c. c #58DF2A",
"v. c #50D527",
"b. c #4DC539",
"n. c #55CD3D",
"m. c #54C238",
"M. c #5ED934",
"N. c #5BD53E",
"B. c #5FDC3A",
"V. c #55D532",
"C. c #60DE3A",
"Z. c #64D535",
"A. c #5BE32A",
"S. c #5FE92A",
"D. c #59E227",
"F. c #5FE330",
"G. c #62EC2B",
"H. c #66F12B",
"J. c #69F52C",
"K. c #6DFB2D",
"L. c #70FF2D",
"P. c #66EB34",
"I. c #68EE33",
"U. c #61E139",
"Y. c #65E536",
"T. c #6AF431",
"R. c #35854C",
"E. c #368B4B",
"W. c #388849",
"Q. c #379C44",
"!. c #389E46",
"~. c #36964D",
"^. c #37994B",
"/. c #389B4B",
"(. c #349446",
"). c #348D54",
"_. c #32845E",
"`. c #358A5B",
"'. c #388F5C",
"]. c #3E875A",
"[. c #359253",
"{. c #399654",
"}. c #3D9B54",
"|. c #3A925A",
" X c #3D9A58",
".X c #3AA342",
"XX c #3FA44C",
"oX c #3DAA40",
"OX c #318162",
"+X c #409F4E",
"@X c #479649",
"#X c #409E55",
"$X c #53924D",
"%X c #45AB4E",
"&X c #48AF4E",
"*X c #41A649",
"=X c #4BBA44",
"-X c #4BB54B",
";X c #4EBB49",
":X c #48B742",
">X c #50BE47",
",X c #50BD48",
"<X c #43A353",
"1X c #46AA50",
"2X c #4FC242",
"3X c #56CB42",
"4X c #58CE41",
"5X c #53C446",
"6X c #59D040",
"7X c black",
"8X c black",
"9X c black",
"0X c black",
"qX c black",
"wX c black",
"eX c black",
"rX c black",
"tX c black",
"yX c black",
"uX c black",
"iX c black",
"pX c black",
"aX c black",
"sX c black",
"dX c black",
"fX c black",
"gX c black",
"hX c black",
"jX c black",
"kX c black",
"lX c black",
"zX c black",
"xX c black",
"cX c black",
"vX c black",
"bX c black",
"nX c black",
"mX c black",
"MX c black",
"NX c black",
"BX c black",
"VX c black",
"CX c black",
"ZX c black",
"AX c black",
"SX c black",
"DX c black",
"FX c black",
"GX c black",
"HX c black",
"JX c black",
"KX c black",
"LX c black",
"PX c black",
"IX c black",
"UX c black",
/* pixels */
"                                                                                                                                ",
"                                                                                                                                ",
"                                                                                                                                ",
"                                                                                                                                ",
"                                                                                                                                ",
"                                                                                                                                ",
"                                                                                                                                ",
"                                                                            '.|.'.'.'.'.                                        ",
"                                                                        OXOXN.T.P.I.T.3XOXOX                                    ",
"                                                                      &XN.B.T.L.L.L.K.T.B.N.1X                                  ",
"                                                                    <X6XK.G.G.S.G.G.G.G.H.K.4X}.                                ",
"                                                                  |.B.K.S.a.s.s.s.s.s.s.j.H.K.N.|.                              ",
"                                                                 XP.K.A.f.a.A.K.J.J.J.J.H.d.A.K.U.`.                            ",
"                                                              1X6XL.S.d.s.A.K.K.L.K.L.K.K.A.c.V.;X5X<X                          ",
"                                                            X.;XK.G.d.s.D.K.H.G.G.G.S.G.G.K.x.:.E A.&XO.                        ",
"                                                            OX5XH.a.a.x.K.K.j.f.f.e.a.a.d.J.c.=.9 2./.OX                        ",
"                                                          `.6XV.d.a.a.D.H.j.a.6.).).0.p.a.d.A.y.% w =..XOX                      ",
"                                                          OXP.A.a.a.z.D.z.a.8.R k p R.:Xs.D.n.*XJ * 5 L OX                      ",
"                                                          &XT.A.e.a.G.A.p.a.W y ; > D W.a.i.W W :.9 # 0 }                       ",
"                                                      X.<XK.K.c.a.s.G.D.p.5.s ; ; v v @.1.< $ e [ 9 % - v                       ",
"                                                      X.<XJ.v.x.G.H.K.D.0.[.y , v v 3 B 1.< $ q OX;.N - v                       ",
"                                                      -X3Xx.a.D.L.L.L.D.<.p : 4 v v - N t.O w V 3XD.u.@X$X].                    ",
"                                                    X.4XH.a.s.A.K.K.J.x.-.; ; 4 v c 0 J a.a.@ Y K.J.J.J.J.%X'.                  ",
"                                                    _.N.G.f.H.K.K.K.v.s.-.; ; 4 c & *.e.a.e.x.H.H.s.p.f.s.G.-XO.                ",
"                                                  OXB.x.g.{.I.S.j.d.a.a.-.; ; 4 c & u.H.G.s.s.j.j.a..X).{.P.-XOX                ",
"                                                |.-XM.j.0.OX;X:X8.p.j.j.9.p : u +.U N.J.D.a.p.5.9.=.Z ) OX-X$X&.                ",
"                                              |.&XJ.d.p.0.[.|.|./.d.S.x.0.).s G }.G.J.c.a.4.6.(.) = = Q OXo.$.v                 ",
"                                            OX3XK.K.d.p.f.f.G.x.d.J.v.f.a.p.5.3.e.s.a.s.4.`.V % = c ' X.O.m                     ",
"                                            O.3XJ.v.a.p.d.S.K.A.s.v.s.a.s.S.G.v.a.a..XW.@.y f f j ' o.o.$.                      ",
"                                            &XU.H.a.z.x.A.K.S.v.3.p.a.d.A.K.H.g.!.O G p x 4 x n ` OXo.%.v                       ",
"                                          `.P.K.S.j.J.K.K.G.d.p.a.a.4.V.K.H.g.~._ : ; ; ; x x $.O.o.$.v                         ",
"                                          `.Y.x.j.K.K.K.H.s.p.a.p.a.~.,XH.s.~.A ; ; ; ; > v d e o.n                             ",
"                                        <XB.T.=XoXz.J.L.K.G.S.v.a.a.).oXj.a.G 1 ; ; ; > x v / { o.b                             ",
"                                      1X6XK.G.R.T 8.I.L.J.S.A.v.5.7.`..X5.7.y ; ; ; > x c f _ o.&.n                             ",
"                                    OX3XL.K.d.B 8 OXB.T.F.r.5.3.8.X._..X0.E t ; ; ; x v c & C ' v                               ",
"                                    OX6XK.J.d.B 8 O.|.|.`.`.`.`.`._.8.p.-.< ; ; ; ; x v c # ! } v                               ",
"                                X.|.6XP.L.K.G.w.K e q q Q X.O.O.|.N.s.a.-.: ; ; ; ; x v c % ! o.} O.O.                          ",
"                              #X<X1XP.K.L.K.U.g.<.M 6 6 B [.[.{.-XG.j.2.o : ; ; ; , c v j % h E [.[.[.).                        ",
"                      `.'.'.'.4XK.G.a.S.K.P.<X8.a.3.e.3.f.p.f.x.A.s.a.X ; ; ; ; ; v v j % # # N 4.3.a.7.o.                      ",
"                    OX6XP.P.P.z.s.s.p.S.6X XB.j.p.a.a.f.a.f.G.A.s.a.a.X ; ; ; ; ; v v f # % % * M 4.a.q.n                       ",
"                  |.4XT.L.K.l.D.S.S.G.>X;XN.J.l.p.p.a.x.G.A.-Xu.4./.5.P ; ; ; > x v d & # # B =.,.p.y.W v                       ",
"                O.|.T.L.K.A.a.G.L.K.L.%X%XL.L.A.v.v.j.G.K.N.'.~..XOX0.X ; ; ; g v v a M M M *.f.0.,.U ( $.                      ",
"                `.#XT.K.A.a.a.A.L.K.K.1X#XG.J.L.K.K.K.T.6XOXOXOXOXOX0.o < < < u z z q.a.3.5.4.:.{ 8 = h o.$.                    ",
"              OX;XI.K.l.s.e.a.A.L.L.L.U * V Z.L.K.K.K.;X'.OXOXOXO._.0.4.1.1.w.2.w.w.e.a.5.[.V 9 8 ] [ o.O.o.$.v                 ",
"        O.O.OX-XU.L.L.d.p.s.l.c.D.l.c.>.M 9 Z.H.D.x.D.XXOXOXOXOXOXOX~.0.a.a.a.p.a..X.X!./.OX] Q C !.:X5X=X'.$.v v v             ",
"       X<X<X<XP.P.C.G.v.j.v.G.j.a.p.a.a.,.N y.9.;.p.p./.OXX.{ ..OXOXO.~.0.0.6.0.8._.O.O.X.OXOXOX`.8.z.G.G.XXS u +.$.m           ",
"    `.B.K.K.K.L.,X`.a.G.K.H.s.a.a.a.a.p.a.4.5 % 6 4.3.~.X...7 Q OXOXO.OXOXOXOXOXOXOXOXOXOXOXOXOXOXOXoXa.a.a.B r t.].%.v v       ",
"  [.0.g.F.L.L.L.=X`.e.d.j.d.a.a.a.3.a.a.p.3.;.6 % 5 5 q 8 8 F ..O.OXOXOXOXOXOXOXO.O.O.OXOXOXOXX.OXO.8.a.a.a.2.6.A.{.h 0 } n     ",
"OX[.a.p.d.A.K.K.C.;XXX!.!.Q.!.0.d.x.p.p.j.D.s.*.J . . . . . .X.X/.OXOXX.OXOXOX[..X.X.X~.OXOXOXOXOX.X0.d.D.c.D.G.T.#X) T -X#.$.  ",
"_ W 8.0.5.s.G.K.K.I./. X<X<X<Xu.A.J.s.p.z.K.v.d.a.a.a.s.a.a.0.0..XOXOXOXOXOXOX[.0.0.0..XOXOXOX_.^.e.a.z.L.L.L.T.6X|.|.;XT. X` v ",
"; t O.W .Xe.a.P.K.H.s.G.K.K.K.K.K.H.f.p.z.K.K.z.p.s.p.a.s.3.).OXOXOXOXOXOXOXOXOXOX_._.OXOXX.OX[.e.3.3.v.J.J.J.C.`.OX3XL.T.{.` v ",
"    t [ `.[.[.#Xu.j.a.d.j.z.K.K.H.g.[.[.=XK.K.K.H.S.d.D.A.a.0.^.OXOXOXOXOXX.OX^.0.0.0..XOXOXOX_.[.[.).{. XH V C OX4XT.J.d.|./ > ",
"      k k k k ..[..X.X!..XoXx.c.z.p..X`.XXD.c.H.K.K.A.J.J.D.s..XOXOXOXOXOXOX^.0.p.a.a.0.OXX.[.~.O.O.OX`.Q.@ K I .Xz.A.g./.S y   ",
"      ; ; ; ; ( [  .| [ .._.0.3.p.p.p./.).<.3.x.J.J.J.J.J.G.f.(.{ [ X.OXOXOX6.p.p.p.3..XOXOX8.0.`.`.`./.p.4.r.r.r.0.r.7.R d     ",
"              : : : : : i O._.7.p.p.p.^.F q <.a.a.a.f.e.f.r.|.C 9 7 { OX_.`.0.p.3.3.~.OXOXOXoXp.f.3.5.5.3.[.OX_.OX_._.R d       ",
"                        1 2 2 R [.[.[.7.(.T ).[.[.).N 5 5 6 ..}.m.m.N.U.C.C.P.2X).[.OX[.0.0.5.j.G.H.:X[.).OXOX..t 2 2 f         ",
"                          ; ; k ~ ~ ~ W..X/./.`.X...h h e B +XN.L.L.L.J.G.K.L.n.^.^.XX:Xp.s.j.S.L.L.-XOXO._ ~ ^ ; ; ;           ",
"                              ; ; ; ; ^ ).5.0.!.`.).).).^.s.J.L.K.J.J.v.j.K.K.S.d.d.H.S.p.p.x.P.Y.Z.@X|  .1 ; ;                 ",
"                                      : i _.`.7.5.5.5.5.e.s.J.K.G.s.s.a.j.J.K.K.J.J.K.S.p.p..XOXo.t : : :                       ",
"                                        1 t [ `.[.[.[.0.a.a.d.j.d.a.a.a.s.j.j.j.j.j.v.u.[.[.S f 2                               ",
"                                          ; ^ ~ ( ~ ~ R.8.8.8.8.8.8.8.8.6.7.8.8.7.+ O P ~ ~ t ; ;                               ",
"                                            ; ; ; ; ; ^ | | | [ | | [ | R [ | [ _ : ; ; ; ;                                     ",
"                                                      : : : : : : : : : : : : : :                                               ",
"                                                                                                                                "
};
