/* XPM */
static char *result[] = {
/* columns rows colors chars-per-pixel */
"64 64 180 2 ",
"   c #0F0F18",
".  c #150F19",
"X  c #1C0F1B",
"o  c #100C16",
"O  c #270F1E",
"+  c #1C1822",
"@  c #340D2F",
"#  c #3A0D2F",
"$  c #3B0E30",
"%  c #2B1D37",
"&  c #321534",
"*  c #2A1E28",
"=  c #3C213A",
"-  c #32263E",
";  c #430E25",
":  c #4A0D26",
">  c #550D29",
",  c #5A0F2E",
"<  c #440E31",
"1  c #4B0D32",
"2  c #530E33",
"3  c #5C0E35",
"4  c #5C0D38",
"5  c #471836",
"6  c #541135",
"7  c #591636",
"8  c #650E2F",
"9  c #650E36",
"0  c #6A0D36",
"q  c #6C0F38",
"w  c #670F38",
"e  c #720C35",
"r  c #790D37",
"t  c #730F39",
"y  c #7D0E3A",
"u  c #67183A",
"i  c #76103B",
"p  c #79103B",
"a  c #3E2C44",
"s  c #3D3340",
"d  c #601F42",
"f  c #731A42",
"g  c #7A1D41",
"h  c #442743",
"j  c #592848",
"k  c #4D354D",
"l  c #463148",
"z  c #4A3A51",
"x  c #543C54",
"c  c #662D4C",
"v  c #762647",
"b  c #783441",
"n  c #633351",
"m  c #623C51",
"M  c #7D3C5C",
"N  c #5B445A",
"B  c #53435A",
"V  c #65445E",
"C  c #5F4960",
"Z  c #624B62",
"A  c #694A6F",
"S  c #794663",
"D  c #6D5369",
"F  c #645867",
"G  c #735A6F",
"H  c #745C71",
"J  c #7A5F74",
"K  c #7B6E79",
"L  c #6D6567",
"P  c #830E3B",
"I  c #8B0D3B",
"U  c #850936",
"Y  c #940D3C",
"T  c #9C0C3D",
"R  c #80113E",
"E  c #A30C3D",
"W  c #AC0B3F",
"Q  c #B40B3F",
"!  c #BC093F",
"~  c #83463D",
"^  c #945732",
"/  c #A65F3E",
"(  c #A3633C",
")  c #B0683B",
"_  c #B97C37",
"`  c #BB773C",
"'  c #B47837",
"]  c #B17632",
"[  c #C27F3B",
"{  c #821D45",
"}  c #9B1546",
"|  c #9B1A47",
" . c #9A174B",
".. c #A20E42",
"X. c #AD0B42",
"o. c #B50A41",
"O. c #BD0A40",
"+. c #A31243",
"@. c #A21747",
"#. c #8A2345",
"$. c #992346",
"%. c #992C45",
"&. c #8B3748",
"*. c #973947",
"=. c #842D5D",
"-. c #893E5C",
";. c #903958",
":. c #952E56",
">. c #A23344",
",. c #C10A40",
"<. c #8D4345",
"1. c #944644",
"2. c #A35343",
"3. c #A76347",
"4. c #B27841",
"5. c #8C5369",
"6. c #82647B",
"7. c #846779",
"8. c #BF8035",
"9. c #CC8B2E",
"0. c #DA952D",
"q. c #CC8A33",
"w. c #C9853B",
"e. c #D18D38",
"r. c #CE913D",
"t. c #D89634",
"y. c #E09A2D",
"u. c #FAAE2D",
"i. c #FEB32E",
"p. c #F0A731",
"a. c #B58773",
"s. c #CD9243",
"d. c #CD9854",
"f. c #E6A641",
"g. c #E1AE6B",
"h. c #E6BA7F",
"j. c #8A6C82",
"k. c #916C83",
"l. c #8D7280",
"z. c #847581",
"x. c #95758C",
"c. c #937B89",
"v. c #987989",
"b. c #9D7A90",
"n. c #8C8088",
"m. c #97898B",
"M. c #9B908E",
"N. c #9E8D94",
"B. c #9C9095",
"V. c #B38E86",
"C. c #A28994",
"Z. c #A28F98",
"A. c #B58E9E",
"S. c #A99799",
"D. c #B2989F",
"F. c #B394A1",
"G. c #BB99A8",
"H. c #BAABAB",
"J. c #B9A4A9",
"K. c #BFB1AC",
"L. c #D8AF83",
"P. c #E1BB91",
"I. c #C5ACAD",
"U. c #DCBBA3",
"Y. c #CBA6B4",
"T. c #C9B5B5",
"R. c #D4BCBD",
"E. c #D3B6BC",
"W. c #D3ABC8",
"Q. c #DECBC6",
"!. c #DDC0D0",
"~. c #E1CDC9",
"^. c #E1CBC4",
"/. c #E6D2CD",
"(. c #EED6D3",
"). c #EEDDD5",
"_. c #F2DDD7",
"`. c #F7E2DB",
"'. c #FFF0E5",
"]. c None",
/* pixels */
"].].].].].].].].].].].].].].].].].].].].].].].].].].].].].].].].].].].].].].].].].].].].].].].].].].].].].].].].].].].].].].].].",
"].].].].].].].].].].].].].].].].].].].].].].].].].].].].].].].].].].].].].].].].].].].].].].].].].].].].].].].].].].].].].].].].",
"].].].].].].].].].].].].].].].].].].].].].].].].].].].].].].].].].].].].].].].].].].].].].].].].].].].].].].].].].].].].].].].].",
"].].].].].].].].].].].].].].].].].].].].].].].].].].].].].].].].].].].].].].].].].].].].].].].].].].].].].].].].].].].].].].].].",
"].].].].].].].].].].].].].].].].].].].].].].].].].].].].].].].].].].].].].].].].].].].].].].].].].].].].].].].].].].].].].].].].",
"].].].].].].].].].].].].].].].].].].].].].].].].].].].].].].].].].].].].].].].].].].].].].].].].].].].].].].].].].].].].].].].].",
"].].].].].].].].].].].].].].].].].].].].].].].].].].].].].7.].].].].].].].].].].].].].].].].].].].].].].].].].].].].].].].].].].",
"].].].].].].].].].].].].].].].].].].].].].].].].].].].Z.R.(.~.D.].].].].].].].].].].].].].].].].].].].].].].].].].].].].].].].].",
"].].].].].].].].].].].].].].].].].].].].].].].].].].c._.'.'.'.(.v.].].].].].].].].].].].].].].].].].].].].].].].].].].].].].].].",
"].].].].].].].].].].].].].].].].].].].].].].].].].D.Q.`._./.~.).G.B # ].].].].].].].].].].].].].].].].].].].].].].].].].].].].].",
"].].].].].].].].].].].].].].].].].].].].].].].].].S.M.Y.Y.j.s T.R.j 3 ].].].].].].].].].].].].].].].].].].].].].].].].].].].].].",
"].].].].].].].].].].].].].].].].].].].].].].].].5 = A J./.W.x.F.k.3 2 # ].].].].].].].].].].].].].].].].].].].].].].].].].].].].",
"].].].].].].].].].].].].].].].].].].].].].].].6 P m !.m.K.).H.v.S e Y 3 ].].].].].].].].].].].].].].].].].].].].].].].].].].].].",
"].].].].].].].].].].].].].].].].].].].].].].].].Y u m.L S.M.+ ; p X.I ].].].].].].].].].].].].].].].].].].].].].].].].].].].].].",
"].].].].].].].].].].].].].].].].].].].].].].].].e I 7 o + * > Y W Y 9 ].].].].].].].].].].].].].].].].].].].].].].].].].].].].].",
"].].].].].].].].].].].].].].].].].].].].].].].].U T 8 . X e Y ! Q E 9 ].].].].].].].].].].].].].].].].].].].].].].].].].].].].].",
"].].].].].].].].].].].].].].].].].].].].].].].].3 t 8 . . , p I E 0 ].].].].].].].].].].].].].].].].].].].].].].].].].].].].].].",
"].].].].].].].].].].].].].].].].].].].].].].].].].6 : . ; I I p y P 9 ].].].].].].].].].].].].].].].].].].].].].].].].].].].].].",
"].].].].].].].].].].].].].].].].].].].].].].].].Y e X o : Y T p y T u ] ].].].].].].].].].].].].].].].].].].].].].].].].].].].].",
"].].].].].].].].].].].].].].].].].].].].].].9.<.W Y O o X r E E q 3 ~ p.' ].].].].].].].].].].].].].].].].].].].].].].].].].].].",
"].].].].].].].].].].].].].].].].].].].].].^ 0.1.o.E ; X > E o.T I b q.[ #.R ].].].].].].].].].].].].].].].].].].].].].].].].].].",
"].].].].].].].].].].].].].].].].].].].].I v _ &.o.,.E e Q ,.o...*.t.( f Y Q W P ].].].].].].].].].].].].].].].].].].].].].].].].",
"].].].].].].].].].].].].].].].].].].].].Y } w.3...Y Y Y Q X.| 2.w.) @.Q Q O.T 9 ].].].].].].].].].].].].].].].].].].].].].].].].",
"].].].].].].].].].].].].].].].].].].].].I Q &.] %.Y w I #.2.' w.~ } O.,.O.E U y ].].].].].].].].].].].].].].].].].].].].].].].].",
"].].].].].].].].].].].].].].].].].].].t T O.} ` 3.=.v &.w.e.2.| o.,.! ,.O.I Y Q 3 ].].].].].].].].].].].].].].].].].].].].].].].",
"].].].].].].].].].].].].].].].].].].Y E T O.o.-.I.Q.g.U.a.>.o.O.,.,.,.O.Q E o.Y w 1 ].].].].].].].].].].].].].].].].].].].].].].",
"].].].].].].].].].].].].].].].].].].T O.W ! +.A.L.d.s.P.U.:.O.O.O.O.,.O.! W p q 9 0 ..I ].].].].].].].].].].].].].].].].].].].].",
"].].].].].].].].].].].].].].].].].2 Y o...o. .V.t.i.p.s.L.;.O.O.O.O.O.O.! y 3 y Q O.O.P 2 ].].].].].].].].].].].].].].].].].].].",
"].].].].].].].].].].].].].].].9 e 0 E P p E  .4.0.i.i.9.f.*.O.O.O.O.O.,.! I T Q O.O.Q P R Y ].].].].].].].].].].].].].].].].].].",
"].].].].].].].].].].].].].1 Y W W E Q P p I +.( q.y.0.0.e.$.O.O.O.O.O.Y Q O.W T E ! Y y E O.E ].].].].].].].].].].].].].].].].].",
"].].].].].].].].].].].l.G l 7 } W P R i p p I g ( ' _ _ >.o.O.O.,.O.o.p I I P i Y T Y T E W Q R ].].].].].].].].].].].].].].].].",
"].].].].].].].].].6.R.R.~.n.B S +.Y p p p i i i f c { } O.O.O.O.,.O.O.E I i i i u c 2 1 T W W T ].].].].].].].].].].].].].].].].",
"].].].].].].].].l.c.S.F.J.D k.Z Y Y i p i p p r i 9 T ,.O.O.O.O.O.O.O.X.R p i n N.H.a h M @.X.Y ].].].].].].].].].].].].].].].].",
"].].].].].].].].J H k Z H B G.z Y T i i p p p R I r e R E O.,.O.,.W I p p p u 6.x.z.H.H j.n T E ].].].].].].].].].].].].].].].].",
"].].].].].].].].D V l k - n.J.= Y Y p i p i p R O.o.e I I o.,.O.O.o.I p i y j 7.z x.C.N N.F 0 T ].].].].].].].].].].].].].].].].",
"].].].].].].].].].].].].].K Z @ Y T w 1 w P p P O.X.i T Y T O.O.O.,.W Y ..r V J C b.N N T.N.5.U ].].].].].].].].].].].].].].].].",
"].].].].].].].].].].].].].1 @ < T I 6 ].# y P p Y o.E Y Y p W ,.O.E Y W T 6 Z 6.z x x 6.7.Z.m.6 ].].].].].].].].].].].].].].].].",
"].].].].].].].].].].].].].e 3 r Q e ].].].P E P p I W Y E W ! O.O.W Y y < ].% % h x k 6.Z x.n < ].].].].].].].].].].].].].].].].",
"].].].].].].].].].].].].].].I W T 2 ].].].T ! E 3 i W T ! ! ,.,.O.O.O.I ].].].].6 & & & a Z u < ].].].].].].].].].].].].].].].].",
"].].].].].].].].].].].].].].].1 < ].].].].T E w ].6 E I Q ! Q I Q O.,.T ].].].].1 1 # # # 9 4 ].].].].].].].].].].].].].].].].].",
"].].].].].].].].].].].].].].].].].].].].].y 9 ].].].t w Q ,.T < E ,.! Y ].].].].].1 2 3 2 1 ].].].].].].].].].].].].].].].].].].",
"].].].].].].].].].].].].].].].].].].].].].].].].].2 9 w Q ,.E ].9 W Q ].].].].].].].].].].].].].].].].].].].].].].].].].].].].].",
"].].].].].].].].].].].].].].].].].].].].].].].].].2 w w W ! Y ].].Y Y ].].].].].].].].].].].].].].].].].].].].].].].].].].].].].",
"].].].].].].].].].].].].].].].].].].].].].].].].].6 3 3 p W Q E ].].].].].].].].].].].].].].].].].].].].].].].].].].].].].].].].",
"].].].].].].].].].].].].].].].].].].].].].].].].].].< < 9 I Q ! T ].].].].].].].].].].].].].].].].].].].].].].].].].].].].].].].",
"].].].].].].].].].].].].].].].].].].].].].].].].].].].].2 W ,.! I ].].].].].].].].].].].].].].].].].].].].].].].].].].].].].].].",
"].].].].].].].].].].].].].].].].].].].].].].].].].].].].E O.Q P ].].].].].].].].].].].].].].].].].].].].].].].].].].].].].].].].",
"].].].].].].].].].].].].].].].].].].].].].].].].].].].E O.O.0 @ ].].].].].].].].].].].].].].].].].].].].].].].].].].].].].].].].",
"].].].].].].].].].].].].].].].].].].].].].].].].].].].r E o.Y e 2 ].].].].].].].].].].].].].].].].].].].].].].].].].].].].].].].",
"].].].].].].].].].].].].].].].].].].].].].].].].].].].].6 6 t p 3 ].].].].].].].].].].].].].].].].].].].].].].].].].].].].].].].",
"].].].].].].].].].].].].].].].].].].].].].].].].].].].].].< q q < ].].].].].].].].].].].].].].].].].].].].].].].].].].].].].].].",
"].].].].].].].].].].].].].].].].].].].].].].].].].].].].].3 i 3 ].].].].].].].].].].].].].].].].].].].].].].].].].].].].].].].].",
"].].].].].].].].].].].].].].].].].].].].].].].].].].].].].q 3 ].].].].].].].].].].].].].].].].].].].].].].].].].].].].].].].].].",
"].].].].].].].].].].].].].].].].].].].].].].].].].].].].].q 3 ].].].].].].].].].].].].].].].].].].].].].].].].].].].].].].].].].",
"].].].].].].].].].].].].].].].].].].].].].].].].].].].].].2 w 3 ].].].].].].].].].].].].].].].].].].].].].].].].].].].].].].].].",
"].].].].].].].].].].].].].].].].].].].].].].].].].].].].].].].< $ ].].].].].].].].].].].].].].].].].].].].].].].].].].].].].].].",
"].].].].].].].].].].].].].].].].].].].].].].].].].].].].].].].@ ].].].].].].].].].].].].].].].].].].].].].].].].].].].].].].].].",
"].].].].].].].].].].].].].].].].].].].].].].].].].].].].].].].].].].].].].].].].].].].].].].].].].].].].].].].].].].].].].].].].",
"].].].].].].].].].].].].].].].].].].].].].].].].].].].].].].].].].].].].].].].].].].].].].].].].].].].].].].].].].].].].].].].].",
"].].].].].].].].].].].].].].].].].].].].].].].].].].].].].].].].].].].].].].].].].].].].].].].].].].].].].].].].].].].].].].].].",
"].].].].].].].].].].].].].].].].].].].].].].].].].].].].].].].].].].].].].].].].].].].].].].].].].].].].].].].].].].].].].].].].",
"].].].].].].].].].].].].].].].].].].].].].].].].].].].].].].].].].].].].].].].].].].].].].].].].].].].].].].].].].].].].].].].].",
"].].].].].].].].].].].].].].].].].].].].].].].].].].].].].].].].].].].].].].].].].].].].].].].].].].].].].].].].].].].].].].].].",
"].].].].].].].].].].].].].].].].].].].].].].].].].].].].].].].].].].].].].].].].].].].].].].].].].].].].].].].].].].].].].].].]."
};
