/* XPM */
static char *result[] = {
/* columns rows colors chars-per-pixel */
"64 64 177 2 ",
"   c #2E0D2D",
".  c #320D2E",
"X  c #3A0D2F",
"o  c #3E0D30",
"O  c #3D1132",
"+  c #391937",
"@  c #3B192A",
"#  c #37263D",
"$  c #420D24",
"%  c #580E2B",
"&  c #440E31",
"*  c #4C0D32",
"=  c #530E33",
"-  c #5C0E35",
";  c #441838",
":  c #581438",
">  c #630E35",
",  c #6C0D35",
"<  c #670F39",
"1  c #690F38",
"2  c #730C37",
"3  c #790C36",
"4  c #730F39",
"5  c #7D0E3A",
"6  c #6D113B",
"7  c #631C35",
"8  c #76103B",
"9  c #79103B",
"0  c #7F3A3F",
"q  c #3D2B44",
"w  c #3F3149",
"e  c #6D1B40",
"r  c #432E47",
"t  c #472440",
"y  c #5D2143",
"u  c #4B364E",
"i  c #49364D",
"p  c #4B3A51",
"a  c #553C54",
"s  c #593D55",
"d  c #712343",
"f  c #782546",
"g  c #61374F",
"h  c #7E304F",
"j  c #633753",
"k  c #7C3252",
"l  c #632646",
"z  c #5B425A",
"x  c #5A455B",
"c  c #64404F",
"v  c #7B4D4F",
"b  c #61465B",
"n  c #65485E",
"m  c #6E4F64",
"M  c #764260",
"N  c #7A4F66",
"B  c #6C546A",
"V  c #625062",
"C  c #715A6E",
"Z  c #7B5C73",
"A  c #775F75",
"S  c #77676E",
"D  c #7A6676",
"F  c #830D3A",
"G  c #8B0D3B",
"H  c #930D3C",
"J  c #9C0C3D",
"K  c #A40C3E",
"L  c #AB0B3E",
"P  c #B30B3F",
"I  c #BB0A3F",
"U  c #C0083F",
"Y  c #9D5F3C",
"T  c #A2583D",
"R  c #98602F",
"E  c #AA6B3E",
"W  c #A7673F",
"Q  c #BA7E36",
"!  c #BA783B",
"~  c #B66C3A",
"^  c #891142",
"/  c #931444",
"(  c #9C1143",
")  c #991A46",
"_  c #9F154A",
"`  c #A20F45",
"'  c #AC0C42",
"]  c #B50B41",
"[  c #BD0A40",
"{  c #A31344",
"}  c #8E2248",
"|  c #822248",
" . c #952347",
".. c #9C2246",
"X. c #9E2845",
"o. c #8A3745",
"O. c #953644",
"+. c #942A5C",
"@. c #92395C",
"#. c #A12D45",
"$. c #C00A40",
"%. c #894542",
"&. c #944245",
"*. c #994745",
"=. c #9C5A41",
"-. c #9A4254",
";. c #A14E43",
":. c #A45543",
">. c #AE6640",
",. c #B16540",
"<. c #8E526D",
"1. c #9D746E",
"2. c #836476",
"3. c #856A7C",
"4. c #8D757E",
"5. c #A8607F",
"6. c #D28F2D",
"7. c #D4912D",
"8. c #C58531",
"9. c #CC8A3A",
"0. c #C78736",
"q. c #DE9B35",
"w. c #D3933A",
"e. c #D59436",
"r. c #E19D35",
"t. c #EBA22C",
"y. c #F0A62D",
"u. c #FFB42F",
"i. c #E7A230",
"p. c #B78A6F",
"a. c #D79D4B",
"s. c #D39B52",
"d. c #C08F7E",
"f. c #C59867",
"g. c #EBB76E",
"h. c #8E6B82",
"j. c #8F7180",
"k. c #957A8B",
"l. c #9C7E9A",
"z. c #A17484",
"x. c #928887",
"c. c #A98D99",
"v. c #A58895",
"b. c #AE959C",
"n. c #B1999F",
"m. c #AFA19E",
"M. c #AF88AB",
"N. c #B69CA3",
"B. c #BC99A9",
"V. c #BDA1A6",
"C. c #BCA5AC",
"Z. c #B4A6A8",
"A. c #BFA7B3",
"S. c #D2AA88",
"D. c #E2B886",
"F. c #C29CA9",
"G. c #C0A1AB",
"H. c #C0B2AD",
"J. c #CBB0A7",
"K. c #CDA8B6",
"L. c #D2AFBA",
"P. c #C9B1B4",
"I. c #CBB5B8",
"U. c #D4BBBE",
"Y. c #E7C7AB",
"T. c #DCC5C2",
"R. c #DDC9C7",
"E. c #DFD0C9",
"W. c #E1C9C7",
"Q. c #E5D4CE",
"!. c #E7CBD0",
"~. c #ECD9D2",
"^. c #ECD5D3",
"/. c #F8E4DD",
"(. c #FEECE3",
"). c #FFF1E6",
"_. c None",
/* pixels */
"_._._._._._._._._._._._._._._._._._._._._._._._._._._._._._._._._._._._._._._._._._._._._._._._._._._._._._._._._._._._._._._._.",
"_._._._._._._._._._._._._._._._._._._._._._._._._._._._._._._._._._._._._._._._._._._._._._._._._._._._._._._._._._._._._._._._.",
"_._._._._._._._._._._._._._._._._._._._._._._._._._._._._._._._._._._._._._._._._._._._._._._._._._._._._._._._._._._._._._._._.",
"_._._._._._._._._._._._._._._._._._._._._._._._._._._._._._._._._._._._._._._._._._._._._._._._._._._._._._._._._._._._._._._._.",
"_._._._._._._._._._._._._._._._._._._._._._._._._._._._._._._._._._._.v.c._._._._._._._._._._._._._._._._._._._._._._._._._._._.",
"_._._._._._._._._._._._._._._._._._._._._._._._._._._._._._._._._.b.T.(.(.W.c._._._._._._._._._._._._._._._._._._._._._._._._._.",
"_._._._._._._._._._._._._._._._._._._._._._._._._._._._._._._._._.T.).(.(./.F.B _._._._._._._._._._._._._._._._._._._._._._._._.",
"_._._._._._._._._._._._._._._._._._._._._._._._._._._._._._._._.N.~.(.(.)./.K.D O & _._._._._._._._._._._._._._._._._._._._._._.",
"_._._._._._._._._._._._._._._._._._._._._._._._._._._._._._._.n.A.U.L.W.H.~.~.N - * _._._._._._._._._._._._._._._._._._._._._._.",
"_._._._._._._._._._._._._._._._._._._., H G - * _._._._._._.: g # v.U.B.r S V.y > = . _._._._._._._._._._._._._._._._._._._._._.",
"_._._._._._._._._._._._._._._._.& , H I U [ H L J 9 F _._._.G , l.A.x.!.M.m N 9 K F _._._._._._._._._._._._._._._._._._._._._._.",
"_._._._._._._._._._._._._._.= 2 2 K I ] I [ I [ [ K L J _._., > 4.m.x.E.N : 4 L G _._._._._._._._._._._._._._._._._._._._._._._.",
"_._._._._._._._._.2.h.P.N.Z.k J ' L L G K K ] [ ] K $.{ ~ 8.7 J d 7 @ c 8 L J K F = _._._._._._._._._._._._._._._._._._._._._._.",
"_._._._._._._._.j.P.n.U.W.C.C t f ] H 9 9 9 J J I [ [ o.q.:.6 G , $ $ 3 H G 8 H 3 H 5 _._._._._._._._._._._._._._._._._._._._._.",
"_._._._._._._._.4.G.b V k.B Z A D e K F 8 9 9 9 H [ { Y Q ) G 8 5 $ % , K H 8 F H G T 8.R & G J J H G _._._._._._._._._._._._._.",
"_._._._._._._._.Z 2.r u s u Z c.C ; L G 8 8 8 8 J [ ..9.:.' ' G 3 % 3 G K P H J ` O.e.9.0 - K $.[ [ ] J _._._._._._._._._._._._.",
"_._._._._._._._.p _.r a a # D Q.V , ] F 9 9 8 F ' ] &.0.} K H J ] ] G F H P ' ..! Q T ) 8 5 [ [ [ [ $.[ J _._._._._._._._._._._.",
"_._._._._._._._._._._._._.. z S + F K 8 9 8 8 G [ ] o.Q } G 6 G J [ [ ' { } *.9.w.o.( K > G [ [ [ [ $.[ P G 3 _._._._._._._._._.",
"_._._._._._._._._._._._._.= >   & L H 5 9 8 8 G I [ &.e.d G L ] ` /  .:.! e.Q =.d H U G - P ] K [ [ ] K K J / f _._._._._._._._.",
"_._._._._._._._._._._._._.2 =   > P F 2 8 9 8 G I ' <.1.v @.O.O.>.0.Q r.w.:.f 6 H ] I L K L G P [ K K K / z.V.F.N.2._._._._._._.",
"_._._._._._._._._._._._._.F G = H K 8 : = 8 8 ' ] 5.T.Y.g.T.p.e.q.>.%.O.) ' H H ] $.J G H F J [ K L ) l i k.R.L.I.n.B._._._._._.",
"_._._._._._._._._._._._._., J ] I H = _.= 9 9 K @.J.s.e.w.D.S.o.} ' ] ] $.P ` I I $.L 9 8 8 G ] J K M D h.x k.B b 3.G.V _._._._.",
"_._._._._._._._._._._._._._._.G F = _._.F H 9 J -.p.y.u.y.a.b.K $.$.[ [ [ [ [ [ [ [ K F 8 9 9 G H L j k.v.a a a r x h.s _._._._.",
"_._._._._._._._._._._._._._._._._._._._.G ' J ^ >.7.u.u.7.i.*.] [ [ $.[ [ [ [ [ ' G 9 9 9 9 8 9 H J ; Z.H.i r a u _.i w _._._._.",
"_._._._._._._._._._._._._._._._._._._._.G L 2 < %.8.6.6.7.9.X.[ [ [ [ [ [ [ [ $.P G 9 8 9 9 8 9 K 2 . p D # O + _._._._._._._._.",
"_._._._._._._._._._._._._._._._._._._._., 2 o > e %.W >.>.#.[ [ $.[ [ $.$.[ [ [ I L 9 F F - < G K & . .   . = * _._._._._._._._.",
"_._._._._._._._._._._._._._._._._._._._._._.* 6 2 < / ` { [ $.[ [ [ $.[ [ [ $.[ I K K J G _._.F L * . . . X = _._._._._._._._._.",
"_._._._._._._._._._._._._._._._._._._._._._.= J J , L $.$.[ [ [ [ [ [ [ [ $.[ [ P I H > * _._.> K 5 - * X = * _._._._._._._._._.",
"_._._._._._._._._._._._._._._._._._._._._._., I L > G [ [ [ $.[ [ [ [ [ [ [ [ [ [ K _._._._._._.& = - < 6 > _._._._._._._._._._.",
"_._._._._._._._._._._._._._._._._._._._._._., I F J G K [ [ [ [ [ $.[ [ $.[ [ [ ] G _._._._._._._._._.* & _._._._._._._._._._._.",
"_._._._._._._._._._._._._._._._._._._._._._.- L 2 K G ' [ [ [ [ $.[ I [ K 5 , ' J _._._._._._._._._._._._._._._._._._._._._._._.",
"_._._._._._._._._._._._._._._._._._._._._._.= K 3 5 5 G [ [ [ [ [ [ I H _._.> F _._._._._._._._._._._._._._._._._._._._._._._._.",
"_._._._._._._._._._._._._._._._._._._._._._.= K G J J J [ [ $.$.[ [ H _._._._._._._._._._._._._._._._._._._._._._._._._._._._._.",
"_._._._._._._._._._._._._._._._._._._._._._.= L K P [ [ [ [ [ I I H _._._._._._._._._._._._._._._._._._._._._._._._._._._._._._.",
"_._._._._._._._._._._._._._._._._._._._._._.* K J P [ [ [ [ U U J _._._._._._._._._._._._._._._._._._._._._._._._._._._._._._._.",
"_._._._._._._._._._._._._._._._._._._._._._._.H J P $.[ $.[ I P 2 _._._._._._._._._._._._._._._._._._._._._._._._._._._._._._._.",
"_._._._._._._._._._._._._._._._._._._._._._._.6 6 L U I [ [ [ 5 _._._._._._._._._._._._._._._._._._._._._._._._._._._._._._._._.",
"_._._._._._._._._._._._._._._._._._._._._._._.= - L U U [ [ ] 9 _._._._._._._._._._._._._._._._._._._._._._._._._._._._._._._._.",
"_._._._._._._._._._._._._._._._._._._._._._._.& > G [ [ [ [ K _._._._._._._._._._._._._._._._._._._._._._._._._._._._._._._._._.",
"_._._._._._._._._._._._._._._._._._._._._._._._.: : L $.[ [ H _._._._._._._._._._._._._._._._._._._._._._._._._._._._._._._._._.",
"_._._._._._._._._._._._._._._._._._._._._._._._.o = G [ [ ' _._._._._._._._._._._._._._._._._._._._._._._._._._._._._._._._._._.",
"_._._._._._._._._._._._._._._._._._._._._._._._._.= 9 L $.K _._._._._._._._._._._._._._._._._._._._._._._._._._._._._._._._._._.",
"_._._._._._._._._._._._._._._._._._._._._._._._._.* 6 G [ K _._._._._._._._._._._._._._._._._._._._._._._._._._._._._._._._._._.",
"_._._._._._._._._._._._._._._._._._._._._._._._._._.- 9 J L _._._._._._._._._._._._._._._._._._._._._._._._._._._._._._._._._._.",
"_._._._._._._._._._._._._._._._._._._._._._._._._._._.> H P G _._._._._._._._._._._._._._._._._._._._._._._._._._._._._._._._._.",
"_._._._._._._._._._._._._._._._._._._._._._._._._._._.> P ] > _._._._._._._._._._._._._._._._._._._._._._._._._._._._._._._._._.",
"_._._._._._._._._._._._._._._._._._._._._._._._._.H H K P F _._._._._._._._._._._._._._._._._._._._._._._._._._._._._._._._._._.",
"_._._._._._._._._._._._._._._._._._._._._._._._._.L I K 2 _._._._._._._._._._._._._._._._._._._._._._._._._._._._._._._._._._._.",
"_._._._._._._._._._._._._._._._._._._._._._._._.5 I [ 5 , - _._._._._._._._._._._._._._._._._._._._._._._._._._._._._._._._._._.",
"_._._._._._._._._._._._._._._._._._._._._._._._._.G I P 9 8 - _._._._._._._._._._._._._._._._._._._._._._._._._._._._._._._._._.",
"_._._._._._._._._._._._._._._._._._._._._._._._._._.F F * > 6 _._._._._._._._._._._._._._._._._._._._._._._._._._._._._._._._._.",
"_._._._._._._._._._._._._._._._._._._._._._._._._._._._.& - < _._._._._._._._._._._._._._._._._._._._._._._._._._._._._._._._._.",
"_._._._._._._._._._._._._._._._._._._._._._._._._._._.* < > * _._._._._._._._._._._._._._._._._._._._._._._._._._._._._._._._._.",
"_._._._._._._._._._._._._._._._._._._._._._._._._._.o = = _._._._._._._._._._._._._._._._._._._._._._._._._._._._._._._._._._._.",
"_._._._._._._._._._._._._._._._._._._._._._._._._._.. . _._._._._._._._._._._._._._._._._._._._._._._._._._._._._._._._._._._._.",
"_._._._._._._._._._._._._._._._._._._._._._._._._._._._.. . _._._._._._._._._._._._._._._._._._._._._._._._._._._._._._._._._._.",
"_._._._._._._._._._._._._._._._._._._._._._._._._._._._.. _._._._._._._._._._._._._._._._._._._._._._._._._._._._._._._._._._._.",
"_._._._._._._._._._._._._._._._._._._._._._._._._._._._._._._._._._._._._._._._._._._._._._._._._._._._._._._._._._._._._._._._.",
"_._._._._._._._._._._._._._._._._._._._._._._._._._._._._._._._._._._._._._._._._._._._._._._._._._._._._._._._._._._._._._._._.",
"_._._._._._._._._._._._._._._._._._._._._._._._._._._._._._._._._._._._._._._._._._._._._._._._._._._._._._._._._._._._._._._._.",
"_._._._._._._._._._._._._._._._._._._._._._._._._._._._._._._._._._._._._._._._._._._._._._._._._._._._._._._._._._._._._._._._.",
"_._._._._._._._._._._._._._._._._._._._._._._._._._._._._._._._._._._._._._._._._._._._._._._._._._._._._._._._._._._._._._._._.",
"_._._._._._._._._._._._._._._._._._._._._._._._._._._._._._._._._._._._._._._._._._._._._._._._._._._._._._._._._._._._._._._._.",
"_._._._._._._._._._._._._._._._._._._._._._._._._._._._._._._._._._._._._._._._._._._._._._._._._._._._._._._._._._._._._._._._."
};
