/* XPM */
static char *ac9b49756a6f450f900b91deb2d9dadbnlFXcYdKdCu1YSPH_4[] = {
/* columns rows colors chars-per-pixel */
"64 64 256 2 ",
"   c None",
".  c #36653F",
"X  c #28793C",
"o  c #38773A",
"O  c #000E5C",
"+  c #0F035D",
"@  c #03125C",
"#  c #051B5B",
"$  c #09135C",
"%  c #12145C",
"&  c #1C145F",
"*  c #181C5D",
"=  c #16195D",
"-  c #2A015C",
";  c #2B0B5C",
":  c #340A5E",
">  c #32075D",
",  c #2B145D",
"<  c #2C1D5D",
"1  c #27185C",
"2  c #3B125F",
"3  c #391A5F",
"4  c #0C364F",
"5  c #062157",
"6  c #07205B",
"7  c #0A295A",
"8  c #1B275B",
"9  c #0E3358",
"0  c #12355E",
"q  c #143B5E",
"w  c #103B50",
"e  c #30344E",
"r  c #2C245E",
"t  c #2D295C",
"y  c #2D315E",
"u  c #2D3A5E",
"i  c #203A5F",
"p  c #2F1C60",
"a  c #371760",
"s  c #1E3E60",
"d  c #242B60",
"f  c #3B2161",
"g  c #2C3E60",
"h  c #2B3360",
"j  c #431B60",
"k  c #401760",
"l  c #442361",
"z  c #4C2562",
"x  c #4B2C62",
"c  c #502762",
"v  c #493462",
"b  c #453962",
"n  c #473063",
"m  c #12404D",
"M  c #144E49",
"N  c #1B5A45",
"B  c #1A544A",
"V  c #1A5648",
"C  c #144452",
"Z  c #17445F",
"A  c #1A485B",
"S  c #1C535F",
"D  c #36484D",
"F  c #2E445E",
"G  c #2D4757",
"H  c #275656",
"J  c #30505D",
"K  c #2D544A",
"L  c #1F6149",
"P  c #25694A",
"I  c #366440",
"U  c #396B44",
"Y  c #2A7845",
"T  c #246759",
"R  c #316858",
"E  c #2E7C5C",
"W  c #2C7859",
"Q  c #347558",
"!  c #1A4B60",
"~  c #174460",
"^  c #1C5460",
"/  c #2E4E60",
"(  c #384A61",
")  c #2F5B61",
"_  c #285661",
"`  c #3E5463",
"'  c #3C5962",
"]  c #335B61",
"[  c #2A6761",
"{  c #336461",
"}  c #306B61",
"|  c #3A6862",
" . c #2B7261",
".. c #2F7B63",
"X. c #337462",
"o. c #317E63",
"O. c #424F5F",
"+. c #535058",
"@. c #467942",
"#. c #446A55",
"$. c #434462",
"%. c #414B62",
"&. c #415061",
"*. c #2A8538",
"=. c #2C8938",
"-. c #3B8639",
";. c #2F9333",
":. c #3B9332",
">. c #3C9B32",
",. c #3C983B",
"<. c #36A52E",
"1. c #3BAA2D",
"2. c #39A82C",
"3. c #3DB62C",
"4. c #3FBA2C",
"5. c #3EBB26",
"6. c #3CAE35",
"7. c #3AA53D",
"8. c #3BAA3B",
"9. c #39A333",
"0. c #3DB234",
"q. c #429839",
"w. c #42AE2C",
"e. c #40BE26",
"r. c #40BE29",
"t. c #43BA34",
"y. c #43B43C",
"u. c #47BA3D",
"i. c #3FC025",
"p. c #41C325",
"a. c #46C826",
"s. c #49CD26",
"d. c #43C22A",
"f. c #4ACB2A",
"g. c #47C828",
"h. c #4DD226",
"j. c #4ED229",
"k. c #50D627",
"l. c #53DA27",
"z. c #51D52A",
"x. c #55DB28",
"c. c #58DF29",
"v. c #4BC532",
"b. c #47C231",
"n. c #54CB38",
"m. c #52CF34",
"M. c #55D335",
"N. c #5ADA35",
"B. c #56D03B",
"V. c #5AD53D",
"C. c #5EDB3A",
"Z. c #60DE3A",
"A. c #61DD34",
"S. c #5BE329",
"D. c #5FE82A",
"F. c #56E027",
"G. c #5FE235",
"H. c #62EC2B",
"J. c #66F12C",
"K. c #69F52C",
"L. c #6DFB2D",
"P. c #70FF2D",
"I. c #62E533",
"U. c #66EB34",
"Y. c #68ED32",
"T. c #61E239",
"R. c #6AF331",
"E. c #6DF830",
"W. c #2F8A44",
"Q. c #2D804D",
"!. c #36864C",
"~. c #378B47",
"^. c #399E46",
"/. c #36954E",
"(. c #379A4A",
"). c #389C4B",
"_. c #389544",
"`. c #348E54",
"'. c #33855D",
"]. c #348A5B",
"[. c #398D5A",
"{. c #359153",
"}. c #3E9C55",
"|. c #3B9459",
" X c #3B9857",
".X c #3AA243",
"XX c #3DA745",
"oX c #318162",
"OX c #438045",
"+X c #409F55",
"@X c #41A64C",
"#X c #46AC4E",
"$X c #48AE4F",
"%X c #43AA42",
"&X c #44B142",
"*X c #4AB34C",
"=X c #4EBA49",
"-X c #4CBE41",
";X c #50BE48",
":X c #43A453",
">X c #46A951",
",X c #49A050",
"<X c #53C445",
"1X c #57CC42",
"2X c #58CE42",
"3X c #5AD240",
"4X c black",
"5X c black",
"6X c black",
"7X c black",
"8X c black",
"9X c black",
"0X c black",
"qX c black",
"wX c black",
"eX c black",
"rX c black",
"tX c black",
"yX c black",
"uX c black",
"iX c black",
"pX c black",
"aX c black",
"sX c black",
"dX c black",
"fX c black",
"gX c black",
"hX c black",
"jX c black",
"kX c black",
"lX c black",
"zX c black",
"xX c black",
"cX c black",
"vX c black",
"bX c black",
"nX c black",
"mX c black",
"MX c black",
"NX c black",
"BX c black",
"VX c black",
"CX c black",
"ZX c black",
"AX c black",
"SX c black",
"DX c black",
"FX c black",
"GX c black",
"HX c black",
"JX c black",
"KX c black",
"LX c black",
"PX c black",
"IX c black",
"UX c black",
/* pixels */
"                                                                                                                                ",
"                                                                                                                                ",
"                                                                                                                                ",
"                                                                                                                                ",
"                                                                                                                                ",
"                                                                                                                                ",
"                                                                                                                                ",
"                                                                                                                                ",
"                                                                            oXoXoXoXoXoX                                        ",
"                                                                        ..oX<XV.V.V.V.<Xo.o.                                    ",
"                                                                      }.:X>XU.P.P.P.P.T.>X:X}.                                  ",
"                                                                    oX<XL.R.K.K.K.K.K.L.K.E.=X].                                ",
"                                                                  oX3XE.J.a.s.a.s.a.a.a.h.L.K.1XoX                              ",
"                                                                |.1XR.J.j.p.k.S.S.S.S.k.a.k.J.Y.<XoX                            ",
"                                                              }.<XE.K.k.a.k.K.L.L.P.P.H.f.p.x.I.3X>X}.                          ",
"                                                            o.=XE.E.j.p.h.K.L.L.L.L.L.L.J.a.p.8.|.U.*Xo.                        ",
"                                                            ..=XK.h.p.k.K.L.c.s.h.f.s.h.s.p.p.=.C d..Xo.                        ",
"                                                          oX=XM.h.p.p.c.K.x.a.6.)..X5.p.p.p.l.,.@ V W.).oX                      ",
"                                                          [.U.S.p.p.p.l.S.i.0.!.) ) _.t.p.h.N.%Xm @ N W.o.                      ",
"                                                          |.U.S.i.p.p.p.p.i./.F - - J /.g.J.#X_.<.# O s o.                      ",
"                                                        }.T.L.S.i.i.p.p.p.5.D ; - j n #.w.D 8 A W # O * b                       ",
"                                                      ..}.K.S.c.S.S.a.p.4.^.t > j z < K w.; + 0 W X 4 & z                       ",
"                                                      |.$XH.a.c.P.L.h.p.6.R < 2 z z % M 1.e % q }.f.Y G +.                      ",
"                                                    o.1XH.g.p.S.L.L.h.p.:.; - 2 z z = B p.w.N P R.K.J.H.I.+X                    ",
"                                                    o.2XJ.a.D.K.K.h.p.a.:.; - 2 l * X 2.p.p.v.A.K.h.s.h.h.G.>X..                ",
"                                                    $XM.z.y.Y.K.c.p.p.p.:.- - 2 j % 9.c.k.p.k.D.S.a.0.7.8.Y.=XoX                ",
"                                                  }.I.j.0.].V.m.3.p.a.a.:.< - 3 b C n.P.H.a.p.5.0.<.Q. .oX3X,X|                 ",
"                                              o.:XY.h.p.0.oX'.'.{.p.H.F.0.W r u [.A.L.H.a.e.p.6.W 5 # Z oXoX&.x                 ",
"                                            oX=XC.K.s.i.4.8.6.8.t.S.c.s.4.6.-.,.0.j.k.h.i.).P w s p g [ oX&.b                   ",
"                                            o.2XP.K.s.e.p.p.p.i.s.S.s.i.a.l.x.h.p.i.0.^.@.J d 1 & ( } X.&.v                     ",
"                                            |.V.P.L.k.a.p.p.i.a.s.i.i.a.x.L.K.z.0.>.Q ( a : j x $.o.o.&.c                       ",
"                                          ].T.P.P.L.L.k.p.p.p.c.H.p.i.c.L.L.k..XQ 1 ; ; > z c b o.oX&.x                         ",
"                                          oXI.D.S.L.P.k.i.p.S.K.J.p.i.S.K.k.XXR r - - - - z p q X.%.v                           ",
"                                        +X=XR.k.h.L.E.D.k.F.K.K.c.p.p.h.x.i.R r - - - - a z h ^ X.x                             ",
"                                      ].=XL.K.z.f.L.P.P.P.L.K.F.i.4.p.p.d.3.e - - - - 2 c l ' ..| v                             ",
"                                    oX<XR.L.h.^.:XE.L.P.L.L.j.a.0.`.0.p.0.!.t - - - k z l % _ | v                               ",
"                                    o.2XP.L.a.P B z.K.P.K.j..X/.(.6.5.p.>.y ; - - - j c l $ S | c                               ",
"                                    :XV.P.L.x.B 9 0.V.Z.n.6.'.'..Xh.a.p.:.- - - - - j c l $ S | $.                              ",
"                              [.[.}.Y.L.P.L.L.P 9  ... .oX].'..Xh.J.h.5.-.- - - - - j x f @ ! ..'.'.'.'.                        ",
"                      oXoXoXoX<XU.I.f.H.P.R.:X.X=.7 6 # C 0.4.z.H.s.p.o , - - - > j z a $ O @ B t.r.r.7.oX                      ",
"                    oX<X3X3X3XM.k.h.p.D.T.>X1Xf.3.=.*.*.;.i.S.S.v.(.3.I - - - - - j c a @ @ O 5 N 3.i.q.$.                      ",
"                    :XU.P.L.J.x.h.j.h.N.<X>XR.k.i.i.p.h.h.a.D.m..X'.0.. - - - - a z f p O @ 7 m V 4.i.@.c                       ",
"                ..|.R.L.L.H.a.D.L.L.L.>X$XE.P.x.a.a.a.D.H.p.i..XoXoX0.I - - - 2 z z 8 5 5 5 *.i.3.3./.] v x                     ",
"                ..|.R.L.H.a.p.D.L.L.P.*X$XP.P.R.K.K.K.L.J.i.{.'.oXoX0.I - - - 2 z x -.2.<.<.5.0.W 9 # s X.X.%.z z               ",
"        ........>X2XE.D.h.i.i.D.P.P.P.!.Y S.E.L.L.L.L.D.l.i.].oXoXoX0.>.I I I U @.@.w.p.d..XQ.V Z ~ ~ ^ oX^.Q &.` v             ",
"      :X:X:X:X:X3XP.L.c.h.h.p.c.Y.H.H.Y P p.D.H.H.Y.J.j.5.8.'.oXoXoX.X4.p.i.p.p.d.0.0.0.8.'.! 7 q W {. X{.5.~.T `.&.v           ",
"    oXC.L.E.R.E.K.E.L.K.L.J.a.p.p.p.p././.i.d.i.i.p.a.i.0.oX....oXoXoX.Xi.i.d.i.3.'.oXoXoXoXoX....oX.Xi.e.p.N w 3.].( z x       ",
"  {.0.g.H.P.L.P.1X$XE.c.h.f.p.i.p.p.p.4..X`.{.{..Xi.i..X`...0 ^ oXoXoX'.{.{.{.{.`.oXoXoXoXoXoXoXoXoX7.a.p.p.2.2.I.|.g 8 ] v     ",
"oX{.p.p.s.S.L.P.C.;X=XXX8.p.p.p.p.p.p.p.b.=XoXoXoX.X.XT ~ ~ ~ [ oXoXoXoXoX..oX..oX.X.X{.oXoXoXoX'.).0.i.p.p.i.h.K.u.T T *XR $.  ",
") Q 6.0.4.a.H.K.P.Y.).}.@X6.0.5.p.i.p.i.k.E.*X[.oXoXoX! 7 0  .oXoXoX..oXoXoXoX].).i.i.6.oXoXoX'.(.i.a.i.i.p.s.z.V.a.&X=XR.}.&.c ",
"- r o.o..Xi.d.H.L.J.a.H.2X'.oX8.p.i.d.i.k.L.L.$XoXoXoXoX'.E '.oXoXoXoXoXoXoXoX^.i.i.i.8.oXoXoX{.i.i.i.i.d.i.S.T.[.3.D.E.R. X' z ",
"    r } [.{.{.|.u.h.p.s.z.T.C.Y.n.{.{.6.c.L.P.U.G.C.t.B.V.0.0.(.oX..oX..oXoX..].{.{.{.]...oXoX'.`.{.{.{.{.4.%X|.oXN.L.K.j.{.( : ",
"      y g g / } {.^.^.^.u.D.L.P.2Xo.oXXXs.c.c.J.P.L.S.K.K.F.a.0..X.XoXoXoXoX(..X.X.X'.oXoXoX{./.oX..oX]..X4.8..X.Xz.c.M.).J t   ",
"      - - - - / X.o.o.o.{.d.H.K.n.|.oX.X5.p.p.c.K.K.K.K.K.J.a.p.p.i.{.oXoXoX0.i.p.i.{.oXoX..8.0.].].'..Xa.i.r.r.4.3.3.7.} ,     ",
"              ; F ..o.o.oX{.d.g.k.T.].'.).e.e.a.p.a.a.a.p.p.d.i.i.i. XoXoX'.0.d.i.4.{.oXoXoX8.i.d.4.i.i.i.i..XoX'.'.'.R ,       ",
"                1 r < 1 / oX{.`.XXh.0.{.'.`.{.6.p.p.i..X{.{.`.`.).i.4.0.0.0.4.8.{.{.oX{.0.0.4.h.J.J.j.i.i.).oX .r < < <         ",
"                  - - - r / / } {.8.8.{.'./.'./.0.i.8.{.oXoX>X$X&Xd.i.i.a.k.a.6.(.(.XX<Xk.x.l.D.L.D.k.4.7.'.) / - - -           ",
"                          - - / } } } } !.0.].'.).4./.].[.{.U.L.K.f.s.h.x.L.l.s.s.s.Y.E.L.K.U.U.G.b.1.-.} } y -                 ",
"                              ; ; ; ; ; u '.o.7.4.i.4.4.4.d.J.L.K.K.K.K.K.L.K.K.K.L.L.E.J.s..XoX'.'.F ; ; ;                     ",
"                                        1 d X.].{.{.{.0.p.p.h.h.h.h.h.h.h.h.h.h.h.h.h.b.}./.J p < r ,                           ",
"                                          - / / / / / !.8.8.8.8.XX8.8.8.6.8.7.8.7.o o U / / r - - -                             ",
"                                            - - - - - / } } } } } } } } } } } } ) ; - - - -                                     ",
"                                                      ; ; ; ; ; ; ; ; ; ; ; ; ; ;                                               ",
"                                                                                                                                "
};
