/* XPM */
static char *result[] = {
/* columns rows colors chars-per-pixel */
"64 64 179 2 ",
"   c #0F0F18",
".  c #100F19",
"X  c #1B0F1B",
"o  c #12121A",
"O  c #240E1D",
"+  c #290E1E",
"@  c #2F0E21",
"#  c #380D2E",
"$  c #2F102F",
"%  c #321425",
"&  c #2F1431",
"*  c #3B1534",
"=  c #341A37",
"-  c #33213B",
";  c #4B0F29",
":  c #5A0D2B",
">  c #440E31",
",  c #4B0D32",
"<  c #540E34",
"1  c #5B0D34",
"2  c #4A1839",
"3  c #561436",
"4  c #630D35",
"5  c #6B0D35",
"6  c #6A0F38",
"7  c #670F38",
"8  c #730C36",
"9  c #7B0D35",
"0  c #750E39",
"q  c #7D0E3A",
"w  c #6D143C",
"e  c #64163A",
"r  c #75103B",
"t  c #79103B",
"y  c #701736",
"u  c #630A2A",
"i  c #682430",
"p  c #3C2C44",
"a  c #7B1B43",
"s  c #7A1540",
"d  c #453149",
"f  c #49354C",
"g  c #4B3D4A",
"h  c #473C50",
"j  c #543B52",
"k  c #593C55",
"l  c #533750",
"z  c #512D48",
"x  c #7C2D4D",
"c  c #722142",
"v  c #7E354B",
"b  c #642949",
"n  c #753A64",
"m  c #5B445B",
"M  c #5A4B5A",
"N  c #63435B",
"B  c #68465E",
"V  c #664C63",
"C  c #774B65",
"Z  c #6B5163",
"A  c #685468",
"S  c #73546B",
"D  c #755D6E",
"F  c #7C5E74",
"G  c #6F6068",
"H  c #6F6471",
"J  c #7C6674",
"K  c #840E3B",
"L  c #8B0E3C",
"P  c #830B37",
"I  c #930D3C",
"U  c #9B0C3D",
"Y  c #8E103D",
"T  c #93183C",
"R  c #A30C3E",
"E  c #AC0B3E",
"W  c #B30B3F",
"Q  c #B90A3F",
"!  c #A43238",
"~  c #995E3A",
"^  c #9E6634",
"/  c #AB6D3B",
"(  c #BB733E",
")  c #BB7D3A",
"_  c #B47839",
"`  c #C0783C",
"'  c #9B0C41",
"]  c #9B1546",
"[  c #991946",
"{  c #A40E44",
"}  c #AA0C43",
"|  c #B50A41",
" . c #BE0A40",
".. c #A41544",
"X. c #8E2A48",
"o. c #862546",
"O. c #962446",
"+. c #992646",
"@. c #8C3347",
"#. c #983647",
"$. c #882F53",
"%. c #8C3057",
"&. c #A33B44",
"*. c #C00A40",
"=. c #894B47",
"-. c #944C42",
";. c #994846",
":. c #985242",
">. c #AC5E42",
",. c #A35240",
"<. c #A76641",
"1. c #B37949",
"2. c #984561",
"3. c #985161",
"4. c #825E76",
"5. c #896A7C",
"6. c #84737E",
"7. c #A77D7F",
"8. c #BE8137",
"9. c #D4902E",
"0. c #DC962D",
"q. c #DC992F",
"w. c #C38735",
"e. c #C58637",
"r. c #CE903E",
"t. c #D59234",
"y. c #DA9936",
"u. c #E29F33",
"i. c #FEB32E",
"p. c #E7A539",
"a. c #CE964E",
"s. c #D29541",
"d. c #D9AD78",
"f. c #E6B777",
"g. c #886B81",
"h. c #906E84",
"j. c #857781",
"k. c #8D7A85",
"l. c #997B93",
"z. c #967688",
"x. c #A0788E",
"c. c #A67B92",
"v. c #98858E",
"b. c #9A8A91",
"n. c #A58D97",
"m. c #AB8898",
"M. c #B1899D",
"N. c #AA999B",
"B. c #A39097",
"V. c #B1919E",
"C. c #BA8FA5",
"Z. c #AD9CA0",
"A. c #BB92A6",
"S. c #B69CA3",
"D. c #BA99A7",
"F. c #BBA1A5",
"G. c #D9B38A",
"H. c #C199AC",
"J. c #C1A2AD",
"K. c #C3AAAE",
"L. c #CBAFB6",
"P. c #C9B4B4",
"I. c #D5B4BD",
"U. c #D3BBBC",
"Y. c #E3C19E",
"T. c #EBC8A3",
"R. c #DCBEC4",
"E. c #DBC5C4",
"W. c #E0C4C7",
"Q. c #E4CACB",
"!. c #E5D1CA",
"~. c #EBD3D1",
"^. c #EDDDD5",
"/. c #F3DDD8",
"(. c #F0DAD6",
"). c #F5E2DA",
"_. c #F8E3DD",
"`. c #FFEDE3",
"'. c None",
/* pixels */
"'.'.'.'.'.'.'.'.'.'.'.'.'.'.'.'.'.'.'.'.'.'.'.'.'.'.'.'.'.'.'.'.'.'.'.'.'.'.'.'.'.'.'.'.'.'.'.'.'.'.'.'.'.'.'.'.'.'.'.'.'.'.'.'.",
"'.'.'.'.'.'.'.'.'.'.'.'.'.'.'.'.'.'.'.'.'.'.'.'.'.'.'.'.'.'.'.'.'.'.'.'.'.'.'.'.'.'.'.'.'.'.'.'.'.'.'.'.'.'.'.'.'.'.'.'.'.'.'.'.",
"'.'.'.'.'.'.'.'.'.'.'.'.'.'.'.'.'.'.'.'.'.'.'.'.'.'.'.'.'.'.'.'.'.'.'.'.'.'.'.'.'.'.'.'.'.'.'.'.'.'.'.'.'.'.'.'.'.'.'.'.'.'.'.'.",
"'.'.'.'.'.'.'.'.'.'.'.'.'.'.'.'.'.'.'.'.'.'.'.'.'.'.'.'.'.'.'.'.'.'.'.'.'.'.'.'.'.'.'.'.'.'.'.'.'.'.'.'.'.'.'.'.'.'.'.'.'.'.'.'.",
"'.'.'.'.'.'.'.'.'.'.'.'.'.'.'.'.'.'.'.'.'.'.'.'.'.'.'.'.'.'.'.'.'.'.'.'.'.'.'.'.'.'.'.'.'.'.'.'.'.'.'.'.'.'.'.'.'.'.'.'.'.'.'.'.",
"'.'.'.'.'.'.'.'.'.'.'.'.'.'.'.'.'.'.'.'.'.'.'.'.'.'.'.'.'.'.'.'.'.'.'.'.'.'.'.'.'.'.'.'.'.'.'.'.'.'.'.'.'.'.'.'.'.'.'.'.'.'.'.'.",
"'.'.'.'.'.'.'.'.'.'.'.'.'.'.'.'.'.'.'.'.'.'.'.'.'.'.'.'.'.'.'.'.5.5.'.'.'.'.'.'.'.'.'.'.'.'.'.'.'.'.'.'.'.'.'.'.'.'.'.'.'.'.'.'.",
"'.'.'.'.'.'.'.'.'.'.'.'.'.'.'.'.'.'.'.'.'.'.'.'.'.'.'.'.'.'.v.J N.~.P.B.6.'.'.'.'.'.'.'.'.'.'.'.'.'.'.'.'.'.'.'.'.'.'.'.'.'.'.'.",
"'.'.'.'.'.'.'.'.'.'.'.'.'.'.'.'.'.'.'.'.'.'.'.'.'.'.'.'.'.A J.m.J.Q.~.~.L.m '.'.'.'.'.'.'.'.'.'.'.'.'.'.'.'.'.'.'.'.'.'.'.'.'.'.",
"'.'.'.'.'.'.'.'.'.'.'.'.'.'.'.'.'.'.'.'.'.'.'.'.'.'.'.'., Z G M P.N.g D C.g.'.'.'.'.'.'.'.'.'.'.'.'.'.'.'.'.'.'.'.'.'.'.'.'.'.'.",
"'.'.'.'.'.'.'.'.'.'.'.'.'.'.'.'.'.'.'.'.'.'.'.'.'.'.'.> 0 % o X e y u 3 C 4.'.'.'.'.'.'.'.'.'.'.'.'.'.'.'.'.'.'.'.'.'.'.'.'.'.'.",
"'.'.'.'.'.'.'.'.'.'.'.'.'.'.'.'.'.'.'.'.'.'.'.'.'.'.'.'.4 O . X y W Q I K w 3 , '.'.'.'.'.'.'.'.'.'.'.'.'.'.'.'.'.'.'.'.'.'.'.'.",
"'.'.'.'.'.'.'.'.'.'.'.'.'.'.'.'.'.'.'.'.'.'.'.'.'.'.'.q ;     O : Y R W E R 9 > '.'.'.'.'.'.'.'.'.'.'.'.'.'.'.'.'.'.'.'.'.'.'.'.",
"'.'.'.'.'.'.'.'.'.'.'.'.'.'.'.'.'.'.'.'.'.'.'.'.'.^ T I :   O 9 W I t K U R W P '.'.'.'.'.'.'.'.'.'.'.'.'.'.'.'.'.'.'.'.'.'.'.'.",
"'.'.'.'.'.'.'.'.'.'.'.'.'.'.'.'.'.'.'.'.'.'.'.'.9.,.{ : X   O 9 W Y t t K E ..! i '.'.'.'.'.'.'.'.'.'.'.'.'.'.'.'.'.'.'.'.'.'.'.",
"'.'.'.'.'.'.'.'.'.'.'.'.'.'.'. . .'.'.'.'.'.'.v w.X.R 9 X   X 9 Q I t t r c ` u.^ '.'.'.'.'.'.'.'.'.'.'.'.'.'.'.'.'.'.'.'.'.'.'.",
"'.'.'.'.'.'.'.'.'.'.'.'.'.'. . .*. .'.'.'.'.R @.w.X.| L @ ; 5 R  .| K s c ~ q.` o.'.'.'.'.'.'.'.'.'.'.'.'.'.'.'.'.'.'.'.'.'.'.'.",
"'.'.'.'.H.`.`.`.'.'.t '.'. . . . . .'.'.'.'.} #.y.X.E R P E R  . .' a =.e.t.-.[ | I '.'.'.'.'.'.'.'.'.'.'.'.'.'.'.'.'.'.'.'.'.'.",
"'.'.'.A.I.`.`.`.'.'.t '. .*. . . . . .'. .E | @.) x ' L U E W { [ -.) ) >.O.}  .E 5 U '.'.'.'.'. .'.'.'.'.'.'.'.'.'.'.'.'.'.'.'.",
"'.'.M.A.~.`._.I.'.I W '. . . . . . .*. . .Q Q ] / <.3 0 U O.;.( ) e.>.+.}  . . .P U  . .'.'.'.'. . .'.'.'.'.'.'.'.`.`.'.'.'.'.'.",
"'.'.l.H./.~.(.D.'.E *.*. . . . . . . . . . . .{ / 1.n x $.=.q.1.:.O.}  . . . .R L  . . .'.'.'. . . .'.'.'. .U '.'./.`.`.R.C.'.'.",
"'.'.h.M.~.E.Q.M L P U Q  . . . . . . . . . . . .%.D.!.f.G.l.$.{ |  . . . . . .R E *. . . .'.'. . .*. .'.'. .W I '.S.`.`.~.H.M.'.",
"'.'.j g.R.E.E.J P < , E  . . . . . . . .U R *.} c.G.a.s.G.T.2. .*. . . . . . .E  . . . . . . . . . . .*. .| 4 9 '.B.`.Q./.D.x.'.",
"'.'.d A n.F.P.S.w # # E *. . . . . . . .L K W { 7.s.i.i.t.f.3.|  . . . . . . .E E  . . . . . . . . . . .*.| , 1 1 j._.E.Q.z.V '.",
"'.'.d V S N k.V.k $ , E *. .*.W | *. .U t t R { <.9.i.i.9.p.;.|  . . . . . .' K E R I { *.Q  . . . . . .*.Q < < 5 k.E.K.D.F f '.",
"'.'.p k B j v.P.m & 8 Q  . . . .I U Y t t t K { :.e.0.0.t.t.#. . . . . .*.| q r t t r I *.*. .R W *. .*.Q Q P > b n.n.S S S d '.",
"'.'.'.l B N D ^.N.z K *. .'. .*.} t t t t r t K t :._ _ ) &.| *. . . . . .L t t t t t q R R L K E *.*.*.*.*.I & f S.N.j B B p '.",
"'.'.'.p j j p H J l q *. .'.'. .Q I '.t t t r t r s 2 a [ | *. . . .*. .| { K r t r t t t t r R  . .Q *.*.*.Y p j.).k.k B k '.'.",
"'.'.'.'.'.- 3 * = 2 U Q '.'.'.'.'.'.'.'.t t r t t r < L W Q  . . . . . . .R t r t t t 0 t '.'.*. . . . . .*.R z 6.b.h k m d '.'.",
"'.'.'.'.'.'.8 R R E U '.'.'.'.'.'.'.'.'.r 7 r t t R 5 t U *. . . . . . .U t L K r 7 w q '.'.'. . . . .*. . . .t = & 2 - p '.'.'.",
"'.'.'.'.'.'.'.4 4 5 '.'.'.'.'.'.'.'.'.'.'.'.3 r K E 0 I K W Q *. . .*.E U E  .I < '.'.'.'.'.'.'.'. . . . . . .W U I P '.'.'.'.'.",
"'.'.'.'.'.'.'.'.'.'.'.'.'.'.'.'.'.'.'.'.'.'.1 K t { 5 Y K W *. . . . . .Q *.} 5 '.'.'.'.'.'.'.'.'.'.'.'.'. . . . .E '.'.'.'.'.'.",
"'.'.'.'.'.'.'.'.'.'.'.'.'.'.'.'.'.'.'.'.'.'.'.P q K 8 U I  . .*. . .Q *.E U 8 '.'.'.'.'.'.'.'.'.'.'.'.'.'. .*.'.K '.'.'.'.'.'.'.",
"'.'.'.'.'.'.'.'.'.'.'.'.'.'.'.'.'.'.'.'.'.'.'.I { q 4  . . .*.*. . .*.*.L , '.'.'.'.'.'.'.'.'.'.'.'.'.'.'.'.'.'.'.'.'.'.'.'.'.'.",
"'.'.'.'.'.'.'.'.'.'.'.'.'.'.'.'.'.'.'.'.'.'.L  .E 5 5 |  . .*.Q *.Q *.*.U '.'.'.'.'.'.'.'.'.'.'.'.'.'.'.'.'.'.'.'.'.'.'.'.'.'.'.",
"'.'.'.'.'.'.'.'.'.'.'.'.'.'.'.'.'.'.'.'.'.'.q P 4 , < I  . .Q U q E *.*.W I '.'.'.'.'.'.'.'.'.'.'.'.'.'.'.'.'.'.'.'.'.'.'.'.'.'.",
"'.'.'.'.'.'.'.'.'.'.'.'.'.'.'.'.'.'.'.'.'.'.'.'.'.> 1 K E  . .8 '.5 I R U L '.'.'.'.'.'.'.'.'.'.'.'.'.'.'.'.'.'.'.'.'.'.'.'.'.'.",
"'.'.'.'.'.'.'.'.'.'.'.'.'.'.'.'.'.'.'.'.'.'.'.'.'., w r U *.R 1 '.'.'.'.'.'.'.'.'.'.'.'.'.'.'.'.'.'.'.'.'.'.'.'.'.'.'.'.'.'.'.'.",
"'.'.'.'.'.'.'.'.'.'.'.'.'.'.'.'.'.'.'.'.'.'.'.'.* 4 q K E  .P '.'.'.'.'.'.'.'.'.'.'.'.'.'.'.'.'.'.'.'.'.'.'.'.'.'.'.'.'.'.'.'.'.",
"'.'.'.'.'.'.'.'.'.'.'.'.'.'.'.'.'.'.'.'.'.'.'., L K U |  .R 1 '.'.'.'.'.'.'.'.'.'.'.'.'.'.'.'.'.'.'.'.'.'.'.'.'.'.'.'.'.'.'.'.'.",
"'.'.'.'.'.'.'.'.'.'.'.'.'.'.'.'.'.'.'.'.'.'.'.U W U  .*.E 4 '.'.'.'.'.'.'.'.'.'.'.'.'.'.'.'.'.'.'.'.'.'.'.'.'.'.'.'.'.'.'.'.'.'.",
"'.'.'.'.'.'.'.'.'.'.'.'.'.'.'.'.'.'.'.'.'.'.'.} W Q *.E 4 '.L L L L '.'.'.'.'.'.'.'.'.'.'.'.'.'.'.'.'.'.'.'.'.'.'.'.'.'.'.'.'.'.",
"'.'.'.'.'.'.'.'.'.'.'.'.'.'.'.'.'.'.'.'.'.'.'.E *.*.Q W I E  . . .W I '.'.'.'.'.'.'.'.'.'.'.'.'.'.'.'.'.'.'.'.'.'.'.'.'.'.'.'.'.",
"'.'.'.'.'.'.'.'.'.'.'.'.'.'.'.'.'.'.'.'.'.'.'.R *.Q *.*.Q Q W Q  . .K '.'.'.'.'.'.'.'.'.'.'.'.'.'.'.'.'.'.'.'.'.'.'.'.'.'.'.'.'.",
"'.'.'.'.'.'.'.'.'.'.'.'.'.'.'.'.'.'.'.'.'.'.'.L W Q *.E P 4 4 5 E  .5 '.'.'.'.'.'.'.'.'.'.'.'.'.'.'.'.'.'.'.'.'.'.'.'.'.'.'.'.'.",
"'.'.'.'.'.'.'.'.'.'.'.'.'.'.'.'.'.'.'.'.'.'.'.'.0 0 8 1 '.'.'.q W R '.'.'.'.'.'.'.'.'.'.'.'.'.'.'.'.'.'.'.'.'.'.'.'.'.'.'.'.'.'.",
"'.'.'.'.'.'.'.'.'.'.'.'.'.'.'.'.'.'.'.'.'.'.'.'.'.'.'.'.'.'.0 I I '.'.'.'.'.'.'.'.'.'.'.'.'.'.'.'.'.'.'.'.'.'.'.'.'.'.'.'.'.'.'.",
"'.'.'.'.'.'.'.'.'.'.'.'.'.'.'.'.'.'.'.'.'.'.'.'.'.'.'.'., 7 q 7 > '.'.'.'.'.'.'.'.'.'.'.'.'.'.'.'.'.'.'.'.'.'.'.'.'.'.'.'.'.'.'.",
"'.'.'.'.'.'.'.'.'.'.'.'.'.'.'.'.'.'.'.'.'.'.'.'.'.'.'.'.w 0 r 0 4 > '.'.'.'.'.'.'.'.'.'.'.'.'.'.'.'.'.'.'.'.'.'.'.'.'.'.'.'.'.'.",
"'.'.'.'.'.'.'.'.'.'.'.'.'.'.'.'.'.'.'.'.'.'.'.'.'.'.'.3 r r 1 3 r , '.'.'.'.'.'.'.'.'.'.'.'.'.'.'.'.'.'.'.'.'.'.'.'.'.'.'.'.'.'.",
"'.'.'.'.'.'.'.'.'.'.'.'.'.'.'.'.'.'.'.'.'.'.'.'.'.'.'.< 1 , '.> 1 > '.'.'.'.'.'.'.'.'.'.'.'.'.'.'.'.'.'.'.'.'.'.'.'.'.'.'.'.'.'.",
"'.'.'.'.'.'.'.'.'.'.'.'.'.'.'.'.'.'.'.'.'.'.'.'.'.'.'.'.'.'.'.3 3 '.'.'.'.'.'.'.'.'.'.'.'.'.'.'.'.'.'.'.'.'.'.'.'.'.'.'.'.'.'.'.",
"'.'.'.'.'.'.'.'.'.'.'.'.'.'.'.'.'.'.'.'.'.'.'.'.'.'.'.'.'.'.> , '.'.'.'.'.'.'.'.'.'.'.'.'.'.'.'.'.'.'.'.'.'.'.'.'.'.'.'.'.'.'.'.",
"'.'.'.'.'.'.'.'.'.'.'.'.'.'.'.'.'.'.'.'.'.'.'.'.'.'.'.'.'.'.# '.'.'.'.'.'.'.'.'.'.'.'.'.'.'.'.'.'.'.'.'.'.'.'.'.'.'.'.'.'.'.'.'.",
"'.'.'.'.'.'.'.'.'.'.'.'.'.'.'.'.'.'.'.'.'.'.'.'.'.'.'.'.'.'.'.'.'.'.'.'.'.'.'.'.'.'.'.'.'.'.'.'.'.'.'.'.'.'.'.'.'.'.'.'.'.'.'.'.",
"'.'.'.'.'.'.'.'.'.'.'.'.'.'.'.'.'.'.'.'.'.'.'.'.'.'.'.'.'.'.'.'.'.'.'.'.'.'.'.'.'.'.'.'.'.'.'.'.'.'.'.'.'.'.'.'.'.'.'.'.'.'.'.'.",
"'.'.'.'.'.'.'.'.'.'.'.'.'.'.'.'.'.'.'.'.'.'.'.'.'.'.'.'.'.'.'.'.'.'.'.'.'.'.'.'.'.'.'.'.'.'.'.'.'.'.'.'.'.'.'.'.'.'.'.'.'.'.'.'.",
"'.'.'.'.'.'.'.'.'.'.'.'.'.'.'.'.'.'.'.'.'.'.'.'.'.'.'.'.'.'.'.'.'.'.'.'.'.'.'.'.'.'.'.'.'.'.'.'.'.'.'.'.'.'.'.'.'.'.'.'.'.'.'.'.",
"'.'.'.'.'.'.'.'.'.'.'.'.'.'.'.'.'.'.'.'.'.'.'.'.'.'.'.'.'.'.'.'.'.'.'.'.'.'.'.'.'.'.'.'.'.'.'.'.'.'.'.'.'.'.'.'.'.'.'.'.'.'.'.'.",
"'.'.'.'.'.'.'.'.'.'.'.'.'.'.'.'.'.'.'.'.'.'.'.'.'.'.'.'.'.'.'.'.'.'.'.'.'.'.'.'.'.'.'.'.'.'.'.'.'.'.'.'.'.'.'.'.'.'.'.'.'.'.'.'.",
"'.'.'.'.'.'.'.'.'.'.'.'.'.'.'.'.'.'.'.'.'.'.'.'.'.'.'.'.'.'.'.'.'.'.'.'.'.'.'.'.'.'.'.'.'.'.'.'.'.'.'.'.'.'.'.'.'.'.'.'.'.'.'.'.",
"'.'.'.'.'.'.'.'.'.'.'.'.'.'.'.'.'.'.'.'.'.'.'.'.'.'.'.'.'.'.'.'.'.'.'.'.'.'.'.'.'.'.'.'.'.'.'.'.'.'.'.'.'.'.'.'.'.'.'.'.'.'.'.'.",
"'.'.'.'.'.'.'.'.'.'.'.'.'.'.'.'.'.'.'.'.'.'.'.'.'.'.'.'.'.'.'.'.'.'.'.'.'.'.'.'.'.'.'.'.'.'.'.'.'.'.'.'.'.'.'.'.'.'.'.'.'.'.'.'.",
"'.'.'.'.'.'.'.'.'.'.'.'.'.'.'.'.'.'.'.'.'.'.'.'.'.'.'.'.'.'.'.'.'.'.'.'.'.'.'.'.'.'.'.'.'.'.'.'.'.'.'.'.'.'.'.'.'.'.'.'.'.'.'.'."
};
