/* XPM */
static char *ac9b49756a6f450f900b91deb2d9dadbnlFXcYdKdCu1YSPH_5[] = {
/* columns rows colors chars-per-pixel */
"64 64 256 2 ",
"   c None",
".  c #36653F",
"X  c #28793C",
"o  c #38773A",
"O  c #000E5C",
"+  c #0F035D",
"@  c #03125C",
"#  c #041A5A",
"$  c #09135C",
"%  c #12145C",
"&  c #1C145F",
"*  c #181C5D",
"=  c #16195D",
"-  c #2A015C",
";  c #2B0B5C",
":  c #32075D",
">  c #340A5E",
",  c #2B145D",
"<  c #241B5F",
"1  c #2C1D5D",
"2  c #2C1257",
"3  c #3B125F",
"4  c #391A5F",
"5  c #0E384F",
"6  c #113D4F",
"7  c #062157",
"8  c #07215A",
"9  c #0B2B5A",
"0  c #1C2859",
"q  c #0E335A",
"w  c #12345E",
"e  c #143B5E",
"r  c #30344E",
"t  c #2C245E",
"y  c #2C295E",
"u  c #2E2B56",
"i  c #2D315E",
"p  c #2E3A5E",
"a  c #203A5F",
"s  c #2F1C60",
"d  c #371760",
"f  c #242B60",
"g  c #3D2161",
"h  c #372060",
"j  c #2C3E60",
"k  c #2B3360",
"l  c #431B60",
"z  c #401760",
"x  c #442361",
"c  c #4C2562",
"v  c #4C2C62",
"b  c #502762",
"n  c #493462",
"m  c #453962",
"M  c #473063",
"N  c #12404D",
"B  c #144E49",
"V  c #1A5646",
"C  c #19534A",
"Z  c #1A5747",
"A  c #194C5D",
"S  c #164356",
"D  c #1C535D",
"F  c #36484D",
"G  c #2E445E",
"H  c #2A4155",
"J  c #31515B",
"K  c #2D544A",
"L  c #1F6442",
"P  c #25684C",
"I  c #366440",
"U  c #396B44",
"Y  c #2A7C43",
"T  c #2A7445",
"R  c #317B45",
"E  c #276B5E",
"W  c #346759",
"Q  c #2D7A5A",
"!  c #317B5E",
"~  c #327457",
"^  c #1A4B60",
"/  c #184760",
"(  c #1D5560",
")  c #2E4E60",
"_  c #2E4460",
"`  c #344C61",
"'  c #3F4662",
"]  c #2E5461",
"[  c #215C60",
"{  c #2F5B61",
"}  c #205460",
"|  c #3E5463",
" . c #335B61",
".. c #3C5962",
"X. c #246361",
"o. c #2C6962",
"O. c #306B61",
"+. c #3A6C62",
"@. c #376561",
"#. c #2F7C63",
"$. c #2A7063",
"%. c #337462",
"&. c #317E63",
"*. c #424F5F",
"=. c #535058",
"-. c #467942",
";. c #456A4D",
":. c #444462",
">. c #414C62",
",. c #425061",
"<. c #2D8D36",
"1. c #3B8639",
"2. c #2F9034",
"3. c #3B9332",
"4. c #349B32",
"5. c #3C9B32",
"6. c #389A3B",
"7. c #3BAB2D",
"8. c #38A72D",
"9. c #3EB62E",
"0. c #3FBA2C",
"q. c #3EBB26",
"w. c #3CAE35",
"e. c #3AA63E",
"r. c #3BAB3B",
"t. c #39A333",
"y. c #3DB233",
"u. c #3FB434",
"i. c #429839",
"p. c #42AE2C",
"a. c #40BE26",
"s. c #40BD2A",
"d. c #45B937",
"f. c #49A73C",
"g. c #3FC025",
"h. c #41C325",
"j. c #46C926",
"k. c #49CC26",
"l. c #43C12A",
"z. c #4BCC2C",
"x. c #4DD226",
"c. c #4FD428",
"v. c #50D727",
"b. c #53DA27",
"n. c #51D52A",
"m. c #55DC29",
"M. c #58DE2A",
"N. c #4BC533",
"B. c #4ECA33",
"V. c #55D334",
"C. c #5ADB35",
"Z. c #5BD53E",
"A. c #5EDB3B",
"S. c #56C838",
"D. c #60DF3A",
"F. c #63D837",
"G. c #5BE329",
"H. c #5FE82A",
"J. c #57E127",
"K. c #62EC2B",
"L. c #66F12B",
"P. c #69F62C",
"I. c #6DFB2D",
"U. c #70FF2D",
"Y. c #62E533",
"T. c #66EB33",
"R. c #68EE32",
"E. c #61E239",
"W. c #6AF431",
"Q. c #6DF830",
"!. c #2F8A43",
"~. c #2C8246",
"^. c #368849",
"/. c #379D45",
"(. c #389E46",
"). c #36954D",
"_. c #37994B",
"`. c #389C4A",
"'. c #389544",
"]. c #348E55",
"[. c #32845D",
"{. c #348A5A",
"}. c #398E5A",
"|. c #359152",
" X c #3A9556",
".X c #3E9C55",
"XX c #3A9359",
"oX c #39A243",
"OX c #3EA943",
"+X c #3CA14A",
"@X c #318162",
"#X c #438045",
"$X c #409F55",
"%X c #478356",
"&X c #47AE4D",
"*X c #48AC4E",
"=X c #44A547",
"-X c #4BB44B",
";X c #4EBB49",
":X c #4BBA44",
">X c #50BE48",
",X c #5CB243",
"<X c #42A353",
"1X c #46AA50",
"2X c #49A750",
"3X c #53C445",
"4X c #57CC42",
"5X c #58CE42",
"6X c #5AD240",
"7X c black",
"8X c black",
"9X c black",
"0X c black",
"qX c black",
"wX c black",
"eX c black",
"rX c black",
"tX c black",
"yX c black",
"uX c black",
"iX c black",
"pX c black",
"aX c black",
"sX c black",
"dX c black",
"fX c black",
"gX c black",
"hX c black",
"jX c black",
"kX c black",
"lX c black",
"zX c black",
"xX c black",
"cX c black",
"vX c black",
"bX c black",
"nX c black",
"mX c black",
"MX c black",
"NX c black",
"BX c black",
"VX c black",
"CX c black",
"ZX c black",
"AX c black",
"SX c black",
"DX c black",
"FX c black",
"GX c black",
"HX c black",
"JX c black",
"KX c black",
"LX c black",
"PX c black",
"IX c black",
"UX c black",
/* pixels */
"                                                                                                                                ",
"                                                                                                                                ",
"                                                                                                                                ",
"                                                                                                                                ",
"                                                                                                                                ",
"                                                                                                                                ",
"                                                                                                                                ",
"                                                                                                                                ",
"                                                                            @X@X@X@X@X@X                                        ",
"                                                                        #.@X3XZ.Z.Z.Z.3X#.#.                                    ",
"                                                                      $X<X1XY.U.U.U.U.E.1X1X.X                                  ",
"                                                                    @X3XI.P.P.P.P.P.P.I.P.Q.;X}.                                ",
"                                                                  @X5XQ.L.k.j.j.j.j.j.j.n.P.P.4X&.                              ",
"                                                                .X4XW.K.n.g.g.x.G.J.J.v.h.b.L.T.3X@X                            ",
"                                                              .X;XU.L.n.h.x.n.H.U.U.U.L.n.h.b.Y.6X1X.X                          ",
"                                                            #.;XQ.Q.n.h.x.I.I.I.I.I.I.I.L.k.h.r.XXT.-X&.                        ",
"                                                            #.;XL.x.h.b.P.I.m.k.x.x.k.J.U.L.v.<.S l.+X#.                        ",
"                                                          @X>XV.v.h.b.L.I.m.j.w.`.+X9.k.b.m.J.6.# C !.+X@X                      ",
"                                                          @XW.G.g.h.K.P.J.g.y.^.] { '.p.h.n.C.=XN @ V !.&.                      ",
"                                                          XXT.G.h.h.K.G.h.h.|._ - ;  .).j.K.=X).8.7 @ w &.                      ",
"                                                        $XE.Q.J.g.h.K.G.h.a.F ; - l n ;.p.F u A Q # O * m                       ",
"                                                      #.$XQ.G.J.G.G.M.x.0.`.u : d c s K 8.2 + q Q X 5 & c                       ",
"                                                      XX*XK.j.m.I.I.x.g.w.W , 3 c c % B 7.r % e .Xk.Y H =.                      ",
"                                                    &.4XK.j.h.m.I.I.n.g.3.; - d c c = C a.a.V P R.P.L.T.Y.$X                    ",
"                                                    &.5XL.h.h.j.x.k.j.g.3.; - 3 x = X 8.h.h.B.F.I.x.x.x.x.Y.1X&.                ",
"                                                    *XV.m.h.h.k.n.h.g.g.3.; - 3 x $ 5.M.b.h.b.H.J.h.y.e.r.R.-X&.                ",
"                                                  .XY.B.0.k.k.J.G.j.k.k.5., ; 4 m S S.I.K.j.h.q.9.8.Q $.@XZ.2X@.                ",
"                                              &.<XR.k.`.<XW.I.J.h.h.H.J.w.Q t i }.Y.I.K.h.h.h.r.Q 7 # S @X@X,.v                 ",
"                                            @X;XA.I.k.)..XQ.I.G.k.H.m.k.s.w.1.f.Z.v.b.x.g.`.L 6 w s j X.&.,.n                   ",
"                                            @X5XI.I.k.)..XG.H.N.u.G.k.g.h.h.g.v.G.j.w.6.-.] f s s ' O.#...n                     ",
"                                            XXZ.I.L.j.oX|.y.9.oX_.g.g.k.k.k.j.q.y.5.! ` d > z v :.%.%...b                       ",
"                                          {.E.U.L.j.h.g.y.[.@XoXg.h.g.m.I.I.x.oX~ , ; - : c c :.&.@X>.v                         ",
"                                          @XT.I.I.G.j.h.s.r.w.B.G.h.g.J.I.n.OXW t - - - - c s a %.,.m                           ",
"                                        $X;XW.I.I.I.k.g.h.h.h.x.M.h.g.n.m.g.P t - - - : 3 c k ( %.v                             ",
"                                      @X;XI.P.I.I.I.x.h.j.j.h.h.g.0.g.h.a.s.r - - - - 3 c x ..&.+.v                             ",
"                                    @X3XW.I.n.K.U.I.P.P.P.L.j.h.y.{.y.h.p.{.t - - - d c x % } +.n                               ",
"                                    @X6XU.I.k.H.U.I.I.U.P.v.j.h.q.r.g.h.5.y ; - - - l b x $ ( @.c                               ",
"                                    1XZ.U.P.d.n.K.L.I.P.J.h.y.y.j.x.j.h.3.; - - - - l b x $ ^ +.:.                              ",
"                              {.{..XT.I.I.W. Xe.h.h.K.v.0.0.].OXx.P.x.q.1.; - - - - l c d $ A #.[.@X{.[.                        ",
"                      @X@X@X@X4XR.Y.k.K.K.l.].[. Xh.j.+X[.].y.n.H.k.h.. 2 - - - : x c h $ @ # C s.p.0.OX@X                      ",
"                    @X3X6X6X6XV.b.n.h.H.H.g.y.r.oX_.).[.{.r.J.J.B._.0.I - - - - - c c s @ O O 7 Z q.h.i.:.                      ",
"                    1XE.U.I.L.m.j.g.h.m.V.y.h.h.9.|.|.|.oXj.H.V.oX[.y.I - - - : 3 x g s O O 9 N C q.0.#Xc                       ",
"                #.XXW.U.I.K.j.G.G.h.h.h.OX|.0.h.h.h.g.g.g.h.l.oX@X@Xy.I - - - d v c 0 # 7 7 <.0.9.9.)...n v                     ",
"                #.XXW.U.K.j.h.K.H.h.h.`.*XT.j.q.g.h.h.q.g.q.|.@X@X@Xy.I - - - d c c 1.7.8.8.9.u.Q 5 # e %.%.:.c c               ",
"        #.#.#.#.1X5XQ.G.x.h.h.H.P.m.h.).1XI.H.J.b.h.h.n.G.n.|.@X@X@Xw.5.I I I U -.-.p.j.g.OXY C S / / ( @X-X%X| ,.n             ",
"      <X<X<X<X<X6XU.I.m.k.h.h.G.I.H.h.oX:XU.I.U.P.v.n.K.Q.Y.XX#.@X@XoX0.g.g.j.h.h.y.w.u.e.@X( 9 w #.{..X2XR.=XE ].*.n           ",
"    @XA.I.Q.Q.Q.Q.Q.I.U.G.h.h.K.H.h.h.s.v.I.U.I.I.I.Q.U.K.h.{.@X@X@X@XoXg.g.h.g.p.@X@X@X@X@X@X#.@X@Xe.n.P.U.T 6 9.].,.b v       ",
"  |.y.j.K.U.Q.-Xd.b.I.I.I.H.h.H.I.H.h.oXOXv.I.U.U.I.U.G.k.s.{.&.@X@X@X[.|.|.|.|.|.@X@X@X@X@X@X@X@X@Xe.h.x.x.w.4.h.C.F.,X+.n     ",
"@X|.h.h.x.G.I..X(.j.J.I.I.P.h.x.G.n.h.r.!.L R d.G.J.J.x.0._.D X.@X@X#.@X@X#.@X#.&.@X@X@X@X@X@X@X[.+Xy.9.oXq.j.h.j.P.I.R.oXW :.  ",
"{ ~ w.w.y.j.H.-XOXw.r.M.K.H.j.h.h.h.n.x.4.6 9 Y w.2.2.2.<.[ q ( @X@X@X@X@X@X@X{.|.|.|.].@X@X@X[._.q.g.r.@XoXq.h.n.P.T.V.h.].,.b ",
"- t &.&.oXh.l.K.;X@X[.y.h.h.h.h.h.j.P.U.G.s.{.[.E # # # # 7 $.@X@X@X@X&.@X#.@X(.h.h.g.e.@X#.#.).g.j.g.r.@X{.r.x.P.I.-X|.0.]...c ",
"    t O.].|.|..XOXy.y._.]._.q.h.w._.z.K.I.K.d.y.6.E X.~.2.4.w._.&.&.@X@X@X@X#.oXh.h.(.{.@X@X@X).g.g.e.{.@X4Xz.h.x.P.V.9.g.{.` > ",
"      i j j j O.].e.s.e.oX=XJ.x.e.{.q.H.U.I.H.k.9.oXoX0.j.h.h.y.+XoX{.@X@X@X@X|.(.(.{.#.&.@X&.{.oXoX{.{.e.n.x.g.h.b.k.s.`.J f   ",
"      - - - - ] %.{.d.s.y.l.L.v.y..Xs.J.I.I.I.J.k.k.h.h.h.g.h.h.g.g.|.@X@X{.{.{.{.{.{.[.@X#.@X@X#.@X@XoXh.g.q.d.s.y.0.e.O.,     ",
"              ; G ! ! [.@X|.g.g.v.Y.h.h.b.I.I.I.P.L.j.g.g.g.h.h.h.g.|.@X|.0.0.g.q.g.q.e.@X[.@X[.@X@XOXh.h.g.`.[.[.! [.W ,       ",
"                , t 1 f _ @X].|.r.x.h.h.j.x.x.x.x.x.h.oX|.|.].].`.g.9.y.u.h.h.h.h.h.h.r.{.r.w.N.E.D.z.g.h.`.[.$.f 1 1 1         ",
"                  - - - t ) ) O.|.OXe.e.y.g.r.e.w.g.r.|.#.#.).).oXg.g.g.h.g.h.h.g.g.g.y./.g.h.x.G.K.x.9.r.[.@._ - - -           ",
"                          - - _ O.O.O.O.^.y.{.[._.q..X].]..Xl.k.k.k.k.j.k.k.j.g.g.k.x.x.k.j.l.y.s.s.7.6.O.O.y -                 ",
"                              ; ; ; ; ; p [.@XoX0.h.T.n.B.R.P.I.W.P.I.P.P.P.x.g.k.L.P.P.P.I.-X! &.! G ; ; ;                     ",
"                                        , y $.].|. X.Xu.h.x.x.x.x.x.x.x.x.x.j.g.g.x.x.N..X.XJ f 1 1 ,                           ",
"                                          ; _ ) ] ) ) ^.r.r.e.r.r.r.e.e.r.r.r.r.e.o o U ) ) t - - -                             ",
"                                            - - - - - _ O.O.O.O.O.O.O.O.E O.O.O. .; - - - -                                     ",
"                                                      ; ; ; ; ; ; ; ; ; ; ; ; ; ;                                               ",
"                                                                                                                                "
};
