/* XPM */
static char *result[] = {
/* columns rows colors chars-per-pixel */
"64 64 181 2 ",
"   c #1B0E1B",
".  c #250E1E",
"X  c #2D0E26",
"o  c #360D21",
"O  c #310D2E",
"+  c #3D0D2F",
"@  c #3A0E23",
"#  c #2D102F",
"$  c #3C0E30",
"%  c #381535",
"&  c #26232B",
"*  c #540D29",
"=  c #430E31",
"-  c #4C0E33",
";  c #540D34",
":  c #5C0E35",
">  c #511034",
",  c #5C1238",
"<  c #470D26",
"1  c #730C2F",
"2  c #630D35",
"3  c #6A0D36",
"4  c #670F38",
"5  c #6A0F39",
"6  c #730C36",
"7  c #7A0C36",
"8  c #740E3A",
"9  c #7B0D39",
"0  c #63123B",
"q  c #6F1039",
"w  c #66173C",
"e  c #75103B",
"r  c #79103B",
"t  c #4B203F",
"y  c #57223D",
"u  c #733C3E",
"i  c #7B4635",
"p  c #3D3249",
"a  c #631C41",
"s  c #6A1842",
"d  c #761A42",
"f  c #422C46",
"g  c #532E4A",
"h  c #5D2948",
"j  c #453446",
"k  c #5C354F",
"l  c #4D3951",
"z  c #533952",
"x  c #782B44",
"c  c #782648",
"v  c #7D3B43",
"b  c #793743",
"n  c #762F54",
"m  c #623251",
"M  c #662B4A",
"N  c #56455A",
"B  c #5B455C",
"V  c #504050",
"C  c #4A4449",
"Z  c #62424F",
"A  c #7C4B45",
"S  c #76425F",
"D  c #6A4E66",
"F  c #7D4A65",
"G  c #6A5363",
"H  c #6A5369",
"J  c #6D5A6C",
"K  c #695566",
"L  c #73556D",
"P  c #79526B",
"I  c #7A596F",
"U  c #7B5E7A",
"Y  c #7D6176",
"T  c #7F6C7B",
"R  c #830E3B",
"E  c #8C0D3C",
"W  c #820D36",
"Q  c #940C3C",
"!  c #9C0C3D",
"~  c #81143C",
"^  c #8D123E",
"/  c #92153C",
"(  c #A40C3E",
")  c #AA0B3E",
"_  c #B30A3F",
"`  c #B90A3F",
"'  c #892E32",
"]  c #96523F",
"[  c #9B5D3B",
"{  c #AB5F3E",
"}  c #9E612F",
"|  c #A56A3B",
" . c #A7683B",
".. c #B16E3D",
"X. c #B9673F",
"o. c #BA7B39",
"O. c #C67E2E",
"+. c #940D41",
"@. c #861143",
"#. c #9B1345",
"$. c #941048",
"%. c #AA0D41",
"&. c #B30B41",
"*. c #BD0A40",
"=. c #A31545",
"-. c #A91644",
";. c #82234A",
":. c #9A2047",
">. c #9A3746",
",. c #C10A40",
"<. c #824649",
"1. c #954A42",
"2. c #934743",
"3. c #865148",
"4. c #955E42",
"5. c #924254",
"6. c #A45842",
"7. c #834D68",
"8. c #836A7C",
"9. c #8E6079",
"0. c #BE802D",
"q. c #C9882F",
"w. c #D5922D",
"e. c #CB8B32",
"r. c #CB8A3A",
"t. c #C38533",
"y. c #DC9834",
"u. c #E29C2E",
"i. c #E19C31",
"p. c #EBA32D",
"a. c #F3A92E",
"s. c #FFB62F",
"d. c #BE8856",
"f. c #C08B63",
"g. c #CB9D68",
"h. c #DDAD6F",
"j. c #D6A870",
"k. c #996F87",
"l. c #8E7080",
"z. c #927285",
"x. c #937589",
"c. c #9B7B8E",
"v. c #987889",
"b. c #9C7B90",
"n. c #8D8289",
"m. c #91848B",
"M. c #9D8D94",
"N. c #9D8292",
"B. c #B18B80",
"V. c #A38293",
"C. c #AB8D99",
"Z. c #A78C97",
"A. c #AA9D9D",
"S. c #A9949B",
"D. c #BF9A91",
"F. c #A780A9",
"G. c #AD9FA2",
"H. c #B798A6",
"J. c #BFA5AB",
"K. c #BCAEAA",
"L. c #B8A4A6",
"P. c #DAB796",
"I. c #C5ABAC",
"U. c #C3A3AF",
"Y. c #C5AEB2",
"T. c #CBB5B6",
"R. c #D3BCBD",
"E. c #D3B3BC",
"W. c #D1A9C4",
"Q. c #DCC7C6",
"!. c #DECCC7",
"~. c #E2C6C9",
"^. c #E5CCCC",
"/. c #E8D2CB",
"(. c #EEDAD4",
"). c #EAD6D1",
"_. c #F0D8D5",
"`. c #F6E4DC",
"'. c #FFEEE4",
"]. c #FFF0E5",
"[. c None",
/* pixels */
"[.[.[.[.[.[.[.[.[.[.[.[.[.[.[.[.[.[.[.[.[.[.[.[.[.[.[.[.[.[.[.[.[.[.[.[.[.[.[.[.[.[.[.[.[.[.[.[.[.[.[.[.[.[.[.[.[.[.[.[.[.[.[.[.",
"[.[.[.[.[.[.[.[.[.[.[.[.[.[.[.[.[.[.[.[.[.[.[.[.[.[.[.[.[.[.[.[.[.[.[.[.[.[.[.[.[.[.[.[.[.[.[.[.[.[.[.[.[.[.[.[.[.[.[.[.[.[.[.[.",
"[.[.[.[.[.[.[.[.[.[.[.[.[.[.[.[.[.[.[.[.[.[.[.[.[.[.[.[.[.[.[.[.[.[.[.[.[.[.[.[.[.[.[.[.[.[.[.[.[.[.[.[.[.[.[.[.[.[.[.[.[.[.[.[.",
"[.[.[.[.[.[.[.[.[.[.[.[.[.[.[.[.[.[.[.[.[.[.[.[.[.[.[.[.[.[.[.[.[.[.[.[.[.[.[.[.[.[.[.[.[.[.[.[.[.[.[.[.[.[.[.[.[.[.[.[.[.[.[.[.",
"[.[.[.[.[.[.[.[.[.[.[.[.[.[.[.[.[.[.[.[.[.[.[.[.[.[.[.[.[.[.[.[.[.[.[.[.[.[.[.[.[.[.[.[.[.[.[.[.[.[.[.[.[.[.[.[.[.[.[.[.[.[.[.[.",
"[.[.[.[.[.[.[.[.[.[.[.[.[.[.[.[.[.[.[.[.[.[.[.[.[.[.[.[.[.[.[.[.[.[.[.[.[.[.[.[.[.[.[.[.[.[.[.[.[.[.[.[.[.[.[.[.[.[.[.[.[.[.[.[.",
"[.[.[.[.[.[.[.[.[.[.[.[.[.[.[.[.[.[.[.[.[.[.[.[.[.[.[.[.[.[.[.[.[.[.[.[.[.[.[.[.[.[.[.[.[.[.[.[.[.[.[.[.[.[.[.[.[.[.[.[.[.[.[.[.",
"[.[.[.[.[.[.[.[.[.[.[.[.[.[.[.[.[.[.[.[.[.[.[.[.[.[.[.[.[.[.[.[.[.[.[.[.[.[.[.[.[.[.[.[.[.[.[.[.[.[.[.[.[.[.[.[.[.[.[.[.[.[.[.[.",
"[.[.[.[.[.[.[.[.[.[.[.[.[.[.[.[.[.[.[.[.[.[.[.[.[.[.[.[.[.[.[.[.[.[.[.[.[.[.[.[.[.[.[.[.[.[.[.[.[.[.[.[.[.[.[.[.[.[.[.[.[.[.[.[.",
"[.[.[.[.[.[.[.[.[.[.[.[.[.[.[.[.[.[.[.[.[.[.[.[.[.[.z.8.[.[.[.[.[.[.[.[.[.[.[.[.[.[.[.[.[.[.[.[.[.[.[.[.[.[.[.[.[.[.[.[.[.[.[.[.",
"[.[.[.[.[.[.[.[.[.[.[.[.[.[.[.[.[.[.[.[.[.[.[.[.S.R.`.).U.[.[.[.[.[.[.[.[.[.[.[.[.[.[.[.[.[.[.[.[.[.[.[.[.[.[.[.[.[.[.[.[.[.[.[.",
"[.[.[.[.[.[.[.[.[.[.[.[.[.[.[.[.[.[.[.[.[.[.[.l.(.].'.'.(.V.[.[.[.[.[.[.[.[.[.[.[.[.[.[.[.[.[.[.[.[.[.[.[.[.[.[.[.[.[.[.[.[.[.[.",
"[.[.[.[.[.[.[.[.[.[.[.[.[.[.[.[.[.[.[.[.[.[.[.S.`.].'.].^.H.B $ [.[.[.[.[.[.[.[.[.[.[.[.[.[.[.[.[.[.[.[.[.[.[.[.[.[.[.[.[.[.[.[.",
"[.[.[.[.[.[.[.[.[.[.[.[.[.[.[.[.[.[.[.[.[.[.I.!.~.~.(./.`.E.m 2 = [.[.[.[.[.[.[.[.[.[.[.[.[.[.[.[.[.[.[.[.[.[.[.[.[.[.[.[.[.[.[.",
"[.[.[.[.[.[.[.[.[.[.[.[.[.[.[.[.[.[.[.[.[.h G l U.E.c.j L.C.: ; + [.[.[.[.[.[.[.[.[.[.[.[.[.[.[.[.[.[.[.[.[.[.[.[.[.[.[.[.[.[.[.",
"[.[.[.[.[.[.[.[.[.[.[.[.[.[.[.[.[.[.[.[.- E h F.M.K.W.Y I F 6 ! 2 [.[.[.[.[.[.[.[.[.[.[.[.[.[.[.[.[.[.[.[.[.[.[.[.[.[.[.[.[.[.[.",
"[.[.[.[.[.[.[.[.[.[.[.[.[.[.[.[.[.[.[.[.[.W c T.A.K.Q.F w 1 ) E [.[.[.[.[.[.[.[.[.[.[.[.[.[.[.[.[.[.[.[.[.[.[.[.[.[.[.[.[.[.[.[.",
"[.[.[.[.[.[.[.[.[.[.[.[.[.[.[.[.[.[.[.[.[.[.- Z & C G 2 / ) _ E = [.[.[.[.[.[.[.[.[.[.[.[.[.[.[.[.[.[.[.[.[.[.[.[.[.[.[.[.[.[.[.",
"[.[.[.[.[.[.[.[.[.[.[.[.[.[.[.[.[.[.[.[.[.[.- 6 <   o ~ ^ ( ) ! 0 w <.3.[.[.[.[.[.[.[.[.[.[.[.[.[.[.[.[.[.[.[.[.[.[.[.[.[.[.[.[.",
"[.[.[.[.[.[.[.[.[.[.[.[.[.[.[.[.[.[.[.[.[.[.= e 7 . @ q ~ ~ 9 ~ E c r.6.+.E [.[.[.[.[.[.[.[.[.[.[.[.[.[.[.[.[.[.[.[.[.[.[.[.[.[.",
"[.[.[.[.[.[.[.[.[.[.[.[.[.[.[.[.[.[.[.[.[.[.[.~ 1 X * 7 ) &.R r +.2.r.:.,.Q [.[.[.[.[.[.[.[.[.[.[.[.[.[.[.[.[.[.[.[.[.[.[.[.[.[.",
"[.[.[.[.[.[.[.[.[.[.[.[.[.[.[.[.[.[.[.[.[.[.[ #.! 9 o . 7 &.Q 8 s ..2.%.( 9 6 [.[.[.[.[.[.[.[.[.[.[.[.[.[.[.[.[.[.[.[.[.[.[.[.[.",
"[.[.[.[.[.[.[.[.[.[.[.[.[.[.[.[.[.[.[.R / O.O.$.` W .   7 ` %.d ..r.:._ ~ ! *.9 [.[.[.[.[.[.[.[.[.[.[.[.[.[.[.[.[.[.[.[.[.[.[.[.",
"[.[.[.[.[.[.[.[.[.[.[.[.[.[.[.[.[.[.[.8 %.4.| #.` ` 1 1 ` ,.=. .y.1.Q _ ( *.%.9 = [.[.[.[.[.[.[.[.[.[.[.[.[.[.[.[.[.[.[.[.[.[.[.",
"[.[.[.[.[.[.[.[.[.[.[.[.[.[.[.[.[.[.[.: %.>.r.>.( %.E _ ,.-.X.e.v 0 ; ! ,._ Q R - [.[.[.[.[.[.[.[.[.[.[.[.[.[.[.[.[.[.[.[.[.[.[.",
"[.[.[.[.[.[.[.[.[.[.[.[.[.[.[.[.[.[.6 9 ! =...] #.W R _ -.6.e.i : 6 ! _ ) E r r 2 [.[.[.[.[.[.[.[.[.[.[.[.[.[.[.[.[.[.[.[.[.[.[.",
"[.[.[.[.[.[.[.[.[.[.[.[.[.[.[.[.[.[._ *.( %.x t.X.d @.+.6.y.u ; Q &.) ! ! ~ r r q [.[.[.[.[.[.[.[.[.[.[.[.[.[.[.[.[.[.[.[.[.[.[.",
"[.[.[.[.[.[.[.[.[.[.[.[.[.[.[.[.[.e ) ! ~ ^ e 1.d.H.D.f.B.<.2 ( ,.) ( ! 9 r e r e - [.[.[.[.[.[.[.[.[.[.[.[.[.[.[.[.[.[.[.[.[.[.",
"[.[.[.[.[.[.[.[.[.[.[.[.[.[.[.[.[.6 ! ~ 8 2 2 n I.P.j.h./.9.W *.*.*.( 9 e r r e r : [.[.[.[.[.[.[.[.[.[.[.[.[.[.[.[.[.[.[.[.[.[.",
"[.[.[.[.[.[.[.[.[.[.[.[.[.[.[.E ! _ %.r e e : S g.i.p.y.g.5._ ,.*.*.( ~ r r e e e 5 [.[.[.[.[.[.[.[.[.[.[.[.[.[.[.[.[.[.[.[.[.[.",
"[.[.[.[.[.[.[.[.[.[.R Q E ^ ! &.*.*.E e e r 0 A e.a.s.p.[ #.` ,.*.*.*.Q r 5 : ; 5 5 [.[.[.[.[.[.[.[.[.[.[.[.[.[.[.[.[.[.[.[.[.[.",
"[.[.[.[.[.[.[.[.[.[.! &.) ( ( ( _ _ ! e e r s  .w.a.a.O.' &.,.` *.,.) R r 0 ; : e 5 [.[.[.[.[.[.[.[.[.[.[.[.[.[.[.[.[.[.[.[.[.[.",
"[.[.[.[.[.[.[.[.[.[.! 6 = 3 ! ) ( ( ~ r d 9 9 b o.t.q.} ~ ( %.*.*.*.Q e r 5 : r r 5 [.[.[.[.[.[.[.[.[.[.[.[.[.[.[.[.[.[.[.[.[.[.",
"[.[.[.[.[.[.[.[.[.[.Q ; O O + 2 / Q ) @.9 8 5 5 c A b y ( ) ( ! ! #.9 9 r e 2 5 r 5 [.[.[.[.[.[.[.[.[.[.[.[.[.[.[.[.[.[.[.[.[.[.",
"[.[.[.[.[.[.[.[.[.[.[.R + % f Y L j @.&.E : $ 2 6 a I Z.w w c %.( ( ) ) ( E e ; r 0 [.[.[.[.[.[.[.[.[.[.[.[.[.[.[.[.[.[.[.[.[.[.",
"[.[.[.[.[.[.[.[.[.[.[.~ M x.C.R.b.Y F #.%.= O ; - D G.M.n.K z.g = 3 7 6 Q ` 8 , e ; [.[.[.[.[.[.[.[.[.[.[.[.[.[.[.[.[.[.[.[.[.[.",
"[.[.[.[.[.[.[.[.[.[.[.P V.~./.!.8.b.n ( 6 [.[.= t x.N 8.Y.K T N X O O O + ! 6 : : [.[.[.[.[.[.[.[.[.[.[.[.[.[.[.[.[.[.[.[.[.[.[.",
"[.[.[.[.[.[.[.[.[.[.I v.J.E.Q.J J R.k ; [.[.[.[.g H B b.H l T.m.f O O O $ ( 6 = [.[.[.[.[.[.[.[.[.[.[.[.[.[.[.[.[.[.[.[.[.[.[.[.",
"[.[.[.[.[.[.[.[.[.[.l k.Y c.J [.A.G.[.[.[.[.[.~ L b.B F h K N.S.Z.# + 2 Q ! ; [.[.[.[.[.[.[.[.[.[.[.[.[.[.[.[.[.[.[.[.[.[.[.[.[.",
"[.[.[.[.[.[.[.[.[.[.[.p [.[.[.[.[.p [.[.[.[.Q %.d d ~ ) #.k.K x.7.6 Q ! 7 [.[.[.[.[.[.[.[.[.[.[.[.[.[.[.[.[.[.[.[.[.[.[.[.[.[.[.",
"[.[.[.[.[.[.[.[.[.[.[.[.[.[.[.[.[.[.[.[.[.[.Q *.,.` ,.,.*.c z U a ! W 2 [.[.[.[.[.[.[.[.[.[.[.[.[.[.[.[.[.[.[.[.[.[.[.[.[.[.[.[.",
"[.[.[.[.[.[.[.[.[.[.[.[.[.[.[.[.[.[.[.[.[.[.9 *.,.` ,.` ,.*.! ^ E Q ) ( ( [.[.[.[.[.[.[.[.[.[.[.[.[.[.[.[.[.[.[.[.[.[.[.[.[.[.[.",
"[.[.[.[.[.[.[.[.[.[.[.[.[.[.[.[.[.[.[.[.[.[.: ( ` ,.,.` *.*.,.,.,.` *.*.*.E [.[.[.[.[.[.[.[.[.[.[.[.[.[.[.[.[.[.[.[.[.[.[.[.[.[.",
"[.[.[.[.[.[.[.[.[.[.[.[.[.[.[.[.[.[.[.[.[.[.[.[.7 E _ ` *.&.*.&.Q ; Q ,.` 3 [.[.[.[.[.[.[.[.[.[.[.[.[.[.[.[.[.[.[.[.[.[.[.[.[.[.",
"[.[.[.[.[.[.[.[.[.[.[.[.[.[.[.[.[.[.[.[.[.[.[.[.[.[.: 2 2 2 2 2 [.= ! ` Q [.[.[.[.[.[.[.[.[.[.[.[.[.[.[.[.[.[.[.[.[.[.[.[.[.[.[.",
"[.[.[.[.[.[.[.[.[.[.[.[.[.[.[.[.[.[.[.[.[.[.[.[.[.[.[.[.[.[.[.[.2 E ) Q [.[.[.[.[.[.[.[.[.[.[.[.[.[.[.[.[.[.[.[.[.[.[.[.[.[.[.[.",
"[.[.[.[.[.[.[.[.[.[.[.[.[.[.[.[.[.[.[.[.[.[.[.[.[.[.[.[.[.[.; 2 3 2 ; [.[.[.[.[.[.[.[.[.[.[.[.[.[.[.[.[.[.[.[.[.[.[.[.[.[.[.[.[.",
"[.[.[.[.[.[.[.[.[.[.[.[.[.[.[.[.[.[.[.[.[.[.[.[.[.[.[.[.; 4 e 4 - $ [.[.[.[.[.[.[.[.[.[.[.[.[.[.[.[.[.[.[.[.[.[.[.[.[.[.[.[.[.[.",
"[.[.[.[.[.[.[.[.[.[.[.[.[.[.[.[.[.[.[.[.[.[.[.[.[.[.[.: e r e 5 q : [.[.[.[.[.[.[.[.[.[.[.[.[.[.[.[.[.[.[.[.[.[.[.[.[.[.[.[.[.[.",
"[.[.[.[.[.[.[.[.[.[.[.[.[.[.[.[.[.[.[.[.[.[.[.[.[.[.[., q 5 ; [.= ; [.[.[.[.[.[.[.[.[.[.[.[.[.[.[.[.[.[.[.[.[.[.[.[.[.[.[.[.[.[.",
"[.[.[.[.[.[.[.[.[.[.[.[.[.[.[.[.[.[.[.[.[.[.[.[.[.[.[.[.= [.[.[.= - [.[.[.[.[.[.[.[.[.[.[.[.[.[.[.[.[.[.[.[.[.[.[.[.[.[.[.[.[.[.",
"[.[.[.[.[.[.[.[.[.[.[.[.[.[.[.[.[.[.[.[.[.[.[.[.[.[.[.[.[.[.[.O [.[.[.[.[.[.[.[.[.[.[.[.[.[.[.[.[.[.[.[.[.[.[.[.[.[.[.[.[.[.[.[.",
"[.[.[.[.[.[.[.[.[.[.[.[.[.[.[.[.[.[.[.[.[.[.[.[.[.[.[.[.[.[.[.[.[.[.[.[.[.[.[.[.[.[.[.[.[.[.[.[.[.[.[.[.[.[.[.[.[.[.[.[.[.[.[.[.",
"[.[.[.[.[.[.[.[.[.[.[.[.[.[.[.[.[.[.[.[.[.[.[.[.[.[.[.[.[.[.[.[.[.[.[.[.[.[.[.[.[.[.[.[.[.[.[.[.[.[.[.[.[.[.[.[.[.[.[.[.[.[.[.[.",
"[.[.[.[.[.[.[.[.[.[.[.[.[.[.[.[.[.[.[.[.[.[.[.[.[.[.[.[.[.[.[.[.[.[.[.[.[.[.[.[.[.[.[.[.[.[.[.[.[.[.[.[.[.[.[.[.[.[.[.[.[.[.[.[.",
"[.[.[.[.[.[.[.[.[.[.[.[.[.[.[.[.[.[.[.[.[.[.[.[.[.[.[.[.[.[.[.[.[.[.[.[.[.[.[.[.[.[.[.[.[.[.[.[.[.[.[.[.[.[.[.[.[.[.[.[.[.[.[.[.",
"[.[.[.[.[.[.[.[.[.[.[.[.[.[.[.[.[.[.[.[.[.[.[.[.[.[.[.[.[.[.[.[.[.[.[.[.[.[.[.[.[.[.[.[.[.[.[.[.[.[.[.[.[.[.[.[.[.[.[.[.[.[.[.[.",
"[.[.[.[.[.[.[.[.[.[.[.[.[.[.[.[.[.[.[.[.[.[.[.[.[.[.[.[.[.[.[.[.[.[.[.[.[.[.[.[.[.[.[.[.[.[.[.[.[.[.[.[.[.[.[.[.[.[.[.[.[.[.[.[.",
"[.[.[.[.[.[.[.[.[.[.[.[.[.[.[.[.[.[.[.[.[.[.[.[.[.[.[.[.[.[.[.[.[.[.[.[.[.[.[.[.[.[.[.[.[.[.[.[.[.[.[.[.[.[.[.[.[.[.[.[.[.[.[.[.",
"[.[.[.[.[.[.[.[.[.[.[.[.[.[.[.[.[.[.[.[.[.[.[.[.[.[.[.[.[.[.[.[.[.[.[.[.[.[.[.[.[.[.[.[.[.[.[.[.[.[.[.[.[.[.[.[.[.[.[.[.[.[.[.[.",
"[.[.[.[.[.[.[.[.[.[.[.[.[.[.[.[.[.[.[.[.[.[.[.[.[.[.[.[.[.[.[.[.[.[.[.[.[.[.[.[.[.[.[.[.[.[.[.[.[.[.[.[.[.[.[.[.[.[.[.[.[.[.[.[.",
"[.[.[.[.[.[.[.[.[.[.[.[.[.[.[.[.[.[.[.[.[.[.[.[.[.[.[.[.[.[.[.[.[.[.[.[.[.[.[.[.[.[.[.[.[.[.[.[.[.[.[.[.[.[.[.[.[.[.[.[.[.[.[.[.",
"[.[.[.[.[.[.[.[.[.[.[.[.[.[.[.[.[.[.[.[.[.[.[.[.[.[.[.[.[.[.[.[.[.[.[.[.[.[.[.[.[.[.[.[.[.[.[.[.[.[.[.[.[.[.[.[.[.[.[.[.[.[.[.[.",
"[.[.[.[.[.[.[.[.[.[.[.[.[.[.[.[.[.[.[.[.[.[.[.[.[.[.[.[.[.[.[.[.[.[.[.[.[.[.[.[.[.[.[.[.[.[.[.[.[.[.[.[.[.[.[.[.[.[.[.[.[.[.[.[."
};
