/* XPM */
static char *ac9b49756a6f450f900b91deb2d9dadbnlFXcYdKdCu1YSPH_6[] = {
/* columns rows colors chars-per-pixel */
"64 64 256 2 ",
"   c None",
".  c #36663F",
"X  c #376C3D",
"o  c #26793D",
"O  c #38763C",
"+  c #387A3A",
"@  c #000C5D",
"#  c #11075C",
"$  c #03125C",
"%  c #0C145D",
"&  c #041B5A",
"*  c #0C1A5D",
"=  c #16165F",
"-  c #2A015C",
";  c #2B0B5C",
":  c #340A5E",
">  c #350A5E",
",  c #2C1357",
"<  c #2B155D",
"1  c #2C1E5D",
"2  c #22195F",
"3  c #3B125F",
"4  c #113E4E",
"5  c #072357",
"6  c #0C2B5D",
"7  c #092757",
"8  c #162B5B",
"9  c #0E3355",
"0  c #10355E",
"q  c #133B5F",
"w  c #123552",
"e  c #30364E",
"r  c #2D245D",
"t  c #2D2A5B",
"y  c #2E345D",
"u  c #2D3A5E",
"i  c #223953",
"p  c #3B2459",
"a  c #251860",
"s  c #321E60",
"d  c #3E1360",
"f  c #2C2A60",
"g  c #342460",
"h  c #3F2361",
"j  c #2D3B60",
"k  c #343761",
"l  c #4C375B",
"z  c #441C60",
"x  c #432361",
"c  c #4C2562",
"v  c #4C2B62",
"b  c #493462",
"n  c #463E62",
"m  c #473762",
"M  c #12434C",
"N  c #154B4A",
"B  c #18485C",
"V  c #1C545F",
"C  c #1E5956",
"Z  c #195447",
"A  c #215249",
"S  c #2E445E",
"D  c #304053",
"F  c #2F505A",
"G  c #365559",
"H  c #32564E",
"J  c #1E6344",
"K  c #236C47",
"L  c #356743",
"P  c #267348",
"I  c #337849",
"U  c #27695F",
"Y  c #30635B",
"T  c #356B58",
"R  c #2A7458",
"E  c #317E5B",
"W  c #377753",
"Q  c #194960",
"!  c #1C5260",
"~  c #2E4E61",
"^  c #2E4560",
"/  c #354661",
"(  c #2F5461",
")  c #235E61",
"_  c #2F5C61",
"`  c #3C5662",
"'  c #375962",
"]  c #266961",
"[  c #296862",
"{  c #3A6362",
"}  c #316B61",
"|  c #356761",
" . c #2B7361",
".. c #2F7C63",
"X. c #347462",
"o. c #317E62",
"O. c #46594E",
"+. c #42695D",
"@. c #434562",
"#. c #414D62",
"$. c #415261",
"%. c #2B8637",
"&. c #2B843A",
"*. c #2E8C36",
"=. c #2F9034",
"-. c #319534",
";. c #3B9333",
":. c #339C32",
">. c #359B3C",
",. c #379939",
"<. c #35A22E",
"1. c #3EA62D",
"2. c #3BAB2D",
"3. c #3FBE27",
"4. c #3DB62D",
"5. c #3FB92D",
"6. c #3CAF36",
"7. c #3AA53D",
"8. c #3BAA3C",
"9. c #3AA039",
"0. c #3DB234",
"q. c #439438",
"w. c #42AB2D",
"e. c #40BE27",
"r. c #41BE29",
"t. c #40B627",
"y. c #44BD33",
"u. c #42B43C",
"i. c #46B438",
"p. c #4EAB3B",
"a. c #3FC025",
"s. c #42C325",
"d. c #46C926",
"f. c #49CD26",
"g. c #44C329",
"h. c #49C72D",
"j. c #4BCD2B",
"k. c #47C828",
"l. c #4DD227",
"z. c #4FD22A",
"x. c #51D727",
"c. c #53D927",
"v. c #51D529",
"b. c #55DB29",
"n. c #58DE2C",
"m. c #46C131",
"M. c #49C434",
"N. c #4DC23D",
"B. c #54CD3C",
"V. c #56C037",
"C. c #5BD935",
"Z. c #5BD53E",
"A. c #5EDB3B",
"S. c #56D633",
"D. c #60DF3A",
"F. c #59E227",
"G. c #5BE32A",
"H. c #5FE82A",
"J. c #62EC2B",
"K. c #66F12B",
"L. c #69F62C",
"P. c #6DFB2D",
"I. c #70FF2D",
"U. c #62E535",
"Y. c #66EB34",
"T. c #68EE33",
"R. c #62E239",
"E. c #6AF331",
"W. c #67F030",
"Q. c #2D8248",
"!. c #35854C",
"~. c #378A49",
"^. c #399E46",
"/. c #36944D",
"(. c #379A4A",
"). c #369944",
"_. c #308454",
"`. c #348E55",
"'. c #32845E",
"]. c #358A5C",
"[. c #388F5C",
"{. c #3E875A",
"}. c #359253",
"|. c #3D9C54",
" X c #3A925A",
".X c #3B9956",
"XX c #39A342",
"oX c #3DA14C",
"OX c #318161",
"+X c #409F55",
"@X c #50944A",
"#X c #45AB4C",
"$X c #48AF4E",
"%X c #40A646",
"&X c #4AB34C",
"*X c #4FBC49",
"=X c #47B247",
"-X c #50BE47",
";X c #5DB343",
":X c #42A353",
">X c #46A950",
",X c #4EC042",
"<X c #52C346",
"1X c #56CC42",
"2X c #58CE41",
"3X c #59D140",
"4X c black",
"5X c black",
"6X c black",
"7X c black",
"8X c black",
"9X c black",
"0X c black",
"qX c black",
"wX c black",
"eX c black",
"rX c black",
"tX c black",
"yX c black",
"uX c black",
"iX c black",
"pX c black",
"aX c black",
"sX c black",
"dX c black",
"fX c black",
"gX c black",
"hX c black",
"jX c black",
"kX c black",
"lX c black",
"zX c black",
"xX c black",
"cX c black",
"vX c black",
"bX c black",
"nX c black",
"mX c black",
"MX c black",
"NX c black",
"BX c black",
"VX c black",
"CX c black",
"ZX c black",
"AX c black",
"SX c black",
"DX c black",
"FX c black",
"GX c black",
"HX c black",
"JX c black",
"KX c black",
"LX c black",
"PX c black",
"IX c black",
"UX c black",
/* pixels */
"                                                                                                                                ",
"                                                                                                                                ",
"                                                                                                                                ",
"                                                                                                                                ",
"                                                                                                                                ",
"                                                                                                                                ",
"                                                                                                                                ",
"                                                                             X X[.[. X[.                                        ",
"                                                                        OX'.3XE.T.T.T.2XOXOX                                    ",
"                                                                      $XZ.A.E.I.I.I.I.E.A.Z.>X                                  ",
"                                                                    :X3XP.J.J.J.J.J.J.J.K.P.1X:X                                ",
"                                                                   XD.L.H.s.s.s.d.g.d.d.j.K.P.3X X                              ",
"                                                                +XY.L.H.d.s.3.b.L.L.L.L.J.f.H.P.R.].                            ",
"                                                              >X3XP.H.f.g.F.H.J.I.I.I.I.L.H.n.z.*X<X:X                          ",
"                                                            o.*XP.J.f.d.F.I.K.J.J.J.J.H.J.J.x.>.R G.$Xo.                        ",
"                                                            OX*XK.s.s.n.P.L.z.s.r.e.s.s.s.s.d.&.7 2.(.OX                        ",
"                                                          ].3XC.f.s.H.L.K.l.s.8.}.}.0.a.a.a.F.p.$ 9 &.7.OX                      ",
"                                                          OXY.F.s.s.l.b.l.s.8.T j u !.9.d.F.B.%XJ & 4 K OX                      ",
"                                                          $XT.G.s.s.l.d.s.s.W t - : / @Xe.p.W R ).5 @ 8 {                       ",
"                                                      o.:XP.P.G.s.s.J.b.s.5.e - : x v O.w., # 0  .5 $ = c                       ",
"                                                      o.+XL.c.b.K.J.c.d.t.`.f 3 z c a A 1., # 0 OX-.N = c                       ",
"                                                      &XB.b.s.n.I.I.z.s.:.u ; 3 c c % N 4.O w N 1XG.i.@X@X{.                    ",
"                                                    OX2XK.s.e.b.P.K.f.s.;.- - 3 c x 8 J s.d.P I P.L.L.L.L.>X X                  ",
"                                                    OX3XJ.s.d.F.K.d.s.s.;.; - 3 x % *.e.s.s.b.L.K.d.s.s.k.J.&Xo.                ",
"                                                  OX3Xn.d.d.H.L.K.s.s.s.;.- - 3 z % p.L.H.s.d.l.f.d.XX[..XY.&XOX                ",
"                                                 X&XG.G.c.b.L.I.J.s.l.l.9.u ; g ` I C.L.F.d.a.3.9.&.C ! OX&X@X`                 ",
"                                               X&XE.m.n.I.I.I.L.H.l.H.b.0.`.D H :XJ.L.G.a.4.2.Q.) * * Q OXX.@.c                 ",
"                                            OX1XP.E.|.1XI.P.I.F.l.L.l.s.s.r.t.b.T.d.d.g.5.].B & * x ` ..o.n                     ",
"                                            o.1XL.z.].u.F.P.I.F.d.l.d.a.d.H.d.f.x.s.XX!.O.t g s f ' X.X.@.                      ",
"                                            $XR.K.r.XX^.u.H.H.M.6.a.a.l.G.I.x.0.^.O H k z 3 z v $.o.{ #.c                       ",
"                                          ].Y.I.J.d.s.^./.:.<.).(.s.5.S.P.K.h.~._ ; - - - z x / o.X.#.c                         ",
"                                          ].Y.I.J.g.s.s.-.5 & J s.3./.*XK.k.(.S - - - - : c < q X.b                             ",
"                                        :XZ.P.P.L.H.f.a.4.%.%.<.0.(.'.%Xl.s.H a - - - : z c / ] X.v                             ",
"                                      :X3XP.H.H.J.L.f.a.a.d.s.a.0.OX..XX3.XXt - - - > z x s _ X.` v                             ",
"                                    OX2XI.L.g.e.l.L.l.d.d.d.d.d.0.OX'.XX6.E r - - - z v z % ! { c                               ",
"                                    OX2XI.E.|.8.l.P.L.L.K.K.L.b.0.OX8.s.;., - - - - z c x $ ! { c                               ",
"                                o.[.2XT.P.L. X8.l.L.I.I.P.P.b.f.k.B.d.d.;.- - - - - z c x % ! X.{ o.o.                          ",
"                              +X:X&XE.L.J.U.oXXXg.J.L.I.P.H.y.8.m.J.l.1.X - - - - : z x s @ Q R }.}./.}.                        ",
"                      [.[.].[.Z.L.P.L.b.s.s.s./.}.g.K.L.H.g._.o.}.s.s.. - - - - : c c g @ $ @ N 4.3.a.7.X.                      ",
"                    OX3XY.Y.Y.E.I.L.f.d.s.s.s.(.`.s.d.f.d.4.w Q }.r.s.L - - - - - c c s @ $ @ & M 4.s.q.b                       ",
"                   X3XE.K.c.x.K.I.L.J.l.e.a.s.0.=.N N N N N V Q.7.(.5.L - - - : z c 2 % @ @ Z &.=.a.6.+.c                       ",
"                o. XE.L.b.s.j.S.R.K.J.l.d.l.s.s.<.M 4 M 4 M _.8.0.OX0.. - - - 3 c c i M M M =.s.6.-.R ( n                       ",
"                OX:XE.x.d.f.L.&X/.r.s.s.c.L.l.s.s.3.3.3.r.r.r.s.0.'.0.X , , , p l l q.a.3.4.4.>.U 7 & q X.@.                    ",
"              OX*XE.L.L.L.L.I.$XOX}.r.s.c.P.L.x.3.s.s.s.s.s.s.s.0.OX0.t.1.1.2.1.w.w.e.s.4.`.C 5 6 ]  .X.OXX.@.c                 ",
"        o.......-XI.P.I.K.H.P.A.=X7.e.8.N.I.I.J.c.s.s.s.s.s.s.s.0.OX/.0.d.s.s.d.s.s.s.s.5.'.q @ &  .OXOXOX(.W #.c c             ",
"      :X:X:X:X:XZ.I.I.K.c.d.H.J.b.s.s.XX#XA.L.I.L.l.s.s.s.s.f.f.4.}.'./.0.0.8.0.0.0.0.0.8.'.V 6 q ..`..X:Xr.(.X.@.@.n           ",
"    '.A.P.P.E.P.L.I.L.l.s.s.s.s.s.s.s.s.8.[.Y.P.I.L.j.s.s.d.K.b.s.r.}.OXOXOXOXOXOXOXOXOXOXOX........XXx.P.j.(.OXo.E $.v c       ",
"  }.0.h.j.c.L.n.J.I.I.f.3.s.s.s.s.s.e.s.8.'.h.J.I.P.K.J.J.J.x.u.(.s.5.(...OXOXOXOXOXOXo.OXOXOXOXOXOX,XL.L.j.r.0.w.i.V.;X| b     ",
"OX}.s.a.a.s.b.d.l.F.L.J.x.s.s.s.f.F.F.f.8.OX^.XX3XP.P.P.L.F.d.Q.C (.3.XX..OX..OXOXOXOXOXOXOXOXOX'.XXC.L.F.g.a.s.a.s.H.E.-X+.@.  ",
"_ T 6.0.5.s.s.s.s.k.H.J.b.s.s.a.z.K.P.c.0.`.U F ].A.A.A.B.0.0.J 6 ..XX(.OXOXOXOXOX..OXOXOXOXOXOX].8.S.v.6.a.s.s.s.l.J.I.L.|.` c ",
"- r o.OXXXa.a.a.a.s.s.d.d.s.s.s.s.f.L.c.s.4.9 $ 0 OXOXOXOX....Q 6 ..OXOXOXOXOXOXOXOXOXOXOXOXOXOXOXOX8.8.].5.d.s.s.K.P.P.E. X` c ",
"    r } ].}.}.`.8.s.s.G.K.H.s.3.s.s.j.d.a.3.:.-.o 0  .OX] 6 7 Q  .OXOX..OXOXOX/.0.0.0.XXOX..(.0.0.0.XX].OXS.K.G.d.L.P.L.z..X/ : ",
"      y j j j X.}.^.XX&XB.b.F.F.l.d.b.F.x.s.s.s.2.o ).XX/.B Q ] OXOXOXOXOXOX..XXs.s.s.8.OX..8.a.a.7.]. X<XE.J.c.d.c.n.v.^.F t   ",
"      - - - - ( } } } } !.y.U.E.G.z.K.P.J.f.s.s.a.a.s.s.0.}.`.'...OXo.OXOXOXOX(.5.5.5.XXOXOXXX5.8.'.'.=XL.L.z.0.4.0.5.7.[ <     ",
"              ; ; ; ; ; u '.'.8.c.J.g.H.P.L.f.s.s.s.s.s.a.a.3.XXOXOXOXOXOXOXOX'.].'.].'.OXOXOX].].'.XXs.d.s.XXOX'.'.'.Y <       ",
"                        < 1 1 T .X:X}.y.F.P.K.J.K.H.d.s.a.s.s.5.0.0.0.0.0.0.0.0.0.0.0.XX..OX(.M.D.D.z.a.a.(.].} r 1 1 1         ",
"                          - - j ~ ~ ~ !.M.H.J.L.L.H.k.s.r.8.z.m.6.a.a.s.s.s.s.s.a.a.a.5.(.(.0.l.H.H.l.0.7.Y ~ S - - -           ",
"                              - - - - ^ !.4.0.G.J.s.d.s.y.|.T.1XoXj.d.d.a.s.a.d.l.d.d.a.s.d.s.0.0.r.2.;.| < - -                 ",
"                                      ; u '.'.8.s.g.J.z.k.E.L.L.E.L.L.F.s.a.a.b.L.L.z.a.d.L.&XE '.'.S ; ;                       ",
"                                        < r  .].}.}.|.y.s.l.l.l.l.l.l.d.s.s.a.f.l.l.d.0.}.|.G 1 1 1 <                           ",
"                                          - ^ ~ ( ~ ~ !.8.8.8.8.8.8.8.8.6.8.8.8.7.+ + L ~ ~ r - - -                             ",
"                                            - - - - - S } } } } } } } } U } } } _ ; - - - -                                     ",
"                                                      ; ; ; ; ; ; ; ; ; ; ; ; ; ;                                               ",
"                                                                                                                                "
};
