/* XPM */
static char *result[] = {
/* columns rows colors chars-per-pixel */
"64 64 176 2 ",
"   c #390D2F",
".  c #330D2E",
"X  c #3D0E30",
"o  c #331634",
"O  c #391427",
"+  c #34243B",
"@  c #410F26",
"#  c #4C0E27",
"$  c #560C29",
"%  c #430E31",
"&  c #4A0E32",
"*  c #540E34",
"=  c #5C0F35",
"-  c #5F0F38",
";  c #4D1E31",
":  c #5C1137",
">  c #5D1C3B",
",  c #620E36",
"<  c #6B0D35",
"1  c #650F38",
"2  c #6B0F38",
"3  c #740C36",
"4  c #7B0C36",
"5  c #730E39",
"6  c #7D0D3A",
"7  c #6E1039",
"8  c #6F1A3F",
"9  c #611C3F",
"0  c #75103B",
"q  c #79103B",
"w  c #751036",
"e  c #61273F",
"r  c #7B2B3D",
"t  c #72323F",
"y  c #3C2E46",
"u  c #3F3245",
"i  c #4F1940",
"p  c #5F1540",
"a  c #6B1A42",
"s  c #6F1641",
"d  c #7F1A42",
"f  c #741E40",
"g  c #4A2341",
"h  c #4A2B46",
"j  c #422540",
"k  c #592243",
"l  c #49374E",
"z  c #593B4C",
"x  c #4C3451",
"c  c #5B3C55",
"v  c #523650",
"b  c #662647",
"n  c #752144",
"m  c #7D284C",
"M  c #66344D",
"N  c #7F3742",
"B  c #632E50",
"V  c #792A52",
"C  c #6A3755",
"Z  c #58445B",
"A  c #584A5C",
"S  c #63455D",
"D  c #654E65",
"F  c #774561",
"G  c #754F68",
"H  c #695769",
"J  c #75556A",
"K  c #745C72",
"L  c #7C666E",
"P  c #7C6176",
"I  c #776474",
"U  c #830D3B",
"Y  c #8C0D3B",
"T  c #840A37",
"R  c #940C3C",
"E  c #9C0C3D",
"W  c #85103C",
"Q  c #A30C3E",
"!  c #AB0B3E",
"~  c #B40B3F",
"^  c #BA0A3F",
"/  c #812036",
"(  c #9A373E",
")  c #945D2F",
"_  c #9F5F38",
"`  c #954B35",
"'  c #A25D2E",
"]  c #A34F31",
"[  c #99643C",
"{  c #A4663D",
"}  c #A86C37",
"|  c #B4743B",
" . c #C07F3C",
".. c #9E0C42",
"X. c #841C44",
"o. c #8B1744",
"O. c #991944",
"+. c #AC0C42",
"@. c #A20F45",
"#. c #B40B41",
"$. c #BC0A40",
"%. c #A11242",
"&. c #842746",
"*. c #942446",
"=. c #893046",
"-. c #923748",
";. c #843855",
":. c #A02245",
">. c #C00A40",
",. c #864342",
"<. c #964447",
"1. c #81514A",
"2. c #985642",
"3. c #A34244",
"4. c #A45443",
"5. c #A66C4F",
"6. c #824765",
"7. c #81586D",
"8. c #895F79",
"9. c #83647A",
"0. c #866B7E",
"q. c #87667A",
"w. c #887F7D",
"e. c #BD8133",
"r. c #D18E2D",
"t. c #DB962D",
"y. c #CC893A",
"u. c #C78637",
"i. c #CF9139",
"p. c #DA9833",
"a. c #E59E2D",
"s. c #E09A35",
"d. c #F9AD2D",
"f. c #FFB52F",
"g. c #B48565",
"h. c #CE9448",
"j. c #CE9B5E",
"k. c #DEA351",
"l. c #DBA969",
"z. c #8D6F83",
"x. c #8C7A84",
"c. c #94748B",
"v. c #99758C",
"b. c #9A7B8D",
"n. c #917784",
"m. c #A17D93",
"M. c #8D8286",
"N. c #A48494",
"B. c #A98A97",
"V. c #B2969E",
"C. c #B299A2",
"Z. c #BA91B5",
"A. c #BDACAC",
"S. c #B6A5A7",
"D. c #BEB0AB",
"F. c #BFB1B1",
"G. c #D9B38C",
"H. c #D8B396",
"J. c #E4BD91",
"K. c #C49DAE",
"L. c #C6ABAA",
"P. c #C7A9B3",
"I. c #C9ABB8",
"U. c #D0ADB9",
"Y. c #CBB1B5",
"T. c #C3B4B3",
"R. c #D2BABB",
"E. c #DCC8C4",
"W. c #DFD0C9",
"Q. c #E0C9C7",
"!. c #E4CBCC",
"~. c #E5D2CD",
"^. c #F4DFD9",
"/. c #FEECE2",
"(. c #FFF1E6",
"). c None",
/* pixels */
").).).).).).).).).).).).).).).).).).).).).).).).).).).).).).).).).).).).).).).).).).).).).).).).).).).).).).).).).).).).).).).).",
").).).).).).).).).).).).).).).).).).).).).).).).).).).).).).).).).).).).).).).).).).).).).).).).).).).).).).).).).).).).).).).).",
").).).).).).).).).).).).).).).).).).).).).).).).).).).).).).).).).).).).).).).).).).).).).).).).).).).).).).).).).).).).).).).).",
").).).).).).).).).).).).).).).).).).).).).).).).).).).).).).).).).).).).).).).).).).).).).).).).).).).).).).).).).).).).).).).).",
").).).).).).).).).).).).).).).).).).).).).).).).).).).).).).).).).).).).).).).).).).).).).).).).).).).).).).).).).).).).).).).).",
").).).).).).).).).).).).).).).).).).).).).).).).).).).).).).).).).).).).).).).).).).).).).).).).).).).).).).).).).).).).).).).).",
").).).).).).).).).).).).).).).).).).).).).).).).).).).).).).).).).).).).).).).).).).).).).).).).).).).).).).).).).).).).).).).).",
").).).).).).).).).).).).).).).).).).).).).).).).).).).).).).).).).).).).).).).).).).).).).).).).).).).).).).).).).).).).).).).).",
").).).).).).).).).).).).).).).).).).).).).).).).).).).).).).).).).).).).).).).).).).).).).).).).).).).).).).).).).).).).).).).).",
").).).).).).).).).).).).).).).).).).).).).).).).).).).).).).).).).).).).).).).).).).).).).).).).).).).).).).).).).).).).).).).).",
").).).).).).).).).).).).).).).).).).).).).).).).).).9.).).).).).).).).).).).).).).).).).).).).).).).).).).).).).).).).).).).).).",
").).).).).).).).).).).).).).).).).).).).).).).).V.Q.~.L.b.).).).).).).).).).).).).).).).).).).).).).).).).).).).).).).).).).).).",
").).).).).).).).).).).).).).).).).).).).).).).R././.(./.P.D ).).).).).).).).).).).).).).).).).).).).).).).).).).).).).).).).).).",
").).).).).).).).).).).).).).).).).).).).).).N././././.^.K.q.).).).).).).).).).).).).).).).).).).).).).).).).).).).).).).).).).).",
").).).).).).).).).).).).).).).).).).).).).).Y./././.(./.U.8.* * ).).).).).).).).).).).).).).).).).).).).).).).).).).).).).).).).",
").).).).).).).).).).).).).).).).).).).).).B.A.R.U.Q.D.A.P.B = % ).).).).).).).).).).).).).).).).).).).).).).).).).).).).).).).).",
").).).).).).).).).).).).).).).).).).).).5 ;.+ v.R.Z.l y N.k T 6   ).).).).).).).).).).).).).).).).).).).).).).).).).).).).).).).",
").).).).).).).).).).).).).).).).).).).).4 w c.U.w.W.Z.K F o.! < ).).).).).).).).).).).).).).).).).).).).).).).).).).).).).).).).",
").).).).).).).).).).).).).).).).).).).).).& I S.g.W.7.8 Y ~ R = ).).).).).).).).).).).).).).).).).).).).).).).).).).).).).).).).",
").).).).).).).).).).).).).).).).).).).).).).> ; O M e 6 +.+.+.3 - b 1.).).).).).).).).).).).).).).).).).).).).).).).).).).).).).",
").).).).).).).).).).).).).).).).).).).).).).6 ! 4 $ T W q q U U s 2.y.X.R ).).).).).).).).).).).).).).).).).).).).).).).).).).).",
").).).).).).).).).).).).).).).).).).).).).).5 ! < # Y ~ Y 0 6 o.o.y.4.#.! 5 ).).).).).).).).).).).).).).).).).).).).).).).).).).",
").).).).).).).).).).).).).).).).).).).).).} &.^ Q 4 R #.#.Y w 0 ,.} *.$.R < ).).).).).).).).).).).).).).).).).).).).).).).).).).",
").).).).).).).).).).).).).).).).).).).U ] p.-.^ Q $ O Y $.$.Y n y.4.+...6 #.E ).).).).).).).).).).).).).).).).).).).).).).).).).",
").).).).).).).).).).).).).).).).).).).Q -.u.=.^ Q < @ Q >.~ o._ y.*.! Q +.#.R = ).).).).).).).).).).).).).).).).).).).).).).).).",
").).).).).).).).).).).).).).).).).).  R *.i.-.~ Q R R ^ $.#.=.| ` = 4 $.^ Q R , ).).).).).).).).).).).).).).).).).).).).).).).).",
").).).).).).).).).).).).).).).).).).< T %.| { @.Q U 4 E $.:.u.[ & 3 ! #...q 6 5 % ).).).).).).).).).).).).).).).).).).).).).).).",
").).).).).).).).).).).).).).).).).R $.Q E <.i.3.#.4 Y ! O._ u.t ..#.Q E Y 0 6 5 : ).).).).).).).).).).).).).).).).).).).).).).).",
").).).).).).).).).).).).).).).).).E ! R Y d | s.<.V &.V 5.r.b 6 >.^ ! Y q q q q 7 % ).).).).).).).).).).).).).).).).).).).).).).",
").).).).).).).).).).).).).).).).).6 +.W 7 : f 5.L.E.l.H.g.=., ~ $.#.Y q q q q q 0 * ).).).).).).).).).).).).).).).).).).).).).).",
").).).).).).).).).).).).).).).).U ! Q q w - p B.G.j.h.J.G.M U >.>.! W q q 0 q q q 1 ).).).).).).).).).).).).).).).).).).).).).).",
").).).).).).).).).).).).).).).).Q #.W w q 0 i g.p.d.d.y.k.r ! >.$.>.+.q q q 0 1 w 7 ).).).).).).).).).).).).).).).).).).).).).).",
").).).).).).).).).).).).).).).R $.$...w q w a | t.f.f.r.' Q >.^ >.$.R q q 0 , , q 2 ).).).).).).).).).).).).).).).).).).).).).).",
").).).).).).).).).).).).).).3 Q R Y R q q 5 s { r.a.t.) / Q $.^ $.~ q q 1 * * 0 w 7 ).).).).).).).).).).).).).).).).).).).).).).",
").).).).).).).).).).).).).4 E Q E ..U q 0 , 2 n } | ) 4 ! ! Q ! ~ Q 0 0 : 7 0 0 q 7 ).).).).).).).).).).).).).).).).).).).).).).",
").).).).).).).).).).).).).b 7.S g O.@.0 0 X : 6 8 M w.6.3 d %.Q W q q 1 , q q 0 q : ).).).).).).).).).).).).).).).).).).).).).).",
").).).).).).).).).).).).J b.Y.z.K F Q W s & % 7 # I ~.M.A 0.6.E Y 0 w : 7 q q 0 7 & ).).).).).).).).).).).).).).).).).).).).).).",
").).).).).).).).).).S q.V.Q.E.z.z.m ~ Y 1 ).).% o q.N.A.C.H K 0 #.Y 1 % : 1 7 : & ).).).).).).).).).).).).).).).).).).).).).).).",
").).).).).).).).).).h N.N.P.D I A.X.^ , ).).% * i z.P C.0.x.T.v W #.< ).).).).).).).).).).).).).).).).).).).).).).).).).).).).).",
").).).).).).).).).).y c.9.v.u T.V.O.Y   ).).* : C D Z b.D S.V.T.h U ! < ).).).).).).).).).).).).).).).).).).).).).).).).).).).).",
").).).).).).).).).).).v n h o c O.Q < ).).* = - G c.l A m.9.c.0.o = ~ 3 ).).).).).).).).).).).).).).).).).).).).).).).).).).).).",
").).).).).).).).).).).).6 * < R R < ).).).& * w a C n j c k P S < T 4 ).).).).).).).).).).).).).).).).).).).).).).).).).).).).).",
").).).).).).).).).).).).< 5 4 5 ).).).).).).% U Q ~ ^ R 4 T X.: % ).).).).).).).).).).).).).).).).).).).).).).).).).).).).).).).",
").).).).).).).).).).).).).).).).).).).).).).).).R Q E Y Y R ^ ! U ).).).).).).).).).).).).).).).).).).).).).).).).).).).).).).).",
").).).).).).).).).).).).).).).).).).).).).).).).).).).).).)., Y Q R ).).).).).).).).).).).).).).).).).).).).).).).).).).).).).).",
").).).).).).).).).).).).).).).).).).).).).).).).).).).).).).).).= Y E R ).).).).).).).).).).).).).).).).).).).).).).).).).).).).",
").).).).).).).).).).).).).).).).).).).).).).).).).).).).* * * *   * 6 5 % ).).).).).).).).).).).).).).).).).).).).).).).).).).).",
").).).).).).).).).).).).).).).).).).).).).).).).).).).= q q q 0 2 = = & ).).).).).).).).).).).).).).).).).).).).).).).).).).).).",
").).).).).).).).).).).).).).).).).).).).).).).).).).).& = 7 2 2 7 & . ).).).).).).).).).).).).).).).).).).).).).).).).).).).).).",
").).).).).).).).).).).).).).).).).).).).).).).).).).).).).).).  * - ).).).).).).).).).).).).).).).).).).).).).).).).).).).).).).",
").).).).).).).).).).).).).).).).).).).).).).).).).).).).).).).).  X ).).).).).).).).).).).).).).).).).).).).).).).).).).).).).).",
").).).).).).).).).).).).).).).).).).).).).).).).).).).).).).).).).).).).).).).).).).).).).).).).).).).).).).).).).).).).).).).).",
").).).).).).).).).).).).).).).).).).).).).).).).).).).).).).).).).).).).).).).).).).).).).).).).).).).).).).).).).).).).).).).).",
").).).).).).).).).).).).).).).).).).).).).).).).).).).).).).).).).).).).).).).).).).).).).).).).).).).).).).).).).).).).).).).).",
").).).).).).).).).).).).).).).).).).).).).).).).).).).).).).).).).).).).).).).).).).).).).).).).).).).).).).).).).).).).).).).).",
").).).).).).).).).).).).).).).).).).).).).).).).).).).).).).).).).).).).).).).).).).).).).).).).).).).).).).).).).).).).).).).).",
").).).).).).).).).).).).).).).).).).).).).).).).).).).).).).).).).).).).).).).).).).).).).).).).).).).).).).).).).).).).).).).).",
").).).).).).).).).).).).).).).).).).).).).).).).).).).).).).).).).).).).).).).).).).).).).).).).).).).).).).).).).).).).).).).).",
").).).).).).).).).).).).).).).).).).).).).).).).).).).).).).).).).).).).).).).).).).).).).).).).).).).).).).).).).).).).).).).).",
").).).).).).).).).).).).).).).).).).).).).).).).).).).).).).).).).).).).).).).).).).).).).).).).).).).).).).).).).).).).).).).).",
").).).).).).).).).).).).).).).).).).).).).).).).).).).).).).).).).).).).).).).).).).).).).).).).).).).).).).).).).).).).).).).).",
").).).).).).).).).).).).).).).).).).).).).).).).).).).).).).).).).).).).).).).).).).).).).).).).).).).).).).).).).).).).).).).).",
").).).).).).).).).).).).).).).).).).).).).).).).).).).).).).).).).).).).).).).).).).).).).).).).).).).).).).).).).).).).).).).).",
").).).).).).).).).).).).).).).).).).).).).).).).).).).).).).).).).).).).).).).).).).).).).).).).).).).).).).).).).).).).).).).)."
};
