/* XPM */
static char *ac9b49756a6f450f900b91deb2d9dadbnlFXcYdKdCu1YSPH_7[] = {
/* columns rows colors chars-per-pixel */
"64 64 256 2 ",
"   c None",
".  c #36643F",
"X  c #24733E",
"o  c #28793E",
"O  c #387A3A",
"+  c #000D5C",
"@  c #0F035D",
"#  c #03115C",
"$  c #051B5B",
"%  c #0A145C",
"&  c #1A1B5E",
"*  c #17165D",
"=  c #2A015C",
"-  c #2B0A5C",
";  c #32085D",
":  c #32075D",
">  c #2B155D",
",  c #2C1E5D",
"<  c #241E5F",
"1  c #3B125F",
"2  c #391A5F",
"3  c #113E4D",
"4  c #0A255B",
"5  c #0C2C5D",
"6  c #062157",
"7  c #17295B",
"8  c #0D3453",
"9  c #0F325E",
"0  c #0F3951",
"q  c #11365E",
"w  c #123C5B",
"e  c #0F394E",
"r  c #30344D",
"t  c #2C255E",
"y  c #2D2A5C",
"u  c #2D345D",
"i  c #2D3A5E",
"p  c #203A5F",
"a  c #303250",
"s  c #2E1B60",
"d  c #3D1360",
"f  c #351F60",
"g  c #0F3260",
"h  c #133B60",
"j  c #2D3E60",
"k  c #2B3360",
"l  c #302660",
"z  c #421A60",
"x  c #422361",
"c  c #4C2562",
"v  c #4C2B62",
"b  c #473363",
"n  c #493362",
"m  c #453A62",
"M  c #154C4A",
"N  c #14464C",
"B  c #195446",
"V  c #1B5946",
"C  c #19534A",
"Z  c #175347",
"A  c #194C5E",
"S  c #194457",
"D  c #1C545F",
"F  c #1D5C52",
"G  c #37474C",
"H  c #2E445E",
"J  c #2F4E59",
"K  c #30405D",
"L  c #2F545C",
"P  c #325656",
"I  c #2D544A",
"U  c #1E6342",
"Y  c #246845",
"T  c #346A46",
"R  c #287845",
"E  c #236458",
"W  c #30635B",
"Q  c #336758",
"!  c #2C745D",
"~  c #2C7957",
"^  c #327759",
"/  c #1B4560",
"(  c #194960",
")  c #1D5560",
"_  c #2E4E61",
"`  c #2E4560",
"'  c #384A61",
"]  c #205A61",
"[  c #2F5B61",
"{  c #2E5561",
"}  c #3D5A62",
"|  c #385862",
" . c #246261",
".. c #296E62",
"X. c #2F6763",
"o. c #3A6562",
"O. c #306B61",
"+. c #396A61",
"@. c #306560",
"#. c #2C7462",
"$. c #2F7C63",
"%. c #347562",
"&. c #317E63",
"*. c #4A5351",
"=. c #486E50",
"-. c #444462",
";. c #414B62",
":. c #435060",
">. c #2B8539",
",. c #2A8637",
"<. c #388738",
"1. c #319533",
"2. c #3B9233",
"3. c #349C32",
"4. c #3C9C32",
"5. c #3A9B3D",
"6. c #2F9234",
"7. c #3AAC2C",
"8. c #38A42E",
"9. c #3FBD26",
"0. c #3EB62E",
"q. c #3FBA2C",
"w. c #3CAD36",
"e. c #3AA53C",
"r. c #3BAA3C",
"t. c #36A332",
"y. c #3DB333",
"u. c #3EB830",
"i. c #44883E",
"p. c #40AE2C",
"a. c #40BE26",
"s. c #40BD29",
"d. c #42A734",
"f. c #43BC32",
"g. c #46B839",
"h. c #3FC025",
"j. c #41C325",
"k. c #46C926",
"l. c #49CD26",
"z. c #44C32A",
"x. c #4CCC2C",
"c. c #47C928",
"v. c #4DD227",
"b. c #4ED129",
"n. c #50D627",
"m. c #53DA27",
"M. c #51D529",
"N. c #54DB28",
"B. c #58DF2A",
"V. c #49C333",
"C. c #4BC437",
"Z. c #54CB3B",
"A. c #56C037",
"S. c #54D234",
"D. c #5BDA35",
"F. c #5BD43E",
"G. c #5EDB3B",
"H. c #60DF3A",
"J. c #60DC34",
"K. c #5BE429",
"L. c #5EE829",
"P. c #58E227",
"I. c #5FE136",
"U. c #62ED2B",
"Y. c #66F22B",
"T. c #69F62C",
"R. c #6EFC2D",
"E. c #70FF2D",
"W. c #62E535",
"Q. c #65EB33",
"!. c #61E139",
"~. c #68EE33",
"^. c #6AF431",
"/. c #67F030",
"(. c #2F8847",
"). c #35854C",
"_. c #338B4E",
"`. c #358F43",
"'. c #389E46",
"]. c #36954E",
"[. c #379A4B",
"{. c #399D48",
"}. c #379743",
"|. c #348D55",
" X c #33845D",
".X c #358A5B",
"XX c #388E5C",
"oX c #398255",
"OX c #359252",
"+X c #3E9C56",
"@X c #3B935A",
"#X c #3B9957",
"$X c #39A243",
"%X c #3EAA43",
"&X c #318162",
"*X c #409F55",
"=X c #45AD4A",
"-X c #48AD4E",
";X c #44A742",
":X c #4AB34C",
">X c #4EBB49",
",X c #46B246",
"<X c #51BF47",
"1X c #50BE48",
"2X c #5DB343",
"3X c #43A552",
"4X c #47A750",
"5X c #53C445",
"6X c #56CB42",
"7X c #58CE41",
"8X c #59D240",
"9X c black",
"0X c black",
"qX c black",
"wX c black",
"eX c black",
"rX c black",
"tX c black",
"yX c black",
"uX c black",
"iX c black",
"pX c black",
"aX c black",
"sX c black",
"dX c black",
"fX c black",
"gX c black",
"hX c black",
"jX c black",
"kX c black",
"lX c black",
"zX c black",
"xX c black",
"cX c black",
"vX c black",
"bX c black",
"nX c black",
"mX c black",
"MX c black",
"NX c black",
"BX c black",
"VX c black",
"CX c black",
"ZX c black",
"AX c black",
"SX c black",
"DX c black",
"FX c black",
"GX c black",
"HX c black",
"JX c black",
"KX c black",
"LX c black",
"PX c black",
"IX c black",
"UX c black",
/* pixels */
"                                                                                                                                ",
"                                                                                                                                ",
"                                                                                                                                ",
"                                                                                                                                ",
"                                                                            &X&X&X&X&X&X                                        ",
"                                                                        $.&X5X8XF.F.F.5X&.&.                                    ",
"                                                                      +X3X4XW.E.E.E.E.!.3X3X#X                                  ",
"                                                                    XX5XR.T.^.R.T.T.T.T.T.E.1X.X                                ",
"                                                                  &X8XR.Y.k.k.k.l.c.k.k.v.T.^.7X&X                              ",
"                                                                +X8X^.U.v.j.h.v.U.L.U.U.L.n.U.^.8X&X                            ",
"                                                              +X>XR.Y.M.j.v.M.L.E.E.R.E.T.m.P.W.8X-X*X                          ",
"                                                            &.>XR.T.b.j.v.R.R.Y.T.T.T.T.T.T.m.t..XQ.:X&.                        ",
"                                                            &X1XY.l.j.N.R.R.m.k.k.k.k.k.k.k.k.,.0 s.{.&.                        ",
"                                                          XX5XZ.M.j.N.Y.T.B.k.y.{.$X0.j.j.a.n.5.$ B (.{.&X                      ",
"                                                          &XW.K.j.j.B.U.B.j.y.).{ [ }.f.j.v.D.;X3 # V (.&X                      ",
"                                                          XXQ.P.j.j.j.j.j.h.OXi = - { ].k.Q.-X].8.6 + w &.                      ",
"                                                        +X!.R.B.j.j.K.m.h.h.G - : z v =.p.G 7 A ~ $ + & n                       ",
"                                                      $.+XR.P.B.K.P.P.v.q.$Xy ; 2 x > I p.- @ q ~ R 8 * c                       ",
"                                                      *X>XK.k.B.E.R.v.j.w.L > 1 c c * M p.G 7 w =XM.<.W =.                      ",
"                                                    &X7XU.z.j.B.E.T.v.h.2.- = 1 c c * B h.h.V Y E.T.T.T.^.+X                    ",
"                                                    &X7XY.j.h.B.Y.b.j.j.2.= = 1 x & o 7.h.h.C.I.T.n.l.b.b.D.-X&.                ",
"                                                  &X5XS.v.j.B.Y.U.z.j.j.2.= = 1 x % 8.L.P.h.n.P.m.j.w.[.$X/.:X&X                ",
"                                                  *XW.N.l.b.T.E.Y.j.l.l.2.t - d a H Z.E.U.k.h.q.y.8.R ..&XF.4X+.                ",
"                                              &X3XY.l.K.R.R.R.R.U.j.L.P.y.^ y i *XJ.T.U.h.h.9.t.! 4 $ / &X&X:.v                 ",
"                                            &X5XQ.R.l.K.E.E.E.L.n.Y.n.l.h.y.t.g.!.b.l.l.s.].F 8 7 f _ #.&.-.n                   ",
"                                            &X8X^.6Xz.U.E.R.U.b.k.K.l.h.c.n.k.m.P.j.y.'.=.J y > s ;.+.&.:.n                     ",
"                                            +XF.H..Xy.P.Y.U.f.s.h.j.h.z.N.T.n.s.p.d.^ ' x ; z v ' %.%.:.v                       ",
"                                          &X!.E.H..Xy.j.z.z.|.$Xj.j.h.P.E.R.v.e.! , - = ; x c -.&.$.;.v                         ",
"                                          .XW.E.U.e.V M M M #.$Xj.h.$XZ.T.M.;XQ t = = = = c s j %.;.m                           ",
"                                        +X>X^.E.T.M.Y B M S #.$Xj.h.OX=Xm.a.T t = = = = d x k ) %.v                             ",
"                                      @X1XE.T.Y.T.T.l.j.y.&X&X[.y.y.|.'.h.y.a = = = = d c f | &.o.v                             ",
"                                    &X6XR.^.l.j.b.T.l.j.y.&X&X&X X X&X$Xy.&Xt = = = z c c % ] o.v                               ",
"                                    &.7XR.R.l.9.v.T.l.j.q.r..X&.&X&X'.0.3.u - = = = z v c % ) o.c                               ",
"                                  XX:X!.R.T.g.0.v.T.l.j.h.9..X|.OX Xu.k.2.= = = = = z c c # ) o.c                               ",
"                              XXXX*X^.E.R.^.|.e.v.T.v.j.k.z.#X$Xu.&Xy.j.2.- = = = = z c f % ) o.n                               ",
"                          &X&.6XQ.~.R.R.E.Q.S >.v.R.T.T.T.Y.~.M.y. Xw.h.2.= = = = : z v c # ( $.%.&.&X&X                        ",
"                        4XF.7XQ.E.E.E.E.U.x.1.(.%XM.T.R.R.R.P.g.|. Xy.<.r = = = = d c f * # 4 U d.%X8.'.^                       ",
"                      +X5XE.E.E.R.R.R.E.L.j.j.).~ j.T.E.T.F.3._. XOXu.. = = = = = c v f # + + 3 1.h.9.d.+.                      ",
"                    @XH.T.T.T.T.R.E.R.R.K.j.j.Z 0 s.W.T.F.! 5 A OX0.j.. = = = = : c c s # + $ 6 N 0.h.*Xv                       ",
"                  #X!.R.U.l.l.U.E.R.R.B.j.j.j.Z 5  XXX@X! 5  .$.&X.Xy.. = = = ; c c & # # # Y 7.7.q.$XQ c                       ",
"                &.@X~.B.l.j.L.N.K.E.E.n.v.L.k.3.R 9 9 9 w ) $.&X&X&Xy.. = = = 1 c c T >.,.,.0.u._.C 0 H o.n                     ",
"                #X:X^.B.v.M.H.x.b.U.U.v.n.R.n.k.8.N 3 3 C OX&X&X&X&Xw.<.r r r G *.*.d.j.h.u.3.R ) g 5 A &.;.n                   ",
"              &X5XE.R.R.E.W. Xe.j.j.j.j.n.R.R.n.h.h.h.h.h.q..X&X&. Xw.j.9.a.9.j.a.a.j.a.y..X( $ 5 #.&.&.&.&.;.c                 ",
"            &X8X^.R.E.E.E.J.5 >.j.j.j.j.B.R.R.B.h.h.z.j.j.q..X&X&.&Xy.j.j.j.j.h.j.j.k.w. X&X#...#.&X&X&X&.&.;.c                 ",
"        &X@X5X~.E.E.R.R.T.x.X X V X 9.r.C.E.R.U.m.h.h.j.h.h.e.|.&.&X].y.q.'.$X'.'.'.$XOX&X&X&X&X&X&X$..X'..Xo.;.c c             ",
"      3X3X-X^.E.E.E.E.E.K.a.a.R M Y 0.$X=XG.R.E.Y.b.j.h.h.h.v.g.OXOXOX$X$X&X&X X|.].&X&X&X&X&X&X&X&X@X,Xl.~ ~ oX-.-.n           ",
"    &XG.R.R.E.R.T.E.T.E.L.j.a.K.E.U.k.j.r.XXW.E.R.R.b.j.j.l.Y.P.9.j.9.$X X&X&.$Xa.s.].^ &X&X&X&X&X X6XR.Q.w o y.&X&X:.v v       ",
"  OXy.x.l.M.R.N.U.E.E.E.L.a.a.U.E.E.Y.b.r. XV.U.R.R.Y.U.Y.U.m.j.j.j.'..X$.&X&X X[.a.f.'.&X&X&X$.XXF.^.U.l.~ 5.f.&Xd.A.2X+.n     ",
"&XOXj.j.h.k.m.k.l.K.R.R.Y.n.j.v.B.B.B.l.r.&X$X:X8XE.E.E.R.P.k.w.$X$X&X&X$.&X&X&X&X[.$X].&X&X].$X%XP.P.V.$X%Xu.q.r.q.L.^.5X=.'   ",
"[ ^ r.w.q.j.j.j.h.c.L.Y.T.R.n.k.h.j.h.j.y.|.E D ~ 8XF.H.Z.y.y.[.#. .$.$.&X&X&.&.&X&X&X$.&X&X[.y.w.6.t.$X&Xu.h.h.j.v.U.R.^.+X} c ",
"= t ^ &X$Xj.s.j.j.j.j.j.n.R.R.n.h.j.j.j.j.0.8 $ q &.&X&X&X$.$.$. .$  .&X&X&X&X&X&X&X&X&X&X&X X X#.6 )  X Xu.j.h.j.Y.R.R.~.*X| z ",
"    t X. XOXOXOXr.j.j.K.R.R.v.k.h.j.9.j.h.9.3.1.o q #.&X..5 5 4 h  .$.&X$.&X&X&.&X&X&X$.&X&X[.y.w.1.|.&X&XD.Y.L.k.Y.E.T.S.XX' ; ",
"      k j j j O.OX$X$X:XZ.P.P.P.P.B.K.B.n.j.j.j.7.X }.|.#.A ( ( ) &X-X5X:X&X&XOX$X$X$X[. X$Xy.j.h.$X|.@X5X^.L.m.k.n.P.b.'.J y   ",
"      = = = - _ O.O.O.X.).f.W.~.R.R.T.R.U.l.j.a.j.j.j.$X.X.X.X@X@X+XG.E.W.&X&X$Xj.j.j.w.].z.j.u.y. X X:XT.T.S.u.u.u.y.r.@.>     ",
"              - - - - - u  X&Xr.n.Y.z.L.T.T.l.j.j.j.j.a.q.a.s.N././.b.P.G.&X&X$Xj.j.h.h.z.T.,X X.X X$Xh.h.z.$X&X X X XW >       ",
"                        > , t Q #X3XOXf.K.E.T.U.Y.U.k.j.h.j.L.P.b.v.z.c.c.y.y.q.h.j.h.j.k.R.S.V.H.H.b.h.h.$X&X#.t , s ,         ",
"                          = = k _ _ _ ).V.L.L.T.R.K.j.h.j.N.R.B.h.h.h.h.j.h.j.l.m.m.m.n.m.K.v.v.L.L.v.s.e.W _ H = = =           ",
"                              = = = = ` _.0.f.B.U.j.l.l.N.R.E.K.l.l.v.j.j.j.k.K.R.R.T.T.U.k.q.y.y.s.w.<.@.> = =                 ",
"                                      - u  X Xr.j.z.U.T.T.R.R.R.Y.R.T.m.h.j.L.R.R.R.M.z.j.j.[. X X XH - -                       ",
"                                        > t #..XOXOX3Xg.v.v.v.v.v.v.v.l.j.j.l.v.v.v.k.y.OXOXJ , , , >                           ",
"                                          - ` _ _ _ _ ).r.r.r.r.r.r.r.r.w.r.r.r.e.O O T _ _ t = = =                             ",
"                                            = = = = = ` O.O.X...X.O.O.O.X...O.O.[ - = = = =                                     ",
"                                                      - - - - - - - - - - - - - -                                               ",
"                                                                                                                                "
};
