/* XPM */
static char *result[] = {
/* columns rows colors chars-per-pixel */
"64 58 95 2 ",
"   c #33683C",
".  c #327A3B",
"X  c #01085C",
"o  c #07135C",
"O  c #011E58",
"+  c #25005C",
"@  c #27035C",
"#  c #2D065B",
"$  c #380E5F",
"%  c #27135D",
"&  c #07374E",
"*  c #06245C",
"=  c #09345E",
"-  c #2C324D",
";  c #2A215C",
":  c #2A2E5F",
">  c #293A5F",
",  c #4B335C",
"<  c #411860",
"1  c #4B2062",
"2  c #492C62",
"3  c #443862",
"4  c #0F4E46",
"5  c #0C414D",
"6  c #175B44",
"7  c #12485B",
"8  c #17535D",
"9  c #2A4C5F",
"0  c #29525B",
"q  c #1C6940",
"w  c #226849",
"e  c #30644A",
"r  c #2D774F",
"t  c #21625F",
"y  c #2E6A5A",
"u  c #2D7D5E",
"i  c #395762",
"p  c #2A6C61",
"a  c #3A6560",
"s  c #346962",
"d  c #2B7460",
"f  c #2C7E63",
"g  c #404761",
"h  c #278935",
"j  c #309530",
"k  c #319C30",
"l  c #36A62A",
"z  c #3DBE21",
"x  c #3AB729",
"c  c #3EBA2A",
"v  c #39AE32",
"b  c #37A63A",
"n  c #3AAA38",
"m  c #3AB331",
"M  c #40AE28",
"N  c #48B838",
"B  c #3DC120",
"V  c #40C420",
"C  c #41C424",
"Z  c #44CA21",
"A  c #47CE21",
"S  c #4AC82F",
"D  c #4CD321",
"F  c #4FD723",
"G  c #53DC23",
"H  c #53C336",
"J  c #57CE3E",
"K  c #58D537",
"L  c #57E124",
"P  c #5BE424",
"I  c #5FE925",
"U  c #5FE035",
"Y  c #62ED27",
"T  c #68F329",
"R  c #69F628",
"E  c #6DFB29",
"W  c #71FF29",
"Q  c #62E631",
"!  c #66ED30",
"~  c #2F8747",
"^  c #359A45",
"/  c #359F44",
"(  c #318E54",
")  c #30855D",
"_  c #308A59",
"`  c #329451",
"'  c #3A9C55",
"]  c #35915B",
"[  c #37A541",
"{  c #2D8262",
"}  c #4DBD47",
"|  c #48B34B",
" . c #42A751",
".. c #51C443",
"X. c None",
/* pixels */
"X.X.X.X.X.X.X.X.X.X.X.X.X.X.X.X.X.X.X.X.X.f f f f X.X.X.X.X.X.X.X.X.X.X.X.X.X.X.X.X.X.X.X.X.X.X.X.X.X.X.X.X.X.X.X.X.X.X.X.X.X.X.",
"X.X.X.X.X.X.X.X.X.X.X.X.X.X.X.X.X.X.X.X. . . . . . .X.X.X.X.X.X.X.X.X.X.X.X.X.X.X.X.X.X.X.X.X.X.X.X.X.X.X.X.X.X.X.X.X.X.X.X.X.X.",
"X.X.X.X.X.X.X.X.X.X.X.X.X.X.X.X.X.X.] ] J W E W E U ] { ] X.X.X.X.X.X.X.X.X.X.X.X.X.X.X.X.X.X.X.X.X.X.X.X.X.X.X.X.X.X.X.X.X.X.X.",
"X.X.X.X.X.X.X.X.X.X.X.X.X.X.X.X.{ | T ! T E E E E R ! ! } { X.X.X.X.X.X.X.X.X.X.X.X.X.X.X.X.X.X.X.X.X.X.X.X.X.X.X.X.X.X.X.X.X.X.",
"X.X.X.X.X.X.X.X.X.X.X.X.X.X.X.f } Q W W P D F F D D F R ! ..{ X.X.X.X.X.X.X.X.X.X.X.X.X.X.X.X.X.X.X.X.X.X.X.X.X.X.X.X.X.X.X.X.X.",
"X.X.X.X.X.X.X.X.X.X.X.X.X.X.X. .U R I I A Z D D F A V P R !  .X.X.X.X.X.X.X.X.X.X.X.X.X.X.X.X.X.X.X.X.X.X.X.X.X.X.X.X.X.X.X.X.X.",
"X.X.X.X.X.X.X.X.X.X.X.X.X.X.' U T P C Z Z G E E E T Z V L R E  ._ X.X.X.X.X.X.X.X.X.X.X.X.X.X.X.X.X.X.X.X.X.X.X.X.X.X.X.X.X.X.X.",
"X.X.X.X.X.X.X.X.X.X.X.X.f | Q ' m C Z Y R R E W E E R A C G W T } f X.X.X.X.X.X.X.X.X.X.X.X.X.X.X.X.X.X.X.X.X.X.X.X.X.X.X.X.X.X.",
"X.X.X.X.X.X.X.X.X.X.X.X.f  .F 8 j C Z R I G G L G I E Y A Z L R } f X.X.X.X.X.X.X.X.X.X.X.X.X.X.X.X.X.X.X.X.X.X.X.X.X.X.X.X.X.X.",
"X.X.X.X.X.X.X.X.X.X.X.X.` ^ . O j A Z P D c v v x A Y E Y A V P J  .X.X.X.X.X.X.X.X.X.X.X.X.X.X.X.X.X.X.X.X.X.X.X.X.X.X.X.X.X.X.",
"X.X.X.X.X.X.X.X.X.X.X.{ b . X o N P Z V z v f f / B V Y E Y V B L Q _ X.X.X.X.X.X.X.X.X.X.X.X.X.X.X.X.X.X.X.X.X.X.X.X.X.X.X.X.X.",
"X.X.X.X.X.X.X.X.X.X.X.{ 8 O o h ^ } Y Z / y % % 0 / z A P Y V V P ! _ X.X.X.X.X.X.X.X.X.X.X.X.X.X.X.X.X.X.X.X.X.X.X.X.X.X.X.X.X.",
"X.X.X.X.X.X.X.X.X.X.X.g * X o ~ t 0 . c . 3 $ + % e z C P E P Z P T J ' X.X.X.X.X.X.X.X.X.X.X.X.X.X.X.X.X.X.X.X.X.X.X.X.X.X.X.X.",
"X.X.X.X.X.X.X.X.X.X.X.1 o O 4 d = X @ M e $ 1 # + - n z F Y Y G L Y R ' f X.X.X.X.X.X.X.X.X.X.X.X.X.X.X.X.X.X.X.X.X.X.X.X.X.X.X.",
"X.X.X.X.X.X.X.X.X.X.X.2 * 6 z ] = X # l 4 o 1 1 $ % u m V V V Y L A T  .{ X.X.X.X.X.X.X.X.X.X.X.X.X.X.X.X.X.X.X.X.X.X.X.X.X.X.X.",
"X.X.X.X.X.X.X.X.X.X.' J S L Y Q 6 5 l z 4 o 1 1 $ @ ; k V V V T L V A U ..{ X.X.X.X.X.X.X.X.X.X.X.X.X.X.X.X.X.X.X.X.X.X.X.X.X.X.",
"X.X.X.X.X.X.X.X.X. ...L G L P R N N L V h 6 % < $ + + j V V V F L G Z T J f X.X.X.X.X.X.X.X.X.X.X.X.X.X.X.X.X.X.X.X.X.X.X.X.X.X.",
"X.X.X.X.X.X.X.X.{ | T c m c Z Y R E E F D k X < $ + + j V V V B G Y Z I K ] X.X.X.X.X.X.X.X.X.X.X.X.X.X.X.X.X.X.X.X.X.X.X.X.X.X.",
"X.X.X.X.X.X.X.X.d | U _ u ^ z C C G E R E N O 2 $ + @ j V V V V V Z V V G U ] X.X.X.X.X.X.X.X.X.X.X.X.X.X.X.X.X.X.X.X.X.X.X.X.X.",
"X.X.X.X.X.X.X.X.3 a ' { 7 * 5 _ m A D A T T H u : % y v V V B V V z V V Z F U ' X.X.X.X.X.X.X.X.X.X.X.X.X.X.X.X.X.X.X.X.X.X.X.X.",
"X.X.X.X.X.X.X.X.X.3 a f 0 * o 7 w h n z G I P [ r   ^ c V B V V A F V V B A T J  .X.X.X.X.X.X.X.X.X.X.X.X.X.X.X.X.X.X.X.X.X.X.X.",
"X.X.X.X.X.X.X.X.X.X.2 s f a : o X = y ^ M c B V Z A A Z V V B B P R A Z V Z Y E J { X.X.X.X.X.X.X.X.X.X.X.X.X.X.X.X.X.X.X.X.X.X.",
"X.X.X.X.X.X.X.X.X.X.X.2 a f d 2 1 $ @ 2 y ` V V G E R A B V V V L E R D B V Z T J { X.X.X.X.X.X.X.X.X.X.X.X.X.X.X.X.X.X.X.X.X.X.",
"X.X.X.X.X.X.X.X.X.X.X.X.3 i f s 3 < < $ ; ; 0 ( N P W Y D V V V A G R Y Y P Z T T J _ X.X.X.X.X.X.X.X.X.X.X.X.X.X.X.X.X.X.X.X.X.",
"X.X.X.X.X.X.X.X.X.X.X.X.X.g a f > $ < + + + + > r N P E K v V B A L E W W R G n H ! { X.X.X.X.X.X.X.X.X.X.X.X.X.X.X.X.X.X.X.X.X.",
"X.X.X.X.X.X.X.X.X.X.X.X.X.X.2 d 7 ; 1 # + + + + : _ C P | ( B V P W W W E E Y 5 w !  .X.X.X.X.X.X.X.X.X.X.X.X.X.X.X.X.X.X.X.X.X.",
"X.X.X.X.X.X.X.X.X.X.X.X.X.X.2 s f i 1 1 # + + + + - V Z [ ` V z L E W E W R C & w E T | f X.X.X.X.X.X.X.X.X.X.X.X.X.X.X.X.X.X.X.",
"X.X.X.X.X.X.X.X.X.X.X.X.X.X.X.g s 0 % 1 < < + + + ; ` c [ ) ^ x A F F F G A ` * 6 G R Q } f X.X.X.X.X.X.X.X.X.X.X.X.X.X.X.X.X.X.",
"X.X.X.X.X.X.X.X.X.X.X.X.X.X.X.1 a 8 X < 1 < + + + % 9 l m ` { / b n b h h [ f * 4 Z R W J f X.X.X.X.X.X.X.X.X.X.X.X.X.X.X.X.X.X.",
"X.X.X.X.X.X.X.X.X.X.X.X.X.X.X.2 a 8 X < 1 < + + + + + j V m _ { { { f = = d d = 6 D R W K ] X.X.X.X.X.X.X.X.X.X.X.X.X.X.X.X.X.X.",
"X.X.X.X.X.X.X.X.X.X.X.X.X.X.2 s f 8 X < 1 < + + + + @ j V A ! ' f { f d 8 O O h Z R W W R Q ' X.X.X.X.X.X.X.X.X.X.X.X.X.X.X.X.X.",
"X.X.X.X.X.X.X.X.X.X.X.X.X.s a f { 8 X < 1 1 < # + + + - h D W U  .) [ v k h h F I L E P P W K  .X.X.X.X.X.X.X.X.X.X.X.X.X.X.X.X.",
"X.X.X.X.X.X.X.X.X.X.X.X.` ` ` ` d = X % < 1 1 + + + + +   A Y W J ^ z V V Z V T K k R P G Y W J ' X.X.X.X.X.X.X.X.X.X.X.X.X.X.X.",
"X.X.X.X.X.X.X.X.X.X.X.d l V z x 4 X X X : 1 1 + + + + +   V V Y L C V B B B A T N 7 U T Y Z Y R J ] ] ] ] X.X.X.X.X.X.X.X.X.X.X.",
"X.X.X.X.X.X.X.X.X.X.X.2 ^ V x & o X X X % 1 1 + + + + +   B z Z P Y Z V B A T E R N 5 N Y z Z A F ! ! ! J { X.X.X.X.X.X.X.X.X.X.",
"X.X.X.X.X.X.X.X.X.X.X.1 a v B j h 4 X X X % 1 < # + + +   c ^ c N | I Y I T E E W U O n E Y P Y P G E W T J ] X.X.X.X.X.X.X.X.X.",
"X.X.X.X.X.X.X.X.X.X.X.3 0 r j v C j 5 5 5 = 1 1 $ + + +   v { b ` ] J E W E E E E S o n W W W W P Z P E W T ] f X.X.X.X.X.X.X.X.",
"X.X.X.X.X.X.X.X.X.X.3 f = o * t k x x B V ^ , , ; # # #   v { { { { { J T R R R P l o n W E W W I V V P R R ' _ X.X.X.X.X.X.X.X.",
"X.X.X.X.X.X.X.X.1 g d { d d t * O 8 ( x V z M M l l l l z v ) { { { { ] [ A A A A l o n W W W W P B z Z F W ! } { X.X.X.X.X.X.X.",
"X.X.X.X.X.X.1 1 1 g _ } ..N / 8 7 t { ^ [ [ b V V V V V m ` { { t 7 f { ( / / c j q q c G G G G L G Z z A E W U | { f f X.X.X.X.",
"X.X.X.X.X.2 g g ; 9 [ Y T F n _ { { { { f f ) n m v m m ` f { { 8 = t t t 8 t ~ q 6 z V V V V V D Y G D G Y H U !  . . . .X.X.X.",
"X.X.X.2 1 i _ c & 6 V V V n { { { { { { f { { ) { { { { { f { { f p O X o o o X 6 z V V V z V V z C Y E Y x & ~ W T E E U { X.X.",
"X.X.2 a s 9 = ( N S z V V [ f { { f { f { { f f { { { { { { { f f f t t r j j j l Z Y D V V V V v ` '  ._ & X r W W W I S m ` X.",
"X.g a } ..r O { ! R G V B m [ ) f { { f { _ ^ { { f { { { { { ^ b [ [ [ m V V V A P E G B V G A c ^ 7 = 7 q ~ H W E P D B V ` { ",
"1 i ' R W N 5 t ..U K m z V z ^ _ { { ` ` [ z ^ ` ( { { { f { [ m m V V V V D D P W E c l Z R P D A w 7 q Z R W R Y Z x v v u 0 ",
"1 i ' R E I k O t { f { n V B z ` { _ m z B B V B n { { { { { { ) ( C V V A E E E W W w 4 V T E E E R T Y Z T E Y C B [ { u ; + ",
"# 9 ] A R R L j 5 * * * d ` ( ` ) { ) ( ( / V V [ ( { { { f { { ^ c Y Y T T E W W W W w 4 V D Y W E F D A V D N ' ` ` ] p ; X.X.",
"X.; 9 / F L G V h q q q d f f f ` ` { f { ) [ [ ` { { { { { { { b Z G L L L P G L G ..7 4 V B F P G [ [ [ [ / ` p > > > : X.X.X.",
"X.X.% s b x x c x c c V [ _ ( ( m v _ _ { { { f { { { { d p p p ~ l m x x x x x x n d 7 q V V B z m ) d p p p p 0 + + + + X.X.X.",
"X.X.X.% y ) ) { ) { ` B z c z c C C z z ` { { { { { { { 8 O o O O & u ) u { { ) ) d O . z B B V b ) f : @ @ @ @ @ X.X.X.X.X.X.X.",
"X.X.X.X.% % % ; d { { ` ` [ V V P Y I Z x m m m S Q U U K H H H H | = * * * O * * = h x m ` ` ` y % % % X.X.X.X.X.X.X.X.X.X.X.X.",
"X.X.X.X.X.+ + + 9 9 0 f { ^ V V G I I G G D B B P E E T I I I I I F 6 4 4 w w w 6 q z c ~ 9 9 9 : + + X.X.X.X.X.X.X.X.X.X.X.X.X.",
"X.X.X.X.X.X.X.X.+ + % s p ~ l x x z Z Y E T D A I E E D V A A A A A Z V F R T R L m x ~ 9 + + + + X.X.X.X.X.X.X.X.X.X.X.X.X.X.X.",
"X.X.X.X.X.X.X.X.X.X.X.@ @ @ % y ) / B V Y E R R R E E D G R R R R R T D V C C Z n ) ) : @ X.X.X.X.X.X.X.X.X.X.X.X.X.X.X.X.X.X.X.",
"X.X.X.X.X.X.X.X.X.X.X.X.X.X.X.% % 9 ` ` c D D D D D D V A D D D D D D Z m ` ` ` ] d ; % X.X.X.X.X.X.X.X.X.X.X.X.X.X.X.X.X.X.X.X.",
"X.X.X.X.X.X.X.X.X.X.X.X.X.X.X.+ + ; 9 9 e . . b n n n v n n b n n n n n ~ 9 9 9 9 > @ X.X.X.X.X.X.X.X.X.X.X.X.X.X.X.X.X.X.X.X.X.",
"X.X.X.X.X.X.X.X.X.X.X.X.X.X.X.X.X.X.+ + + + @ 0 p p p y p p p p p p p p 9 + + + + + X.X.X.X.X.X.X.X.X.X.X.X.X.X.X.X.X.X.X.X.X.X.",
"X.X.X.X.X.X.X.X.X.X.X.X.X.X.X.X.X.X.X.X.X.X.X.@ @ @ @ @ @ @ @ @ @ @ @ @ @ X.X.X.X.X.X.X.X.X.X.X.X.X.X.X.X.X.X.X.X.X.X.X.X.X.X.X."
};
