/* XPM */
static char *result[] = {
/* columns rows colors chars-per-pixel */
"64 64 180 2 ",
"   c #140F1A",
".  c #270D1C",
"X  c #320E21",
"o  c #340D2E",
"O  c #3C0C2F",
"+  c #3E112F",
"@  c #3D0D30",
"#  c #361735",
"$  c #3F363D",
"%  c #470E27",
"&  c #5B0D2D",
"*  c #460D31",
"=  c #4B0E32",
"-  c #540E34",
";  c #5C0E35",
":  c #4C1E3D",
">  c #481335",
",  c #53143A",
"<  c #561737",
"1  c #610D2C",
"2  c #630E36",
"3  c #6B0D34",
"4  c #630E38",
"5  c #6B0F39",
"6  c #730D37",
"7  c #7D0D37",
"8  c #730E3A",
"9  c #7A0E3A",
"0  c #62133C",
"q  c #6E123B",
"w  c #631037",
"e  c #75103A",
"r  c #79103B",
"t  c #771536",
"y  c #57223F",
"u  c #6B3A38",
"i  c #7D4935",
"p  c #651E41",
"a  c #6A1643",
"s  c #7C1142",
"d  c #731C41",
"f  c #771441",
"g  c #472641",
"h  c #442A45",
"j  c #413A42",
"k  c #52334D",
"l  c #5D3D57",
"z  c #553F54",
"x  c #672647",
"c  c #782C4E",
"v  c #783543",
"b  c #732A51",
"n  c #673954",
"m  c #5A455C",
"M  c #5F525B",
"N  c #74474F",
"B  c #69595F",
"V  c #5E4A61",
"C  c #654B63",
"Z  c #6B4966",
"A  c #6E566B",
"S  c #6B5B6B",
"D  c #75556D",
"F  c #765E73",
"G  c #7B5D73",
"H  c #70606E",
"J  c #7E6175",
"K  c #756072",
"L  c #830D3B",
"P  c #8C0E3C",
"I  c #940D3D",
"U  c #9C0C3C",
"Y  c #84113D",
"T  c #92113E",
"R  c #A30C3E",
"E  c #AB0B3E",
"W  c #B30B3F",
"Q  c #BB0A3F",
"!  c #A0153D",
"~  c #912F3A",
"^  c #884D2D",
"/  c #9A573E",
"(  c #A1652D",
")  c #BF7C2C",
"_  c #AC6D3D",
"`  c #A66739",
"'  c #AF723B",
"]  c #BF7C3A",
"[  c #B77436",
"{  c #C17B3D",
"}  c #9B0D41",
"|  c #801A43",
" . c #9D1346",
".. c #951B46",
"X. c #931746",
"o. c #A80C43",
"O. c #B30A40",
"+. c #BD0A40",
"@. c #A11446",
"#. c #9C2646",
"$. c #893A43",
"%. c #993B45",
"&. c #892848",
"*. c #C00A40",
"=. c #9D5A42",
"-. c #875145",
";. c #AD5341",
":. c #A44A44",
">. c #A36A42",
",. c #AA715B",
"<. c #804D68",
"1. c #84526F",
"2. c #865C74",
"3. c #97656E",
"4. c #856A7A",
"5. c #906274",
"6. c #84717C",
"7. c #8D7079",
"8. c #A97F6F",
"9. c #BC8036",
"0. c #CA892E",
"q. c #C68631",
"w. c #C8883A",
"e. c #D28F38",
"r. c #D99535",
"t. c #D69434",
"y. c #E49E2E",
"u. c #EDA52E",
"i. c #F6AC2F",
"p. c #FFB62F",
"a. c #E6A034",
"s. c #BE8C62",
"d. c #C3894B",
"f. c #D1A87F",
"g. c #E1B06E",
"h. c #E5B677",
"j. c #8B6B81",
"k. c #916881",
"l. c #917386",
"z. c #957589",
"x. c #9B7C8C",
"c. c #977889",
"v. c #8E6994",
"b. c #9D7C91",
"n. c #A87E83",
"m. c #A67F94",
"M. c #9E8392",
"N. c #9F8E96",
"B. c #A48495",
"V. c #AC899A",
"C. c #A58996",
"Z. c #A49197",
"A. c #ACA09D",
"S. c #AE9CA1",
"D. c #B79BA4",
"F. c #B693A3",
"G. c #BBA7A9",
"H. c #DFB583",
"J. c #C49AB8",
"K. c #C0A6A8",
"L. c #C6ACB1",
"P. c #C5A3B0",
"I. c #D1ACB9",
"U. c #CBB6B5",
"Y. c #CCB9BA",
"T. c #C0B2B2",
"R. c #D1BEBF",
"E. c #E0C3AD",
"W. c #E9CCB3",
"Q. c #D9C3C2",
"!. c #DBC7C5",
"~. c #E4CCCB",
"^. c #E2C5C9",
"/. c #EAD1D1",
"(. c #EFDBD5",
"). c #F2DED7",
"_. c #F5E3DA",
"`. c #FFEDE4",
"'. c #FFF1E6",
"]. c None",
/* pixels */
"].].].].].].].].].].].].].].].].].].].].].].].].].].].].].].].].].].].].].].].].].].].].].].].].].].].].].].].].].].].].].].].].",
"].].].].].].].].].].].].].].].].].].].].].].].].].].].].].].].].].].].].].].].].].].].].].].].].].].].].].].].].].].].].].].].].",
"].].].].].].].].].].].].].].].].].].].].].].].].].].].].].].].].].].].].].].].].].].].].].].].].].].].].].].].].].].].].].].].].",
"].].].].].].].].].].].].].].].].].].].].].].].].].].].].].].].].].].].].].].].].].].].].].].].].].].].].].].].].].].].].].].].].",
"].].].].].].].].].].].].].].].].].].].].].].].].].].].].].].].].].].].].].].].].].].].].].].].].].].].].].].].].].].].].].].].].",
"].].].].].].].].].].].].].].].].].].].].].].].].].].].].].].].].].].].].].].].].].].].].].].].].].].].].].].].].].].].].].].].].",
"].].].].].].].].].].].].].].].].].].].].].].].].].].].].].].].].].].].].].].].].].].].].].].].].].].].].].].].].].].].].].].].].",
"].].].].].].].].].].].].].].].].].].].].].].].].].].].].].].].].].].].].].].].].].].].].].].].].].].].].].].].].].].].].].].].].",
"].].].].].].].].].].].].].].].].].].].].].].].].].].].].].].].].].].].].].].].].].].].].].].].].].].].].].].].].].].].].].].].].",
"].].].].].].].].].].].].].].].].].].].].].].].].].].].].].].].].].].].].].].].].].].].].].].].].].].].].].].].].].].].].].].].].",
"].].].].].].].].].].].].].].].].].].].].].].].].].B.G.D.j.].].].].].].].].].].].].].].].].].].].].].].].].].].].].].].].].].].].",
"].].].].].].].].].].].].].].].].].].].].].].].].U.).`.`.~.z.].].].].].].].].].].].].].].].].].].].].].].].].].].].].].].].].].].",
"].].].].].].].].].].].].].].].].].].].].].].].L.`.`.`.`./.V.l ].].].].].].].].].].].].].].].].].].].].].].].].].].].].].].].].].",
"].].].].].].].].].].].].].].].].].].].].].].].Q.'.`.`.'.^.F.n = @ ].].].].].].].].].].].].].].].].].].].].].].].].].].].].].].].",
"].].].].].].].].].].].].].].].].].].].].].].K.)././._._.(.V.p ; ].].].].].].].].].].].].].].].].].].].].].].].].].].].].].].].].",
"].].].].].].].].].].].].].].].].].].].].* c 4.M P.I.B.j 6.k.- 3 - o ].].].].].].].].].].].].].].].].].].].].].].].].].].].].].].",
"].].].].].].].].].].].].].].].].].].].].- U < v.A.G.G.Z J 1.P R 2 ].].].].].].].].].].].].].].].].].].].].].].].].].].].].].].].",
"].].].].].].].].].].].].].].].].].].].].].2 x Y.A.G./.4.x Y O.7 ].].].].].].].].].].].].].].].].].].].].].].].].].].].].].].].].",
"].].].].].].].].].].].].].].].].].].].].].].+ S : B 7.w I O.W I - , ].].].].].].].].].].].].].].].].].].].].].].].].].].].].].].",
"].].].].].].].].].].].].].].].].].].].].].].- 7 3 . 3 7 9 P I I 8 a >.=.s ].].].].].].].].].].].].].].].].].].].].].].].].].].].",
"].].].].].].].].].].].].].].].].].].].].].].* U I X & I I r r r I $.e.%.E U ].].].].].].].].].].].].].].].].].].].].].].].].].].",
"].].].].].].].].].].].].].].].].].].].].].].u } ! 1 & R +.I r r s / _ @.Q L * ].].].].].].].].].].].].].].].].].].].].].].].].].",
"].].].].].].].].].].].].].].].].].].].].].) '  .U % X L O.O.I e v w.%.O.I L U 3 ].].].].].].].].].].].].].].].].].].].].].].].].",
"].].].].].].].].].].].].].].].].].].].Y U ) '  .W 3   % E +.o.d >.{ @.E P E O.L ].].].].].].].].].].].].].].].].].].].].].].].].",
"].].].].].].].].].].].].].].].].].].].w o.=.`  .O.U & I *.Q o.~ r.~ 5 U Q +.R 9 * ].].].].].].].].].].].].].].].].].].].].].].].",
"].].].].].].].].].].].].].].].].].].].; } :.w.#.O.T P U W Q #.] i ; 6 E +.R P L - ].].].].].].].].].].].].].].].].].].].].].].].",
"].].].].].].].].].].].].].].].].].].U U U X.] =.o.R 5 P W X.[ w.y L W E } L e r q ].].].].].].].].].].].].].].].].].].].].].].].",
"].].].].].].].].].].].].].].].].].Y W O.I } =.a.;.} 5 } &.{ ` v 6 W E R I 9 r r r - ].].].].].].].].].].].].].].].].].].].].].].",
"].].].].].].].].].].].].].].].].].2 R T r 8 q ` d.V.n.,.8.w.v 4 E *.O.P r r r r 9 4 ].].].].].].].].].].].].].].].].].].].].].].",
"].].].].].].].].].].].].].].].].].6 E U r w ; b K.E.H.h.W.3.4 L +.+.I e r e e r 9 q = ].].].].].].].].].].].].].].].].].].].].].",
"].].].].].].].].].].].].].].].].].E E r r r ; Z f.r.y.r.g.d.a E *.+.O.T e r r e e r - ].].].].].].].].].].].].].].].].].].].].].",
"].].].].].].].].].].].].].].].].R +.O.r r r 5 v q.u.p.u.t.[ I +.*.+.+.P e r r ; q r ; ].].].].].].].].].].].].].].].].].].].].].",
"].].].].].].].].].].].].].].].6 O.U E P r e e v q.u.p.a.( ~ W +.+.+.U r e w ; - r r - ].].].].].].].].].].].].].].].].].].].].].",
"].].].].].].].].].].].].].].L E E T L r r 9 q d / q.0.^ 9 U R O.+.*.} e e - w q r r ; ].].].].].].].].].].].].].].].].].].].].].",
"].].].].].].].].].].].].].= s c p Y O.Y e 4 = e t -.-.N U R R E U T 9 e ; 5 r r r e - ].].].].].].].].].].].].].].].].].].].].].",
"].].].].].].].].].].].].].m c.B.V Z ..} r 4 @ w 8 : M.U.k k D  .U r r e ; r r r 6 q ].].].].].].].].].].].].].].].].].].].].].].",
"].].].].].].].].].].].].G F.Q.U.j.F d E 9 5 @ * = # G.Z.G.K j.n R L r ; - e e e 4 - ].].].].].].].].].].].].].].].].].].].].].].",
"].].].].].].].].].].].Z V.P.Q.S M.F ; E 9 * ].].].m B.j.Q.A N.H 9 o.e * ].= = = ].].].].].].].].].].].].].].].].].].].].].].].].",
"].].].].].].].].].].].C B.b.J m ~.J o U U * ].].].m V j.l.S Y.S.5.R 9 ].].].].].].].].].].].].].].].].].].].].].].].].].].].].].",
"].].].].].].].].].].].m A A l n M.: - E I ].].].h l.C V F B.c.D.4.U 6 ].].].].].].].].].].].].].].].].].].].].].].].].].].].].].",
"].].].].].].].].].].].].].].o ; q t L P * ].].* < C D g V 2.l b.x R & ].].].].].].].].].].].].].].].].].].].].].].].].].].].].].",
"].].].].].].].].].].].].].].].].].].].].].].].- ; 0 T T > * : m : 3 ].].].].].].].].].].].].].].].].].].].].].].].].].].].].].].",
"].].].].].].].].].].].].].].].].].].].].].].].- ; r E +.E 2 ].].].].].].].].].].].].].].].].].].].].].].].].].].].].].].].].].].",
"].].].].].].].].].].].].].].].].].].].].].].].= - e L E +.W R P ].].].].].].].].].].].].].].].].].].].].].].].].].].].].].].].].",
"].].].].].].].].].].].].].].].].].].].].].].].].O = = 9 U Q *.E ].].].].].].].].].].].].].].].].].].].].].].].].].].].].].].].].",
"].].].].].].].].].].].].].].].].].].].].].].].].].].].].- E *.E 3 ].].].].].].].].].].].].].].].].].].].].].].].].].].].].].].].",
"].].].].].].].].].].].].].].].].].].].].].].].].].].].I E +.E 3 ].].].].].].].].].].].].].].].].].].].].].].].].].].].].].].].].",
"].].].].].].].].].].].].].].].].].].].].].].].].].].P +.*.*.E ; = ].].].].].].].].].].].].].].].].].].].].].].].].].].].].].].].",
"].].].].].].].].].].].].].].].].].].].].].].].].].].8 U R I L r e ; ].].].].].].].].].].].].].].].].].].].].].].].].].].].].].].",
"].].].].].].].].].].].].].].].].].].].].].].].].].].].].].].@ ; r w ].].].].].].].].].].].].].].].].].].].].].].].].].].].].].].",
"].].].].].].].].].].].].].].].].].].].].].].].].].].].].].].- e w = ].].].].].].].].].].].].].].].].].].].].].].].].].].].].].].",
"].].].].].].].].].].].].].].].].].].].].].].].].].].].].].= w = ].].].].].].].].].].].].].].].].].].].].].].].].].].].].].].].].",
"].].].].].].].].].].].].].].].].].].].].].].].].].].].].].- = ].].].].].].].].].].].].].].].].].].].].].].].].].].].].].].].].].",
"].].].].].].].].].].].].].].].].].].].].].].].].].].].].].= = ].].].].].].].].].].].].].].].].].].].].].].].].].].].].].].].].].",
"].].].].].].].].].].].].].].].].].].].].].].].].].].].].].].@ o ].].].].].].].].].].].].].].].].].].].].].].].].].].].].].].].].",
"].].].].].].].].].].].].].].].].].].].].].].].].].].].].].].].].].].].].].].].].].].].].].].].].].].].].].].].].].].].].].].].].",
"].].].].].].].].].].].].].].].].].].].].].].].].].].].].].].].].].].].].].].].].].].].].].].].].].].].].].].].].].].].].].].].].",
"].].].].].].].].].].].].].].].].].].].].].].].].].].].].].].].].].].].].].].].].].].].].].].].].].].].].].].].].].].].].].].].].",
"].].].].].].].].].].].].].].].].].].].].].].].].].].].].].].].].].].].].].].].].].].].].].].].].].].].].].].].].].].].].].].].].",
"].].].].].].].].].].].].].].].].].].].].].].].].].].].].].].].].].].].].].].].].].].].].].].].].].].].].].].].].].].].].].].].].",
"].].].].].].].].].].].].].].].].].].].].].].].].].].].].].].].].].].].].].].].].].].].].].].].].].].].].].].].].].].].].].].].].",
"].].].].].].].].].].].].].].].].].].].].].].].].].].].].].].].].].].].].].].].].].].].].].].].].].].].].].].].].].].].].].].].].",
"].].].].].].].].].].].].].].].].].].].].].].].].].].].].].].].].].].].].].].].].].].].].].].].].].].].].].].].].].].].].].].].].",
"].].].].].].].].].].].].].].].].].].].].].].].].].].].].].].].].].].].].].].].].].].].].].].].].].].].].].].].].].].].].].].].]."
};
