/* XPM */
static char *result[] = {
/* columns rows colors chars-per-pixel */
"64 64 96 2 ",
"   c #277939",
".  c #01085C",
"X  c #0D0E5D",
"o  c #01155B",
"O  c #011E58",
"+  c #25005C",
"@  c #27045C",
"#  c #31035E",
"$  c #3C0E5F",
"%  c #27165D",
"&  c #083A4E",
"*  c #042658",
"=  c #09345E",
"-  c #2C394F",
";  c #28215D",
":  c #29355E",
">  c #3D1D61",
",  c #4B2062",
"<  c #4B2762",
"1  c #463462",
"2  c #135446",
"3  c #104553",
"4  c #10425C",
"5  c #12495F",
"6  c #17545B",
"7  c #2B485F",
"8  c #2B5552",
"9  c #1C6841",
"0  c #1E625F",
"q  c #336841",
"w  c #2E6A5A",
"e  c #297954",
"r  c #387855",
"t  c #114360",
"y  c #335962",
"u  c #276F62",
"i  c #2C6B61",
"p  c #366662",
"a  c #2B7D63",
"s  c #2D7F63",
"d  c #317562",
"f  c #4A5151",
"g  c #404762",
"h  c #298C34",
"j  c #388837",
"k  c #359832",
"l  c #35A729",
"z  c #36A42E",
"x  c #3DBE22",
"c  c #3AB729",
"v  c #3DBB29",
"b  c #39AE32",
"n  c #37A63A",
"m  c #39AB38",
"M  c #3AB331",
"N  c #4AB837",
"B  c #57B336",
"V  c #40C420",
"C  c #41C424",
"Z  c #44CA21",
"A  c #47CE21",
"S  c #49CC27",
"D  c #4CD321",
"F  c #51D922",
"G  c #54DC24",
"H  c #4ECA34",
"J  c #53C336",
"K  c #55D431",
"L  c #59D23E",
"P  c #57E025",
"I  c #5AE423",
"U  c #5FE925",
"Y  c #62ED27",
"T  c #66F127",
"R  c #69F629",
"E  c #6DFB29",
"W  c #71FF29",
"Q  c #60E135",
"!  c #66EC31",
"~  c #68EF30",
"^  c #30874D",
"/  c #339642",
"(  c #359E47",
")  c #318E54",
"_  c #30855D",
"`  c #318B5B",
"'  c #329451",
"]  c #3C9E54",
"[  c #36935A",
"{  c #37A341",
"}  c #2D8262",
"|  c #5F9E44",
" . c #44AB4E",
".. c #4BB849",
"X. c #53C941",
"o. c None",
/* pixels */
"o.o.o.o.o.o.o.o.o.o.o.o.o.o.o.o.o.o.o.o.o.o.o.o.o.o.o.o.o.o.o.o.o.o.o.o.o.o.o.o.o.o.o.o.o.o.o.o.o.o.o.o.o.o.o.o.o.o.o.o.o.o.o.o.",
"o.o.o.o.o.o.o.o.o.o.o.o.o.o.o.o.o.o.o.o.o.o.o.o.o.o.o.o.o.o.o.o.o.o.o.o.o.o.o.o.o.o.o.o.o.o.o.o.o.o.o.o.o.o.o.o.o.o.o.o.o.o.o.o.",
"o.o.o.o.o.o.o.o.o.o.o.o.o.o.o.o.o.o.o.o.o.o.o.o.o.o.o.o.o.o.o.o.o.o.o.o.o.o.o.o.o.o.o.o.o.o.o.o.o.o.o.o.o.o.o.o.o.o.o.o.o.o.o.o.",
"o.o.o.o.o.o.o.o.o.o.o.o.o.o.o.o.o.o.o.o.} [ [ [ [ } o.o.o.o.o.o.o.o.o.o.o.o.o.o.o.o.o.o.o.o.o.o.o.o.o.o.o.o.o.o.o.o.o.o.o.o.o.o.",
"o.o.o.o.o.o.o.o.o.o.o.o.o.o.o.o.o.o.} } X.R ~ ~ R Q } } o.o.o.o.o.o.o.o.o.o.o.o.o.o.o.o.o.o.o.o.o.o.o.o.o.o.o.o.o.o.o.o.o.o.o.o.",
"o.o.o.o.o.o.o.o.o.o.o.o.o.o.o.o.o. .L Q R W E W W R L Q  .o.o.o.o.o.o.o.o.o.o.o.o.o.o.o.o.o.o.o.o.o.o.o.o.o.o.o.o.o.o.o.o.o.o.o.",
"o.o.o.o.o.o.o.o.o.o.o.o.o.o.o.o.] X.E T U U Y Y Y Y Y E L  .o.o.o.o.o.o.o.o.o.o.o.o.o.o.o.o.o.o.o.o.o.o.o.o.o.o.o.o.o.o.o.o.o.o.",
"o.o.o.o.o.o.o.o.o.o.o.o.o.o.o.[ L E R Z Z A Z Z Z Z C Y E Q [ o.o.o.o.o.o.o.o.o.o.o.o.o.o.o.o.o.o.o.o.o.o.o.o.o.o.o.o.o.o.o.o.o.",
"o.o.o.o.o.o.o.o.o.o.o.o.o.o.[ Q E U Z V I E R R R U V V I E ! ] o.o.o.o.o.o.o.o.o.o.o.o.o.o.o.o.o.o.o.o.o.o.o.o.o.o.o.o.o.o.o.o.",
"o.o.o.o.o.o.o.o.o.o.o.o.o. .L ..H A V I R W W W W E U Z Z I E Q  .s o.o.o.o.o.o.o.o.o.o.o.o.o.o.o.o.o.o.o.o.o.o.o.o.o.o.o.o.o.o.",
"o.o.o.o.o.o.o.o.o.o.o.o.a  .Q e k V Z R T Y Y U Y T E I Z Z Y E ..s o.o.o.o.o.o.o.o.o.o.o.o.o.o.o.o.o.o.o.o.o.o.o.o.o.o.o.o.o.o.",
"o.o.o.o.o.o.o.o.o.o.o.o.} ( k * h Z Z T D C v v x S R E I C V Y X.[ o.o.o.o.o.o.o.o.o.o.o.o.o.o.o.o.o.o.o.o.o.o.o.o.o.o.o.o.o.o.",
"o.o.o.o.o.o.o.o.o.o.o.} m   O . m I V Z V M ` ` m V Z T E U V V P Q } o.o.o.o.o.o.o.o.o.o.o.o.o.o.o.o.o.o.o.o.o.o.o.o.o.o.o.o.o.",
"o.o.o.o.o.o.o.o.o.o.o.} 9 3 o 9 { L I V b ^ : : w m V Y W Y V V I ! ` o.o.o.o.o.o.o.o.o.o.o.o.o.o.o.o.o.o.o.o.o.o.o.o.o.o.o.o.o.",
"o.o.o.o.o.o.o.o.o.o.o.p * . O k e r B C ^ 7 # + ; r x I R T D V I ~  .o.o.o.o.o.o.o.o.o.o.o.o.o.o.o.o.o.o.o.o.o.o.o.o.o.o.o.o.o.",
"o.o.o.o.o.o.o.o.o.o.o., X . O u = . @ l f , , @ + - x V P E E D G E R ] s o.o.o.o.o.o.o.o.o.o.o.o.o.o.o.o.o.o.o.o.o.o.o.o.o.o.o.",
"o.o.o.o.o.o.o.o.o.o.o., X & k _ = . @ l - X , , # ; ' c Z F E D Z F R ] s o.o.o.o.o.o.o.o.o.o.o.o.o.o.o.o.o.o.o.o.o.o.o.o.o.o.o.",
"o.o.o.o.o.o.o.o.o.o.^ | k N I X.3 *   x 2 X , , $ @ : z V Z F Z x Z P H ..o.o.o.o.o.o.o.o.o.o.o.o.o.o.o.o.o.o.o.o.o.o.o.o.o.o.o.",
"o.o.o.o.o.o.o.o.o.] ..! Y Y Y W / j D V   & % , $ + + k V V V V V V V T L } o.o.o.o.o.o.o.o.o.o.o.o.o.o.o.o.o.o.o.o.o.o.o.o.o.o.",
"o.o.o.o.o.o.o.o.a ..T C x C Z T E E R A Z h . > $ + @ k V V V V x V Z Y H } o.o.o.o.o.o.o.o.o.o.o.o.o.o.o.o.o.o.o.o.o.o.o.o.o.o.",
"o.o.o.o.o.o.o.o.} ..! ' ' { C A A I E R T N . > $ + + k V A Y A V V V Z K L ` o.o.o.o.o.o.o.o.o.o.o.o.o.o.o.o.o.o.o.o.o.o.o.o.o.",
"o.o.o.o.o.o.o.o.g r  .} 6 3 9 / v A G G T Q ( f > @ 7 z V D E Y D x x V G E X.[ o.o.o.o.o.o.o.o.o.o.o.o.o.o.o.o.o.o.o.o.o.o.o.o.",
"o.o.o.o.o.o.o.o., g d } t O . 8 j l M x I T Y ] 8 - ) v V A Y E I Z V V Z Q R  .[ o.o.o.o.o.o.o.o.o.o.o.o.o.o.o.o.o.o.o.o.o.o.o.",
"o.o.o.o.o.o.o.o.o.o.1 d s y > . o 4 ` c x C Z x x x x C V V Z T E T Z V h 3 ! W X.} o.o.o.o.o.o.o.o.o.o.o.o.o.o.o.o.o.o.o.o.o.o.",
"o.o.o.o.o.o.o.o.o.o.o.1 p s p > > $ % g r { V V G T Y Z V V Z Y E E R T / & ! W L } o.o.o.o.o.o.o.o.o.o.o.o.o.o.o.o.o.o.o.o.o.o.",
"o.o.o.o.o.o.o.o.o.o.o., g p s g < , $ $ : 8   ( H T W I S V V F R E E W J 9 k ! Q ..o.o.o.o.o.o.o.o.o.o.o.o.o.o.o.o.o.o.o.o.o.o.",
"o.o.o.o.o.o.o.o.o.o.o.o., g d } 7 $ , # + + @ y ^ S T W F M c x F R R R I l O J W ! } o.o.o.o.o.o.o.o.o.o.o.o.o.o.o.o.o.o.o.o.o.",
"o.o.o.o.o.o.o.o.o.o.o.o.o.o.1 d = @ , + + + + + 7 ' V T .._ ` M V V V V V l O J W ! ` o.o.o.o.o.o.o.o.o.o.o.o.o.o.o.o.o.o.o.o.o.",
"o.o.o.o.o.o.o.o.o.o.o.o.o.o.< d u 7 , $ # + + + % 8 V D { } } M V l 2 ^ ( ^ o z U R L  .o.o.o.o.o.o.o.o.o.o.o.o.o.o.o.o.o.o.o.o.",
"o.o.o.o.o.o.o.o.o.o.o.o.o.o.1 g d y % , $ # + + + ; n v ( s } ( v b 4 5 5 6 2 l F E W  .a o.o.o.o.o.o.o.o.o.o.o.o.o.o.o.o.o.o.o.",
"o.o.o.o.o.o.o.o.o.o.o.o.o.o.o.< p 5 . > , $ + + + % w b m ` } } ( b _ = O & c A P E W ..[ o.o.o.o.o.o.o.o.o.o.o.o.o.o.o.o.o.o.o.",
"o.o.o.o.o.o.o.o.o.o.o.o.o.o.o., p 0 . , , > + + + + @ k V b } } } } } a a ` x Y E W E E X.} o.o.o.o.o.o.o.o.o.o.o.o.o.o.o.o.o.o.",
"o.o.o.o.o.o.o.o.o.o.o.o.o.o.o., p 6 . > , $ + + + + @ k Z C L [ s } } { m M C U W W W W H s o.o.o.o.o.o.o.o.o.o.o.o.o.o.o.o.o.o.",
"o.o.o.o.o.o.o.o.o.o.o.o.o.o.o., p 6 . , , , # + + + + 8 k D E X.] s } b Z F G R T Y W Y K ..[ o.o.o.o.o.o.o.o.o.o.o.o.o.o.o.o.o.",
"o.o.o.o.o.o.o.o.o.o.o.o.o.o.o.1 p 8 . > , , , + + + + + q S R E X.} [ M I E E E I x R F F ~ ] ` ` o.o.o.o.o.o.o.o.o.o.o.o.o.o.o.",
"o.o.o.o.o.o.o.o.o.o.o.o.} } } d s 5 . > , , , # + + + + q v [ Q R ! ! R E E E E m 3 ! G C A Q ~ X.s o.o.o.o.o.o.o.o.o.o.o.o.o.o.",
"o.o.o.o.o.o.o.o.o.o.o.} { b m b 0 O . X > , , # + + + + q x b ! W W W E W E E U h * ! T F V T W ~ L [ o.o.o.o.o.o.o.o.o.o.o.o.o.",
"o.o.o.o.o.o.o.o.o.o.o.p n V V k & . . . % , > + + + + + q V V K ~ E W W E E U b   2 P E Y C Y Y R R  .[ o.o.o.o.o.o.o.o.o.o.o.o.",
"o.o.o.o.o.o.o.o.o.o.o.< j x b & O o . . % , , # + + + + q V v ' ..R R R R T C & 2 x V U Y V Z Z F R E  .s o.o.o.o.o.o.o.o.o.o.o.",
"o.o.o.o.o.o.o.o.o.o.o.< p ` ) z l 9 . . . X , , # + + + q c ` } [ [ [ [ { A x & 2 V V U W T R R U A R ..s o.o.o.o.o.o.o.o.o.o.o.",
"o.o.o.o.o.o.o.o.o.o.1 y 4 = = ^ { / h h h q , , $ + + + q M a 4 6 } } } ( V C & 2 V x U W W W W I V D K X.} o.o.o.o.o.o.o.o.o.o.",
"o.o.o.o.o.o.o.o.o.1 g } 5 * = 0 6 ^ M V Z m f f - - - - j M a 4 5 0 0 0 e h h 3 9 V V I W W W W U x V Y !  .o.o.o.o.o.o.o.o.o.o.",
"o.o.o.o.o.o.o.o., g s ` _ _ e * o t _ M x x c x x x x x x m s s 5 o O O o O O 0 ( V V I E E R R I x c P E R ] [ [ o.o.o.o.o.o.o.",
"o.o.o.o.o.o.o.o., g ` v c v M e u a } ` ^ ` ) x V V V V n ` s } a 0 u 0 u u u n x x V V Z Z A Z Z c & h F E R ! L } s o.o.o.o.o.",
"o.o.o.o.o.o., < y r m x F D v ` } } } } s s _ ( ( m C m ) s } s } } } } ` { { v A G V V V x   ^ { / O   Z I E E ! X.X. .o.o.o.o.",
"o.o.o.o.o.1 1 g r / k S I G v ` } } } s ` ' ' ' ' ( b ` } } } s } } } ) n V V D U T V V V c 2 6 0 0 3 k V D E E W W W L  .o.o.o.",
"o.o.o.< < g s _ b   3 Y F V x ` } } s } m V x x C b } } _ } } } } } } M C V V Y W T x x V V x 2 . O l x S E E E W E E E Q } o.o.",
"o.o.1 p p d ` n 2 3 ^ R F V V M ' a } } b V x ' ' ) } n M M M M M M M x D Y T E Y x & h C V V l k k x I T E E E E W W U S M ' o.",
"o.g p { ..X.N x * = ] R Y D V V ' a } } ' { ( } s s } ( ( { { ( H I I I Y E I I D l o   Z V F I I I Z D G I E E W E I D V x ' } ",
", y ) C T W E F 2 3 e L Q H M x n ` } } a } a } } a 0 a s s } ` N Y Y Y Y I V M M / o   V V R W E E F D D V T W R Y C v M b r y ",
", y ` V Y W W R D   * e } e _ c x { } } } } } } s 0 o 0 s a a b x C C C x V x ) a 0 o h V Z T W E E E E Y Z R E Y C C { } a ; + ",
"# 7 ) C Z I W W R P { = * * * & e ` a } } } } } } a 0 = * * = e ' ' ' ' ' ' ) 4 * & h l V V A Y E E F D Z V S N ] ' ' ) u ; o.o.",
"o.; 7 ( x A I G G T R / 6 4 5 t u ) { { ` a } }  .X.X.( ^ e 5 t 4 4 t t 4 4 t t 6 h G I F V V D K ..{ { { ( { ) u : : : : o.o.o.",
"o.o.@ u n v M v c H ~ R  .) ` ) ` { A Z { ` ` } ..~ E E W Q [ 6 * * * * * * * e { F T R G V c v / u i u i i u i 7 @ + + + o.o.o.",
"o.o.o.@ w _ e _ _ _ ' C C v v x x F E R D v c ` }  .E E W E R ~ F c c c c c x Q R T A V V v ` _ 8 @ @ @ @ @ @ @ @ o.o.o.o.o.o.o.",
"o.o.o.o.% % % % % % : ` ' { V V G E W W R I C M M v A S A G W W R I V x D Y T E U D V V M ` : % % o.o.o.o.o.o.o.o.o.o.o.o.o.o.o.",
"o.o.o.o.o.+ + + + + % 7 d ( V V G U U E E R F G F F F Z x D E W E R G F U W W W U V V M ^ 7 @ + o.o.o.o.o.o.o.o.o.o.o.o.o.o.o.o.",
"o.o.o.o.o.o.o.o.o.o.o.+ 7 ^ l M v v Z Y E E E E W W E F A F E W E W W R R T R R I M v ^ 7 + o.o.o.o.o.o.o.o.o.o.o.o.o.o.o.o.o.o.",
"o.o.o.o.o.o.o.o.o.o.o.o.@ @ % w _ ( C V Y E E E E E E R R R E E E E E D V C C V m _ _ : @ o.o.o.o.o.o.o.o.o.o.o.o.o.o.o.o.o.o.o.",
"o.o.o.o.o.o.o.o.o.o.o.o.o.o.o.; % 7 ' ' v D D D A D D D D D D A D D D V M ' ' ' ` d ; @ o.o.o.o.o.o.o.o.o.o.o.o.o.o.o.o.o.o.o.o.",
"o.o.o.o.o.o.o.o.o.o.o.o.o.o.o.+ + ; 7 7 q     k m m m m m m n m m m m m ^ 7 7 7 7 7 @ o.o.o.o.o.o.o.o.o.o.o.o.o.o.o.o.o.o.o.o.o.",
"o.o.o.o.o.o.o.o.o.o.o.o.o.o.o.o.o.o.+ + + + @ i u i i w i u i i i u i i 7 + + + + + o.o.o.o.o.o.o.o.o.o.o.o.o.o.o.o.o.o.o.o.o.o.",
"o.o.o.o.o.o.o.o.o.o.o.o.o.o.o.o.o.o.o.o.o.o.o.@ @ @ @ @ @ @ @ @ @ @ @ @ @ o.o.o.o.o.o.o.o.o.o.o.o.o.o.o.o.o.o.o.o.o.o.o.o.o.o.o.",
"o.o.o.o.o.o.o.o.o.o.o.o.o.o.o.o.o.o.o.o.o.o.o.o.o.o.o.o.o.o.o.o.o.o.o.o.o.o.o.o.o.o.o.o.o.o.o.o.o.o.o.o.o.o.o.o.o.o.o.o.o.o.o.o."
};
