/* XPM */
static char *result[] = {
/* columns rows colors chars-per-pixel */
"64 64 202 2 ",
"   c #140D0E",
".  c #15100E",
"X  c #2A1E19",
"o  c #241B19",
"O  c #2C231D",
"+  c #31231E",
"@  c #2F2627",
"#  c #342624",
"$  c #352923",
"%  c #392A23",
"&  c #352C2B",
"*  c #3A2D2B",
"=  c #3A2729",
"-  c #36322B",
";  c #3C322A",
":  c #342B33",
">  c #3C3433",
",  c #3C333A",
"<  c #3A393E",
"1  c #263725",
"2  c #45272B",
"3  c #542F24",
"4  c #44322C",
"5  c #4B352E",
"6  c #4C3B2F",
"7  c #492E33",
"8  c #433434",
"9  c #4A3531",
"0  c #433933",
"q  c #4B3B33",
"w  c #433C3B",
"e  c #4B3D3A",
"r  c #43333B",
"t  c #5F352A",
"y  c #2C5232",
"u  c #334735",
"i  c #4B433D",
"p  c #4D4838",
"a  c #534135",
"s  c #5B4535",
"d  c #54433A",
"f  c #5B473C",
"g  c #5D4A3B",
"h  c #57493C",
"j  c #46503E",
"k  c #5B513E",
"l  c #644D3D",
"z  c #694D3E",
"x  c #614838",
"c  c #60523E",
"v  c #70563F",
"b  c #7C6C3D",
"n  c #3A3B41",
"m  c #443D42",
"M  c #4C3C44",
"N  c #433641",
"B  c #4C4344",
"V  c #4E4946",
"C  c #4B494D",
"Z  c #46464C",
"A  c #544645",
"S  c #5B4544",
"D  c #544B43",
"F  c #5D4C43",
"G  c #52434C",
"H  c #544C4C",
"J  c #5C4D4A",
"K  c #5C544C",
"L  c #585446",
"P  c #4C4D54",
"I  c #4C4E58",
"U  c #534E53",
"Y  c #5C4951",
"T  c #4E5059",
"R  c #52525B",
"E  c #595458",
"W  c #4B5C44",
"Q  c #624E43",
"!  c #654B4A",
"~  c #655244",
"^  c #6B5344",
"/  c #64534A",
"(  c #6B5649",
")  c #6A5B49",
"_  c #715746",
"`  c #755A46",
"'  c #755B49",
"]  c #7A5D4B",
"[  c #775A46",
"{  c #644E57",
"}  c #655959",
"|  c #765E51",
" . c #5E654A",
".. c #7D614E",
"X. c #7C6047",
"o. c #6C625B",
"O. c #6D6A5C",
"+. c #636157",
"@. c #7B6152",
"#. c #73655C",
"$. c #72685E",
"%. c #7A6559",
"&. c #78715D",
"*. c #575861",
"=. c #5C5E65",
"-. c #5D5F69",
";. c #635A63",
":. c #5F636F",
">. c #5E6370",
",. c #696567",
"<. c #736E63",
"1. c #7B6E63",
"2. c #716B6C",
"3. c #757262",
"4. c #7F7361",
"5. c #76736A",
"6. c #7C796A",
"7. c #676A75",
"8. c #76777C",
"9. c #7F7B79",
"0. c #777779",
"q. c #82634E",
"w. c #88664F",
"e. c #85694E",
"r. c #846652",
"t. c #896752",
"y. c #866B54",
"u. c #8C6B54",
"i. c #8E6D58",
"p. c #926D55",
"a. c #926F58",
"s. c #8F7156",
"d. c #8E7159",
"f. c #937155",
"g. c #95735A",
"h. c #9B755C",
"j. c #9E795D",
"k. c #977759",
"l. c #A17B5E",
"z. c #8D7A6B",
"x. c #877664",
"c. c #937A60",
"v. c #9C7B63",
"b. c #817B7A",
"n. c #A47C61",
"m. c #AA7E63",
"M. c #7E8070",
"N. c #A7815E",
"B. c #85846C",
"V. c #898A6C",
"C. c #8D8A7E",
"Z. c #8A8678",
"A. c #9C8D7A",
"S. c #97947C",
"D. c #A78263",
"F. c #AC8464",
"G. c #AD8866",
"H. c #B48D69",
"J. c #B58C67",
"K. c #BC936B",
"L. c #B7906A",
"P. c #C1966D",
"I. c #C5986C",
"U. c #C59A71",
"Y. c #CA9D73",
"T. c #C39771",
"R. c #CDA175",
"E. c #D2A275",
"W. c #D3A579",
"Q. c #D8A677",
"!. c #E2AF7E",
"~. c #7F7C81",
"^. c #827E84",
"/. c #8A8787",
"(. c #928A88",
"). c #979486",
"_. c #8F8E93",
"`. c #928F93",
"'. c #979598",
"]. c #A39986",
"[. c #A9A48C",
"{. c #B7B68B",
"}. c #AFA995",
"|. c #B0AE99",
" X c #B7B49B",
".X c #B9BA94",
"XX c #9E9FA4",
"oX c #A19EA1",
"OX c #A6A5A7",
"+X c #A9AAAF",
"@X c #BCB7A4",
"#X c #B8B7BC",
"$X c #BFC099",
"%X c #D1CCB5",
"&X c #CAC7B1",
"*X c #C9C9CB",
"=X c #DEDBC2",
"-X c #D7D4C0",
";X c #CDCED3",
":X c #D5D5D9",
">X c #FAFAFC",
",X c None",
/* pixels */
",X,X,X,X,X,X,X,X,X,X,X,X,X,X,X,X,X,X,X,X,X,X,X,X,X,X,X,X,X,X,X,X,X,X,X,X,X,X,X,X,X,X,X,X,X,X,X,X,X,X,X,X,X,X,X,X,X,X,X,X,X,X,X,X",
",X,X,X,X,X,X,X,X,X,X,X,X,X,X,X,X,X,X,X,X,X,X,X,X,X,X,X,X,X,X,X,X,X,X,X,X,X,X,X,X,X,X,X,X,X,X,X,X,X,X,X,X,X,X,X,X,X,X,X,X,X,X,X,X",
",X,X,X,X,X,X,X,X,X,X,X,X,X,X,X,X,X,X,X,X,X,X,X,X,X,X,X,X,X,X,X,X,X,X,X,X,X,X,X,X,X,X,X,X,X,X,X,X,X,X,X,X,X,X,X,X,X,X,X,X,X,X,X,X",
",X,X,X,X,X,X,X,X,X,X,X,X,X,X,X,X,X,X,X,X,X,X,X,X,X,X,X,X,X,X,X,X,X,X,X,X,X,X,X,X,X,X,X,X,X,X,X,X,X,X,X,X,X,X,X,X,X,X,X,X,X,X,X,X",
",X,X,X,X,X,X,X,X,X,X,X,X,X,X,X,X,X,X,X,X,X,X,X,X,X,X,X,X,X,X,X,X,X,X,X,X,X,X,X,X,X,X,X,X,X,X,X,X,X,X,X,X,X,X,X,X,X,X,X,X,X,X,X,X",
",X,X,X,X,X,X,X,X,X,X,X,X,X,X,X,X,X,X,X,X,X,X,X,X,X,X,X,X,X,X,X,X,X,X,X,X,X,X,X,X,X,X,X,X,X,X,X,X,X,X,X,X,X,X,X,X,X,X,X,X,X,X,X,X",
",X,X,X,X,X,X,X,X,X,X,X,X,X,X,X,X,X,X,X,X,X,X,X,X,X,X,X,X,X,X,X,X,X,X,X,X,X,X,X,X,X,X,X,X,X,X,X,X,X,X,X,X,X,X,X,X,X,X,X,X,X,X,X,X",
",X,X,X,X,X,X,X,X,X,X,X,X,X,X,X,X,X,X,X,X,X,X,X,X,X,X,X,X,X,X,X,X,X,X,X,X,X,X,X,X,X,X,X,X,X,X,X,X,X,X,X,X,X,X,X,X,X,X,X,X,X,X,X,X",
",X,X,X,X,X,X,X,X,X,X,X,X,X,X,X,X,X,X,X,X,X,X,X,X,X,X,X,X,X,X,X,X,X,X,X,X,X,X,X,X,X,X,X,X,X,X,X,X,X,X,X,X,X,X,X,X,X,X,X,X,X,X,X,X",
",X,X,X,X,X,X,X,X,X,X,X,X,X,X,X,X,X,X,X,X,X,X,X,X,X,X,X,X,X,X,X,X,X,X,X,X,X,X,X,X,X,X,X,X,X,X,X,X,X,X,X,X,X,X,X,X,X,X,X,X,X,X,X,X",
",X,X,X,X,X,X,X,X,X,X,X,X,X,X,X,X,X,X,X,X,X,X,X,X,X,X,X,X,X,X,X,X,X,X,X,X,X,X,X,X,X,X,X,X,X,X,X,X,X,X,X,X,X,X,X,X,X,X,X,X,X,X,X,X",
",X,X,X,X,X,X,X,X,X,X,X,X,X,X,X,X,X,X,X,X,X,X,X,X,X,X,X,X,X,X,X,X,X,X,X,X,X,X,X,X,X,X,X,X,X,X,X,X,X,X,X,X,X,X,X,X,X,X,X,X,X,X,X,X",
",X,X,X,X,X,X,X,X,X,X,X,X,X,X,X,X,X,X,X,X,X,X,X,X,X,X,X,X,X,X,X,X,X,X,X,X,X,X,X,X,X,X,X,X,X,X,X,X,X,X,X,X,X,X,X,X,X,X,X,X,X,X,X,X",
",X,X,X,X,X,X,X,X,X,X,X,X,X,X,X,X,X,X,X,X,X,X,X,X,X,X,X,X,X,X,X,X,X,Xo.^ <.,X,X,X,X,X,X,X,X,X,X,X,X,X,X,X,X,X,X,X,X,X,X,X,X,X,X,X",
",X,X,X,X,X,X,X,X,X,X,X,X,X,X,X,X,X,X,X,X,X,X,X,X,X,X,X,X,X,X,X,X1.e U -.* ,X,X,X,X,X,X,X,X,X,X,X,X,X,X,X,X,X,X,X,X,X,X,X,X,X,X,X",
",X,X,X,X,X,X,X,X,X,X,X,X,X,X,X,X,X,X,X,X,X,X,X,X,X,X,X,X,X3.c.^ C 7.-.C w H ,X,X,X,X,X,X,X,X,X,X,X,X,X,X,X,X,X,X,X,X,X,X,X,X,X,X",
",X,X,X,X,X,X,X,X,X,X,X,X,X,X,X,X,X,X,X,X,X,X,X,X,X,X,X,Xz.f.m.r.U } ,.I T @ 2.,X,X,X,X,X,X,X,X,X,X,X,X,X,X,X,X,X,X,X,X,X,X,X,X,X",
",X,X,X,X,X,X,X,X,X,X,X,X,X,X,X,X,X,X,X,X,X,X,X,X,X,Xz.p.m.m.h.n.t.' D / n i ~ /.,X,X,X,X,X,X,X,X,X,X,X,X,X,X,X,X,X,X,X,X,X,X,X,X",
",X,X,X,X,X,X,X,X,X,X,X,X,X,X,X,X,X,X,X,X,X,X,X,Xx.p.m.j.l.a.q.] e.H.D.r.^ @.[ <.,X,X,X,X,X,X,X,X,X,X,X,X,X,X,X,X,X,X,X,X,X,X,X,X",
",X,X,X,X,X,X,X,X,X,X,X,X,X,X,X,X,X,X,X,XB.(.x.f.m.F.f.t.a.] t.J.E.R.^ ^ v.h.f.z..XO.,X,X,X,X,X,X,X,X,X,X,X,X,X,X,X,X,X,X,X,X,X,X",
",X,X,X,X,X,X,X,X,X,X,X,X,X,X,X,X,X,X,X&.y.p.m.n.p.j.u.' q.K.R.Y.a ^ _ s.' f.n.] S.V.,X,X,X,X,X,X,X,X,X,X,X,X,X,X,X,X,X,X,X,X,X,X",
",X,X,X,X,X,X,X,X,X,X,X,X,X,X,X,X,X(./ p.F.m.n.a.' _ e.P.!.l.a g l . o f.] h.p.t.x.$X,X,X,X,X,X,X,X,X,X,X,X,X,X,X,X,X,X,X,X,X,X,X",
",X,X,X,X,X,X,X,X,X,X,X,X,X,X,X(.S A =.} p.a.t.( u.I.Q.f.' ' q s 6 6 g 6 y...a.l.i.B.,X,X,X,X,X,X,X,X,X,X,X,X,X,X,X,X,X,X,X,X,X,X",
",X,X,X,X,X,X,X,X,X,X,X,X,X'./ ! R 7.R r.r.^ p.P.W.s.g q a _ g d.k.` P.g ^ ' h...Q U ,X,X,X,X,X,X,X,X,X,X,X,X,X,X,X,X,X,X,X,X,X,X",
",X,X,X,X,X,X,X,X,X,X,X,X,XM s P C =.B ..j.U.R.J.l g a ^ Q l ) y...@.d.K.R.d.r.K >.R ,X,X,X,X,X,X,X,X,X,X,X,X,X,X,X,X,X,X,X,X,X,X",
",X,X,X,X,X,X,X,X,X,X,X,X,X^.4 8 R C F q.k.a a ; i ..` ^ s q.H / ^ ^ v ^ K.L.' g.H *.~.,X,X,X,X,X,X,X,X,X,X,X,X,X,X,X,X,X,X,X,X,X",
",X,X,X,X,X,X,X,X,X,X,X,X,X,Xw 4 n n ..' . ; s.$ c @.^ j.s ^ [ [ X.^ ) L l R.i.e.] T < ,X,X,X,X,X,X,X,X,X,X,X,X,X,X,X,X,X,X,X,X,X",
",X,X,X,X,X,X,X,X,X,X,X,X,X,XU X h < g._ s.4 s k.k.X.b s ] e g.%.#.F.p u...r.U.] ] < e /.,X,X,X,X,X,X,X,X,X,X,X,X,X,X,X,X,X,X,X,X",
",X,X,X,X,X,X,X,X,X,X,X,X,X,X+X> ^ a.h.u.i.$ c s.) i.' ..K.B , =.n H.D.^ t.^ R.v.] ] j.' :X,X,X,X,X,X,X,X,X,X,X,X,X,X,X,X,X,X,X,X",
",X,X,X,X,X,X,X,X,X,X,X,X,X,X,X~.o g.u.f.~ k.% + F ^ ^ P.E.%.} G G ^ D._ ' _ P.U.' h.f.p.9.,X,X,X,X,X,X,X,X,X,X,X,X,X,X,X,X,X,X,X",
",X,X,X,X,X,X,X,X,X,X,X,X,X,X,XXX  ! j.p.p.r.l r...q._ p.q.p m : A.d.^ _ J F j.v.y.r.h.n._ `.*X,X,X,X,X,X,X,X,X,X,X,X,X,X,X,X,X,X",
",X,X,X,X,X,X,X,X,X,X,X,X,X,X,X,X,.9 i.w.h.^ k.R.~ ! l g u - r , x.3.~ ..@.S B G ....h.u.l &.{.OX,X,X,X,X,X,X,X,X,X,X,X,X,X,X,X,X",
",X,X,X,X,X,X,X,X,X,X,X,X,X,X,X,X:X7 ^ n.i.r.r.W...] ^ y.q.M # m w h / r.^ Y G : / @.r.f.| <.].:X,X,X,X,X,X,X,X,X,X,X,X,X,X,X,X,X",
",X,X,X,X,X,X,X,X,X,X,X,X,X,X,X,X,X0.8 ' m ) ' H.H.Q i.' r.S 9 J m @ g h.f e , Y { s._ l./ K E >X,X,X,X,X,X,X,X,X,X,X,X,X,X,X,X,X",
",X,X,X,X,X,X,X,X,X,X,X,X,X,X,X,X,X;X2 B 7./ p.r.R.X.[  .! 4 * A r D f.f g.D.M : J K.@.t.#.A.} :X,X,X,X,X,X,X,X,X,X,X,X,X,X,X,X,X",
",X,X,X,X,X,X,X,X,X,X,X,X,X,X,X,X,X,X2.8 -.C f.' H.R.] c _ ^ f.i.a & d y.Y.Y.F.v f.X._ t.$.).; 0.,X,X,X,X,X,X,X,X,X,X,X,X,X,X,X,X",
",X,X,X,X,X,X,X,X,X,X,X,X,X,X,X,X,X,X*X* Z P @ @.y.W.g.8 M g q.] Q U e Y.P.K.G.e.l ..n.~ 3.z.L 9.:X,X,X,X,X,X,X,X,X,X,X,X,X,X,X,X",
",X,X,X,X,X,X,X,X,X,X,X,X,X,X,X,X,X,X,XZ o J S j...d.{ U , d l.F.F.y.l.I.l.[ z ] h.l.@.) O.o.V Z._.,X,X,X,X,X,X,X,X,X,X,X,X,X,X,X",
",X,X,X,X,X,X,X,X,X,X,X,X,X,X,X,X,X,X,X/.# ] a.h.r.i.J r M { J.Y.P.I.N.[ z ] k.l.j.q.} <.0 - 2.}.5.,X,X,X,X,X,X,X,X,X,X,X,X,X,X,X",
",X,X,X,X,X,X,X,X,X,X,X,X,X,X,X,X,X,X,X,X;.9 a.p.y.@.] m N 0 N.I.l.` l t.a.e.p.j.q.- $ w 6.@X|.].3._.,X,X,X,X,X,X,X,X,X,X,X,X,X,X",
",X,X,X,X,X,X,X,X,X,X,X,X,X,X,X,X,X,X,X,X#X= r.v.p.t.@.v.F q.l.[ z r.v.h.f.h.p.z X w 5./.%X@XW W ; OX,X,X,X,X,X,X,X,X,X,X,X,X,X,X",
",X,X,X,X,X,X,X,X,X,X,X,X,X,X,X,X,X,X,X,X,XE 7 a.q.k._ k.j.[ ^ ] f.f.a.g.p.z % i 6.Z.B.B.[.) 1 y `.,X,X,X,X,X,X,X,X,X,X,X,X,X,X,X",
",X,X,X,X,X,X,X,X,X,X,X,X,X,X,X,X,X,X,X,X,X'.  ^ B < ^ f _ u.l.p.p.v.p.x % 8 5.C.<.V.{.L ; ,.'.y 0.,X,X,X,X,X,X,X,X,X,X,X,X,X,X,X",
",X,X,X,X,X,X,X,X,X,X,X,X,X,X,X,X,X,X,X,X,X,X& 9 , Z P B / #.t.j.t.x % w 5.%XC.B.&.i  .,.,X,X,X8.,X,X,X,X,X,X,X,X,X,X,X,X,X,X,X,X",
",X,X,X,X,X,X,X,X,X,X,X,X,X,X,X,X,X,X,X,X,X,X,Xe 9 P P =.>.*.] x + e b.@.&.&X X+.q 2.,X,X,X,X,X,X,X,X,X,X,X,X,X,X,X,X,X,X,X,X,X,X",
",X,X,X,X,X,X,X,X,X,X,X,X,X,X,X,X,X,X,X,X,X,X,X} 6 < R ,.A $ # A ).%X=X&.t D 0 2.,X,X,X,X,X,X,X,X,X,X,X,X,X,X,X,X,X,X,X,X,X,X,X,X",
",X,X,X,X,X,X,X,X,X,X,X,X,X,X,X,X,X,X,X,X,X,X,X,X7 F K $ O K ).@X=X%X}.i 3 4 ,X,X,X,X,X,X,X,X,X,X,X,X,X,X,X,X,X,X,X,X,X,X,X,X,X,X",
",X,X,X,X,X,X,X,X,X,X,X,X,X,X,X,X,X,X,X,X,X,X,X,X} # X 0 ).|.! } ].D 8 /.b.,X,X,X,X,X,X,X,X,X,X,X,X,X,X,X,X,X,X,X,X,X,X,X,X,X,X,X",
",X,X,X,X,X,X,X,X,X,X,X,X,X,X,X,X,X,X,X,X,X,X,X,X,X@ 3.).[..Xe 2 > (.,X,X,X,X,X,X,X,X,X,X,X,X,X,X,X,X,X,X,X,X,X,X,X,X,X,X,X,X,X,X",
",X,X,X,X,X,X,X,X,X,X,X,X,X,X,X,X,X,X,X,X,X,X,X,X,X+.S.}.Z.L * 2 9.,X,X,X,X,X,X,X,X,X,X,X,X,X,X,X,X,X,X,X,X,X,X,X,X,X,X,X,X,X,X,X",
",X,X,X,X,X,X,X,X,X,X,X,X,X,X,X,X,X,X,X,X,X,X,X,X,XOX; D i '.,X{ 7 ,X,X,X,X,X,X,X,X,X,X,X,X,X,X,X,X,X,X,X,X,X,X,X,X,X,X,X,X,X,X,X",
",X,X,X,X,X,X,X,X,X,X,X,X,X,X,X,X,X,X,X,X,X,X,X,X,X,X'.'.,X,X,X,Xr ,X,X,X,X,X,X,X,X,X,X,X,X,X,X,X,X,X,X,X,X,X,X,X,X,X,X,X,X,X,X,X",
",X,X,X,X,X,X,X,X,X,X,X,X,X,X,X,X,X,X,X,X,X,X,X,X,X,X,X,X,X,X,X,X,X,X,X,X,X,X,X,X,X,X,X,X,X,X,X,X,X,X,X,X,X,X,X,X,X,X,X,X,X,X,X,X",
",X,X,X,X,X,X,X,X,X,X,X,X,X,X,X,X,X,X,X,X,X,X,X,X,X,X,X,X,X,X,X,X,X,X,X,X,X,X,X,X,X,X,X,X,X,X,X,X,X,X,X,X,X,X,X,X,X,X,X,X,X,X,X,X",
",X,X,X,X,X,X,X,X,X,X,X,X,X,X,X,X,X,X,X,X,X,X,X,X,X,X,X,X,X,X,X,X,X,X,X,X,X,X,X,X,X,X,X,X,X,X,X,X,X,X,X,X,X,X,X,X,X,X,X,X,X,X,X,X",
",X,X,X,X,X,X,X,X,X,X,X,X,X,X,X,X,X,X,X,X,X,X,X,X,X,X,X,X,X,X,X,X,X,X,X,X,X,X,X,X,X,X,X,X,X,X,X,X,X,X,X,X,X,X,X,X,X,X,X,X,X,X,X,X",
",X,X,X,X,X,X,X,X,X,X,X,X,X,X,X,X,X,X,X,X,X,X,X,X,X,X,X,X,X,X,X,X,X,X,X,X,X,X,X,X,X,X,X,X,X,X,X,X,X,X,X,X,X,X,X,X,X,X,X,X,X,X,X,X",
",X,X,X,X,X,X,X,X,X,X,X,X,X,X,X,X,X,X,X,X,X,X,X,X,X,X,X,X,X,X,X,X,X,X,X,X,X,X,X,X,X,X,X,X,X,X,X,X,X,X,X,X,X,X,X,X,X,X,X,X,X,X,X,X",
",X,X,X,X,X,X,X,X,X,X,X,X,X,X,X,X,X,X,X,X,X,X,X,X,X,X,X,X,X,X,X,X,X,X,X,X,X,X,X,X,X,X,X,X,X,X,X,X,X,X,X,X,X,X,X,X,X,X,X,X,X,X,X,X",
",X,X,X,X,X,X,X,X,X,X,X,X,X,X,X,X,X,X,X,X,X,X,X,X,X,X,X,X,X,X,X,X,X,X,X,X,X,X,X,X,X,X,X,X,X,X,X,X,X,X,X,X,X,X,X,X,X,X,X,X,X,X,X,X",
",X,X,X,X,X,X,X,X,X,X,X,X,X,X,X,X,X,X,X,X,X,X,X,X,X,X,X,X,X,X,X,X,X,X,X,X,X,X,X,X,X,X,X,X,X,X,X,X,X,X,X,X,X,X,X,X,X,X,X,X,X,X,X,X",
",X,X,X,X,X,X,X,X,X,X,X,X,X,X,X,X,X,X,X,X,X,X,X,X,X,X,X,X,X,X,X,X,X,X,X,X,X,X,X,X,X,X,X,X,X,X,X,X,X,X,X,X,X,X,X,X,X,X,X,X,X,X,X,X",
",X,X,X,X,X,X,X,X,X,X,X,X,X,X,X,X,X,X,X,X,X,X,X,X,X,X,X,X,X,X,X,X,X,X,X,X,X,X,X,X,X,X,X,X,X,X,X,X,X,X,X,X,X,X,X,X,X,X,X,X,X,X,X,X",
",X,X,X,X,X,X,X,X,X,X,X,X,X,X,X,X,X,X,X,X,X,X,X,X,X,X,X,X,X,X,X,X,X,X,X,X,X,X,X,X,X,X,X,X,X,X,X,X,X,X,X,X,X,X,X,X,X,X,X,X,X,X,X,X"
};
