/* XPM */
static char *result[] = {
/* columns rows colors chars-per-pixel */
"64 64 232 2 ",
"   c #020100",
".  c #0B0303",
"X  c #0C0A04",
"o  c #080509",
"O  c #130203",
"+  c #140C0D",
"@  c #1C0B09",
"#  c #15150D",
"$  c #180E14",
"%  c #1C1515",
"&  c #1B1817",
"*  c #240E09",
"=  c #240917",
"-  c #320819",
";  c #251413",
":  c #2C1413",
">  c #23141C",
",  c #251C1E",
"<  c #2D1C1B",
"1  c #241D17",
"2  c #351A1A",
"3  c #2D120E",
"4  c #292218",
"5  c #34221D",
"6  c #302117",
"7  c #1F1E21",
"8  c #360823",
"9  c #2A1B24",
"0  c #3A1825",
"q  c #2C0D28",
"w  c #2D2423",
"e  c #2B2C2C",
"r  c #2A2327",
"t  c #352323",
"y  c #352B26",
"u  c #3C2D2C",
"i  c #3A2828",
"p  c #3C372C",
"a  c #3C3333",
"s  c #383836",
"d  c #372639",
"f  c #47151C",
"g  c #470F24",
"h  c #4B1529",
"j  c #5B142C",
"k  c #551C2C",
"l  c #541428",
"z  c #520F2D",
"x  c #711238",
"c  c #492729",
"v  c #42342D",
"b  c #48362E",
"n  c #572236",
"m  c #4A3434",
"M  c #4D3C39",
"N  c #453736",
"B  c #573839",
"V  c #4F273D",
"C  c #632439",
"Z  c #4C4238",
"A  c #584639",
"S  c #57503F",
"D  c #654B3B",
"F  c #634C35",
"G  c #781D4A",
"H  c #4B3644",
"J  c #583A47",
"K  c #5B2740",
"L  c #682842",
"P  c #792649",
"I  c #6E3745",
"U  c #7D2653",
"Y  c #653855",
"T  c #7B3257",
"R  c #4A4646",
"E  c #554444",
"W  c #5B4544",
"Q  c #554B45",
"!  c #5C4B46",
"~  c #5A454C",
"^  c #5C4D4D",
"/  c #5A5547",
"(  c #5A5654",
")  c #5E4C50",
"_  c #624B49",
"`  c #654645",
"'  c #78484B",
"]  c #6B554E",
"[  c #68574B",
"{  c #735B4C",
"}  c #75594A",
"|  c #674957",
" . c #74485C",
".. c #625453",
"X. c #6B5454",
"o. c #6B5B53",
"O. c #6B555C",
"+. c #6C5E5C",
"@. c #625E58",
"#. c #715C5C",
"$. c #755959",
"%. c #75634C",
"&. c #6D6253",
"*. c #656258",
"=. c #74645B",
"-. c #78655B",
";. c #776958",
":. c #7F785D",
">. c #63634A",
",. c #784A62",
"<. c #6B5763",
"1. c #795768",
"2. c #6D6563",
"3. c #6A6867",
"4. c #746463",
"5. c #7B6363",
"6. c #7B6C65",
"7. c #786969",
"8. c #7B756B",
"9. c #797473",
"0. c #7C7B7A",
"q. c #797873",
"w. c #6D6C71",
"e. c #871A4C",
"r. c #84264E",
"t. c #862957",
"y. c #942557",
"u. c #813051",
"i. c #864658",
"p. c #825D53",
"a. c #84685D",
"s. c #8A775B",
"d. c #8A4C72",
"f. c #885C78",
"g. c #874F6C",
"h. c #846A68",
"j. c #8C7465",
"k. c #85736C",
"l. c #8B7B6B",
"z. c #867869",
"x. c #937C69",
"c. c #846B7E",
"v. c #8B6B7C",
"b. c #837D7C",
"n. c #887776",
"m. c #947E73",
"M. c #957879",
"N. c #91647E",
"B. c #788069",
"V. c #98846B",
"C. c #8C8579",
"Z. c #92837B",
"A. c #9C807C",
"S. c #998878",
"D. c #9A977C",
"F. c #8E8C70",
"G. c #A58B76",
"H. c #AFA67B",
"J. c #A75B8B",
"K. c #8D6585",
"L. c #966985",
"P. c #9B758E",
"I. c #9F7D91",
"U. c #8D7783",
"Y. c #A67994",
"T. c #A9668E",
"R. c #848283",
"E. c #8C8C86",
"W. c #8A8788",
"Q. c #958A84",
"!. c #938D8B",
"~. c #988987",
"^. c #9E9184",
"/. c #999A8B",
"(. c #9A9493",
"). c #9D9C9C",
"_. c #979595",
"`. c #978E90",
"'. c #A69C82",
"]. c #A99C8A",
"[. c #A69688",
"{. c #A9879D",
"}. c #A49894",
"|. c #B79B99",
" X c #A99786",
".X c #9AA68E",
"XX c #AAA188",
"oX c #A8A19C",
"OX c #B2AB9B",
"+X c #B6A799",
"@X c #B7B69A",
"#X c #BFA48A",
"$X c #A49DA1",
"%X c #BA94A9",
"&X c #AD8CA2",
"*X c #9FA0A7",
"=X c #ABA5A4",
"-X c #AAA9A5",
";X c #B3AEAA",
":X c #B7A8A6",
">X c #BAA9B3",
",X c #B9B5B4",
"<X c #B5B1AE",
"1X c #C3AB9A",
"2X c #C0BA9C",
"3X c #C6A9A8",
"4X c #C5B6AB",
"5X c #C4BBAB",
"6X c #CABAAA",
"7X c #C7B8A4",
"8X c #C4B4BA",
"9X c #C8C3A8",
"0X c #C9C5B8",
"qX c #D4C5B4",
"wX c #D3C8B2",
"eX c #C6BBC1",
"rX c #D5BACC",
"tX c #D4B6CA",
"yX c #CBC9C6",
"uX c #D9CBC8",
"iX c #DCC6D5",
"pX c #DAD8D8",
"aX c #E6C7DB",
"sX c #E8DBE6",
"dX c #F3DFEF",
"fX c #EAE7E4",
"gX c #F1EEEF",
"hX c #FCE7F5",
"jX c #F3F3F3",
"kX c #FDFDFD",
"lX c #F0F4EC",
"zX c None",
/* pixels */
"zXzXzXzXzXzXzXzXzXzXzXzXzXzXzXzXzXzXzXzXzXzXzXzXzXzXzXzXzXzXzXzXzXzXzXzXzXzXzXzXzXzXzXzXzXzXzXzXzXzXzXzXzXzXzXzXzXzXzXzXzXzXzXzX",
"zXzXzXzXzXzXzXzXzXzXzXzXzXzXzXzXzXzXzXzXzXzXzXzXzXzXzXzXzXzXzXzXzXzXzXzXzXzXzXzXzXzXzXzXzXzXzXzXzXzXzXzXzXzXzXzXzXzXzXzXzXzXzXzX",
"zXzXzXzXzXzXzXzXzXzXzXzXzXzXzXzXzXzXzXzXzXzXzXzXzXzXzXzXzXzXzXzXzXzXzXzXzXzXzXzXzXzXzXzXzXzXzXzXzXzXzXzXzXzXzXzXzXzXzXzXzXzXzXzX",
"zXzXzXzXzXzXzXzXzXzXzXzXzXzXzXzXzXzXzXzXzXzXzXzXzXzXzXzXzXzXzXzXzXzXzXzXzXzXzXzXzXzXzXzXzXzXzXzXzXzXzXzXzXzXzXzXzXzXzXzXzXzXzXzX",
"zXzXzXzXzXzXzXzXzXzXzXzXzXzXzXzXzXzXzXzXzXzXzXzXzXzXzXzXzXzXzXzXzXzXzXzXzXzXzXzXzXzXzXzXzXzXzXzXzXzXzXzXzXzXzXzXzXzXzXzXzXzXzXzX",
"zXzXzXzXzXzXzXzXzXzXzXzXzXzXzXzXzXzXzXzXzXzXzXzXzXzXzXzXzXzXzXzXzXzXzXzXzXzXzXzXzXzXzXzXzXzXzXzXzXzXzXzXzXzXzXzXzXzXzXzXzXzXzXzX",
"zXzXzXzXzXzXzXzXzXzXzXzXzXzXzXzXzXzXzXzXzXzXzXzXzXzXzXzXzXzXzXzXzXzXzXzXzXzXzXzXzXzXzXzXzXzXzXzXzXzXzXzXzXzXzXzXzXzXzXzXzXzXzXzX",
"zXzXzXzXzXzXzXzXzXzXzXzXzXzXzXzXzXzXzXzXzXzXzXzXzXzXzXzXzXzXzXzXzXzXzXzXzXzXzXzXzXzXzXzXzXzXzXzXzXzXzXzXzXzXzXzXzXzXzXzXzXzXzXzX",
"zXzXzXzXzXzXzXzXzXzXzXzXzXzXzXzXzXzXzXzXzXzXzXzXzXzXzXzXzXzXzXzXzXzXzXzXzXzXzXzXzXzXzXzXzXzXzXzXzXzXzXzXzXzXzXzXzXzXzXzXzXzXzXzX",
"zXzXzXzXzXzXzXzXzXzXzXzXzXzXzXzXzXzXzXzXzXzXzXzXzXzXzXzXzXzXzXzXzXzXzXzXzXzXzXzXzXzXzXzXzXzXzXzXzXzXzXzXzXzXzXzXzXzXzXzXzXzXzXzX",
"zXzXzXzXzXzXzXzXzXzXzXzXzXzXzXzXzXzXzXzXzXzXzXzXzXzXzXzXzXzXzXzXzXzXzXzXzXzXzXzXzXzXzXzXzXzXzXzXzXzXzXzXzXzXzXzXzXzXzXzXzXzXzXzX",
"zXzXzXzXzXzXzXzXzXzXzXzXzXzXzXzXzXzXzXzXzXzXzXzXzXzXzXzXzXzXzXzXzXzXzXzXzXzXzXzXzXzXzXzXzXzXzXzXzXzXzXzXzXzXzXzXzXzXzXzXzXzXzXzX",
"zXzXzXzXzXzXzXzXzXzXzXzXzXzXzXzXzXzXzXzXzXzXzXzXzXzXzXzXzXzXzXzXzXzXzXzXzXzXzXzXzXzXzXzXzXzXzXzXzXzXzXzXzXzXzXzXzXzXzXzXzXzXzXzX",
"zXzXzXzXzXzXzXzXzXzXzXzXzXzXzXzXzXzXzXzXzXzXzXzXzXzXzXzXzXzXzXzXzXzXzXzXzXzXzXzXzXzXzXzXzXzXzXzXzXzXzXzXzXzXzXzXzXzXzXzXzXzXzXzX",
"zXzXzXzXzXzXzXzXzXzXzXzXzXzXzXzXzXzXzXzXzXzXzXzXzXzXzXzXzXzXzXzXzXzXzXzXzXzXzXzXzXzXzXzXzXzXzXzXzXzXzXzXzXzXzXzXzXzXzXzXzXzXzXzX",
"zXzXzXzXzXzXzXzXzXzXzXzXzXzXzXzXzXzXzXzXzXzXzXzXzXzXzXzXzXzXzXzXN zXzXzXzXzXzXzXzXzXzXzXzXzXzXzXzXzXzXzXzXzXzXzXzXzXzXzXzXzXzXzX",
"zXzXzXzXzXzXzXzXzXzXzXzXzXzXzXzXzXzXzXzXzXzXzXzXzXzXzXzXzX].qX:X~ $ r zXzXzXzXzXzXzXzXzXzXzXzXzXzXzXzXzXzXzXzXzXzXzXzXzXzXzXzXzX",
"zXzXzXzXzXzXzXzXzXzXzXzXzXzXzXzXzXzXzXzXzXzXzXzXzXzXzX/ ].qX7Xz.| H > , zXzXzXzXzXzXzXzXzXzXzXzXzXzXzXzXzXzXzXzXzXzXzXzXzXzXzXzX",
"zXzXzXzXzXzXzXzXzXzXzXzXzXzXzXzXzXzXzXzXzXzXzXzXzXzXzX=.qXqX|.m 1.g.<.9 | zXzXzXzXzXzXzXzXzXzXzXzXzXzXzXzXzXzXzXzXzXzXzXzXzXzXzX",
"zXzXzXzXzXzXzXzXzXzXzXzXzXzXzXzXzXzXzXzXzXzXzXzXzX7.) ^.qX7Xk.c.tX{.K.P.dX>X1.zXzXzXzXzXzXzXzXzXzXzXzXzXzXzXzXzXzXzXzXzXzXzXzXzX",
"zXzXzXzXzXzXzXzXzXzXzXzXzXzXzXzXzXzXzXzXzXzXzXzX{.U.! ^.qX+X+.iXY.f.P.aXdXaXY.<.zXzXzXzXzXzXzXzXzXzXzXzXzXzXzXzXzXzXzXzXzXzXzXzX",
"zXzXzXzXzXzXzXzXzXzXzXzXzXzXzXzXzXzXzXzXzXzX,Xv.hXeXW D.wX+X! c.L.N.tXY.L.N.L.c.zXzXzXzXzXzXzXzXzXzXzXzXzXzXzXzXzXzXzXzXzXzXzXzX",
"zXzXzXzXzXzXzXzXzXzXzXzXzXzXzXzXzXzXzXzXzXyX~ g.%X3X[ D.wX5X*.1 ,.L.P.L.L.K.K.rX9.zXzXzXzXzXzXzXzXzXzXzXzXzXzXzXzXzXzXzXzXzXzXzX",
"zXzXzXzXzXzXzXzXzXzXzXzXzXzXzXzXzXzX..=XkX>X| f.B b D.wX5X4X@XD.l.c f.f.K.rXaX%XK.1.fXzXzXzXzXzXzXzXzXzXzXzXzXzXzXzXzXzXzXzXzXzX",
"zXzXzXzXzXzXzXzXzXzXzXzXzXzXzXzXzX;.S.n.( O.O.< p D.@X:XM.h.m.6X@X8.b c.iX&XY.T.J.Y eXgXzXzXzXzXzXzXzXzXzXzXzXzXzXzXzXzXzXzXzXzX",
"zXzXzXzXzXzXzXzXzXzXzXzXzXzXzXzXo.XX6X+X[ ; A :.D.1XM.` k L j u.A.@XB.5 n.I.T.J.d.| +.4.4.Q zXzXzXzXzXzXzXzXzXzXzXzXzXzXzXzXzXzX",
"zXzXzXzXzXzXzXzXzXzXzXzXzXzXzX}.j.2XV.'.2XXXs.H.1X' j r.U r.y.e.j V.@XF.5 ~ d.d.| t Z.3XZ.h.Z <XzXzXzXzXzXzXzXzXzXzXzXzXzXzXzXzX",
"zXzXzXzXzXzXzXzXzXzXzXzXzXzXzXZ.+Xj.D D z.XX9XH.F g T P k I j t.r.l ;.@Xl.w J T w C.].l.a.a.j.v -XzXzXzXzXzXzXzXzXzXzXzXzXzXzXzX",
"zXzXzXzXzXzXzXzXzXzXzXzXzXzX$X1.M.B O O u &.V.%.f n Y %X>X:Xn.0 t.P : ;.7XoXu : C..X;.{ A D h.6 _.zXzXzXzXzXzXzXzXzXzXzXzXzXzXzX",
"zXzXzXzXzXzXzXzXzXzXzXzXzXzX=X! $.2 O . # 1 u i.j n %XhXfX;X,Xn.z U = % m.^.o.` z.6.A 5 3 c ] X.R <XzXzXzXzXzXzXzXzXzXzXzXzXzXzX",
"zXzXzXzXzXzXzXzXzXzXzXzXzXzX!.u X.: > 9 r a O n C c uXkX,XH ;X-X0 G - o 2 M &.4.J 9 % 2 W 5 u 4.9 `.zXzXzXzXzXzXzXzXzXzXzXzXzXzX",
"zXzXzXzXzXzXzXzXzXzXzXzXzXzXE.u o.* u H + % . g n p 9X.Xe 9 -XOX0 P 8 d c * # % = O < ..h.t < +.r ).zXzXzXzXzXzXzXzXzXzXzXzXzXzX",
"zXzXzXzXzXzXzXzXzXzXzXzXzXzXzXq.M B B $.u   . l C m 0X-Xq.E.0X;X0 L q H B * S 1 o O ~ 4.` : m M o =XzXzXzXzXzXzXzXzXzXzXzXzXzXzX",
"zXzXzXzXzXzXzXzXzXzXzXzXzXzXzX_.a  .B $.B . . l n N uXgXfX0XyX}.0 U - $ ; X. Xo.E ; J 5.t : ..w 9.kXzXzXzXzXzXzXzXzXzXzXzXzXzXzX",
"zXzXzXzXzXzXzXzXzXzXzXzXzXzXzXzX9.M _ _ M i M 2 T C 1.rX8X8X%Xg.U U - 0 # 8.|.s.%.2 v +.m ! N X -XzXzXzXzXzXzXzXzXzXzXzXzXzXzXzX",
"zXzXzXzXzXzXzXzXzXzXzXzXzXzXzXzXzX`.<._ =. XG.B k t.L K J i.C P y.g O : [ /.5.} p.; @ ^ 5.N X U.jXzXzXzXzXzXzXzXzXzXzXzXzXzXzXzX",
"zXzXzXzXzXzXzXzXzXzXzXzXzXzXzXzXzXzXE.< ;.S.} x.B f l x G e.e.y.l * F } /.2.| ` { W @ ; u + R.kXzXzXzXzXzXzXzXzXzXzXzXzXzXzXzXzX",
"zXzXzXzXzXzXzXzXzXzXzXzXzXzXzXzXzXzXzXQ.j.} F G.s.>.} C x r.x r.] >.V.XXF.v. .B o.4.! ; C.yXjXzXzXzXzXzXzXzXzXzXzXzXzXzXzXzXzXzX",
"zXzXzXzXzXzXzXzXzXzXzXzXzXzXzXzXzXzXpX}.@XS.} s.7X@Xm.p.' 5...h.S..X@Xl.M.h.i > e [ 6.w yXkXzXzXzXzXzXzXzXzXzXzXzXzXzXzXzXzXzXzX",
"zXzXzXzXzXzXzXzXzXzXzXzXzXzXzXzXzXzX;X#.6XG.%.m j.M.1X1X@XXXOX+X'.OXn.~.%X2   9 o b ] R 3.pXzXzXzXzXzXzXzXzXzXzXzXzXzXzXzXzXzXzX",
"zXzXzXzXzXzXzXzXzXzXzXzXzXzXzXzXzXpX(.+X+X:.4 o % t ^.9XXXS.x.7XwX3X| $XQ.B X , W.M n.Z.% <XzXzXzXzXzXzXzXzXzXzXzXzXzXzXzXzXzXzX",
"zXzXzXzXzXzXzXzXzXzXzXzXzXzXzXzXzXoXo.:Xk.4 X &   . Z 5XOXC.5 4.*.E H <.#.=.< C.zX( s R 0.gXzXzXzXzXzXzXzXzXzXzXzXzXzXzXzXzXzXzX",
"zXzXzXzXzXzXzXzXzXzXzXzXzXzXzXzXzX=X=.C.4 s 3.R 9.; M 4X^.*.q.$ X U.zX:X#.] E !.).e   w.jXzXzXzXzXzXzXzXzXzXzXzXzXzXzXzXzXzXzXzX",
"zXzXzXzXzXzXzXzXzXzXzXzXzXzXzXzXzXoX7.7.o R R w.zX..`.^.Q zXzX*XzXzXzXzXE 6.6.%     q.jXzXzXzXzXzXzXzXzXzXzXzXzXzXzXzXzXzXzXzXzX",
"zXzXzXzXzXzXzXzXzXzXzXzXzXzXzXzXzXzX!.u X X   3.zX4.uX7.( zXzXzXzXW.s zXN Z.6.4 9.).jXzXzXzXzXzXzXzXzXzXzXzXzXzXzXzXzXzXzXzXzXzX",
"zXzXzXzXzXzXzXzXzXzXzXzXzXzXzXzXzXzXzX@.    e zXzX4.4Xo.( zXzXzXzXe $ R.u Z.8.w zXkXzXzXzXzXzXzXzXzXzXzXzXzXzXzXzXzXzXzXzXzXzXzX",
"zXzXzXzXzXzXzXzXzXzXzXzXzXzXzXzXzXzXzXzXW.R.zXzX8X/ qXo.p q.s zXzXe   o 4.Q.Q 9.zXzXzXzXzXzXzXzXzXzXzXzXzXzXzXzXzXzXzXzXzXzXzXzX",
"zXzXzXzXzXzXzXzXzXzXzXzXzXzXzXzXzXzXzXzXzXzXzXzXzX8.S.C.p   s zXzXW.7 o ( Z q.zXzXzXzXzXzXzXzXzXzXzXzXzXzXzXzXzXzXzXzXzXzXzXzXzX",
"zXzXzXzXzXzXzXzXzXzXzXzXzXzXzXzXzXzXzXzXzXzXzXzXzXzXM.&.v # ).zXzXzXzXR.b.E.zXzXzXzXzXzXzXzXzXzXzXzXzXzXzXzXzXzXzXzXzXzXzXzXzXzX",
"zXzXzXzXzXzXzXzXzXzXzXzXzXzXzXzXzXzXzXzXzXzXzXzXzXzXzX!.3._.zXzXzXzXzXzXzXzXzXzXzXzXzXzXzXzXzXzXzXzXzXzXzXzXzXzXzXzXzXzXzXzXzXzX",
"zXzXzXzXzXzXzXzXzXzXzXzXzXzXzXzXzXzXzXzXzXzXzXzXzXzXzXzXzXzXzXzXzXzXzXzXzXzXzXzXzXzXzXzXzXzXzXzXzXzXzXzXzXzXzXzXzXzXzXzXzXzXzXzX",
"zXzXzXzXzXzXzXzXzXzXzXzXzXzXzXzXzXzXzXzXzXzXzXzXzXzXzXzXzXzXzXzXzXzXzXzXzXzXzXzXzXzXzXzXzXzXzXzXzXzXzXzXzXzXzXzXzXzXzXzXzXzXzXzX",
"zXzXzXzXzXzXzXzXzXzXzXzXzXzXzXzXzXzXzXzXzXzXzXzXzXzXzXzXzXzXzXzXzXzXzXzXzXzXzXzXzXzXzXzXzXzXzXzXzXzXzXzXzXzXzXzXzXzXzXzXzXzXzXzX",
"zXzXzXzXzXzXzXzXzXzXzXzXzXzXzXzXzXzXzXzXzXzXzXzXzXzXzXzXzXzXzXzXzXzXzXzXzXzXzXzXzXzXzXzXzXzXzXzXzXzXzXzXzXzXzXzXzXzXzXzXzXzXzXzX",
"zXzXzXzXzXzXzXzXzXzXzXzXzXzXzXzXzXzXzXzXzXzXzXzXzXzXzXzXzXzXzXzXzXzXzXzXzXzXzXzXzXzXzXzXzXzXzXzXzXzXzXzXzXzXzXzXzXzXzXzXzXzXzXzX",
"zXzXzXzXzXzXzXzXzXzXzXzXzXzXzXzXzXzXzXzXzXzXzXzXzXzXzXzXzXzXzXzXzXzXzXzXzXzXzXzXzXzXzXzXzXzXzXzXzXzXzXzXzXzXzXzXzXzXzXzXzXzXzXzX",
"zXzXzXzXzXzXzXzXzXzXzXzXzXzXzXzXzXzXzXzXzXzXzXzXzXzXzXzXzXzXzXzXzXzXzXzXzXzXzXzXzXzXzXzXzXzXzXzXzXzXzXzXzXzXzXzXzXzXzXzXzXzXzXzX",
"zXzXzXzXzXzXzXzXzXzXzXzXzXzXzXzXzXzXzXzXzXzXzXzXzXzXzXzXzXzXzXzXzXzXzXzXzXzXzXzXzXzXzXzXzXzXzXzXzXzXzXzXzXzXzXzXzXzXzXzXzXzXzXzX",
"zXzXzXzXzXzXzXzXzXzXzXzXzXzXzXzXzXzXzXzXzXzXzXzXzXzXzXzXzXzXzXzXzXzXzXzXzXzXzXzXzXzXzXzXzXzXzXzXzXzXzXzXzXzXzXzXzXzXzXzXzXzXzXzX",
"zXzXzXzXzXzXzXzXzXzXzXzXzXzXzXzXzXzXzXzXzXzXzXzXzXzXzXzXzXzXzXzXzXzXzXzXzXzXzXzXzXzXzXzXzXzXzXzXzXzXzXzXzXzXzXzXzXzXzXzXzXzXzXzX",
"zXzXzXzXzXzXzXzXzXzXzXzXzXzXzXzXzXzXzXzXzXzXzXzXzXzXzXzXzXzXzXzXzXzXzXzXzXzXzXzXzXzXzXzXzXzXzXzXzXzXzXzXzXzXzXzXzXzXzXzXzXzXzXzX",
"zXzXzXzXzXzXzXzXzXzXzXzXzXzXzXzXzXzXzXzXzXzXzXzXzXzXzXzXzXzXzXzXzXzXzXzXzXzXzXzXzXzXzXzXzXzXzXzXzXzXzXzXzXzXzXzXzXzXzXzXzXzXzXzX",
"zXzXzXzXzXzXzXzXzXzXzXzXzXzXzXzXzXzXzXzXzXzXzXzXzXzXzXzXzXzXzXzXzXzXzXzXzXzXzXzXzXzXzXzXzXzXzXzXzXzXzXzXzXzXzXzXzXzXzXzXzXzXzXzX",
"zXzXzXzXzXzXzXzXzXzXzXzXzXzXzXzXzXzXzXzXzXzXzXzXzXzXzXzXzXzXzXzXzXzXzXzXzXzXzXzXzXzXzXzXzXzXzXzXzXzXzXzXzXzXzXzXzXzXzXzXzXzXzXzX"
};
