/* XPM */
static char *_63a1378c1c94da1f8c90ca3ff951e87tQmbMIyfaczoi95V[] = {
/* columns rows colors chars-per-pixel */
"64 64 161 2 ",
"   c None",
".  c #00120F",
"X  c #001513",
"o  c #001B16",
"O  c #001D19",
"+  c #01241E",
"@  c #022620",
"#  c #022B25",
"$  c #092926",
"%  c #042F29",
"&  c #0F2F2C",
"*  c #05342D",
"=  c #09342D",
"-  c #13322E",
";  c #053730",
":  c #093731",
">  c #063A33",
",  c #0A3B34",
"<  c #143431",
"1  c #133935",
"2  c #173D39",
"3  c #193F3A",
"4  c #074037",
"5  c #07433A",
"6  c #0A443B",
"7  c #09493F",
"8  c #10443B",
"9  c #19403B",
"0  c #0A4C42",
"q  c #134B43",
"w  c #1A4943",
"e  c #0B5146",
"r  c #0D554A",
"t  c #0E5A4E",
"y  c #13554A",
"u  c #1A574E",
"i  c #115B4E",
"p  c #18594F",
"a  c #0F5D50",
"s  c #105E51",
"d  c #1C5C52",
"f  c #294644",
"g  c #2C4847",
"h  c #264F4A",
"j  c #2D4B48",
"k  c #2C544F",
"l  c #205B53",
"z  c #355452",
"x  c #3A5554",
"c  c #345F5A",
"v  c #3E5F5C",
"b  c #0F6053",
"n  c #126255",
"m  c #1B6257",
"M  c #156759",
"N  c #1D6359",
"B  c #156A5D",
"V  c #1B6A5D",
"C  c #25685F",
"Z  c #126F60",
"A  c #1C6D60",
"S  c #147364",
"D  c #1C7264",
"F  c #1E7668",
"G  c #1B7A6A",
"H  c #246D62",
"J  c #356761",
"K  c #3C6F68",
"L  c #237366",
"P  c #2A7067",
"I  c #237668",
"U  c #227B6D",
"Y  c #247F70",
"T  c #2B7D70",
"R  c #476764",
"E  c #4A6361",
"W  c #556B6B",
"Q  c #47736E",
"!  c #52706D",
"~  c #5B7775",
"^  c #5E7A77",
"/  c #5D7A78",
"(  c #637777",
")  c #1E806F",
"_  c #198776",
"`  c #268373",
"'  c #288576",
"]  c #278778",
"[  c #298778",
"{  c #2C8B7C",
"}  c #328778",
"|  c #318B7D",
" . c #2B907E",
".. c #4B8079",
"X. c #2D8F80",
"o. c #2F9282",
"O. c #269B87",
"+. c #219E8A",
"@. c #239481",
"#. c #329586",
"$. c #339887",
"%. c #329789",
"&. c #359B8B",
"*. c #27A38E",
"=. c #2FA08E",
"-. c #32A28E",
";. c #26A791",
":. c #2DA692",
">. c #2FA894",
",. c #25AC96",
"<. c #3BA896",
"1. c #28B79F",
"2. c #2ABBA2",
"3. c #6B8985",
"4. c #708987",
"5. c #7B9B97",
"6. c #7B9593",
"7. c #49AFA0",
"8. c #4AB9A7",
"9. c #4CB2A3",
"0. c #50B7A7",
"q. c #2CC7AD",
"w. c #2CCBAF",
"e. c #2CCCB0",
"r. c #2DD1B7",
"t. c #2ED5B8",
"y. c #31D2B5",
"u. c #3ED6BD",
"i. c #46CDB7",
"p. c #5EC5B6",
"a. c #4ED4BE",
"s. c #4CDBC4",
"d. c #57DCC5",
"f. c #5BDDC7",
"g. c #5CDFC8",
"h. c #66D2C0",
"j. c #63DEC9",
"k. c #6DD3C2",
"l. c #77DFCF",
"z. c #7ADFCC",
"x. c #6EE9D3",
"c. c #77E0D0",
"v. c #7BE4D1",
"b. c #8B999A",
"n. c #849494",
"m. c #97A5A4",
"M. c #99A6A6",
"N. c #9DA9AA",
"B. c #A1ADAE",
"V. c #A9B6B4",
"C. c #ABBCBA",
"Z. c #B3BEBD",
"A. c #BAC4C4",
"S. c #8BF5E3",
"D. c #8CF9E7",
"F. c #84F4E1",
"G. c #93FCEA",
"H. c #C9CFCF",
"J. c #CAD1D1",
"K. c #E3E7E7",
"L. c #ECEEEF",
/* pixels */
"                                                                                                                                ",
"                                                                                                                                ",
"                                                                                                                                ",
"                                                                                                                                ",
"                                                                                                                                ",
"                                                                                                                                ",
"                                                                                                                                ",
"                                                                                                                                ",
"                                                                                                                                ",
"                                                                                                                                ",
"                                                                                                                                ",
"                                                                                                                                ",
"                                                                                                                                ",
"                                                                                                                                ",
"                                                                                                                                ",
"                                                                                                                                ",
"                                                            ^ ^ ^ / ^                                                           ",
"                                                          # % % # # # z                                                         ",
"                                                        5.u u u p u q J C.                                                      ",
"                                                2 9 3 2 H %.%.#.$.{ ` I w 3 9 1 v                                               ",
"                                                : , , * N &.%.%.#.{ ` F 6 = , * x                                               ",
"                                              ..T T T T ' ] ] D A B M M A V C D P ! W                                           ",
"                                          x + m &.&.%.%.{ Y Y b t b t n U [ ' ] U # X b.                                        ",
"                                          K y L o.#.7.0.<.O.@.b r r r n D F F L D q 6 3.                                        ",
"                                      2 w X.&.| Y | l.S.g.e.2.b 7 e 0 e t n t n n U ` d $ z                                     ",
"                                      = , | &.X.' #.c.S.d.q.2.a 7 e 0 0 t t t t n U ` y o f                                     ",
"                                      = 8 X.#.9.k.h.a.s.=.n n 5 > 4 4 5 e e e e r n V 7 + g                                     ",
"                                      % , { %.p.G.F.i.t._ ; ; ; > ; ; > 7 e 0 0 e t b 6 o g L.                                  ",
"                                    5.u d [ X.8.x.j.>.+.Z % * % * ; * ; 4 7 7 7 e e r 7 * h V.A.                                ",
"                                R 1 H &.#.[ ` :.y.q.r > * @ @ @ + + + # ; ; 4 e 0 0 0 r t y 1 $ N.                              ",
"                                v # N &.#.' Y *.w.2.e ; % @ @ @ + + + + ; ; 5 0 0 e e r b r # o M.                              ",
"                                x + m &.X.A M B Z M > > % @ @ @ + + + + ; > 5 7 e V L M b r % + M.                              ",
"                                x o d &.o.M t r 7 7 > > * + + # # + + + , ; 5 7 e U ' D t r # + m.                              ",
"                                x O u #.] n t r 0 7 > ; * + + + # + + # ; > 7 7 e ` { F a y % + M.                              ",
"                                x o y ' ` n i r 7 7 > > % + + + + $ + + ; ; 5 7 r { &.U a r # O M.                              ",
"                                E - d Y U n n r 0 0 > > * + + + + + + # ; > 7 r s o.&.I r i 9 < B.                              ",
"                                    6., 6 D U n 0 0 7 7 > * * * * * * * 6 5 S ,.;.%.&.V # h Z.H.                                ",
"                                    N.+ % I ' V 7 0 0 0 5 > ; , > ; ; > 7 5 _ t.q.-.&.N o g L.                                  ",
"                                    m.@ * I ' V e e 0 0 7 > > 4 4 4 4 7 Z S =.s.i. .' p + g K.                                  ",
"                                    m.O # L ' D t r e 0 0 0 0 0 0 7 7 b 1.w.g.D.v.L i 5 o g                                     ",
"                                    B.< 2 I ` A i t e e 0 0 0 e 0 e 0 b 2.e.d.S.z.H r q & x                                     ",
"                                      H.A.c , i S D t r r 0 e A D G ` ] =.>.#.} T 6 * 4.J.                                      ",
"                                          g X 0 G G M s r 7 r U ' #.-.&.&.&.U t r @ X b.                                        ",
"                                          n.( Q n d 0 0 0 e r D F U ' ' I P m 0 u ~ (                                           ",
"                                              m.+ + + + > s i s t n n r # + @ O g                                               ",
"                                                < < 1 < q a i t t t i i 1 - < =                                                 ",
"                                                          * = , ; , * k                                                         ",
"                                                            o O o o X                                                           ",
"                                                                                                                                ",
"                                                                                                                                ",
"                                                                                                                                ",
"                                                                                                                                ",
"                                                                                                                                ",
"                                                                                                                                ",
"                                                                                                                                ",
"                                                                                                                                ",
"                                                                                                                                ",
"                                                                                                                                ",
"                                                                                                                                ",
"                                                                                                                                ",
"                                                                                                                                ",
"                                                                                                                                ",
"                                                                                                                                ",
"                                                                                                                                "
};
