/* XPM */
static char *result[] = {
/* columns rows colors chars-per-pixel */
"64 64 240 2 ",
"   c #35301B",
".  c #372C24",
"X  c #493B26",
"o  c #522F2D",
"O  c #6D3938",
"+  c #3F5B29",
"@  c #44461B",
"#  c #444B1C",
"$  c #494D1B",
"%  c #464A18",
"&  c #4B521B",
"*  c #49531D",
"=  c #53591D",
"-  c #575B1D",
";  c #504F1D",
":  c #5B621F",
">  c #444C22",
",  c #474624",
"<  c #465726",
"1  c #575924",
"2  c #525131",
"3  c #6B4E30",
"4  c #5C6322",
"5  c #5D6329",
"6  c #4D6636",
"7  c #636A23",
"8  c #666A27",
"9  c #6E7326",
"0  c #6B7729",
"q  c #727526",
"w  c #757B2A",
"e  c #7A7D2B",
"r  c #727529",
"t  c #696D34",
"y  c #60671F",
"u  c #3D6644",
"i  c #4E524C",
"p  c #4D5549",
"a  c #52534C",
"s  c #5A5A4E",
"d  c #55584B",
"f  c #5B5B52",
"g  c #545951",
"h  c #4E5350",
"j  c #605E55",
"k  c #684440",
"l  c #5B6254",
"z  c #5D645A",
"x  c #5A6A56",
"c  c #506B47",
"v  c #636255",
"b  c #64645A",
"n  c #6C6A5D",
"m  c #67675A",
"M  c #717059",
"N  c #586D63",
"B  c #587B6B",
"V  c #466A68",
"C  c #6E6D61",
"Z  c #626B62",
"A  c #706D61",
"S  c #637466",
"D  c #6B7163",
"F  c #6B756A",
"G  c #687B6B",
"H  c #757364",
"J  c #797563",
"K  c #747569",
"L  c #797669",
"P  c #7C7B6D",
"I  c #77796A",
"U  c #7D7C71",
"Y  c #747C71",
"T  c #647F71",
"R  c #817F2F",
"E  c #827D6C",
"W  c #827D72",
"Q  c #7E822C",
"!  c #76802A",
"~  c #76883B",
"^  c #6D9653",
"/  c #6B9851",
"(  c #6F8C55",
")  c #488871",
"_  c #6A826D",
"`  c #78846B",
"'  c #698674",
"]  c #758C7B",
"[  c #798676",
"{  c #72927D",
"}  c #7B967C",
"|  c #6E9574",
" . c #71A47C",
".. c #7FA156",
"X. c #83852C",
"o. c #8A8B2D",
"O. c #84892C",
"+. c #898A31",
"@. c #949332",
"#. c #9B9835",
"$. c #908F2E",
"%. c #A49E34",
"&. c #A39C39",
"*. c #A3A134",
"=. c #A8A63A",
"-. c #B5AC3B",
";. c #BCB53D",
":. c #B8B33D",
">. c #9DA038",
",. c #C1B73E",
"<. c #BBB741",
"1. c #ACA842",
"2. c #86836D",
"3. c #858474",
"4. c #898473",
"5. c #8E8975",
"6. c #88897A",
"7. c #948F7B",
"8. c #928975",
"9. c #94917C",
"0. c #9D997D",
"q. c #87917A",
"w. c #90A67A",
"e. c #C3BC42",
"r. c #CBBE42",
"t. c #CCC241",
"y. c #C6C142",
"u. c #D0C141",
"i. c #4D8B86",
"p. c #7F9482",
"a. c #7B9B84",
"s. c #749984",
"d. c #629787",
"f. c #56AA94",
"g. c #7CA38B",
"h. c #7AA98A",
"j. c #7BAC93",
"k. c #7CB496",
"l. c #7DB69B",
"z. c #7ABB9A",
"x. c #79B899",
"c. c #6FB59B",
"v. c #57B7AD",
"b. c #7EBFA3",
"n. c #78B7A2",
"m. c #6BB2A3",
"M. c #5AC5BB",
"N. c #7EC1A2",
"B. c #7FC0A8",
"V. c #73D6BC",
"C. c #59C6C4",
"Z. c #5CCBC5",
"A. c #5ACCCC",
"S. c #5ED0CA",
"D. c #5ACCD2",
"F. c #59C7D4",
"G. c #5FD0D2",
"H. c #61CEC9",
"J. c #63D2C5",
"K. c #69D5C5",
"L. c #63D3CC",
"P. c #69D5CB",
"I. c #6CDACD",
"U. c #6BD9C3",
"Y. c #76DECC",
"T. c #65D4D2",
"R. c #6DDCD3",
"E. c #6BDAD7",
"W. c #72DDD4",
"Q. c #70DFDC",
"!. c #79E3CD",
"~. c #75E2D4",
"^. c #7AE4D4",
"/. c #7AE5DB",
"(. c #7DEADD",
"). c #79E6D8",
"_. c #7EEEE3",
"`. c #859887",
"'. c #9C9582",
"]. c #9D9984",
"[. c #929A84",
"{. c #A19984",
"}. c #86A58C",
"|. c #98A58C",
" X c #83AD94",
".X c #88A891",
"XX c #95AC93",
"oX c #8AB596",
"OX c #83B59B",
"+X c #89B69A",
"@X c #83BA9C",
"#X c #8EBC9E",
"$X c #84B197",
"%X c #96BA9C",
"&X c #9ABB9E",
"*X c #98B299",
"=X c #8BB88B",
"-X c #86BCA1",
";X c #97BDA1",
":X c #86C29C",
">X c #ABCC9B",
",X c #82C1A3",
"<X c #89C8A9",
"1X c #96CBAE",
"2X c #9ACAAC",
"3X c #96C4A6",
"4X c #96CCB1",
"5X c #99C9B0",
"6X c #8AD3B3",
"7X c #96D8B8",
"8X c #8CCFAD",
"9X c #98E3BE",
"0X c #ACE0A5",
"qX c #C0ECA6",
"wX c #82DAC4",
"eX c #89E9CC",
"rX c #94E6C5",
"tX c #92E6CA",
"yX c #97EAC6",
"uX c #9CF4CF",
"iX c #99F7CF",
"pX c #84EBD4",
"aX c #8AEDD5",
"sX c #83EDDB",
"dX c #88E8D5",
"fX c #8BF1D6",
"gX c #8CF2DA",
"hX c #86F1DB",
"jX c #95F4D5",
"kX c #9AF4D3",
"lX c #9CFBD4",
"zX c #93F5DB",
"xX c #94F8DB",
"cX c #9CFBD9",
"vX c #96FAD5",
"bX c #8BF0CF",
"nX c #A0F9D3",
"mX c #8CF5E3",
"MX c #8FF5E0",
"NX c None",
/* pixels */
"NXNXNXNXNXNXNXNXNXNXNXNXNXNXNXNXNXNXNXNXNXNXNXNXNXNXNXNXNXNXNXNXNXNXNXNXNXNXNXNXNXNXNXNXNXNXNXNXNXNXNXNXNXNXNXNXNXNXNXNXNXNXNXNX",
"NXNXNXNXNXNXNXNXNXNXNXNXNXNXNXNXNXNXNXNXNXNXNXNXNXNXNXNXNXNXNXNXNXNXNXNXNXNXNXNXNXNXNXNXNXNXNXNXNXNXNXNXNXNXNXNXNXNXNXNXNXNXNXNX",
"NXNXNXNXNXNXNXNXNXNXNXNXNXNXNXNXNXNXNXNXNXNXNXNXNXNXNXNXNXNXNXNXNXNXNXNXNXNXNXNXNXNXNXNXNXNXNXNXNXNXNXNXNXNXNXNXNXNXNXNXNXNXNXNX",
"NXNXNXNXNXNXNXNXNXNXNXNXNXNXNXNXNXNXNXNXNXNXNXNXNXNXNXNXNXNXNX6 g NXNXNXNXNXNXNXNXNXNXNXNXNXNXNXNXNXNXNXNXNXNXNXNXNXNXNXNXNXNXNX",
"NXNXNXNXNXNXNXNXNXNXNXNXNXNXNXNXNXNXNXNXNXNXNXNXNXNXNXNXNXNXq.=X{ V NXNXNXNXNXNXNXNXNXNXNXNXNXNXNXNXNXNXNXNXNXNXNXNXNXNXNXNXNXNX",
"NXNXNXNXNXNXNXNXNXNXNXNXNXNXNXNXNXNXNXNXNXNXNXNXNXNXNXNXNXp w.qX:XN NXNXNXNXNXNXNXNXNXNXNXNXNXNXNXNXNXNXNXNXNXNXNXNXNXNXNXNXNXNX",
"NXNXNXNXNXNXNXNXNXNXNXNXNXNXNXNXNXNXNXNXNXNXNXNXNXNXNXNXNXx w.0Xk.) NXNXNXNXNXNXNXNXNXNXNXNXNXNXNXNXNXNXNXNXNXNXNXNXNXNXNXNXNXNX",
"NXNXNXNXNXNXNXNXNXNXNXNXNXNXNXNXNXNXNXNXNXNXNXNXNXNXNXNXd >X>XN.z.k.' d NXNXNXNXNXNXNXNXNXNXNXNXNXNXNXNXNXNXNXNXNXNXNXNXNXNXNXNX",
"NXNXNXNXNXNXNXNXNXNXNXNXNXNXNXNXNXNXNXNXNXNXNXNXNXNXp i t >X0Xz.z.f.N p i i NXNXNXNXNXNXNXNXNXNXNXNXNXNXNXNXNXNXNXNXNXNXNXNXNXNX",
"NXNXNXNXNXNXNXNXNXNXNXNXNXNXNXNXNXNXNXNXNXNXNXNXNXC H n d :X<Xz.z.i.V g b b j NXNXNXNXNXNXNXNXNXNXNXNXNXNXNXNXNXNXNXNXNXNXNXNXNX",
"NXNXNXNXNXNXNXNXNXNXNXNXNXNXNXNXNXNXNXj j NXNXf v 5.'.6.f { x.z.m.i.V l P W C s f NXf f f NXNXNXNXNXNXNXNXNXNXNXNXNXNXNXNXNXNXNX",
"NXNXNXNXNXNXNXNXNXNXNXNXNXNXNXNXNXi H '.'.v H '.0.3.3.` I z ' c.) V N U P U U U P f Z P K f NXNXNXNXNXNXNXNXNXNXNXNXNXNXNXNXNXNX",
"NXNXNXNXNXNXNXNXNXNXNXNXNXNXNXNXNXi m 5.5.L n A 3.W A b W g ' m.B V b L j L W K j C L W P s NXNXNXNXNXNXNXNXNXNXNXNXNXNXNXNXNXNX",
"NXNXNXNXNXNXNXNXNXNXNXNXNXNXNXNXNXC L W W U n s P W L C K S ' d.B N F F Z U U K a L 3.W U v f NXNXNXNXNXNXNXNXNXNXNXNXNXNXNXNXNX",
"NXNXNXNXNXNXNXNXNXNXNXNXNXNXNXNXa 5.9.W K U C j U ` `.p.T p.] T T p.s.G `.`.U F f L P L P C f a NXNXNXNXNXNXNXNXNXNXNXNXNXNXNXNX",
"NXNXNXNXNXNXNXNXNXNXNXa a a a a d 3.9.J s K W K S } `.}.| }..X.Xj..Xs.s..X`.Y F P U m f n n f d a a a a h NXNXNXNXNXNXNXNXNXNXNX",
"NXNXNXNXNXNXNXNXNXNXf b b b b b v v H P H v b T ' g.$XOX$XOXoX@X+XOXOX$X$X Xs.' S l s m m s j b b v b b b h NXNXNXNXNXNXNXNXNXNX",
"NXNXNXNXNXNXNXNXNXH H H H H J H J v v C U D _ { s.j.@Xl.OXl.l.l.l.l.l.l.l.-Xg.s.{ G D m j H K J K H L J K v f NXNXNXNXNXNXNXNXNX",
"NXNXNXNXNXNXNXNXa 4.9.4.5.4.4.4.4.E j f U `.}.$Xj.-Xz.-X-X-Xb.,X,X-Xz.,X-Xb.OXj.$X[.[ m d 7.9.4.4.4.4.4.4.L j a NXNXNXNXNXNXNXNX",
"NXNXNXNXNXNXNXNXs 4.{.{.{.{.0.'.{.{.P f p.}.$X@Xl.n.6XuXzXjXkXjXjXjXuXjXjXB.k.n.OX$X`.G s 8.].0.0.0.0.0.'.].A a NXNXNXNXNXNXNXNX",
"NXNXNXNXNXNXNXf 6.E J J J J J J J J F Y { j.@Xb.rXtX!.K.K.fXcXfXJ.P.).gXK.eXyX7Xl.@Xg.] [.L J K L J J K J J n j h NXNXNXNXNXNXNX",
"NXNXNXNXNXNXNXf 9.E A H J H J J J 2.} s.s.j.-XwX!.!.!.E.Z.W.^.R.A.A.E.W.A.Q./.Y.6X,Xj.g.*X[ H H K K K H J 2.J v h NXNXNXNXNXNXNX",
"NXNXNXNXNXNXNXf 9.P H P K J K K [ |.XXg.j.b.wX(.Z.H.W.(.Z.A.A.A.A.A.Z.D.A.A.S.R.pX8Xx.OX;X`.[ P K K J I E ].E v a NXNXNXNXNXNXNX",
"NXNXNXNXNXNXNXj '.L H L s d d z `.*X;XOXl.rX^.Z.Z.sX^.A.D.A.A.A.D.A.Z.A.D.Z.~.(.Z.aX6X@X2Xh.`.[ d a a b 3.'.E v a NXNXNXNXNXNXNX",
"NXNXNXNXNXNXNXf '.J H P J ` [ ] `.*X%X@Xx.rXzX/.Z.sX).A.D.A.A.A.G.A.R.(.A.A.S.S.Z.gX6XOX2X Xa.q.K L H E E {.E j a NXNXNXNXNXNXNX",
"NXNXNXNXNXNXNXNXJ 2.q.[.}.XX*XXXXX&X;XOXx.rXbXY.~.Q.T.A.D.A.C.A.).Z.T.R.A.D.A.S.A.R.Y.6X-X#X*X|.[.9.8.7.7.{.E j a NXNXNXNXNXNXNX",
"NXNXNXNXNXNXNXNXa ` |.XX&X%X&X&X;X%X@X@XB.dXW.J.gXU.A.A.D.D.S.R.(.J.D.A.A.D.D.D.G.A.^.tXx.3X;X*X|.9.8.7.7.7.H j a NXNXNXNXNXNXNX",
"NXNXNXNXNXNXNXNXd K } h.@Xj. X,X+Xh.h.b.jXP.A.T.mXL.A.A.D.D.W.sXS.A.D.D.D.D.A.A.Z.Z.^.tXx.-X X} [ M n M A M j a NXNXNXNXNXNXNXNX",
"NXNXNXNXNXNXNXNXN `.+X-XrX8X4XyX7X#Xk.b.jXP.Z.Z.S.G.A.A.D.A.S.J.D.S.Z.A.A.A.A.T._.H.^.rXl.3XoX{ S g a n 7.H f i NXNXNXNXNXNXNXNX",
"NXNXNXNXNXNXNXNXS XX;X<XuXyX9X7X2X-X@Xb.kXP.D.H.A.G.D.A.A.Q.I.A.D.D.A.L.).Z.A.G.~.~.gXrXx.2X+Xs.] D f b '.H f i NXNXNXNXNXNXNXNX",
"NXNXNXNXNXNXNXNXB .X;X<XuXnXyX5X3X&X@XB.jXY.H.D.D.A.A.S.J.).W.D.D.D.D.L.(.S.A.A.C.fXnX9Xx.4XoXa.`.I b A '.H f h NXNXNXNXNXNXNXNX",
"NXNXNXNXNXNXNXNXS }.;X-XuXuXuXuX7X:Xl.-XjXcXW.F.D.C.A.L.mXJ.D.A.C.Z.A.S.Z.S.D.D.Z.sXcXrXn.4XoXa.p.z n 5.'.H f a NXNXNXNXNXNXNXNX",
"NXNXNXNXNXNXNXNXg `.XXj.8X6X6X1X3X;Xl.N.uXcX~.D.A.A.S.L.mXI.A.D.S.).fXpXZ.D.F.A.S.S.).tXx.1XoXa.`.U U 6.{.A j i NXNXNXNXNXNXNXNX",
"NXNXNXNXNXNXNXNXd 6.[.{ g.g.s.a.&X-X@XB.lX!.L.A.F.A.R.~.R.Z.A.T.!.vXlXjX).Z.A.D.F.C.).tXl.5X+Xs.G Z j K {.A s a NXNXNXNXNXNXNXNX",
"NXNXNXNXNXNXNXNXa 3.7.Y ] s.' T &X#Xl.N.kXL.D.A.D.C.~.hXM.G.D.L.cXcXcXcXxXJ.A.D.D.C.^.rXk.2XoX{ S z a n '.H f i NXNXNXNXNXNXNXNX",
"NXNXNXNXNXNXNXNXa 4.8.C ] `.] ' &X#Xl.@XxXT.C.A.D.A.~.hXZ.A.Z.P.xXvXjXlXzXK.A.A.D.A.).rXz.2XoX{ S K b n '.A s i NXNXNXNXNXNXNXNX",
"NXNXNXNXNXNXNXNXa 4.8.b l [ `.`.&X#Xl.b.kXP.A.D.A.(.vXgXA.A.W.zXMXU.!.xXlXgXQ.A.D.A.).rXx.2XoX] S g C W {.H f i NXNXNXNXNXNXNXNX",
"NXNXNXNXNXNXNXNXa 3.5.m p z G ] &X#Xl.b.jXP.T.~.Z.sXcXaXA.A.W.jXI.S.L.~.cXcX~.Z.A.C.^.rXx.1XoXa.] F b H '.H f i NXNXNXNXNXNXNXNX",
"NXNXNXNXNXNXNXNXa 4.5.m f a z [ %X;Xl.N.zXP.T./.C.hXlXfXA.A.R.).S.D.A.L.cXcXY.C.A.P.pXrXl.4XoXa.p.F f n '.A s i NXNXNXNXNXNXNXNX",
"NXNXNXNXNXNXNXNXa 4.5.M U b D }.&X%Xl.N.jXI.A.A.Z.hXlXfXZ.A.Z.S.D.F.A.E.xXvX~.A.Z.sXxXrXx.4XoX{ Z g a A '.H j a NXNXNXNXNXNXNXNX",
"NXNXNXNXNXNXNXNXa 3.5.n W U [ `.&X#Xl.B.lXzXW.A.Z.pXvXfXA.A.Q.).S.D.A.K.vXlXW.A.D.Z.pXrXx.2XoXa.`.Y K 4.'.H f i NXNXNXNXNXNXNXNX",
"NXNXNXNXNXNXNXNXa 4.5.n b j Y `.&X#Xl.B.kXlX^.A.Z.pXcXfXC.A.L.Y.).J.E.pXvX~.L.A.A.A.).tXk.2X+Xa.`.G n J {.A f i NXNXNXNXNXNXNXNX",
"NXNXNXNXNXNXNXNXa 3.5.m a f D `.&X#Xl.N.kXdXI.D.A.~.jXfXI.S.A.L.(.J.~.cXvXS.A.A.A.A.).rXk.2X+Xa.] T b D '.A f i NXNXNXNXNXNXNXNX",
"NXNXNXNXNXNXNXNXa 3.5.m a C F _ &X#Xl.,XjXK.A.D.D.A.Y.cXxXT.A.A.A.H.^.vXfXS.A.A.A.S.^.rXk.2XoX{ B p.' [ '.J f i NXNXNXNXNXNXNXNX",
"NXNXNXNXNXNXNXNXi 3.5.b a a l G %X%Xl.N.jXP.D.Z.A.A.~.cXvXL.A.A.Z.pXgXhXL.A.A.G.Z.sXcXrXz.1X+Xs.T ' a..X|.K f i NXNXNXNXNXNXNXNX",
"NXNXNXNXNXNXNXNXd 4.5.n A D Y p.;X#Xl.N.jXP.A.Z./.L.T.W.xXbXpXsXdXzXpXL.A.D.D.D.Z.gXlXtXz.2XOXa.g.$X-X;X*X[ b a NXNXNXNXNXNXNXNX",
"NXNXNXNXNXNXNXNXa 3.5.D W H [ }.;X%Xl.B.kXK.A.L.mXI.A.A.^.xXcXlXlXpXI.A.D.C.A.D.Z.~.gXtXk.2X-X+X7X7X7X7X;X} z i NXNXNXNXNXNXNXNX",
"NXNXNXNXNXNXNXNXa 4.5.C P v S `.%X;Xl.-XjXI.D.G.hXU.A.A.C.pXjXgXfXK.D.D.D.A.A.A.D.Z.^.tXl.1X<X8XlXlXuXrX2Xa.x g NXNXNXNXNXNXNXNX",
"NXNXNXNXNXNXNXNXd 3.8.C P P F ' %X#Xz.N.jXU.A.D.J.pX~.A.D.A.S.S.S.A.A.S.A.A.A.C.A.A.^.eXx.4X3X8XkXkX7X1X3Xg._ N NXNXNXNXNXNXNXNX",
"NXNXNXNXNXNXNXNXd 3.8.m j j b _ %XoXl.N.kXaXR.D.Z.mX~.C.D.D.A.S.D.Z.R.).Z.A.E.).A.S.).rXx.1X3X1XuX9X9XrX2X}._ S NXNXNXNXNXNXNXNX",
"NXNXNXNXNXNXNXNXi 4.6.n b b l x | =Xn.N.kXdXR.A.A.I.~.R.A.A.A.A.D.A.E.W.A.D.~.gXZ.D.!.9Xx.1X:X,X7X . .}.}  .' S NXNXNXNXNXNXNXNX",
"NXNXNXNXNXNXNXNXh 4.8.J J J t ; * _ h.h.6XK.D.Z.S.Z.Y.sXA.D.A.A.D.D.D.G.D.S.).(.Z.C.V.<X .=X}.`.}.< & & > | _ x NXNXNXNXNXNXNXNX",
"NXNXNXNXNX> # > 6 2.0.2.2 * 5 0 * < * < u f.A.C.S.D.D.S.A.D.A.A.A.D.A.A.Z.pX~.G.S.C.) < * < ( | < < 7 8 < ( c > > NXNXNXNXNXNXNX",
"NXNXNXNX> 8 0 8 < 2 t t 0 @.@.w * # # % # u u ) M.D.D.A.Z.).R.A.A.D.D.A.D.P.S.D.M.) + # * 7 t 6 * 7 w 0 # 2 8 5 % NXNXNXNXNXNXNX",
"NXNXNXNXNX5 q e 7 1 : 8 #.,.-.e : * @ * : * # + ) v.A.A.A.Q.!.!.W.S.A.D.A.D.D.A.v.6 % * 4 ! 9 : y #.Q 7 : : r 9 $ NXNXNXNXNXNXNX",
"NXNXNXNXNX> : Q o.o.o.o.,.t.-.o.Q : % & 0 : > > u v.D.A.D.A.R.gXmXG.A.A.S.D.D.D.M.) < = Q Q O.$.@.1.e 7 o.$.O.9 1 NXNXNXNXNXNXNX",
"NXNXNXNXNX> : o.<.y.=.$.,.t.r.:.o.e 7 % $ q 7 6 f.C.C.C.C.C.C.J.A.Z.C.M.Z.C.C.Z.M.9X/ < Q Q *.y.;.@.X.@.,.,.%.X.w & NXNXNXNXNXNX",
"NXNXNXNX# 7 o.<.t.t.,.;.u.u.r.r.:.:.#.q q e ! 0 ^ ^ ^ / ^ ^ ^ ^ ^ / ^ ^ / ^ ^ / / 2.~ ! O.=.y.u.t.;.-.,.t.u.,.*.R r w 9 , NXNXNX",
"NXNXNXNX5 o.-.t.t.t.t.t.t.t.t.u.t.t.,.*.%.*.*.*.*.*.%.*.%.%.*.%.*.*.*.*.%.*.%.%.*.*.*.*.*.e.t.u.t.t.t.u.t.t.,.,.%.%.%.#.R NXNXNX",
"NXNXNX4 +.:.t.t.;.r.t.y.;.;.;.<.t.t.t.t.,.u.u.t.;.,.;.;.;.t.t.y.;.;.;.;.,.;.;.,.t.t.,.;.,.,.;.;.t.t.u.,.;.;.,.,.t.t.;.;.=.7 NXNX",
"NX< 1 +.<.t.t.<.$.-.r.<.o.X.X.$.<.r.r.t.t.t.,.;.o.X.Q Q X.-.t.;.o.X.R R X.X.X.@.r.r.*.Q Q X.X.#.,.t.t.-.X.X.o.#.,.y.#.X.X.! 5 , ",
"# 8 w o.e.t.-.$.X.:.-.$.X.7 7 Q @.;.u.t.t.%.@.O.- 1 = = - R -.;.X.: = ; = e X.@.y.#.o.w = = 9 +.#.,.t.=.- e R #.t.#.o.9 1 ! 1 > ",
"> 8 r q <.-.@.w 8 e X.e 1 & = 8 Q X.=.,.=.q 7 1 X O X X 3 4 X.#.8 1 3 2 X 1 y q >.O.9 = @   < 9 Q #.;.&.& w 8 5 X.8 w t $ 5 1 NX",
"# 7 7 - 1.$.e e $ @ 1 8 . . @ & q < r 1.e = #   o O O o k , 1 8 X 3 O O o X % = w w 4 @ ,   . 1 ! Q &.@.$ 9 o . @ % 7 8 # @ NXNX"
};
