/* XPM */
static char *result[] = {
/* columns rows colors chars-per-pixel */
"64 64 199 2 ",
"   c #32251E",
".  c #3C3A1D",
"X  c #2E2521",
"o  c #362022",
"O  c #3D3329",
"+  c #4C3829",
"@  c #5F322F",
"#  c #473030",
"$  c #5B2A31",
"%  c #65373B",
"&  c #464C16",
"*  c #43461A",
"=  c #454C1D",
"-  c #4A4D1D",
";  c #49421F",
":  c #4D551D",
">  c #51551C",
",  c #525A1E",
"<  c #5C5B1D",
"1  c #5D621F",
"2  c #57611F",
"3  c #434221",
"4  c #464D21",
"5  c #4C4C24",
"6  c #474629",
"7  c #564229",
"8  c #5B4A27",
"9  c #4D5121",
"0  c #4C522B",
"q  c #455025",
"w  c #525622",
"e  c #535A23",
"r  c #595D26",
"t  c #575829",
"y  c #5A4535",
"u  c #555B34",
"i  c #5D5E3E",
"p  c #575B36",
"a  c #4C5037",
"s  c #75433B",
"d  c #625F3B",
"f  c #615B25",
"g  c #5D6322",
"h  c #5E6229",
"j  c #636624",
"k  c #646A24",
"l  c #6B6E23",
"z  c #666C28",
"x  c #696D29",
"c  c #68652C",
"v  c #6D7326",
"b  c #6C742A",
"n  c #6E782D",
"m  c #657027",
"M  c #737526",
"N  c #72752A",
"B  c #757B2A",
"V  c #7A7C2B",
"C  c #757926",
"Z  c #6C7430",
"A  c #797D32",
"S  c #686E3B",
"D  c #4F4F48",
"F  c #4F4F47",
"G  c #504F47",
"H  c #4E524C",
"J  c #4C5146",
"K  c #525246",
"L  c #53544C",
"P  c #59564D",
"I  c #555A4E",
"U  c #5A594E",
"Y  c #525847",
"T  c #495856",
"R  c #545550",
"E  c #595751",
"W  c #5C5C53",
"Q  c #5C5D58",
"!  c #615F55",
"~  c #4C605B",
"^  c #506255",
"/  c #5D6255",
"(  c #53695D",
")  c #656846",
"_  c #706F49",
"`  c #636256",
"'  c #686657",
"]  c #65645A",
"[  c #6A665B",
"{  c #65695C",
"}  c #6B6A5C",
"|  c #6F6F55",
" . c #716E5D",
".. c #75735E",
"X. c #75785A",
"o. c #747645",
"O. c #506A62",
"+. c #587769",
"@. c #447675",
"#. c #466D69",
"$. c #6D6C62",
"%. c #646661",
"&. c #716E62",
"*. c #6D7162",
"=. c #6F7168",
"-. c #747264",
";. c #797462",
":. c #7E7A66",
">. c #757569",
",. c #797669",
"<. c #76796C",
"1. c #7C7B6C",
"2. c #7D7C71",
"3. c #787670",
"4. c #807B29",
"5. c #827D6D",
"6. c #817E71",
"7. c #7D822C",
"8. c #77802E",
"9. c #7E8132",
"0. c #6A805A",
"q. c #6C8169",
"w. c #7A896D",
"e. c #638878",
"r. c #66977C",
"t. c #83842B",
"y. c #8B862C",
"u. c #84892D",
"i. c #8B8B2E",
"p. c #948E2E",
"a. c #8D902F",
"s. c #818131",
"d. c #8D8C30",
"f. c #858830",
"g. c #8D9033",
"h. c #959432",
"j. c #9D9A34",
"k. c #9B9834",
"l. c #948E36",
"z. c #A49F35",
"x. c #9FA238",
"c. c #A3A135",
"v. c #A6A43A",
"b. c #ABA53A",
"n. c #ACAA3B",
"m. c #ADA737",
"M. c #B4AD3C",
"N. c #B8AF3C",
"B. c #B6B23D",
"V. c #BAB43D",
"C. c #BCB83E",
"Z. c #C3BA3F",
"A. c #C0B73F",
"S. c #A09C42",
"D. c #B5B143",
"F. c #BBB841",
"G. c #ACA744",
"H. c #81826F",
"J. c #8A8A6C",
"K. c #908D6E",
"L. c #858272",
"P. c #8B8573",
"I. c #8E8976",
"U. c #8C8778",
"Y. c #8E8A7A",
"T. c #948D77",
"R. c #938D7A",
"E. c #95907B",
"W. c #98947F",
"Q. c #9D997C",
"!. c #C4BD42",
"~. c #CABE42",
"^. c #D0BF42",
"/. c #C7C142",
"(. c #CCC141",
"). c #D0C142",
"_. c #528D81",
"`. c #5D9F99",
"'. c #569C8C",
"]. c #6A9E82",
"[. c #57A08A",
"{. c #77AA8F",
"}. c #76AA95",
"|. c #78B99A",
" X c #67AF98",
".X c #7BBFA0",
"XX c #7DC09C",
"oX c #9B9682",
"OX c #9E9983",
"+X c #969082",
"@X c #80A881",
"#X c #9FB288",
"$X c #87C597",
"%X c #9AD39C",
"&X c #B7DCA4",
"*X c #A6D6AB",
"=X c #C1DEA1",
"-X c #C4EAB0",
";X c None",
/* pixels */
";X;X;X;X;X;X;X;X;X;X;X;X;X;X;X;X;X;X;X;X;X;X;X;X;X;X;X;X;X;X;X;X;X;X;X;X;X;X;X;X;X;X;X;X;X;X;X;X;X;X;X;X;X;X;X;X;X;X;X;X;X;X;X;X",
";X;X;X;X;X;X;X;X;X;X;X;X;X;X;X;X;X;X;X;X;X;X;X;X;X;X;X;X;X;X;X;X;X;X;X;X;X;X;X;X;X;X;X;X;X;X;X;X;X;X;X;X;X;X;X;X;X;X;X;X;X;X;X;X",
";X;X;X;X;X;X;X;X;X;X;X;X;X;X;X;X;X;X;X;X;X;X;X;X;X;X;X;X;X;X;X;X;X;X;X;X;X;X;X;X;X;X;X;X;X;X;X;X;X;X;X;X;X;X;X;X;X;X;X;X;X;X;X;X",
";X;X;X;X;X;X;X;X;X;X;X;X;X;X;X;X;X;X;X;X;X;X;X;X;X;X;X;X;X;X;XY H ;X;X;X;X;X;X;X;X;X;X;X;X;X;X;X;X;X;X;X;X;X;X;X;X;X;X;X;X;X;X;X",
";X;X;X;X;X;X;X;X;X;X;X;X;X;X;X;X;X;X;X;X;X;X;X;X;X;X;X;X;X;X] #XW.e.T ;X;X;X;X;X;X;X;X;X;X;X;X;X;X;X;X;X;X;X;X;X;X;X;X;X;X;X;X;X",
";X;X;X;X;X;X;X;X;X;X;X;X;X;X;X;X;X;X;X;X;X;X;X;X;X;X;X;X;X;X` =X%Xr.T ;X;X;X;X;X;X;X;X;X;X;X;X;X;X;X;X;X;X;X;X;X;X;X;X;X;X;X;X;X",
";X;X;X;X;X;X;X;X;X;X;X;X;X;X;X;X;X;X;X;X;X;X;X;X;X;X;X;X;X;X0.&X%X[.( ;X;X;X;X;X;X;X;X;X;X;X;X;X;X;X;X;X;X;X;X;X;X;X;X;X;X;X;X;X",
";X;X;X;X;X;X;X;X;X;X;X;X;X;X;X;X;X;X;X;X;X;X;X;X;X;X;X;X;Xw.&X$XXXXX}.^ ;X;X;X;X;X;X;X;X;X;X;X;X;X;X;X;X;X;X;X;X;X;X;X;X;X;X;X;X",
";X;X;X;X;X;X;X;X;X;X;X;X;X;X;X;X;X;X;X;X;X;X;X;X;X;XH H H J.-X$XXX Xe.~ L D H ;X;X;X;X;X;X;X;X;X;X;X;X;X;X;X;X;X;X;X;X;X;X;X;X;X",
";X;X;X;X;X;X;X;X;X;X;X;X;X;X;X;X;X;X;X;X;X;X;X;X;X{ -.&.^ e.*X$XXX X@.T W ] ! ;X;X;X;X;X;X;X;X;X;X;X;X;X;X;X;X;X;X;X;X;X;X;X;X;X",
";X;X;X;X;X;X;X;X;X;X;X;X;X;X;X;X;X;X;X! ! ! ;XQ U ;.OXOX*.+.{.@X X`.@.~ -.w.1.Q W W ;XQ R W ;X;X;X;X;X;X;X;X;X;X;X;X;X;X;X;X;X;X",
";X;X;X;X;X;X;X;X;X;X;X;X;X;X;X;X;X;XE Y.oXL.W R.oXE.H.H.1...( |.[.@.~ q.6.1.5.1.3.$.E 3.1.$.L ;X;X;X;X;X;X;X;X;X;X;X;X;X;X;X;X;X",
";X;X;X;X;X;X;X;X;X;X;X;X;X;X;X;X;X;XP 5.I.5.&.[ 1.L.2.! ,.&.I }.[.@.R ,.} } 6.2.} ] -.1.H.} L ;X;X;X;X;X;X;X;X;X;X;X;X;X;X;X;X;X",
";X;X;X;X;X;X;X;X;X;X;X;X;X;X;X;X;X{ -.5.5.6.5.P } L.6.%.%.{ ( e.+.#.%.} [ $.H.1.W ] 6.6.w.>.E ;X;X;X;X;X;X;X;X;X;X;X;X;X;X;X;X;X",
";X;X;X;X;X;X;X;X;X;X;X;X;X;X;X;XH ] oXL.5.,.1.! $.1.5.6.` ! 1.W R %.3.L &.6.1.,.` } 2.,.1.>.] P ;X;X;X;X;X;X;X;X;X;X;X;X;X;X;X;X",
";X;X;X;X;X;X;X;X;X;X;XR L H L L K { oXP.' ! 2.3./ ] 5.1.` ` 1.1.<.w.1.I $.6.1.U $.2.,.U ] $.[ L L H L L L ;X;X;X;X;X;X;X;X;X;X;X",
";X;X;X;X;X;X;X;X;X;XL ` ] ] ` ` ` ' ' 1.,.$.W W L / 1.>.{ { &.-.&.-.&.[ } ,.,.P U W W ] } ` P ` ] ] ] ] ] / R ;X;X;X;X;X;X;X;X;X",
";X;X;X;X;X;X;X;X;X%.,.-.,.-.,.;.>. .! ] ,.,.[ ] E Q -.` Q / W Q Q ! W Q ! [ =.R Q ] { } ` [ ;.,.-.>.-.;.-.%.W ;X;X;X;X;X;X;X;X;X",
";X;X;X;X;X;X;X;X;X] OXK.P.P.5.P.P.6.;.P } 6.6.2./ R ] R H H L L L H R H G E ] L $.w.1.$.P  .OXP.P.P.P.P.P.5.$.P ;X;X;X;X;X;X;X;X",
";X;X;X;X;X;X;X;XP ' OXOXQ.OXOXOXOXoX+X! } 6.1.$.E L R ;X;X;X;X;X;X;X;X;X;X;XL L ! >.1.} U -.OXQ.Q.Q.Q.Q.OXOXU.P ;X;X;X;X;X;X;X;X",
";X;X;X;X;X;X;XL ,.U.,.,.;.;...;.;.;.;.[ ! ` $.W ;X;X;X;X;X;X;X;X;X;X;X;X;X;X;X;XE / $.W 1.P.;.;.>.>.,.,.;.;...] W ;X;X;X;X;X;X;X",
";X;X;X;X;X;X;XH 1.E.} -.-.;.;.-.;.:.5.&.E L Q ;X;X;X;X;X;X;X;X;X;X;X;X;X;X;X;X;X;XQ W L U.I.[ ;.&.;.,.-.-.:.5. .R ;X;X;X;X;X;X;X",
";X;X;X;X;X;X;XL 1.T.} 1.1.>.>.>.:.P.OX-.W D L ;X;X;X;X;X;X;X;X;X;X;X;X;X;X;X;X;X;X;XD L P.U. .w.,.-.-.-.1.R.+X} E ;X;X;X;X;X;X;X",
";X;X;X;X;X;X;XG 1.E. .1.} Y E L $.P.OX-.E R ;X;X;X;X;X;X;X;X;X;X;X;X;X;X;X;X;X;X;X;X;XL P.U. .2.] R R R -.T.oX .E ;X;X;X;X;X;X;X",
";X;X;X;X;X;X;XL ,.E. .1.1.-.,.,.1.P.Q.-.E H ;X;X;X;X;X;X;X;X;X;X;X;X;X;X;X;X;X;X;X;X;XP P.U. .1.,.,.,.-.1.R.E. .E ;X;X;X;X;X;X;X",
";X;X;X;X;X;X;X;X&.:.P.T.E.E.R.R.T.W.OX;.Q H ;X;X;X;X;X;X;X;X;X;X;X;X;X;X;X;X;X;X;X;X;X;X-.1.P.T.T.E.E.T.T.Q.W. .P ;X;X;X;X;X;X;X",
";X;X;X;X;X;X;X;X;X` T.R.R.R.E.E.T.T.T.} W ;X;X;X;X;X;X;X;X;X;X;X;X;X;X;X;X;X;X;X;X;X;X;XG } R.R.E.E.R.E.R.R.P.{ E ;X;X;X;X;X;X;X",
";X;X;X;X;X;X;X;X;XE -.}  .} $.}  . .[ P ;X;X;X;X;X;X;X;X;X;X;X;X;X;X;X;X;X;X;X;X;X;X;X;XL W &. .} | } |  . .] L ;X;X;X;X;X;X;X;X",
";X;X;X;X;X;X;X;X;X] Y.-./ / 3.W :.P.[ I ;X;X;X;X;X;X;X;X;X;X;X;X;X;X;X;X;X;X;X;X;X;X;X;XD $.R.$.I Y L I L.L.] R ;X;X;X;X;X;X;X;X",
";X;X;X;X;X;X;X;X;X] oX;.W R ] } P.E.} R ;X;X;X;X;X;X;X;X;X;X;X;X;X;X;X;X;X;X;X;X;X;X;X;XD &.oX .} *.] Y P.P.] L ;X;X;X;X;X;X;X;X",
";X;X;X;X;X;X;X;X;X] oX;.W L L } T.T.} R ;X;X;X;X;X;X;X;X;X;X;X;X;X;X;X;X;X;X;X;X;X;X;X;XD &.oX .1.3.$.` R.P.] L ;X;X;X;X;X;X;X;X",
";X;X;X;X;X;X;X;X;X] oX;.W L L K 5.T.} R ;X;X;X;X;X;X;X;X;X;X;X;X;X;X;X;X;X;X;X;X;X;X;X;XD -.Q. .1.} ! 1.oXP.] L ;X;X;X;X;X;X;X;X",
";X;X;X;X;X;X;X;X;X] W...*.<.<.,.R.T.} R ;X;X;X;X;X;X;X;X;X;X;X;X;X;X;X;X;X;X;X;X;X;X;X;XD -.W...<.3.1.2.oXP.] L ;X;X;X;X;X;X;X;X",
";X;X;X;X;X;X;X;X;X] Q.;.] ] ] ` P.R.} R ;X;X;X;X;X;X;X;X;X;X;X;X;X;X;X;X;X;X;X;X;X;X;X;XF &.oX} ] ] ] ] R.P.] L ;X;X;X;X;X;X;X;X",
";X;X;X;X;X;X;X;X;X] oX-.] Q W L 1.T.} L ;X;X;X;X;X;X;X;X;X;X;X;X;X;X;X;X;X;X;X;X;X;X;X;XD &.E...E R Q Y U.I.] L ;X;X;X;X;X;X;X;X",
";X;X;X;X;X;X;X;X;X] OX-.>.2.1.Q 5.T.} L ;X;X;X;X;X;X;X;X;X;X;X;X;X;X;X;X;X;X;X;X;X;X;X;XD -.oX} L / >.U I.P.` L ;X;X;X;X;X;X;X;X",
";X;X;X;X;X;X;X;X;X] oX-.Q ] 2.,.R.T.[ L ;X;X;X;X;X;X;X;X;X;X;X;X;X;X;X;X;X;X;X;X;X;X;X;XD -.oX .U L W ,.oXP.] L ;X;X;X;X;X;X;X;X",
";X;X;X;X;X;X;X;X;X] oX,.W L ] ` P.T.[ E ;X;X;X;X;X;X;X;X;X;X;X;X;X;X;X;X;X;X;X;X;X;X;X;XD -.E. .$.$.$.] T.P.] L ;X;X;X;X;X;X;X;X",
";X;X;X;X;X;X;X;X;X] oX-.] W K W P.T.[ I ;X;X;X;X;X;X;X;X;X;X;X;X;X;X;X;X;X;X;X;X;X;X;X;XD $.W. .$.>.%.K U.P.] L ;X;X;X;X;X;X;X;X",
";X;X;X;X;X;X;X;X;X] OX..,.>.U ,.E.T.} R ;X;X;X;X;X;X;X;X;X;X;X;X;X;X;X;X;X;X;X;X;X;X;X;XD -.W. .W I I U I.U.] Y ;X;X;X;X;X;X;X;X",
";X;X;X;X;X;X;X;X;X] OX;.,.3.,.1.E.T.} I ;X;X;X;X;X;X;X;X;X;X;X;X;X;X;X;X;X;X;X;X;X;X;X;XF $.W. .-.<.,.,.W.P.] L ;X;X;X;X;X;X;X;X",
";X;X;X;X;X;X;X;X;X] oX-.' ` ] 1.E.T.[ R ;X;X;X;X;X;X;X;X;X;X;X;X;X;X;X;X;X;X;X;X;X;X;X;XF -.W...1.>.` [ R.P.! L ;X;X;X;X;X;X;X;X",
";X;X;X;X;X;X;X;X;X] OX,.W R ! $.T.T.[ R ;X;X;X;X;X;X;X;X;X;X;X;X;X;X;X;X;X;X;X;X;X;X;X;XF &.W. .$.{ W L U.P.] L ;X;X;X;X;X;X;X;X",
";X;X;X;X;X;X;X;X;X] oX-.W W >.R 5.R.} R ;X;X;X;X;X;X;X;X;X;X;X;X;X;X;X;X;X;X;X;X;X;X;X;XF -.W. .I ] >.U I.U.` L ;X;X;X;X;X;X;X;X",
";X;X;X;X;X;X;X;X;X] oX-.W L L K 5.T.} R ;X;X;X;X;X;X;X;X;X;X;X;X;X;X;X;X;X;X;X;X;X;X;X;XD -.W.&.E L Q ,.oXP.! L ;X;X;X;X;X;X;X;X",
";X;X;X;X;X;X;X;X;X] oX;.} *.&.&.U.T.} R ;X;X;X;X;X;X;X;X;X;X;X;X;X;X;X;X;X;X;X;X;X;X;X;XF &.oX} $.&.-.5.oXP.[ L ;X;X;X;X;X;X;X;X",
";X;X;X;X;X;X;X;X;X] oX;.>.1.&.2.E.R.} R ;X;X;X;X;X;X;X;X;X;X;X;X;X;X;X;X;X;X;X;X;X;X;X;XF &.E...} $.$. .R.P.] L ;X;X;X;X;X;X;X;X",
";X;X;X;X;X;X;X;X;X] oX;.<.>.W -.R.R.} R ;X;X;X;X;X;X;X;X;X;X;X;X;X;X;X;X;X;X;X;X;X;X;X;XD -.oX} E L L W T.P.] L ;X;X;X;X;X;X;X;X",
";X;X;X;X;X;X;X;X;X] oX;.-.2.,.W 5.T.} L ;X;X;X;X;X;X;X;X;X;X;X;X;X;X;X;X;X;X;X;X;X;X;X;XJ *.W. .R R E ,.W.P.] H ;X;X;X;X;X;X;X;X",
";X;X;X;X;X;X;X;X;X{ OX..` Q ! K 5.W.} L ;X;X;X;X;X;X;X;X;X;X;X;X;X;X;X;X;X;X;X;X;X;X;X;XK *.oX .L /  .Y K.P.] P ;X;X;X;X;X;X;X;X",
";X;X;X;X;X;X;X;X;X] OX;.] ] ` a ) ;.} I ;X;X;X;X;X;X;X;X;X;X;X;X;X;X;X;X;X;X;X;X;X;X;X;Xa | W. .' ' ) h o...%.L ;X;X;X;X;X;X;X;X",
";X;X;X;X;X;X;X;XD %.oX1.-.X.X.e & 9 ` H ;X;X;X;X;X;X;X;X;X;X;X;X;X;X;X;X;X;X;X;X;X;X;X;X4 S J.>.*.) < 8.e u ] K ;X;X;X;X;X;X;X;X",
";X;X;X;X;X;X= = 0 ) Q.Q._ 5 w n r = q = 4 6 ;X;X;X;X;X;X;X;X;X;X;X;X;X;X;X;X;X;X;X;X;X- b z t X.u k 7.7.e u ) 4 4 ;X;X;X;X;X;X;X",
";X;X;X;X;Xe b v h 0 d d z V j.u.g : v v e = - 4 ;X;X;X;X;X;X;X;X;X;X;X;X;X;X;X;X;X;Xw b V B z u z i.v.t.e 4 t b : ;X;X;X;X;X;X;X",
";X;X;X;X;Xe z 8.b 2 2 1 t.n.!.d.7.f.j.v g g 2 g r ;X;X;X;X;X;X;X;X;X;X;X;X;X;X;X;X;X9 V h.c.h.k d.B.D.M g g k V , ;X;X;X;X;X;X;X",
";X;X;X;X;X;X- M u.i.a.t.v.(.!.k.n./.M.v m 8.7.B h ;X;X;X;X;X;X;X;X;X;X;X;X;X;X;X;X;Xw N c.!.Z.h.B./.b.< A a.i.V r w ;X;X;X;X;X;X",
";X;X;X;X;X;X: B v./.C.p.b.(.~.~./.V.p.D.4.f A , ;X;X;X;X;X;X;X;X;X;X;X;X;X;X;X;X;X;X;X9 C c.~.!.(.m.y.t.B./.B.i.7.k 4 ;X;X;X;X;X",
";X;X;X;X;Xe N v.Z./.(.V.Z.(.^.^.).Z.V.Z.M.m.n.V A 9.s.7.9.9.t.s.s.s.7.9.s.s.t.9.s.9.9.M z.!.(.).(.Z.M.V.Z.).Z.B.i.B N A w ;X;X;X",
";X;X;X;Xr v j.!./.(.(.(.(.(.(.(.~.).(.(.(.).~.m.z.z.c.c.z.z.z.z.c.z.z.c.c.c.c.c.c.c.z.z.V.).^.).(.(./.(.(.).Z.).m.z.c.z.y.N ;X;X",
";X;X;X> N k.~.(.Z.Z.(.(.Z.B.V.V.!.(.^.(.(.(.(.(.!.V.C.V.V.Z.(.(.!.V.V.V.B.C.V.B.Z.(.(.C.V.V.V.V.Z.(.(.(.C.V.V.C.~.(./.C.F.f.e ;X",
";X;X9 N x./.(.(.c.h.~.~.c.t.t.u.n./.~.(./.(.!.!.k.t.t.t.t.z.!.~.j.t.t.y.t.t.u.y.M./.C.i.t.t.t.u.B.~.)./.h.t.y.y.V.(.D.i.t.t.b 4 ",
";Xe b V v.(.~.j.u.h.~.k.i.N 1 B i.c.(.(.(.B.h.h.l w , > > l k.A.j.v , , , k 7.t.M.B.p.t.g : 1 7.i.m.(.~.N k 7.t.B.M.a.7.1 x N 4 ",
";X, 7.l k.!.c.i.b v t.t.l 5 & g N 7.i.F.V.a.j g - + y + 7 t l j.4.f 8 8 + 5 j j a.k.B k : . . j B a.m.!.z g C < V N l B w w j ;X",
";X: n : s.b.B 8.1 * - v + X 3 * k z > S.l.l & . + @ s $ % y 5 Z > 8 s s $ # ; & z B b : * .   3 z V d.G.j < c o # * : n w * 3 ;X"
};
