/* XPM */
static char *result[] = {
/* columns rows colors chars-per-pixel */
"64 64 45 1 ",
"  c #58972F",
". c #58982F",
"X c #5A9731",
"o c #5D9A34",
"O c #609B36",
"+ c #639D3A",
"@ c #66A13B",
"# c #6EA545",
"$ c #70A647",
"% c #72A749",
"& c #74A94B",
"* c #78AC4E",
"= c #7DAC54",
"- c #7DAE58",
"; c #7EB054",
": c #81AD56",
"> c #83AE59",
", c #83B057",
"< c #85B15B",
"1 c #88B35D",
"2 c #8EBD5E",
"3 c #90BF5F",
"4 c #85B361",
"5 c #8DB665",
"6 c #8FB866",
"7 c #8FB669",
"8 c #90BA66",
"9 c #90B76B",
"0 c #92B96B",
"q c #96BC71",
"w c #9BBF78",
"e c #95C265",
"r c #98C467",
"t c #97C068",
"y c #9BC66B",
"u c #9FC96D",
"i c #9EC670",
"p c #9DC17A",
"a c #A0C96E",
"s c #A3CA74",
"d c #A7CB7C",
"f c #A9CE7E",
"g c #ABD07F",
"h c #A3C483",
"j c #ACCF82",
/* pixels */
"=##$##$$-,:<yuuy&$$&$$$$:><>$$$&yaay885576777778aaar857677777780",
"*######$=::,yuuy&#$@@$$$:>>:$$#%raau855876666668aaay867665756570",
"*#######=::,yuuy&$##%#%&>>>=$$$&raay859577776667aaaa857165576770",
"-&&&$&&&:,><yuar&###$$$&=:::&&%*tauy8585151165568ra0655115515550",
"955455555566yuuy&$$###$$=>::4555yuay8555*$$&5555,,,,>>::%$$&:::1",
"q56665757566yuuy&######$=>:>5558uuau8955%$$$1555:,::::::$$$$:::>",
"q55556666666yuuy&$$$##$$=:::7558yauy8555$@$%7555,>::::::$$$$:::1",
"q55557578688yyyr*&$%$$$$=>:>5888yyyy8886:&*:7955,,>>::::&%&&:>>1",
"5>>>5558yuuy1>><1555::::::::8aar1:<<raarrry81>:>5555&$$&45555550",
"1::>5855yuuy<-::5555:::::::<aaar<::<yaaaaaaa>::>5551$#$&5555555q",
"5:::5558yiuy>>::5555>::::::<aaaa,::,aaaaaaay>::>5555$#@*5755585q",
"<:::5555yyuy1<>>5677:::::::,3rra<>>18aqaqaa81<,,8882*&&*55555550",
"5::::>>>555799997665:%$&:::,>,,,55558099,,><aaaryyuyryrr55579990",
"5::::::>577799956661$%@$:::::::>58597595>::<raaaaauauuau5577500q",
"1:::::::577909957766%@@&::::>::>55550777>>:<aaaauuuaaaaa8575779q",
"<===>>:>557754<<1551*&$&,1<<>>>>55999974,,,13yryyryyrry855557979",
"=$$%45591>>>+OoO=>:>::=:8aaa11559905>>:<ryut<><,,,,:%%%%>>>>4>>>",
"=##%4559>>>:O Xo*::::::>raaa88759009>::<yuay,::::::-$#$$:>>>>>:4",
"*##%5555>>::OX o=::::>:>aaaa86779995>::,yaay<>::::::%#$%>>>>:>:>",
"-&&*58q01,,,+OOO=:::>>>>0yyy75570985>:><ryyy<>>>=::*%%%&>>>>>>>5",
"ayyyyaaaryar,:*::::>555557654>><yayy<::,88855551%$$$::>>5556qyys",
"dayaaaayaaar<::::::>55857765><>1qaay,::,55555585%#$$=:>>7676iaas",
"daaasayaaaay<::::::>55555577>>>>yaay,::>55855581%$#$>>>>5557yaas",
"yrtqiyyayyrr<::,:::>15155554>>:,yyay::=:5415551<%$#$====1155yyya",
"-&&*eauu<,,,::::::::&$$&:::>:::<yaar&##$$$$$&$$$$$$$OooO$%%&7560",
"=$$&euuu<:::::::::::$#$$=::::::,yyar&###$$$###$$$$$$O  o###&5770",
"-$$$esay<::::::::::=$$#$=:::::-,yaay*@##@$$@##$&#$&$X XO###%5670",
"=$$$eyyy2<<<1<1<:===&$$&:>><1<<13rr3*&&****&##@**&&$@+@+#$$&1550",
"*##$5778yyyyuyyr*#$$=:::5656yuyr&$%&25568aae$#$$>:::3ra3::::::>1",
"*##$4556yaaaaaay&#$$:::>5566yuuy&##%5556yaae&#$$:::>aaar,:::::>>",
"*##$5566yaaaaaay&##&:::>5556uuur&$#&5666aaar&$$$:::>aaaa,::::::>",
">&&=1555yaayrrye*%&&>>:>1515eeee&##&4766yaay&$%%:::>rrrq,:::>>>5",
"arar,,,,3aaa1>>>::>>::::%$$%%%%$###%5666yauy,::::::,>:,,::>>5550",
"saaa1::,aaaa1::::>>>::::%#########$%4666uuur,:::::::::::::>>5580",
"saaa,::,8aaq,::>>1>:::,:%#$###$$#$#%5666uaau,:::::::>:>>:>:,5550",
"ar3r11<<aaaa1>>1>1>>,,<,&%%%&&&%&&&*5676tyrt111<,:::>>>>,>,>5559",
":$$&raaaaaar85999557aaar>:::555555555777>>><ruur,::>15555575>::1",
"*$$$8aaaaaaa09599755aaar>::>555556575700>::,yuuy,::<58855754>:>5",
"*$$$raaaaarr00556759aaaa,>:>777765757977::,<uuuy,::,55855777:::>",
"=$$&3rrrraaaq088555983r81>>>111557799975,::,3eee1<<188081544:>:>",
"1:::,,:<yaaaaqyy7565&$$&>775%$$%57779955>:::&%%*rraraaar>>>:%=%%",
"1::::::<qaaaaaay8765%$$%5575%$$%57999955>:::$#@*raaaaaar>:>>%%%%",
"5>:::::,yaayaaaa8807%##$5775%$$%79075555,::=%#@&raaaaaaa>:>>%##%",
"5<<<:*:>taayyyty1111*&&*>555%%%%445415551<1,&&&*3raa83q0>11>%$$&",
"aaa8&%&&ryaa0555%$$%1751>>:::::>%$$%>>>>ruur,:::,,:,>::>9994%##%",
"saay&$&&raay8555%#$$5777>::::>>>&##$=:>>ruuu,::::,::::>>9955%#%&",
"faay*#%%raaa0855&$#$5555>::::>>:$##$=::>uaur,::::::::>>49794%##%",
"saay:&&*8yya8885&$#$5555>::>>>::$##$:>>1raay111,:::::>>><<4>=%=:",
"saaa85558980yayy*##%5555>:><>>::$#$%5558araaraa8@$$%:::=##$&tyya",
"saaa05855558yaay&##$5595>:>>::::$##%5858raaaaaay&$@$::::$#$&yaas",
"saaa85858858yaay&##$45554>4>::::$$$%5558aaaaaaaa*@&&::::$##&uaas",
"syyr895580088332%##$155444>>>>>:&$%&55553eeeer88*%%&**:*&&&=erty",
"q8885589yuue@.Oo###$:::>75575555:::>5585&$$&:>>:::::$@$%5551>,><",
"q5558555yuuy@..o#$##::::57555565>::>5555$$@$=:::::::%%$&5585::><",
"q5555858uuay@..o+$#$=:::55757775>::>5555*@$&=:::::::$$@%5555>::<",
"05555550eee3@ooO####===:55515765>:::5151*$&&=>=>,,,>$$$&6888>:><",
"5::>5555&$%$########$$#$:>:,5555:::>:::>::==%%%%4661%##&ruur,::<",
"4::-7557%##############$:::,5585,::::::::::>%%$%5665%##&ruay<::1",
"5:->5597&#######$#$$####::>,5855>::::::::>>>%$#%5561%##&uaar,::>",
"5><<<44-%#####$#%%$%&&&=<<118885<><<111<1541=%%=4561&%%*2ee311<5",
"0555&$$$$#####&&::-:5558yyayayay8558yraayiyy6555>:,:-::=$$$*ruuu",
"q555%#$######%#&::::5555aaaaaaay8558aayasuay6555:::::::=$#$%uuys",
"q555%$#$##%$%%$%=::>5559raauaaaa8558yayyuyuy6555>:::;:-;$##&yyys",
"hppw7--4----44-<9990wpwaggffffffppppdgfffggfpppw09089970<-<4djjj"
};
