/* XPM */
static char *result[] = {
/* columns rows colors chars-per-pixel */
"64 64 198 2 ",
"   c #001215",
".  c #001C1E",
"X  c #001719",
"o  c #00240C",
"O  c #162506",
"+  c #12280C",
"@  c #032D17",
"#  c #152D12",
"$  c #182D12",
"%  c #05321D",
"&  c #0A331D",
"*  c #15361A",
"=  c #011E21",
"-  c #032224",
";  c #092C29",
":  c #0B3522",
">  c #0C3B24",
",  c #0F362C",
"<  c #143B24",
"1  c #183B20",
"2  c #11322F",
"3  c #123E29",
"4  c #0E2F30",
"5  c #113333",
"6  c #163E37",
"7  c #0E3533",
"8  c #15422C",
"9  c #19442E",
"0  c #154533",
"q  c #154832",
"w  c #19423D",
"e  c #1C4834",
"r  c #28572E",
"t  c #264D3B",
"y  c #2A4D3C",
"u  c #225331",
"i  c #2A5B35",
"p  c #29513D",
"a  c #234A27",
"s  c #316035",
"d  c #356B33",
"f  c #3D7238",
"g  c #2E6239",
"h  c #457C3C",
"j  c #1B3E40",
"k  c #1C4443",
"l  c #1A4947",
"z  c #184745",
"x  c #244443",
"c  c #2B4446",
"v  c #2D4A4B",
"b  c #304B4D",
"n  c #245444",
"m  c #24544C",
"M  c #255A4B",
"N  c #295A4C",
"B  c #2D5544",
"V  c #375B4A",
"C  c #374E50",
"Z  c #2A5655",
"A  c #265A55",
"S  c #295C57",
"D  c #275D5B",
"F  c #295C5A",
"G  c #265756",
"H  c #375A57",
"J  c #33634B",
"K  c #3E744F",
"L  c #2C635C",
"P  c #2D665A",
"I  c #3A655C",
"U  c #376959",
"Y  c #3F735F",
"T  c #2D6261",
"R  c #316563",
"E  c #3A6D64",
"W  c #356B67",
"Q  c #3C7263",
"!  c #38716E",
"~  c #3C7672",
"^  c #4B6A5B",
"/  c #466757",
"(  c #417654",
")  c #52705F",
"_  c #44794C",
"`  c #566769",
"'  c #59696C",
"]  c #546567",
"[  c #457869",
"{  c #597365",
"}  c #597466",
"|  c #437976",
" . c #447D7B",
".. c #487C7A",
"X. c #5E7D72",
"o. c #4C843B",
"O. c #4D8936",
"+. c #528D3C",
"@. c #50863F",
"#. c #569239",
"$. c #5A963B",
"%. c #649F3E",
"&. c #6DAA3E",
"*. c #71AB3F",
"=. c #77BB3C",
"-. c #588D47",
";. c #5E9942",
":. c #55924D",
">. c #518C59",
",. c #5A965B",
"<. c #4C8754",
"1. c #689E4B",
"2. c #629C5C",
"3. c #659D51",
"4. c #66A141",
"5. c #6AA543",
"6. c #6EAA44",
"7. c #6BA54D",
"8. c #6CA84C",
"9. c #72AB43",
"0. c #73AD4A",
"q. c #7AB446",
"w. c #76B14A",
"e. c #7DB94C",
"r. c #76B042",
"t. c #64A253",
"y. c #6AA354",
"u. c #6DA951",
"i. c #68A35D",
"p. c #71AA55",
"a. c #7FBA58",
"s. c #4B836C",
"d. c #558E6C",
"f. c #559169",
"g. c #5B9568",
"h. c #4D8574",
"j. c #4E8A74",
"k. c #45827C",
"l. c #4D897B",
"z. c #4A867B",
"x. c #568D70",
"c. c #558978",
"v. c #5B9474",
"b. c #5F9875",
"n. c #5B957B",
"m. c #579176",
"M. c #649E67",
"N. c #629D6D",
"B. c #629B76",
"V. c #639C7B",
"C. c #71877A",
"Z. c #68A17C",
"A. c #6BA560",
"S. c #AEDF3E",
"D. c #81BC4E",
"F. c #82BD53",
"G. c #8EC95A",
"H. c #89C35A",
"J. c #94CD56",
"K. c #99D45B",
"L. c #A8DF54",
"P. c #A4DA58",
"I. c #B0E34F",
"U. c #B0E552",
"Y. c #99D565",
"T. c #99D46A",
"R. c #9DD871",
"E. c #A4E06E",
"W. c #ACE379",
"Q. c #447F81",
"!. c #6F7F81",
"~. c #468482",
"^. c #498683",
"/. c #4B8985",
"(. c #698583",
"). c #728283",
"_. c #7B8A87",
"`. c #659E80",
"'. c #7E908F",
"]. c #69A280",
"[. c #829595",
"{. c #9CA6A6",
"}. c #A4ADAD",
"|. c #B9EC84",
" X c #ACE199",
".X c #99CFAD",
"XX c #AFC1BF",
"oX c #B1C0BF",
"OX c #A1D6B6",
"+X c #B4E7AA",
"@X c #BFF5B2",
"#X c #C3F3B2",
"$X c #BAC8C7",
"%X c #C5CCCA",
"&X c #C9D1CE",
"*X c #C4F6D6",
"=X c #D4FFE8",
"-X c None",
/* pixels */
"-X-X-X-X-X-X-X-X-X-X-X-X-X-X-X-X-X-X-X-X-X-X-X-X-X-X-X-X-X-X-X-X-X-X-X-X-X-X-X-X-X-X-X-X-X-X-X-X-X-X-X-X-X-X-X-X-X-X-X-X-X-X-X-X",
"-X-X-X-X-X-X-X-X-X-X-X-X-X-X-X-X-X-X-X-X-X-X-X-X-X-X-X-X-X-X-X-X-X-X-X-X-X-X-X-X-X-X-X-X-X-X-X-X-X-X-X-X-X-X-X-X-X-X-X-X-X-X-X-X",
"-X-X-X-X-X-X-X-X-X-X-X-X-X-X-X-X-X-X-X-X-X-X-X-X-X-X-X-X-X-X-X-X-X-X-X-X-X-X-X-X-X-X-X-X-X-X-X-X-X-X-X-X-X-X-X-X-X-X-X-X-X-X-X-X",
"-X-X-X-X-X-X-X-X-X-X-X-X-X-X-X-X-X-X-X-X-X-X-X-X-X-X-X-X-X-X-X-X-X-X-X-X-X-X-X-X-X-X-X-X-X-X-X-X-X-X-X-X-X-X-X-X-X-X-X-X-X-X-X-X",
"-X-X-X-X-X-X-X-X-X-X-X-X-X-X-X-X-X-X-X-X-X-X-X-X-X-X-X-X-X-X-X-X-X-X-X-X-X-X-X-X-X-X-X-X-X-X-X-X-X-X-X-X-X-X-X-X-X-X-X-X-X-X-X-X",
"-X-X-X-X-X-X-X-X-X-X-X-X-X-X-X-X-X-X-X-X-X-X-X-X-X-X-X-X-X-X-X-X-X-X-X-X-X-X-X-X-X-X-X-X-X-X-X-X-X-X-X-X-X-X-X-X-X-X-X-X-X-X-X-X",
"-X-X-X-X-X-X-X-X-X-X-X-X-X-X-X-X-X-X-X-X-X-X-X-X-X-X-X-X-X-X-X-X-X-X-X-X-X-X-X-X-X-X-X-X-X-X-X-X-X-X-X-X-X-X-X-X-X-X-X-X-X-X-X-X",
"-X-X-X-X-X-X-X-X-X-X-X-X-X-X-X-X-X-X-X-X-X-X-X-X-X-X-X-X-X-X-X-X-X-X-X-X-X-X-X-X-X-X-X-X-X-X-X-X-X-X-X-X-X-X-X-X-X-X-X-X-X-X-X-X",
"-X-X-X-X-X-X-X-X-X-X-X-X-X-X-X-X-X-X-X-X-X-X-X-X-X-X-X-X-X-X-X-X-X-X-X-X-X-X-X-X-X-X-X-X-X-X-X-X-X-X-X-X-X-X-X-X-X-X-X-X-X-X-X-X",
"-X-X-X-X-X-X-X-X-X-X-X-X-X-X-X-X-X-X-X-X-X-X-X-X-X-X-X-X-X-X-X-X-X-X-X-X-X-X-X-X-X-X-X-X-X-X-X-X-X-X-X-X-X-X-X-X-X-X-X-X-X-X-X-X",
"-X-X-X-X-X-X-X-X-X-X-X-X-X-X-X-X-X-X-X-X-X-X-X-X-X-X-X-X-X-X-X-X-X-X-X-X-X-X-X-X-X-X-X-X-X-X-X-X-X-X-X-X-X-X-X-X-X-X-X-X-X-X-X-X",
"-X-X-X-X-X-X-X-X-X-X-X-X-X-X-X-X-X-X-X-X-X-X-X-X-X-X-X-X-X-X-X-X-X-X-X-X-X-X-X-X-X-X-X-X-X-X-X-X-X-X-X-X-X-X-X-X-X-X-X-X-X-X-X-X",
"-X-X-X-X-X-X-X-X-X-X-X-X-X-X-X-X-X-X-X-X-X-X-X-X-X-X-X-X-X-X-X-X-X-X-X-X-X-X-X-X-X-X-X-X-X-X-X-X-X-X-X-X-X-X-X-X-X-X-X-X-X-X-X-X",
"-X-X-X-X-X-X-X-X-X-X-X-X-X-X-X-X-X-X-X-X-X-X-X-X-X-X-X-X-X-X-X-X-X-X-X-X-X-X-X-X-X-X-X-X-X-X-X-X-X-X-X-X-X-X-X-X-X-X-X-X-X-X-X-X",
"-X-X-X-X-X-X-X-X-X-X-X-X-X-X-X-X-X-X-X-X-X-X-X-X-X-X-X-X-X-X-X-X-X-X-X-X-X-X-X-X-X-X-X-X-X-X-X-X-X-X-X-X-X-X-X-X-X-X-X-X-X-X-X-X",
"-X-X-X-X-X-X-X-X-X-X-X-X-X-X-X-X-X-X-X-X-X-X-X-X-X-X-X-X-X-X-X-X-X-X-X-X-X-X-X-X-X-X-X-X-X-X-X-X-X-X-X-X-X-X-X-X-X-X-X-X-X-X-X-X",
"-X-X-X-X-X-X-X-X-X-X-X-X-X-X-X-X-X-X-X-X-X-X-X-X-X-X-X-X-X-X-X-X-X-X-X-X-X-X-X-X-X-X-X-X-X-X-X-X-X-X-X-X-X-X-X-X-X-X-X-X-X-X-X-X",
"-X-X-X-X-X-X-X-X-X-X-X-X-X-X-X-X-X-X-X-X-X-X-X-X-X-X-X-X-X-X-X-X-X-X-X-X-X-X-X-X-X-X-X-X-X-X-X-X-X-X-X-X-X-X-X-X-X-X-X-X-X-X-X-X",
"-X-X-X-X-X-X-X-X-X-X-X-X-X-X-X-X-X-X-X-X-X-X-X-X-X-X-X-X-X-XE E B t p e -X-X-X-X-X-X-X-X-X-X-X-X-X-X-X-X-X-X-X-X-X-X-X-X-X-X-X-X",
"-X-X-X-X-X-X-X-X-X-X-X-X-X-X-X-X-X-X-X-X-X-X-X-X-X-X-X-X-X-XF F e 8 8 > / -X-X-X-X-X-X-X-X-X-X-X-X-X-X-X-X-X-X-X-X-X-X-X-X-X-X-X",
"-X-X-X-X-X-X-X-X-X-X-X-X-X-X-X-X-X-X-X-X-X-X-X-X-X[.(.(.(.(.| [ E E E Q [ { { { -X-X-X-X-X-X-X-X-X-X-X-X-X-X-X-X-X-X-X-X-X-X-X-X",
"-X-X-X-X-X-X-X-X-X-X-X-X-X-X-X-X-X-X-X-X-X-X-X-X-XR z z z A ~ |  ...| ..W % @ : o -X-X-X-X-X-X-X-X-X-X-X-X-X-X-X-X-X-X-X-X-X-X-X",
"-X-X-X-X-X-X-X-X-X-X-X-X-X-X-X-X-X-X-X-X-X-X-X$XXX[ T E U Q c.h.h.h.h.h.s.J J n 0 X.-X-X-X-X-X-X-X-X-X-X-X-X-X-X-X-X-X-X-X-X-X-X",
"-X-X-X-X-X-X-X-X-X-X-X-X-X-X-X-X-X-X-X-X-X-X$XA D k.~.n.Z.Z.V.V.V.V.V.V.Z.Z.].Q T M > V -X-X-X-X-X-X-X-X-X-X-X-X-X-X-X-X-X-X-X-X",
"-X-X-X-X-X-X-X-X-X-X-X-X-X-X-X-X-X-X-X-X-X-XXXL L k.k.n.V.V.N.N.B.N.B.N.N.b.V.Q P M 8 J -X-X-X-X-X-X-X-X-X-X-X-X-X-X-X-X-X-X-X-X",
"-X-X-X-X-X-X-X-X-X-X-X-X-X-X-X-X-X-X-X-XC.y I k.k.n.v..X*X+XP.P.F.F.w.5.u.b.B.v.n.s.A P V V -X-X-X-X-X-X-X-X-X-X-X-X-X-X-X-X-X-X",
"-X-X-X-X-X-X-X-X-X-X-X-X-X-X-X-X-X-X-X-X) o n ^.k.v.d.OX=X#XI.I.J.H.e.&.8.b.b.b.Z.s.A A 0 : -X-X-X-X-X-X-X-X-X-X-X-X-X-X-X-X-X-X",
"-X-X-X-X-X-X-X-X-X-X-X-X-X-X-X-X-X-X-X-X{ % J n.n..XOX X|.W.K.Y.-.d o.$.;.y.y.b.b.v.s.s.6 : }.-X-X-X-X-X-X-X-X-X-X-X-X-X-X-X-X-X",
"-X-X-X-X-X-X-X-X-X-X-X-X-X-X-X-X-X-X-X-X{ @ J Z.Z.*X=X|.S.L.T.R.i % d #.#.6.9.M.b.Z.Z.v.2 X }.-X-X-X-X-X-X-X-X-X-X-X-X-X-X-X-X-X",
"-X-X-X-X-X-X-X-X-X-X-X-X-X-X-X-X-X-X&X%X^ 3 U V.V.+X@XW.L.J.p.i.r * i h o.4.1.i.M.g.b.m.w 2 [.%X-X-X-X-X-X-X-X-X-X-X-X-X-X-X-X-X",
"-X-X-X-X-X-X-X-X-X-X-X-X-X-X-X-X-X-Xp 8 A F Y V.B.P.I.K.Y.p.> 3 # O < 0 u +.O.&.9.y.b.v.P W l = ` -X-X-X-X-X-X-X-X-X-X-X-X-X-X-X",
"-X-X-X-X-X-X-X-X-X-X-X-X-X-X-X-X-X-Xp 8 M G Y B.N.P.U.K.T.y.> 3 # O * 8 u +.o.&.w.y.b.m.T R k . ' -X-X-X-X-X-X-X-X-X-X-X-X-X-X-X",
"-X-X-X-X-X-X-X-X-X-X-X-X-X-X-X-X-X-Xp 3 M A ( p.8.q.q.D.G.1.3 3 # O * q u #.+.4.9.y.B.v.P F k . ` -X-X-X-X-X-X-X-X-X-X-X-X-X-X-X",
"-X-X-X-X-X-X-X-X-X-X-X-X-X-X-X-X-X-Xt 3 N A _ q.9.6.&.e.G.1.3 9 # O 8 q u +.O.4.9.y.b.m.L T k . ` -X-X-X-X-X-X-X-X-X-X-X-X-X-X-X",
"-X-X-X-X-X-X-X-X-X-X-X-X-X-X-X-X-X-Xt 3 N G ( A.i.6.&.5.0.-.9 9 # O * q i 8.8.6.9.7.i.M.P T k - ' -X-X-X-X-X-X-X-X-X-X-X-X-X-X-X",
"-X-X-X-X-X-X-X-X-X-X-X-X-X-X-X-X-X-Xt > N G Q ].B.8.&.#.O.f 3 3 * + * 8 i H.G.w.&.*.*.5.P I j   ] -X-X-X-X-X-X-X-X-X-X-X-X-X-X-X",
"-X-X-X-X-X-X-X-X-X-X-X-X-X-X-X-X-X-X{ ^ J m U n.b.y.u.;.#.o.r g * # a g f e.H.u.t.7.8.3.S F H C ).-X-X-X-X-X-X-X-X-X-X-X-X-X-X-X",
"-X-X-X-X-X-X-X-X-X-X-X-X-X-X-X-X-X-X-X-X} & N /.z.b.b.y.9.0.H.F.s : :.R.H.6.6.f.k.l.B.d.2 - {.-X-X-X-X-X-X-X-X-X-X-X-X-X-X-X-X-X",
"-X-X-X-X-X-X-X-X-X-X-X-X-X-X-X-X-X-X-X-X} & N /.^.b.b.y.*.w.H.H.s : -.E.G.9.0.d. .l.V.v.2 = {.-X-X-X-X-X-X-X-X-X-X-X-X-X-X-X-X-X",
"-X-X-X-X-X-X-X-X-X-X-X-X-X-X-X-X-X-X-X-X} & n W W z.z.g.M.i.w.q.o.f 1.e.p.f.d.,.t.>.Q I 5 - }.-X-X-X-X-X-X-X-X-X-X-X-X-X-X-X-X-X",
"-X-X-X-X-X-X-X-X-X-X-X-X-X-X-X-X-X-X-X-X^ o q U R Q.Q.m.V.M.9.*.$.#.&.*.7. . .t.=.:.L G -   {.-X-X-X-X-X-X-X-X-X-X-X-X-X-X-X-X-X",
"-X-X-X-X-X-X-X-X-X-X-X-X-X-X-X-X-X-X-X-X-X_.X.l m ! ~ z.m.d.g.2.>.<.>.2.g.c.c.>.:.K z H ).!.-X-X-X-X-X-X-X-X-X-X-X-X-X-X-X-X-X-X",
"-X-X-X-X-X-X-X-X-X-X-X-X-X-X-X-X-X-X-X-X-X-X-X. - S S ~ /.~.~.~.~.k.z.k.z.V.V.E T l X c -X-X-X-X-X-X-X-X-X-X-X-X-X-X-X-X-X-X-X-X",
"-X-X-X-X-X-X-X-X-X-X-X-X-X-X-X-X-X-X-X-X-X-X-Xc b S G ! ..|  .k.k.k.k.k.z.d.v.I G Z c ] -X-X-X-X-X-X-X-X-X-X-X-X-X-X-X-X-X-X-X-X",
"-X-X-X-X-X-X-X-X-X-X-X-X-X-X-X-X-X-X-X-X-X-X-X-X-Xv ; 5 4 w R R L L L L G 5 5 5 = ).-X-X-X-X-X-X-X-X-X-X-X-X-X-X-X-X-X-X-X-X-X-X",
"-X-X-X-X-X-X-X-X-X-X-X-X-X-X-X-X-X-X-X-X-X-X-X-X-Xx . - = 7 E R L L L L G - = ;   ).-X-X-X-X-X-X-X-X-X-X-X-X-X-X-X-X-X-X-X-X-X-X",
"-X-X-X-X-X-X-X-X-X-X-X-X-X-X-X-X-X-X-X-X-X-X-X-X-X-X-X-X-X[.x k k k k 6 H }.}.}.-X-X-X-X-X-X-X-X-X-X-X-X-X-X-X-X-X-X-X-X-X-X-X-X",
"-X-X-X-X-X-X-X-X-X-X-X-X-X-X-X-X-X-X-X-X-X-X-X-X-X-X-X-X-X-X= . . . .   C -X-X-X-X-X-X-X-X-X-X-X-X-X-X-X-X-X-X-X-X-X-X-X-X-X-X-X",
"-X-X-X-X-X-X-X-X-X-X-X-X-X-X-X-X-X-X-X-X-X-X-X-X-X-X-X-X-X-X' ' ' ` ' ` [.-X-X-X-X-X-X-X-X-X-X-X-X-X-X-X-X-X-X-X-X-X-X-X-X-X-X-X",
"-X-X-X-X-X-X-X-X-X-X-X-X-X-X-X-X-X-X-X-X-X-X-X-X-X-X-X-X-X-X-X-X-X-X-X-X-X-X-X-X-X-X-X-X-X-X-X-X-X-X-X-X-X-X-X-X-X-X-X-X-X-X-X-X",
"-X-X-X-X-X-X-X-X-X-X-X-X-X-X-X-X-X-X-X-X-X-X-X-X-X-X-X-X-X-X-X-X-X-X-X-X-X-X-X-X-X-X-X-X-X-X-X-X-X-X-X-X-X-X-X-X-X-X-X-X-X-X-X-X",
"-X-X-X-X-X-X-X-X-X-X-X-X-X-X-X-X-X-X-X-X-X-X-X-X-X-X-X-X-X-X-X-X-X-X-X-X-X-X-X-X-X-X-X-X-X-X-X-X-X-X-X-X-X-X-X-X-X-X-X-X-X-X-X-X",
"-X-X-X-X-X-X-X-X-X-X-X-X-X-X-X-X-X-X-X-X-X-X-X-X-X-X-X-X-X-X-X-X-X-X-X-X-X-X-X-X-X-X-X-X-X-X-X-X-X-X-X-X-X-X-X-X-X-X-X-X-X-X-X-X",
"-X-X-X-X-X-X-X-X-X-X-X-X-X-X-X-X-X-X-X-X-X-X-X-X-X-X-X-X-X-X-X-X-X-X-X-X-X-X-X-X-X-X-X-X-X-X-X-X-X-X-X-X-X-X-X-X-X-X-X-X-X-X-X-X",
"-X-X-X-X-X-X-X-X-X-X-X-X-X-X-X-X-X-X-X-X-X-X-X-X-X-X-X-X-X-X-X-X-X-X-X-X-X-X-X-X-X-X-X-X-X-X-X-X-X-X-X-X-X-X-X-X-X-X-X-X-X-X-X-X",
"-X-X-X-X-X-X-X-X-X-X-X-X-X-X-X-X-X-X-X-X-X-X-X-X-X-X-X-X-X-X-X-X-X-X-X-X-X-X-X-X-X-X-X-X-X-X-X-X-X-X-X-X-X-X-X-X-X-X-X-X-X-X-X-X",
"-X-X-X-X-X-X-X-X-X-X-X-X-X-X-X-X-X-X-X-X-X-X-X-X-X-X-X-X-X-X-X-X-X-X-X-X-X-X-X-X-X-X-X-X-X-X-X-X-X-X-X-X-X-X-X-X-X-X-X-X-X-X-X-X",
"-X-X-X-X-X-X-X-X-X-X-X-X-X-X-X-X-X-X-X-X-X-X-X-X-X-X-X-X-X-X-X-X-X-X-X-X-X-X-X-X-X-X-X-X-X-X-X-X-X-X-X-X-X-X-X-X-X-X-X-X-X-X-X-X",
"-X-X-X-X-X-X-X-X-X-X-X-X-X-X-X-X-X-X-X-X-X-X-X-X-X-X-X-X-X-X-X-X-X-X-X-X-X-X-X-X-X-X-X-X-X-X-X-X-X-X-X-X-X-X-X-X-X-X-X-X-X-X-X-X",
"-X-X-X-X-X-X-X-X-X-X-X-X-X-X-X-X-X-X-X-X-X-X-X-X-X-X-X-X-X-X-X-X-X-X-X-X-X-X-X-X-X-X-X-X-X-X-X-X-X-X-X-X-X-X-X-X-X-X-X-X-X-X-X-X",
"-X-X-X-X-X-X-X-X-X-X-X-X-X-X-X-X-X-X-X-X-X-X-X-X-X-X-X-X-X-X-X-X-X-X-X-X-X-X-X-X-X-X-X-X-X-X-X-X-X-X-X-X-X-X-X-X-X-X-X-X-X-X-X-X",
"-X-X-X-X-X-X-X-X-X-X-X-X-X-X-X-X-X-X-X-X-X-X-X-X-X-X-X-X-X-X-X-X-X-X-X-X-X-X-X-X-X-X-X-X-X-X-X-X-X-X-X-X-X-X-X-X-X-X-X-X-X-X-X-X",
"-X-X-X-X-X-X-X-X-X-X-X-X-X-X-X-X-X-X-X-X-X-X-X-X-X-X-X-X-X-X-X-X-X-X-X-X-X-X-X-X-X-X-X-X-X-X-X-X-X-X-X-X-X-X-X-X-X-X-X-X-X-X-X-X",
"-X-X-X-X-X-X-X-X-X-X-X-X-X-X-X-X-X-X-X-X-X-X-X-X-X-X-X-X-X-X-X-X-X-X-X-X-X-X-X-X-X-X-X-X-X-X-X-X-X-X-X-X-X-X-X-X-X-X-X-X-X-X-X-X"
};
