/* XPM */
static char *_4a48b3ecc6740088becee42115db4256CWeDX75VUSJ23rc[] = {
/* columns rows colors chars-per-pixel */
"64 64 173 2 ",
"   c None",
".  c #171717",
"X  c #1B1B1C",
"o  c #171719",
"O  c #241E1E",
"+  c #272917",
"@  c #1D1E21",
"#  c #1F2122",
"$  c #232324",
"%  c #2B2423",
"&  c #2E2B25",
"*  c #242529",
"=  c #26292B",
"-  c #292A2D",
";  c #322725",
":  c #332827",
">  c #3B2A27",
",  c #342D2A",
"<  c #3B2D2C",
"1  c #2E3123",
"2  c #3C332D",
"3  c #353A29",
"4  c #313526",
"5  c #2B2E32",
"6  c #2D3134",
"7  c #2E3338",
"8  c #323335",
"9  c #3D3433",
"0  c #353934",
"q  c #34373A",
"w  c #35393D",
"e  c #393B3E",
"r  c #3B3E35",
"t  c #432D2A",
"y  c #44322E",
"u  c #4A332F",
"i  c #443432",
"p  c #4B3633",
"a  c #4E3A35",
"s  c #433A39",
"d  c #4B3B39",
"f  c #413837",
"g  c #523B36",
"h  c #533D39",
"j  c #3E422A",
"k  c #3D4022",
"l  c #4A4F1F",
"z  c #4F531E",
"x  c #52591E",
"c  c #464A24",
"v  c #45472C",
"b  c #434721",
"n  c #4D5225",
"m  c #525622",
"M  c #555A23",
"N  c #585D27",
"B  c #56592A",
"V  c #5A5E2C",
"C  c #555729",
"Z  c #434739",
"A  c #57433F",
"S  c #515533",
"D  c #565A37",
"F  c #5E642C",
"G  c #5F6624",
"H  c #5D6039",
"J  c #626924",
"K  c #6C7227",
"L  c #777D2B",
"P  c #717924",
"I  c #606530",
"U  c #676C33",
"Y  c #696E31",
"T  c #60653C",
"R  c #6C7233",
"E  c #797F32",
"W  c #717639",
"Q  c #363B41",
"!  c #3B3E42",
"~  c #403F40",
"^  c #3D4146",
"/  c #3E4449",
"(  c #424544",
")  c #42454A",
"_  c #45494D",
"`  c #4A4B4D",
"'  c #4D514C",
"]  c #464B51",
"[  c #4A4E53",
"{  c #4D5156",
"}  c #4E5359",
"|  c #515355",
" . c #52555A",
".. c #55595E",
"X. c #595A5F",
"o. c #565B61",
"O. c #595E63",
"+. c #5C6166",
"@. c #5E6369",
"#. c #606367",
"$. c #61666C",
"%. c #64696E",
"&. c #666B72",
"*. c #696E74",
"=. c #696F78",
"-. c #6B7076",
";. c #6E737A",
":. c #71767C",
">. c #74797F",
",. c #7E862C",
"<. c #7C8332",
"1. c #878F2F",
"2. c #8D952D",
"3. c #949C2E",
"4. c #838C33",
"5. c #838B3A",
"6. c #8A9237",
"7. c #929A35",
"8. c #9AA624",
"9. c #9DA927",
"0. c #9AA42C",
"q. c #9EAA2A",
"w. c #97A329",
"e. c #9CA635",
"r. c #A1AB2D",
"t. c #A5B226",
"y. c #AFBD25",
"u. c #A5B22A",
"i. c #AAB52C",
"p. c #ADBA2B",
"a. c #AAB727",
"s. c #B1BE26",
"d. c #B1BE2B",
"f. c #A4AD35",
"g. c #A4AE39",
"h. c #AEBA33",
"j. c #A8B337",
"k. c #B1BE32",
"l. c #B2C02C",
"z. c #B3C132",
"x. c #909843",
"c. c #767B81",
"v. c #797E84",
"b. c #807F84",
"n. c #7B8086",
"m. c #7D8289",
"M. c #808185",
"N. c #919196",
"B. c #9A9B9F",
"V. c #96979B",
"C. c #9C9DA1",
"Z. c #9FA2A5",
"A. c #A1A2A6",
"S. c #A6A9AD",
"D. c #ACAFB3",
"F. c #AEB0B5",
"G. c #BABBBE",
"H. c #BBBDC2",
"J. c #C5C6CA",
"K. c #C5C5C9",
"L. c #CFD1D4",
"P. c #D6D6DA",
"I. c #D9D8DC",
"U. c #D4D5D9",
"Y. c #DCDDE0",
"T. c #E5E6E9",
"R. c #E6E7E9",
"E. c #EDEEF1",
"W. c #EFF0F2",
"Q. c #F4F5F7",
"!. c #F6F6F8",
"~. c #F7F8FA",
"^. c #F8F8FA",
/* pixels */
"                                                                                                                                ",
"                                                  [  . . . . . . . .{ |  .{ | ]                                                 ",
"                                                e &.v.v.c.c.c.c.>.c.>.v.c.c.:.{                                                 ",
"                                                q &.m.v.v.c.v.v.c.c.v.v.v.v.*.[                                                 ",
"                                                5 ` #.+.$.%.+.+.$.$.$.+.$.$. .q                                                 ",
"                                      q ! ! ! q 8 i 9 9 s i s i 9 9 9 2 9 9 9 9 ( { [ { { [ )                                   ",
"                          q _  . .{ [  .$.+.O.$.X.( d i f i d i i i i i i p i { :.c.c.c.c.>.-.&.&.&.*.*.*.:.&.)                 ",
"                    ` %.*.&.>.v.v.n.v.v.v.v.v.v.v.v.O.o... .X. . . . . .|  .o.c.c.c.c.v.v.v.n.n.m.m.m.v.n.v.O.!                 ",
"                    q ]  ... . .....@.;.v.v.v.v.c.v.c.c.v.v.v.v.:.>.>.v.c.v.v.c.c.c.c.c.v.v.:.&.*.*.%. .~ ! q                   ",
"                              X O O 5 w ! ! ~ [ .. . . . .! ~ ~ { { ( ` ] _ _ ( ( ) ) _ [ _ ! - * - - 5                         ",
"                                            _ V.F.F.F.S.@.@ @ @ -.Z.) _ ....[ -                                                 ",
"                                          v.J.R.T.T.R.L.! @ @ @ X.Y.N.( $.&.+.]                                                 ",
"                                        b.P.^.!.Q.!.!.Y.~ @ * @ X.Q.J.[ $.>.*.o._                                               ",
"                                      b.I.!.Q.!.Q.!.!.T.| @ * * &.Q.J.[ -.v.>.%.[                                               ",
"                                    b.I.!.Q.Q.Q.!.Q.Q.Q.K.` * #.I.^.H.) :.v.c.;.O.^                                             ",
"                                  -.I.!.!.Q.Q.Q.!.Q.!.!.!.U.G.Y.!.E.:.( :.c.c.c.&...                                            ",
"                                  A.Q.Q.Q.Q.!.!.!.!.!.!.!.!.^.!.^.H. .@.c.c.c.c.=.@._                                           ",
"                                $.Y.!.Q.Q.!.!.!.!.!.!.!.^.!.!.Q.P.c.o.;.c.c.c.c.:.&.{                                           ",
"                              *.J.!.!.!.Q.W.E.E.E.Y.A.C.C.C.C.V.O.o.-.;.;.c.c.c.v.&.O.~                                         ",
"                              N.!.^.Q.P.K.*.#.%.%.$.{ [ { | [ } &.:.c.;.c.c.c.c.:.{ ) .._                                       ",
"                                  A.V.` 9 = ! ....o.&.&.*.:.:.:.:.>.:.>.;.c.c.o.)  .+.&.[                                       ",
"                            -   @ #       - ^ $.;.;.:.:.c.>.:.>.:.>.>.:.c.=.} [ $.&. .{ w                                       ",
"                              -           ) [ o.;.:.:.:.:.:.c.:.:.:.:.&.} / ] &.@.[ ] ) ] _                                     ",
"                                          ! $.O. .:.:.:.:.:.:.:.:.:. .! } &.%.] } O.&.O.$.^                                     ",
"                                          ! ) &.O. .;.;.:.:.:.;.+.] [ &.&.} _ o.;.v.+.[ @.{                                     ",
"                                        8 %.! e $.O. .&.:.&.O.[ ^ o.$.} ! _ } -.v.v.c.)  .@.)                                   ",
"                                        ! [ ] [ ) {  ._ [ _ _ O.&.$.Z ! } / / -.c.c.v.+.] &. .                                  ",
"                                        [ +.{ $.} 4  .*.O.*.;.#.` H W Z ] ] ! o.&.v.v.@.{ =.o.!                                 ",
"                                      ! o.O.+.{ e R W ' |  .' S 5.e.e.D o.c.*.[ ] &.c.] &.v.*._                                 ",
"                                      ^ _ 2 s [ v 7.j.E Y Y E f.z.z.h.F 6 [ :.c.@.) @.) -.c.-.{                                 ",
"                                      w q p a , v 0.k.k.h.h.h.d.p.h.1.c : t [ :.;.] / o.-.v.:.$.(                               ",
"                                      = 9 g h i $ c B V m C N M V B & & p g i [ c.@.) &.c.v.c.*. .                              ",
"                                      o y g g g : < i p i p p f p < , d h g g , X.#._ :.v.c.c.&. .!                             ",
"                                        & p g g , , < 2 < 2 2 i 9 & p h g a g 9 [ [ ..:.c.>.>.;.O.]                             ",
"                                      - 6 f g p & I 1.4.4.4.<.E F , A h h A d = w o.=.c.c.>.c.:.$._                             ",
"                                      q o.s : * j 6.k.d.d.d.d.r.L , d h ` d 8 8 o.$.;.c.:.>.>.c.-...^                           ",
"                                      w +.^ 6 1 5.j.d.s.s.s.l.s.r.I i i y ( #.) @.&.c.c.>.c.c.c.;.+.!                           ",
"                                      w %.^ ( B f.k.l.k.l.s.l.l.l.f.Y H D ` :.{ [ :.c.c.c.c.c.:.:.%.{                           ",
"                                    $ ..&.) ( <.k.l.z.d.l.s.l.l.k.z.k.g.x.T O.#.! :.v.:.>.c.c.>.c.*.o.q                         ",
"                                    * O.O.| ( <.k.d.d.d.d.d.s.l.l.z.k.k.f.U ..#.) :.v.>.c.c.>.c.c.:.@./                         ",
"                                    0 %.) { D 7.p.y.l.l.y.y.s.d.d.l.z.z.k.W { ;.{ O.c.c.:.:.c.c.>.c.&.)                         ",
"                                    [ -./ _ F u.y.y.y.y.y.l.y.l.l.l.z.z.z.6.r &.{ o.c.c.c.:.c.c.c.c.*. .Q                       ",
"                                  = [ -./ _ V i.l.y.y.l.y.y.y.y.l.l.z.z.z.j.S &.[ } c.c.c.:.:.c.c.c.;.+.!                       ",
"                                  = +.:./ _ V i.y.y.y.y.y.l.y.l.l.k.z.z.z.g.S $.{ { c.c.c.c.c.c.c.:.-.O.!                       ",
"                                  w =.+.{ { B q.l.l.a.l.y.y.y.y.a.u.d.z.z.j.S O.&.) &.v.c.c.c.:.>.:.$.[ ^ 8                     ",
"                                  w =.{ } ..+ n a.l.a.q.a.y.y.l.i.q.i.d.k.e.j Q =./ $.c.c.:.c.c.:.&.[ ^ ] 8                     ",
"                                * _ @.w } ..1 n J P 3.q.t.t.a.t.u.3.0.2.G J D j ;._ $.v.c.:.:.c.=.] 5 ] _                       ",
"                                5 } O.Q &.} F 7.P <.m x x x x x x l n J ,.2.7.Z =.! O.c.:.c.;.{ ! / o.O.q                       ",
"                                * Q  ./ >.} k <.q.r.w.q.q.9.9.q.r.w.7.q.i.6.C 7 &./ O.c.;.o.] [ O.@.O.Q                         ",
"                                6 ] w / *.6 # 0 b k K 0.9.8.8.9.9.w.N c b j Q 5 -.O./ O./ { $.*.@. .Q                           ",
"                                - [ @.-.%.$ # w Q Q 0 3 3 4 + + + + - Q ^ ^ ! Q *.%.5 ) &.:.:.O.) *                             ",
"                                  w &.;.%.* X q / ..+.] ^ ^ #       X Q } O.! 5 &.;.O.&.c.;.o.7 *                               ",
"                                  = ` ;.$.*   * } =.:.&.] Q #         5 O.c...5 &.:.c.c.&.{ 5                                   ",
"                                    * [ $.-   $ ..c.;.:.@.5           # ) =.o.7 *.c.*.] 6 @                                     ",
"                                      - ^ *   X / ;.:.:.@.5             7 =.O.5 %.@.) #                                         ",
"                                        @       7 %.:.;.o.5             7 O.&.Q Q # @                                           ",
"                                                $ ) { [ ^ -             # Q / ! 7 #                                             ",
"                                                  X % O $ O             . + % * % o                                             ",
"                                                  O t u y %             o t p p < @                                             ",
"                                                    ; u u O               > p p :                                               ",
"                                                    o > > .               X ; > X                                               ",
"                                                      O O                   o o                                                 ",
"                                                                                                                                ",
"                                                                                                                                "
};
