/* XPM */
static char *_fb1bc2097e6421ec59ed00a98e43a75E9bJKBEMzxynCSAR[] = {
/* columns rows colors chars-per-pixel */
"64 64 168 2 ",
"   c None",
".  c gray9",
"X  c #171719",
"o  c #1B1B1C",
"O  c #241E1E",
"+  c #272917",
"@  c #1D1E21",
"#  c #1F2122",
"$  c #232324",
"%  c #2B2423",
"&  c #2E2B25",
"*  c #242529",
"=  c #26292B",
"-  c #292A2D",
";  c #322725",
":  c #332827",
">  c #3B2A27",
",  c #342D2A",
"<  c #3B2D2C",
"1  c #2E3123",
"2  c #313526",
"3  c #3C332D",
"4  c #353A29",
"5  c #2B2E32",
"6  c #2D3134",
"7  c #2E3338",
"8  c #323335",
"9  c #3D3433",
"0  c #353934",
"q  c #3B3E35",
"w  c #34373A",
"e  c #35393D",
"r  c #393B3E",
"t  c #432D2A",
"y  c #44322E",
"u  c #4A332F",
"i  c #443432",
"p  c #4B3633",
"a  c #413837",
"s  c #4E3A35",
"d  c #433A39",
"f  c #4B3B39",
"g  c #523B36",
"h  c #533D39",
"j  c #3D4022",
"k  c #3E422A",
"l  c #4A4F1F",
"z  c #52591E",
"x  c #434721",
"c  c #464A24",
"v  c #45472C",
"b  c #4D5225",
"n  c #525622",
"m  c #555A23",
"M  c #585D27",
"N  c #555729",
"B  c #56592A",
"V  c #5A5E2C",
"C  c #434739",
"Z  c #57433F",
"A  c #515533",
"S  c #565A37",
"D  c #5F6624",
"F  c #5E642C",
"G  c #5D6039",
"H  c #626924",
"J  c #6C7227",
"K  c #717924",
"L  c #777D2B",
"P  c #606530",
"I  c #676C33",
"U  c #696E31",
"Y  c #60653C",
"T  c #6C7233",
"R  c #797F32",
"E  c #717639",
"W  c #363B41",
"Q  c #3B3E42",
"!  c #403F40",
"~  c #3D4146",
"^  c #3E4449",
"/  c #424544",
"(  c #42454A",
")  c #45494D",
"_  c #4A4B4D",
"`  c #4D514C",
"'  c #464B51",
"]  c #4A4E53",
"[  c #4D5156",
"{  c #4E5359",
"}  c #515355",
"|  c #52555A",
" . c #55595E",
".. c #595A5F",
"X. c #565B61",
"o. c #595E63",
"O. c #5C6166",
"+. c #5E6369",
"@. c #606367",
"#. c #61666C",
"$. c #64696E",
"%. c #666B72",
"&. c #696E74",
"*. c #696F78",
"=. c #6B7076",
"-. c #6E737A",
";. c #71767C",
":. c #74797F",
">. c #7E862C",
",. c #7C8332",
"<. c #878F2F",
"1. c #8D952D",
"2. c #949C2E",
"3. c #838C33",
"4. c #838B3A",
"5. c #8A9237",
"6. c #929A35",
"7. c #9AA624",
"8. c #9DA927",
"9. c #97A329",
"0. c #9AA42C",
"q. c #9EAA2A",
"w. c #9CA635",
"e. c #A1AB2D",
"r. c #A5B226",
"t. c #AAB727",
"y. c #AFBD25",
"u. c #A5B22A",
"i. c #AAB52C",
"p. c #ADBA2B",
"a. c #B1BE26",
"s. c #B1BE2B",
"d. c #A4AD35",
"f. c #A4AE39",
"g. c #A8B337",
"h. c #AEBA33",
"j. c #B1BE32",
"k. c #B2C02C",
"l. c #B3C132",
"z. c #909843",
"x. c #767B81",
"c. c #797E84",
"v. c #807F84",
"b. c #7B8086",
"n. c #7D8289",
"m. c #919196",
"M. c #96979B",
"N. c #9C9DA1",
"B. c #9FA2A5",
"V. c #A1A2A6",
"C. c #A6A9AD",
"Z. c #AEB0B5",
"A. c #BABBBE",
"S. c #BBBDC2",
"D. c #C5C5C9",
"F. c #C5C6CA",
"G. c #CFD1D4",
"H. c #D4D5D9",
"J. c #D6D6DA",
"K. c #D9D8DC",
"L. c #DCDDE0",
"P. c #E5E6E9",
"I. c #E6E7E9",
"U. c #EDEEF1",
"Y. c #EFF0F2",
"T. c #F4F5F7",
"R. c #F6F6F8",
"E. c #F8F8FA",
/* pixels */
"                                                                                                                                ",
"                                                ' } [ | } [ | | | | | | | | ]                                                   ",
"                                                [ ;.x.x.c.:.x.:.x.x.x.x.c.c.%.r                                                 ",
"                                                ] &.c.c.c.c.x.x.c.c.x.c.c.n.%.w                                                 ",
"                                                w | #.#.O.#.#.#.O.O.$.#.O.@._ 5                                                 ",
"                                  ( ] [ [ ] [ / 9 9 9 9 3 9 9 9 i d i d 9 9 i 8 w Q Q Q w                                       ",
"                ( %.;.&.&.&.%.%.%.=.:.x.x.x.x.;.[ i p i i i i i i f i a i f / ..#.o.O.#.| ] [ | | ) w                           ",
"                Q o.c.b.c.n.n.n.b.b.c.c.c.x.x.x.x.X.| } | | | | | ..|  .X.o.c.c.c.c.c.c.c.c.b.c.c.:.%.&.$._                     ",
"                  w Q ! | $.&.&.%.;.c.c.x.x.x.x.x.c.c.x.c.:.:.;.c.c.c.c.x.x.c.x.c.c.c.c.-.+. . .| |  .| ' w                     ",
"                        5 - - * - Q ) ] ) ( ( / / ) ) ' _ / [ [ ! ! Q | | | |  .] ! Q Q e 5 O O o                               ",
"                                                - ]  . .) ( B.=.@ @ @ +.C.Z.Z.Z.M.)                                             ",
"                                                ' O.%.#./ m.L...@ @ @ Q G.I.I.I.I.F.c.                                          ",
"                                              ) X.&.:.#.] F.T...@ * @ ! L.R.R.T.R.E.J.v.                                        ",
"                                              ] $.:.c.=.] F.T.%.* * @ } I.R.R.T.R.T.R.K.v.                                      ",
"                                            ~ o.-.x.c.;.( S.E.K.@.* _ F.T.T.T.R.T.T.T.R.K.v.                                    ",
"                                             .%.x.x.x.;./ ;.U.R.L.A.J.R.R.R.T.R.T.T.T.R.R.K.=.                                  ",
"                                          ) +.*.x.x.x.x.+.| S.E.R.E.R.R.R.R.R.R.R.R.T.T.T.T.V.                                  ",
"                                          [ %.;.x.x.x.x.-.X.x.J.T.R.R.E.R.R.R.R.R.R.R.T.T.R.L.#.                                ",
"                                        ! o.%.c.x.x.x.-.-.=.X.o.M.N.N.N.N.V.L.U.U.U.Y.T.R.R.R.F.&.                              ",
"                                      )  .( [ ;.x.x.x.x.-.x.;.%.{ ] } [ ] [ #.$.$.@.&.F.J.T.E.R.m.                              ",
"                                      ] %.O.| ( X.x.x.-.:.;.:.;.;.;.;.&.%.%.X. . .Q = 9 _ M.V.                                  ",
"                                      e [ | %.#.] { *.x.;.:.:.;.:.;.:.x.;.;.-.-.#.~ -       # @   -                             ",
"                                    ) ' ( ' ] +.%.' ^ { %.;.;.;.;.x.;.;.;.;.;.-.X.] (           -                               ",
"                                    ~ #.o.%.o.{ ' $.%.{ Q | ;.;.;.;.;.;.;.;.;.| o.#.Q                                           ",
"                                    [ +.] O.c.-.X.) { %.%.] ' O.-.;.;.;.-.-.| o.%.( Q                                           ",
"                                  ( +.| ( x.c.c.=.{ ) Q { #.X.~ ] o.%.;.%.| o.#.r Q $.8                                         ",
"                                  | %.' O.c.x.x.=.^ ^ { Q C #.%.o.) ) ] ) | [ ( ] ' ] Q                                         ",
"                                Q X.*.[ +.c.c.%.X.Q ' ' C E G _ @.-.&.o.&.| 2 { #.[ O.]                                         ",
"                                ) &.c.%.' x.%.' ] &.x.X.S w.w.4.A ` | } ` E T r [ O.o.X.Q                                       ",
"                                [ =.x.=.( +.( +.x.;.] 6 F h.l.l.d.R U U R g.6.v ] d 3 ) ~                                       ",
"                              / #.;.c.=.X.^ ' -.;.] t : c <.h.p.s.h.h.h.j.j.0.v , s p w e                                       ",
"                              | &.x.c.x.%.( +.x.] i g p & & B V m M N n V B c $ i h g 9 =                                       ",
"                            Q | %.x.x.c.;.) @..., g g h f , < p a p p i p i < : g g g y X                                       ",
"                            ' o.-.:.:.x.;. .] ] 9 g s g h p & 9 i 3 3 < 3 < , , g g p &                                         ",
"                            ) #.;.x.:.x.x.*.X.e = f Z h h Z , F R ,.3.3.3.<.P & p g a 6 -                                       ",
"                          ~  .=.x.:.:.;.x.-.#.X.8 8 f _ h f , L e.s.s.s.s.j.5.k * : d X.w                                       ",
"                          Q O.-.x.x.x.:.x.x.%.+.( @./ y i i P e.a.k.a.a.a.s.g.4.1 6 ~ O.e                                       ",
"                          [ $.;.;.x.x.x.x.x.;.] [ ;._ S G U d.k.k.k.a.k.j.k.j.d.B / ~ $.e                                       ",
"                        w X.&.x.:.x.x.:.;.c.;.Q @.o.Y z.f.j.l.j.k.k.a.k.s.l.k.j.,./ ( %. .$                                     ",
"                        ^ +.;.x.x.:.x.x.:.c.;.( @. .I d.j.j.l.k.k.a.s.s.s.s.s.j.,./ } o.o.*                                     ",
"                        ( %.x.:.x.x.;.;.x.x.o.[ -.[ E j.l.l.k.s.s.a.y.y.k.k.y.p.6.S [ ( $.0                                     ",
"                      W | &.x.x.x.x.;.x.x.x.X.[ %.q 5.l.l.l.k.k.k.y.k.y.y.y.y.y.u.F ) ^ =.]                                     ",
"                      Q O.-.x.x.x.;.;.x.x.x.{ ] %.A g.l.l.l.k.k.y.y.y.y.k.y.y.k.i.V ) ^ =.] =                                   ",
"                      Q o.=.;.x.x.x.x.x.x.x.[ [ #.A f.l.l.l.j.k.k.y.k.y.y.y.y.y.i.V ) ^ ;.O.=                                   ",
"                    8 ~ ] #.;.:.;.x.x.x.c.%.( %.o.A g.l.l.s.u.t.y.y.y.y.k.t.k.k.q.B [ [ O.*.e                                   ",
"                    8 ' ~ ] %.;.x.x.;.x.x.#.^ *.W k w.j.s.i.q.i.k.y.y.t.q.t.k.t.b +  .{ [ *.e                                   ",
"                      ) ' 5 ' *.x.;.;.x.c.#.) -.k S H D 1.0.2.u.r.t.r.r.q.2.K H b 1  .{ e +.) *                                 ",
"                      w o.X.^ Q [ -.x.;.x.o.Q *.C 6.1.>.H b l z z z z z z n ,.K 6.F { %.W o.{ 5                                 ",
"                        W o.+.o.] ' X.-.x.o.^ %.7 N 5.i.q.6.9.e.q.8.8.q.q.9.e.q.,.j { :.^ | W *                                 ",
"                          W | +.&.#.[ ^ o.^ o.=.5 W k x c M 9.8.8.7.7.8.0.J j x 0 # 6 &.^ e ' 6                                 ",
"                            * ( o.;.;.%.( 5 $.&.W Q ~ ~ W - + + + + 2 4 4 0 W W e # $ $.=.+.] -                                 ",
"                              * 7 X.-.x.%.o.-.%.5 Q o.{ W o       # ~ ~ ' O. .^ w o * $.-.%.e                                   ",
"                                  5 [ %.x.x.;.%.5  .x.o.5         # W ' %.;.*.{ *   * #.-._ =                                   ",
"                                    @ 6 ' &.x.&.7 X.*.( #           5 +.;.-.x. .$   - #.] *                                     ",
"                                        # ( +.$.5 o.*.7             5 +.;.;.-.^ o   * ~ -                                       ",
"                                          @ # W W %.o.7             5 X.-.;.$.7       @                                         ",
"                                            # 7 Q ^ W #             - ~ ] [ ( $                                                 ",
"                                            X % * % + .             O $ O % o                                                   ",
"                                            @ < p p t X             % y u t O                                                   ",
"                                              : p p >               O u u ;                                                     ",
"                                              o > ; o               . > > X                                                     ",
"                                                X X                   O O                                                       ",
"                                                                                                                                ",
"                                                                                                                                "
};
