/* XPM */
static char *result[] = {
/* columns rows colors chars-per-pixel */
"64 64 59 1 ",
"  c #463927",
". c #483A27",
"X c #473B2A",
"o c #4A3D2C",
"O c #463E37",
"+ c #493F31",
"@ c #4C402F",
"# c #4D4234",
"$ c #4E453B",
"% c #514537",
"& c #51463B",
"* c #53493D",
"= c #3F434E",
"- c #3F4350",
"; c #474340",
": c #4C4642",
"> c #4E4945",
", c #41444F",
"< c #49474F",
"1 c #4C4A4C",
"2 c #534B43",
"3 c #584F45",
"4 c #534D4B",
"5 c #584F4B",
"6 c #5A5046",
"7 c #56504D",
"8 c #5A524C",
"9 c #424651",
"0 c #464A55",
"q c #4B4C55",
"w c #4A4E59",
"e c #514F55",
"r c #4F5057",
"t c #4D515B",
"y c #545255",
"u c #5A5554",
"i c #5E5854",
"p c #53545C",
"a c #59565B",
"s c #57585F",
"d c #5C595C",
"f c #62584F",
"g c #605751",
"h c #625A55",
"j c #635C5B",
"k c #66615F",
"l c #69615E",
"z c #545660",
"x c #585760",
"c c #565962",
"v c #5C5C63",
"b c #5D5F68",
"n c #615E62",
"m c #5F6169",
"M c #646164",
"N c #696364",
"B c #63636A",
"V c #6A6768",
"C c #6D696C",
/* pixels */
"99,0h#utt000tw00qwwwwttn3&vtwwww000,=99w779=99999900999tC*>t0090",
"99,,s*>ttttwttrwwqwtttvuOjcwtt0w00000900y>0=99900990000cV4&7t090",
"99==ti$pwtwttwwwpwwwtnj+azttwwwww0000090u>09,99900000wtV8r7#7t09",
"9===0M%ptw0rwttwwtwzmnX>nztwwww000000090d*w99000w00000bh@>71$7t-",
",====z2utt0wtrwwttxBj+O&nztwwww00000,90wd&000000000w0zM%ytttr*7w",
"9==-9pi7pttrttttznB5.2d57cwwwwwwww000w0wm*r990900090wm*4tt00rt21",
"e9=-9wn*sppppsppuu*.*aqa5apwwqtww00ww00wv*w00090000tm31twt0twta2",
"#4wqpy2X*>>>*##XoO++au<eu5ztwwtwwwww0ww0v71000w0r0tm6$ptwwwttttv",
"a$>4%XX#>>141ry#Ox3upeeeyuettttwwwwwwwwwci100twwttzk#str0ttttttz",
"si@X#2ppt0w00wpy+25ae<eeqa3ytttwwwrwwwwtbM4w90www-v*uzwttttttttt",
"m7@7ptr000w000ry+*xeqeeq<y82zttwt0wttwttmN4t0wwrwz82zttttttzpztt",
"i@7tww000000000p++xeeeeq1qy:ytwwtwttpcmBM8$vct0tzi*ztrtttttpzppc",
" #pw00009099009r5+aeeeeqqqe5$ztzpcpauy3&##o$dvttz#uzttttttptptmm",
"X#t0090099090000nOueqe<qq1<g%2a4:$$##*4qqr7#X&ya%*mtzzzrtstszms$",
"j*700000990-0000x&ueeeeqeeqeg+o+&5ydptt0wtt7@3$oX2mzzzzzzzpccv*@",
"dk>w900999-0--00p55eeqee<e<<h6+attwwwwwww0tu$BMu*@$yczzzzzssv&@u",
"1s5e99999,999009w72yqqeqeq1<qn&y00900q0qqqwu+xwwtr2$*ucccccy%@ii",
"0yj4q999999999900d%yqeee<<<<1nh2q09990000qwa&p<9-trr4@*ycmyo@ii0",
"11j5q9,,=999,009wd&uqe<q<<q<<yC2t0000wq00wwa&y09w0=-zd*@@*@@6d0r",
"0<yje999-999=9900c*2eeeee<e<<aj+e000000000wv&ew0ww---wmM*XX*y011",
"q<eN6q,,9-,=9909-x5*yewqqqe1qk%&2q90990000wz2109=--w-wtB8o3ar101",
"e<qnhe9,=9=990090wg+geqqeq<qi22v20099999w0wc5:w0-www-wvk@2jeqr10",
"<<1el2q==9999900qwa&jeeeq10a**ttu:q9990000qz5;qww-w-rtB**jaqq1rr",
"q<<qn6y0=99990900qn&jee<e1p6$xr0p*pw-90090wwu:werwtzcM*#jhqeqqr1",
"e<qeaj+nxewwwwwwwqx*jdeeqpu%sp00p2#4pqwwqppxg$xeeu4>&+.3deeqeeq<",
"ee<een35aaaaaaaaped+*iidu5+ubrwwwy+:$::::&$Oo++O+OO::2ogyeqwqeeq",
"eeeq<nf.++++##++++++Xo$%#X3ntw0w0p*ey#%225555+*uappq0x+gpeeeee<e",
"qqeeehlojnnnapeeqeqe4%ptp#5c00w00w4#25dapeeexj*nte00<pO5yweeqeee",
"<eweepC3jnctwwtwq000e2ewte$yw0w000e&2deeeeeeeyh2pwww9eO8peee<eee",
"eeeeepC6ez0qwq0w0009q5:wwp7#rq00qqqy3dpe<eeeeen3>e0w<x+hpetepeee",
"eqqyenC32z9000q000909p#qwpv%$00ww0wp2gpyeeeexag+oO<eexO5peepqeee",
"eeeepnnoOy00000009999z5>pxd%X<ww0wwwa3ptppeag2%Ouu>1an+5xeepepeq",
"yppyaV*4*r000009999-=td#$$%%$#qwwwtwx2yydu3*2yvxptpu72X2ayeeyypp",
"epepmh*su4w00999909=90V@Xyptt$:twwtwcu3ji%&7tw0000w0ps7@%upeeppe",
"pppsk&ywd>t09099999==ti**w999y*qttttzhX+&1tw090000000tci*X*iappy",
"apadi*p0p4r099=9999==v3d7q999w4:tttzb5+4pw-00000000w0twmi+#+2unx",
"nnan*u00t710-99=9-==0u7uy0999=w*ezzna$at00990000ww0wwwpB2an7++3g",
"%5nh*p-==710-999-==9s8p7y909==,e#xnu2yw0990090w0000wwtmh+bq0pq4>",
"e&%%y0=0-y7w--=====9n5p2y0099--94%22tq999009900000w0wcB#up-9-9<0",
"wjo&t90=-t2110===9rp2#4*w9909==,p4Xdt999999900w00wwwwmi$a0=9=90-",
"-p*20999-r7yaur,>2*22% $q990===-qv%ut90-999999000wwwpB3e0-9-9999",
"9w5:q099=r71pa*471rttd%Xe009,=,99ti$t99,,9990000q00wzN2e999-=990",
"9qv#q9999t627aspt0009td22q0999=990d%q,,=-9900900wwtpp*20-9--9999",
"<0n2q9099p7stt00000w00rv%q099==990v349=,9-90w0tty42**%#q---9999,",
",0v310000iytww090000w0wtdOe09-9909pj#qqqrq1142*#$4apzx240-=99099",
",0B3:000t7p00t00ww00w00wn*>w0<9000xh.$$$#@#$$X@3Mvtpttx*q9--9990",
"9wC2$w00a2p00w0rwwwww0wwxj+2eptwtv7o2uupyysvM$jBcttttwzi#q999990",
"payo+4ww77pwr00www00wwwwtg&3**35u2#ictwwrttwm&dpttttwtwv2$q99090",
"u#o###>7$a0t00tww0www0wwd8ksay33@@dtw0-00w0wm*yttttttptzm#>w--0w",
"$+4wwr1:#>r0twwwtwwttt0ci7q1<qqn#$p0wq0ww0twm2>pttttztzzmm%rwwr4",
"x3q99000q*4twwtwwwwttttk3y01<<<j**tw0w0w0ttwm6$pztzttztzsBk*y7#&",
"zue09999,p*rtwwtrttt0tb43q<<q<<j*4w00ww0w0q0mi@yttzzpctppBC*#$4p",
"pd499999=td*rttttttpzcu#u<<<<9<j*y0q0w0ww0wtm*##$:qppptpmj4>rppp",
"pv2,==9-==tk2cttpppspu%5e<<<<<ej*y00t00t0wtmu*mk7:$$>ysu*>yzttpp",
"pb2<99-9=9=tj>p7522*2su7<<<<<<eN*q-ww00000ck*spmczty4&@@>sttttwt",
"tc7;===9-9wr3#$>0yps75851<<<<qej&t0000tt0tM*yt0tttttpB@*sttwtttp",
"tpi@-===1>**1rr990wzb4#5<<<<10yl>0-w00wwwm*4twwtttttsl@ypwtwttps",
"ttd@;$#$:7rw0009909wzc2%510101df4ct0000wm82pwwwtttttm8@mmtwwttpp",
"tpv@X>yppt0ww0009000qwzy2ue01pk*#7sppsya6@4yrw0wttwtB&@*yccsccpp",
"ppm#ymtw0r000000090000wzd2hddk8y7##*>22$$***$*:1rtym8@ @@@#&*ycc",
">4$@7vtw0w0ww09909w000qwav*gj6ssssd7$4ytmittrry7>$*4@@@uay4>*$$$",
"a7$ >vwwww000w9w00wwwwwtwB8.*ctwwwtcmyy2*u-=--=9rry1>$@ymsscmmmy",
"psm*#ctwwwww00wwwwwqwwwwvn+*spwww00-0pvh@y0=-=99-0000py$ytwwwwww",
"--wu@stwwtwwwwwww0wqttwpB*+jzwtww0w00-qm&y099===00==09ci$ywwwww0"
};
